%TF.GenerationSoftware,KiCad,Pcbnew,(6.0.4-0)*%
%TF.CreationDate,2024-03-24T20:00:40+02:00*%
%TF.ProjectId,Project_PCB_v1,50726f6a-6563-4745-9f50-43425f76312e,rev?*%
%TF.SameCoordinates,Original*%
%TF.FileFunction,Copper,L2,Bot*%
%TF.FilePolarity,Positive*%
%FSLAX46Y46*%
G04 Gerber Fmt 4.6, Leading zero omitted, Abs format (unit mm)*
G04 Created by KiCad (PCBNEW (6.0.4-0)) date 2024-03-24 20:00:40*
%MOMM*%
%LPD*%
G01*
G04 APERTURE LIST*
G04 Aperture macros list*
%AMRoundRect*
0 Rectangle with rounded corners*
0 $1 Rounding radius*
0 $2 $3 $4 $5 $6 $7 $8 $9 X,Y pos of 4 corners*
0 Add a 4 corners polygon primitive as box body*
4,1,4,$2,$3,$4,$5,$6,$7,$8,$9,$2,$3,0*
0 Add four circle primitives for the rounded corners*
1,1,$1+$1,$2,$3*
1,1,$1+$1,$4,$5*
1,1,$1+$1,$6,$7*
1,1,$1+$1,$8,$9*
0 Add four rect primitives between the rounded corners*
20,1,$1+$1,$2,$3,$4,$5,0*
20,1,$1+$1,$4,$5,$6,$7,0*
20,1,$1+$1,$6,$7,$8,$9,0*
20,1,$1+$1,$8,$9,$2,$3,0*%
G04 Aperture macros list end*
%TA.AperFunction,NonConductor*%
%ADD10C,0.200000*%
%TD*%
%TA.AperFunction,ComponentPad*%
%ADD11C,2.500000*%
%TD*%
%TA.AperFunction,ComponentPad*%
%ADD12R,1.700000X1.700000*%
%TD*%
%TA.AperFunction,ComponentPad*%
%ADD13O,1.700000X1.700000*%
%TD*%
%TA.AperFunction,ComponentPad*%
%ADD14RoundRect,0.250000X-0.350000X-0.625000X0.350000X-0.625000X0.350000X0.625000X-0.350000X0.625000X0*%
%TD*%
%TA.AperFunction,ComponentPad*%
%ADD15O,1.200000X1.750000*%
%TD*%
%TA.AperFunction,ViaPad*%
%ADD16C,0.800000*%
%TD*%
G04 APERTURE END LIST*
D10*
X117500000Y-82250000D02*
X122250000Y-82250000D01*
X122250000Y-82250000D02*
X122250000Y-90000000D01*
X122250000Y-90000000D02*
X117500000Y-90000000D01*
X117500000Y-90000000D02*
X117500000Y-82250000D01*
D11*
%TO.P,U1,1,1*%
%TO.N,Net-(JP_SB_Bat1-Pad2)*%
X108700025Y-95000000D03*
%TO.P,U1,2,2*%
%TO.N,Net-(JP_SB1-Pad2)*%
X104000000Y-95000000D03*
%TO.P,U1,3,3*%
%TO.N,unconnected-(U1-Pad3)*%
X99299975Y-95000000D03*
%TD*%
D12*
%TO.P,PinCon1,1,Pin_1*%
%TO.N,Motor2_A*%
X93500000Y-74250000D03*
D13*
%TO.P,PinCon1,2,Pin_2*%
%TO.N,PC6-9 PWM1*%
X90960000Y-74250000D03*
%TO.P,PinCon1,3,Pin_3*%
%TO.N,Motor2_B*%
X93500000Y-76790000D03*
%TO.P,PinCon1,4,Pin_4*%
%TO.N,PC6-9 PWM2*%
X90960000Y-76790000D03*
%TO.P,PinCon1,5,Pin_5*%
%TO.N,GND*%
X93500000Y-79330000D03*
%TO.P,PinCon1,6,Pin_6*%
X90960000Y-79330000D03*
%TO.P,PinCon1,7,Pin_7*%
%TO.N,BATT_1*%
X93500000Y-81870000D03*
%TO.P,PinCon1,8,Pin_8*%
X90960000Y-81870000D03*
%TO.P,PinCon1,9,Pin_9*%
%TO.N,Reserve*%
X93500000Y-84410000D03*
%TO.P,PinCon1,10,Pin_10*%
%TO.N,BATT_ADC*%
X90960000Y-84410000D03*
%TO.P,PinCon1,11,Pin_11*%
%TO.N,5V_1*%
X93500000Y-86950000D03*
%TO.P,PinCon1,12,Pin_12*%
X90960000Y-86950000D03*
%TO.P,PinCon1,13,Pin_13*%
%TO.N,Motor1_A*%
X93500000Y-89490000D03*
%TO.P,PinCon1,14,Pin_14*%
%TO.N,PC6-9 PWM3*%
X90960000Y-89490000D03*
%TO.P,PinCon1,15,Pin_15*%
%TO.N,Motor1_B*%
X93500000Y-92030000D03*
%TO.P,PinCon1,16,Pin_16*%
%TO.N,PC6-9 PWM4*%
X90960000Y-92030000D03*
%TD*%
D14*
%TO.P,J2,1,Pin_1*%
%TO.N,Net-(J2-Pad1)*%
X120005000Y-98445000D03*
D15*
%TO.P,J2,2,Pin_2*%
%TO.N,GND*%
X122005000Y-98445000D03*
%TD*%
D16*
%TO.N,GND*%
X107500000Y-76500000D03*
X108465000Y-72500000D03*
X112965000Y-79250000D03*
X88500000Y-87000000D03*
X95965000Y-81500000D03*
X124000000Y-95250000D03*
X115215000Y-71500000D03*
X121465000Y-72250000D03*
X117250000Y-76000000D03*
X105465000Y-84250000D03*
X107465000Y-65250000D03*
%TD*%
%TA.AperFunction,Conductor*%
%TO.N,GND*%
G36*
X124441621Y-63020502D02*
G01*
X124488114Y-63074158D01*
X124499500Y-63126500D01*
X124499500Y-102873500D01*
X124479498Y-102941621D01*
X124425842Y-102988114D01*
X124373500Y-102999500D01*
X104626500Y-102999500D01*
X104558379Y-102979498D01*
X104511886Y-102925842D01*
X104500500Y-102873500D01*
X104500500Y-99508574D01*
X104500502Y-99507804D01*
X104500914Y-99440350D01*
X104500969Y-99431376D01*
X104493007Y-99403518D01*
X104489429Y-99386757D01*
X104486596Y-99366971D01*
X104486596Y-99366970D01*
X104485323Y-99358082D01*
X104474925Y-99335212D01*
X104468477Y-99317688D01*
X104464038Y-99302155D01*
X104464036Y-99302151D01*
X104461572Y-99293529D01*
X104446111Y-99269024D01*
X104437974Y-99253942D01*
X104429702Y-99235748D01*
X104429700Y-99235745D01*
X104425984Y-99227572D01*
X104409581Y-99208536D01*
X104398473Y-99193523D01*
X104385070Y-99172280D01*
X104378341Y-99166337D01*
X104378339Y-99166335D01*
X104363356Y-99153103D01*
X104351310Y-99140909D01*
X104338260Y-99125764D01*
X104333178Y-99119866D01*
X118904500Y-99119866D01*
X118904837Y-99123112D01*
X118904837Y-99123116D01*
X118913701Y-99208537D01*
X118915359Y-99224519D01*
X118970744Y-99390529D01*
X119062834Y-99539345D01*
X119186689Y-99662984D01*
X119335666Y-99754814D01*
X119342614Y-99757119D01*
X119342615Y-99757119D01*
X119495241Y-99807744D01*
X119495243Y-99807745D01*
X119501772Y-99809910D01*
X119605134Y-99820500D01*
X120404866Y-99820500D01*
X120408112Y-99820163D01*
X120408116Y-99820163D01*
X120502661Y-99810353D01*
X120502665Y-99810352D01*
X120509519Y-99809641D01*
X120516055Y-99807460D01*
X120516057Y-99807460D01*
X120668581Y-99756574D01*
X120675529Y-99754256D01*
X120824345Y-99662166D01*
X120947984Y-99538311D01*
X120981087Y-99484608D01*
X121033858Y-99437114D01*
X121103930Y-99425690D01*
X121169054Y-99453963D01*
X121187431Y-99472888D01*
X121195259Y-99482853D01*
X121203499Y-99491506D01*
X121354123Y-99622212D01*
X121363847Y-99629147D01*
X121536467Y-99729010D01*
X121547331Y-99733984D01*
X121735727Y-99799407D01*
X121736716Y-99799648D01*
X121747008Y-99798180D01*
X121751000Y-99784615D01*
X121751000Y-99780402D01*
X122259000Y-99780402D01*
X122262973Y-99793933D01*
X122272399Y-99795288D01*
X122361537Y-99773806D01*
X122372832Y-99769917D01*
X122554382Y-99687371D01*
X122564724Y-99681424D01*
X122727397Y-99566032D01*
X122736425Y-99558239D01*
X122874342Y-99414169D01*
X122881738Y-99404804D01*
X122989921Y-99237259D01*
X122995417Y-99226655D01*
X123069961Y-99041688D01*
X123073355Y-99030230D01*
X123111857Y-98833072D01*
X123112934Y-98824209D01*
X123113000Y-98821500D01*
X123113000Y-98717115D01*
X123108525Y-98701876D01*
X123107135Y-98700671D01*
X123099452Y-98699000D01*
X122277115Y-98699000D01*
X122261876Y-98703475D01*
X122260671Y-98704865D01*
X122259000Y-98712548D01*
X122259000Y-99780402D01*
X121751000Y-99780402D01*
X121751000Y-98172885D01*
X122259000Y-98172885D01*
X122263475Y-98188124D01*
X122264865Y-98189329D01*
X122272548Y-98191000D01*
X123094885Y-98191000D01*
X123110124Y-98186525D01*
X123111329Y-98185135D01*
X123113000Y-98177452D01*
X123113000Y-98120168D01*
X123112715Y-98114192D01*
X123098529Y-97965506D01*
X123096270Y-97953772D01*
X123040128Y-97762401D01*
X123035698Y-97751325D01*
X122944381Y-97574022D01*
X122937931Y-97563976D01*
X122814738Y-97407143D01*
X122806501Y-97398494D01*
X122655877Y-97267788D01*
X122646153Y-97260853D01*
X122473533Y-97160990D01*
X122462669Y-97156016D01*
X122274273Y-97090593D01*
X122273284Y-97090352D01*
X122262992Y-97091820D01*
X122259000Y-97105385D01*
X122259000Y-98172885D01*
X121751000Y-98172885D01*
X121751000Y-97109598D01*
X121747027Y-97096067D01*
X121737601Y-97094712D01*
X121648463Y-97116194D01*
X121637168Y-97120083D01*
X121455618Y-97202629D01*
X121445276Y-97208576D01*
X121282603Y-97323968D01*
X121273575Y-97331761D01*
X121180751Y-97428726D01*
X121119196Y-97464102D01*
X121048286Y-97460583D01*
X120990536Y-97419286D01*
X120982589Y-97407898D01*
X120951020Y-97356883D01*
X120947166Y-97350655D01*
X120823311Y-97227016D01*
X120674334Y-97135186D01*
X120617076Y-97116194D01*
X120514759Y-97082256D01*
X120514757Y-97082255D01*
X120508228Y-97080090D01*
X120404866Y-97069500D01*
X119605134Y-97069500D01*
X119601888Y-97069837D01*
X119601884Y-97069837D01*
X119507339Y-97079647D01*
X119507335Y-97079648D01*
X119500481Y-97080359D01*
X119493945Y-97082540D01*
X119493943Y-97082540D01*
X119393070Y-97116194D01*
X119334471Y-97135744D01*
X119185655Y-97227834D01*
X119062016Y-97351689D01*
X118970186Y-97500666D01*
X118967881Y-97507614D01*
X118967881Y-97507615D01*
X118949187Y-97563976D01*
X118915090Y-97666772D01*
X118904500Y-97770134D01*
X118904500Y-99119866D01*
X104333178Y-99119866D01*
X104332400Y-99118963D01*
X104311314Y-99105296D01*
X104296444Y-99094009D01*
X104284338Y-99083317D01*
X104284337Y-99083317D01*
X104277612Y-99077377D01*
X104251391Y-99065066D01*
X104236413Y-99056746D01*
X104219631Y-99045869D01*
X104219628Y-99045868D01*
X104212095Y-99040985D01*
X104188019Y-99033785D01*
X104170589Y-99027129D01*
X104147837Y-99016447D01*
X104119213Y-99011990D01*
X104102495Y-99008207D01*
X104083340Y-99002478D01*
X104083332Y-99002477D01*
X104074739Y-98999907D01*
X104065768Y-98999852D01*
X104065767Y-98999852D01*
X104061038Y-98999823D01*
X104040818Y-98999699D01*
X104040075Y-98999668D01*
X104038991Y-98999500D01*
X104008574Y-98999500D01*
X104007804Y-98999498D01*
X104007191Y-98999494D01*
X103931376Y-98999031D01*
X103930047Y-98999411D01*
X103928737Y-98999500D01*
X86626500Y-98999500D01*
X86558379Y-98979498D01*
X86511886Y-98925842D01*
X86500500Y-98873500D01*
X86500500Y-94954049D01*
X97545169Y-94954049D01*
X97557652Y-95213930D01*
X97608410Y-95469112D01*
X97696330Y-95713989D01*
X97819479Y-95943180D01*
X97822274Y-95946923D01*
X97822276Y-95946926D01*
X97972360Y-96147913D01*
X97972365Y-96147919D01*
X97975152Y-96151651D01*
X97978461Y-96154931D01*
X97978466Y-96154937D01*
X98079478Y-96255071D01*
X98159929Y-96334823D01*
X98163691Y-96337581D01*
X98163694Y-96337584D01*
X98276307Y-96420155D01*
X98369750Y-96488670D01*
X98373885Y-96490846D01*
X98373889Y-96490848D01*
X98499749Y-96557066D01*
X98600008Y-96609815D01*
X98845642Y-96695594D01*
X98850235Y-96696466D01*
X99096668Y-96743253D01*
X99096671Y-96743253D01*
X99101257Y-96744124D01*
X99231248Y-96749232D01*
X99356570Y-96754156D01*
X99356576Y-96754156D01*
X99361238Y-96754339D01*
X99462464Y-96743253D01*
X99615220Y-96726524D01*
X99615225Y-96726523D01*
X99619873Y-96726014D01*
X99624397Y-96724823D01*
X99866957Y-96660962D01*
X99866959Y-96660961D01*
X99871480Y-96659771D01*
X100110532Y-96557066D01*
X100331778Y-96420155D01*
X100530357Y-96252046D01*
X100701906Y-96056431D01*
X100842658Y-95837608D01*
X100949519Y-95600385D01*
X100950789Y-95595882D01*
X101018873Y-95354476D01*
X101018874Y-95354473D01*
X101020143Y-95349972D01*
X101036866Y-95218518D01*
X101052579Y-95095001D01*
X101052579Y-95094997D01*
X101052977Y-95091871D01*
X101055383Y-95000000D01*
X101051968Y-94954049D01*
X102245194Y-94954049D01*
X102257677Y-95213930D01*
X102308435Y-95469112D01*
X102396355Y-95713989D01*
X102519504Y-95943180D01*
X102522299Y-95946923D01*
X102522301Y-95946926D01*
X102672385Y-96147913D01*
X102672390Y-96147919D01*
X102675177Y-96151651D01*
X102678486Y-96154931D01*
X102678491Y-96154937D01*
X102779503Y-96255071D01*
X102859954Y-96334823D01*
X102863716Y-96337581D01*
X102863719Y-96337584D01*
X102976332Y-96420155D01*
X103069775Y-96488670D01*
X103073910Y-96490846D01*
X103073914Y-96490848D01*
X103199774Y-96557066D01*
X103300033Y-96609815D01*
X103545667Y-96695594D01*
X103550260Y-96696466D01*
X103796693Y-96743253D01*
X103796696Y-96743253D01*
X103801282Y-96744124D01*
X103931273Y-96749232D01*
X104056595Y-96754156D01*
X104056601Y-96754156D01*
X104061263Y-96754339D01*
X104162489Y-96743253D01*
X104315245Y-96726524D01*
X104315250Y-96726523D01*
X104319898Y-96726014D01*
X104324422Y-96724823D01*
X104566982Y-96660962D01*
X104566984Y-96660961D01*
X104571505Y-96659771D01*
X104810557Y-96557066D01*
X105031803Y-96420155D01*
X105230382Y-96252046D01*
X105401931Y-96056431D01*
X105542683Y-95837608D01*
X105649544Y-95600385D01*
X105650814Y-95595882D01*
X105718898Y-95354476D01*
X105718899Y-95354473D01*
X105720168Y-95349972D01*
X105736891Y-95218518D01*
X105752604Y-95095001D01*
X105752604Y-95094997D01*
X105753002Y-95091871D01*
X105755408Y-95000000D01*
X105751993Y-94954049D01*
X106945219Y-94954049D01*
X106957702Y-95213930D01*
X107008460Y-95469112D01*
X107096380Y-95713989D01*
X107219529Y-95943180D01*
X107222324Y-95946923D01*
X107222326Y-95946926D01*
X107372410Y-96147913D01*
X107372415Y-96147919D01*
X107375202Y-96151651D01*
X107378511Y-96154931D01*
X107378516Y-96154937D01*
X107479528Y-96255071D01*
X107559979Y-96334823D01*
X107563741Y-96337581D01*
X107563744Y-96337584D01*
X107676357Y-96420155D01*
X107769800Y-96488670D01*
X107773935Y-96490846D01*
X107773939Y-96490848D01*
X107899799Y-96557066D01*
X108000058Y-96609815D01*
X108245692Y-96695594D01*
X108250285Y-96696466D01*
X108496718Y-96743253D01*
X108496721Y-96743253D01*
X108501307Y-96744124D01*
X108631298Y-96749232D01*
X108756620Y-96754156D01*
X108756626Y-96754156D01*
X108761288Y-96754339D01*
X108862514Y-96743253D01*
X109015270Y-96726524D01*
X109015275Y-96726523D01*
X109019923Y-96726014D01*
X109024447Y-96724823D01*
X109267007Y-96660962D01*
X109267009Y-96660961D01*
X109271530Y-96659771D01*
X109510582Y-96557066D01*
X109731828Y-96420155D01*
X109930407Y-96252046D01*
X110101956Y-96056431D01*
X110242708Y-95837608D01*
X110349569Y-95600385D01*
X110350839Y-95595882D01*
X110418923Y-95354476D01*
X110418924Y-95354473D01*
X110420193Y-95349972D01*
X110436916Y-95218518D01*
X110452629Y-95095001D01*
X110452629Y-95094997D01*
X110453027Y-95091871D01*
X110455433Y-95000000D01*
X110436151Y-94740534D01*
X110378730Y-94486768D01*
X110377037Y-94482414D01*
X110286123Y-94248630D01*
X110286122Y-94248628D01*
X110284430Y-94244277D01*
X110155324Y-94018388D01*
X109994248Y-93814064D01*
X109804739Y-93635792D01*
X109590962Y-93487489D01*
X109586772Y-93485423D01*
X109586769Y-93485421D01*
X109361800Y-93374479D01*
X109361797Y-93374478D01*
X109357612Y-93372414D01*
X109109817Y-93293094D01*
X108969594Y-93270257D01*
X108857631Y-93252023D01*
X108857630Y-93252023D01*
X108853019Y-93251272D01*
X108722940Y-93249569D01*
X108597537Y-93247927D01*
X108597534Y-93247927D01*
X108592860Y-93247866D01*
X108335055Y-93282952D01*
X108085268Y-93355758D01*
X108081015Y-93357718D01*
X108081014Y-93357719D01*
X108044659Y-93374479D01*
X107848986Y-93464686D01*
X107845081Y-93467246D01*
X107845076Y-93467249D01*
X107635313Y-93604775D01*
X107635308Y-93604779D01*
X107631400Y-93607341D01*
X107437290Y-93780591D01*
X107270920Y-93980629D01*
X107135945Y-94203061D01*
X107134136Y-94207375D01*
X107134135Y-94207377D01*
X107120363Y-94240221D01*
X107035330Y-94443001D01*
X106971286Y-94695177D01*
X106945219Y-94954049D01*
X105751993Y-94954049D01*
X105736126Y-94740534D01*
X105678705Y-94486768D01*
X105677012Y-94482414D01*
X105586098Y-94248630D01*
X105586097Y-94248628D01*
X105584405Y-94244277D01*
X105455299Y-94018388D01*
X105294223Y-93814064D01*
X105104714Y-93635792D01*
X104890937Y-93487489D01*
X104886747Y-93485423D01*
X104886744Y-93485421D01*
X104661775Y-93374479D01*
X104661772Y-93374478D01*
X104657587Y-93372414D01*
X104409792Y-93293094D01*
X104269569Y-93270257D01*
X104157606Y-93252023D01*
X104157605Y-93252023D01*
X104152994Y-93251272D01*
X104022915Y-93249569D01*
X103897512Y-93247927D01*
X103897509Y-93247927D01*
X103892835Y-93247866D01*
X103635030Y-93282952D01*
X103385243Y-93355758D01*
X103380990Y-93357718D01*
X103380989Y-93357719D01*
X103344634Y-93374479D01*
X103148961Y-93464686D01*
X103145056Y-93467246D01*
X103145051Y-93467249D01*
X102935288Y-93604775D01*
X102935283Y-93604779D01*
X102931375Y-93607341D01*
X102737265Y-93780591D01*
X102570895Y-93980629D01*
X102435920Y-94203061D01*
X102434111Y-94207375D01*
X102434110Y-94207377D01*
X102420338Y-94240221D01*
X102335305Y-94443001D01*
X102271261Y-94695177D01*
X102245194Y-94954049D01*
X101051968Y-94954049D01*
X101036101Y-94740534D01*
X100978680Y-94486768D01*
X100976987Y-94482414D01*
X100886073Y-94248630D01*
X100886072Y-94248628D01*
X100884380Y-94244277D01*
X100755274Y-94018388D01*
X100594198Y-93814064D01*
X100404689Y-93635792D01*
X100190912Y-93487489D01*
X100186722Y-93485423D01*
X100186719Y-93485421D01*
X99961750Y-93374479D01*
X99961747Y-93374478D01*
X99957562Y-93372414D01*
X99709767Y-93293094D01*
X99569544Y-93270257D01*
X99457581Y-93252023D01*
X99457580Y-93252023D01*
X99452969Y-93251272D01*
X99322890Y-93249569D01*
X99197487Y-93247927D01*
X99197484Y-93247927D01*
X99192810Y-93247866D01*
X98935005Y-93282952D01*
X98685218Y-93355758D01*
X98680965Y-93357718D01*
X98680964Y-93357719D01*
X98644609Y-93374479D01*
X98448936Y-93464686D01*
X98445031Y-93467246D01*
X98445026Y-93467249D01*
X98235263Y-93604775D01*
X98235258Y-93604779D01*
X98231350Y-93607341D01*
X98037240Y-93780591D01*
X97870870Y-93980629D01*
X97735895Y-94203061D01*
X97734086Y-94207375D01*
X97734085Y-94207377D01*
X97720313Y-94240221D01*
X97635280Y-94443001D01*
X97571236Y-94695177D01*
X97545169Y-94954049D01*
X86500500Y-94954049D01*
X86500500Y-92030000D01*
X89604341Y-92030000D01*
X89624937Y-92265408D01*
X89686097Y-92493663D01*
X89688419Y-92498643D01*
X89688420Y-92498645D01*
X89770121Y-92673851D01*
X89785965Y-92707829D01*
X89921505Y-92901401D01*
X90088599Y-93068495D01*
X90093107Y-93071652D01*
X90093110Y-93071654D01*
X90277661Y-93200878D01*
X90282170Y-93204035D01*
X90287152Y-93206358D01*
X90287157Y-93206361D01*
X90491355Y-93301580D01*
X90496337Y-93303903D01*
X90501645Y-93305325D01*
X90501647Y-93305326D01*
X90697183Y-93357719D01*
X90724592Y-93365063D01*
X90960000Y-93385659D01*
X91195408Y-93365063D01*
X91222817Y-93357719D01*
X91418353Y-93305326D01*
X91418355Y-93305325D01*
X91423663Y-93303903D01*
X91428645Y-93301580D01*
X91632843Y-93206361D01*
X91632848Y-93206358D01*
X91637830Y-93204035D01*
X91642339Y-93200878D01*
X91826890Y-93071654D01*
X91826893Y-93071652D01*
X91831401Y-93068495D01*
X91998495Y-92901401D01*
X92126787Y-92718180D01*
X92182244Y-92673851D01*
X92252863Y-92666542D01*
X92316224Y-92698572D01*
X92333212Y-92718179D01*
X92461505Y-92901401D01*
X92628599Y-93068495D01*
X92633107Y-93071652D01*
X92633110Y-93071654D01*
X92817661Y-93200878D01*
X92822170Y-93204035D01*
X92827152Y-93206358D01*
X92827157Y-93206361D01*
X93031355Y-93301580D01*
X93036337Y-93303903D01*
X93041645Y-93305325D01*
X93041647Y-93305326D01*
X93237183Y-93357719D01*
X93264592Y-93365063D01*
X93500000Y-93385659D01*
X93735408Y-93365063D01*
X93762817Y-93357719D01*
X93958353Y-93305326D01*
X93958355Y-93305325D01*
X93963663Y-93303903D01*
X93968645Y-93301580D01*
X94172843Y-93206361D01*
X94172848Y-93206358D01*
X94177830Y-93204035D01*
X94182339Y-93200878D01*
X94366890Y-93071654D01*
X94366893Y-93071652D01*
X94371401Y-93068495D01*
X94538495Y-92901401D01*
X94674035Y-92707829D01*
X94689880Y-92673851D01*
X94771580Y-92498645D01*
X94771581Y-92498643D01*
X94773903Y-92493663D01*
X94835063Y-92265408D01*
X94855659Y-92030000D01*
X94835063Y-91794592D01*
X94773903Y-91566337D01*
X94693288Y-91393458D01*
X94676358Y-91357152D01*
X94676356Y-91357149D01*
X94674035Y-91352171D01*
X94538495Y-91158599D01*
X94371401Y-90991505D01*
X94366893Y-90988348D01*
X94366890Y-90988346D01*
X94239408Y-90899082D01*
X94188181Y-90863213D01*
X94143853Y-90807756D01*
X94136544Y-90737137D01*
X94168575Y-90673776D01*
X94188181Y-90656787D01*
X94366890Y-90531654D01*
X94366893Y-90531652D01*
X94371401Y-90528495D01*
X94538495Y-90361401D01*
X94674035Y-90167829D01*
X94689880Y-90133851D01*
X94752296Y-90000000D01*
X116894318Y-90000000D01*
X116899500Y-90039361D01*
X116914956Y-90156762D01*
X116975464Y-90302841D01*
X117071718Y-90428282D01*
X117197159Y-90524536D01*
X117343238Y-90585044D01*
X117500000Y-90605682D01*
X117508188Y-90604604D01*
X117531173Y-90601578D01*
X117547619Y-90600500D01*
X122202381Y-90600500D01*
X122218827Y-90601578D01*
X122250000Y-90605682D01*
X122258188Y-90604604D01*
X122289361Y-90600500D01*
X122398574Y-90586122D01*
X122406762Y-90585044D01*
X122552841Y-90524536D01*
X122678282Y-90428282D01*
X122774536Y-90302841D01*
X122835044Y-90156762D01*
X122855682Y-90000000D01*
X122851578Y-89968827D01*
X122850500Y-89952381D01*
X122850500Y-82297619D01*
X122851578Y-82281173D01*
X122854604Y-82258188D01*
X122855682Y-82250000D01*
X122835044Y-82093238D01*
X122774536Y-81947159D01*
X122678282Y-81821718D01*
X122552841Y-81725464D01*
X122406762Y-81664956D01*
X122289361Y-81649500D01*
X122250000Y-81644318D01*
X122241812Y-81645396D01*
X122218827Y-81648422D01*
X122202381Y-81649500D01*
X117547619Y-81649500D01*
X117531173Y-81648422D01*
X117508188Y-81645396D01*
X117500000Y-81644318D01*
X117460639Y-81649500D01*
X117343238Y-81664956D01*
X117197159Y-81725464D01*
X117071718Y-81821718D01*
X116975464Y-81947159D01*
X116914956Y-82093238D01*
X116894318Y-82250000D01*
X116895396Y-82258188D01*
X116898422Y-82281173D01*
X116899500Y-82297619D01*
X116899500Y-89952381D01*
X116898422Y-89968827D01*
X116894318Y-90000000D01*
X94752296Y-90000000D01*
X94771580Y-89958645D01*
X94771581Y-89958643D01*
X94773903Y-89953663D01*
X94835063Y-89725408D01*
X94855659Y-89490000D01*
X94835063Y-89254592D01*
X94773903Y-89026337D01*
X94693288Y-88853458D01*
X94676358Y-88817152D01*
X94676356Y-88817149D01*
X94674035Y-88812171D01*
X94538495Y-88618599D01*
X94371401Y-88451505D01*
X94366893Y-88448348D01*
X94366890Y-88448346D01*
X94193084Y-88326646D01*
X94188181Y-88323213D01*
X94143853Y-88267756D01*
X94136544Y-88197137D01*
X94168575Y-88133776D01*
X94188181Y-88116787D01*
X94366890Y-87991654D01*
X94366893Y-87991652D01*
X94371401Y-87988495D01*
X94538495Y-87821401D01*
X94674035Y-87627829D01*
X94689880Y-87593851D01*
X94771580Y-87418645D01*
X94771581Y-87418643D01*
X94773903Y-87413663D01*
X94791565Y-87347749D01*
X94833639Y-87190723D01*
X94833639Y-87190722D01*
X94835063Y-87185408D01*
X94855659Y-86950000D01*
X94835063Y-86714592D01*
X94773903Y-86486337D01*
X94693288Y-86313458D01*
X94676358Y-86277152D01*
X94676356Y-86277149D01*
X94674035Y-86272171D01*
X94538495Y-86078599D01*
X94371401Y-85911505D01*
X94366893Y-85908348D01*
X94366890Y-85908346D01*
X94239408Y-85819082D01*
X94188181Y-85783213D01*
X94143853Y-85727756D01*
X94136544Y-85657137D01*
X94168575Y-85593776D01*
X94188181Y-85576787D01*
X94366890Y-85451654D01*
X94366893Y-85451652D01*
X94371401Y-85448495D01*
X94538495Y-85281401D01*
X94674035Y-85087829D01*
X94689880Y-85053851D01*
X94771580Y-84878645D01*
X94771581Y-84878643D01*
X94773903Y-84873663D01*
X94835063Y-84645408D01*
X94855659Y-84410000D01*
X94835063Y-84174592D01*
X94828180Y-84148903D01*
X94775326Y-83951647D01*
X94775325Y-83951645D01*
X94773903Y-83946337D01*
X94739216Y-83871951D01*
X94676358Y-83737152D01*
X94676356Y-83737149D01*
X94674035Y-83732171D01*
X94538495Y-83538599D01*
X94371401Y-83371505D01*
X94366893Y-83368348D01*
X94366890Y-83368346D01*
X94239408Y-83279082D01*
X94188181Y-83243213D01*
X94143853Y-83187756D01*
X94136544Y-83117137D01*
X94168575Y-83053776D01*
X94188181Y-83036787D01*
X94366890Y-82911654D01*
X94366893Y-82911652D01*
X94371401Y-82908495D01*
X94538495Y-82741401D01*
X94674035Y-82547829D01*
X94689880Y-82513851D01*
X94771580Y-82338645D01*
X94771581Y-82338643D01*
X94773903Y-82333663D01*
X94787968Y-82281173D01*
X94833639Y-82110723D01*
X94833639Y-82110722D01*
X94835063Y-82105408D01*
X94855659Y-81870000D01*
X94835063Y-81634592D01*
X94773903Y-81406337D01*
X94693288Y-81233458D01*
X94676358Y-81197152D01*
X94676356Y-81197149D01*
X94674035Y-81192171D01*
X94538495Y-80998599D01*
X94371401Y-80831505D01*
X94366893Y-80828348D01*
X94366890Y-80828346D01*
X94195336Y-80708223D01*
X94151008Y-80652766D01*
X94143699Y-80582147D01*
X94175730Y-80518786D01*
X94198019Y-80500860D01*
X94197737Y-80500465D01*
X94375328Y-80373792D01*
X94383200Y-80367139D01*
X94534052Y-80216812D01*
X94540730Y-80208965D01*
X94665003Y-80036020D01*
X94670313Y-80027183D01*
X94764670Y-79836267D01*
X94768469Y-79826672D01*
X94830377Y-79622910D01*
X94832555Y-79612837D01*
X94833986Y-79601962D01*
X94831775Y-79587778D01*
X94818617Y-79584000D01*
X89643225Y-79584000D01*
X89629694Y-79587973D01*
X89628257Y-79597966D01*
X89658565Y-79732446D01*
X89661645Y-79742275D01*
X89741770Y-79939603D01*
X89746413Y-79948794D01*
X89857694Y-80130388D01*
X89863777Y-80138699D01*
X90003213Y-80299667D01*
X90010580Y-80306883D01*
X90174434Y-80442916D01*
X90182876Y-80448828D01*
X90259612Y-80493669D01*
X90308335Y-80545308D01*
X90321406Y-80615091D01*
X90294674Y-80680863D01*
X90268312Y-80705669D01*
X90088599Y-80831505D01*
X89921505Y-80998599D01*
X89785965Y-81192171D01*
X89783644Y-81197149D01*
X89783642Y-81197152D01*
X89766712Y-81233458D01*
X89686097Y-81406337D01*
X89624937Y-81634592D01*
X89604341Y-81870000D01*
X89624937Y-82105408D01*
X89626361Y-82110722D01*
X89626361Y-82110723D01*
X89672033Y-82281173D01*
X89686097Y-82333663D01*
X89688419Y-82338643D01*
X89688420Y-82338645D01*
X89770121Y-82513851D01*
X89785965Y-82547829D01*
X89921505Y-82741401D01*
X90088599Y-82908495D01*
X90093107Y-82911652D01*
X90093110Y-82911654D01*
X90271820Y-83036788D01*
X90316148Y-83092245D01*
X90323457Y-83162865D01*
X90291426Y-83226225D01*
X90271822Y-83243211D01*
X90088599Y-83371505D01*
X89921505Y-83538599D01*
X89785965Y-83732171D01*
X89783644Y-83737149D01*
X89783642Y-83737152D01*
X89720784Y-83871951D01*
X89686097Y-83946337D01*
X89684675Y-83951645D01*
X89684674Y-83951647D01*
X89631820Y-84148903D01*
X89624937Y-84174592D01*
X89604341Y-84410000D01*
X89624937Y-84645408D01*
X89686097Y-84873663D01*
X89688419Y-84878643D01*
X89688420Y-84878645D01*
X89770121Y-85053851D01*
X89785965Y-85087829D01*
X89921505Y-85281401D01*
X90088599Y-85448495D01*
X90093107Y-85451652D01*
X90093110Y-85451654D01*
X90271820Y-85576788D01*
X90316148Y-85632245D01*
X90323457Y-85702865D01*
X90291426Y-85766225D01*
X90271822Y-85783211D01*
X90088599Y-85911505D01*
X89921505Y-86078599D01*
X89785965Y-86272171D01*
X89783644Y-86277149D01*
X89783642Y-86277152D01*
X89766712Y-86313458D01*
X89686097Y-86486337D01*
X89624937Y-86714592D01*
X89604341Y-86950000D01*
X89624937Y-87185408D01*
X89626361Y-87190722D01*
X89626361Y-87190723D01*
X89668436Y-87347749D01*
X89686097Y-87413663D01*
X89688419Y-87418643D01*
X89688420Y-87418645D01*
X89770121Y-87593851D01*
X89785965Y-87627829D01*
X89921505Y-87821401D01*
X90088599Y-87988495D01*
X90093107Y-87991652D01*
X90093110Y-87991654D01*
X90271820Y-88116788D01*
X90316148Y-88172245D01*
X90323457Y-88242865D01*
X90291426Y-88306225D01*
X90271822Y-88323211D01*
X90088599Y-88451505D01*
X89921505Y-88618599D01*
X89785965Y-88812171D01*
X89783644Y-88817149D01*
X89783642Y-88817152D01*
X89766712Y-88853458D01*
X89686097Y-89026337D01*
X89624937Y-89254592D01*
X89604341Y-89490000D01*
X89624937Y-89725408D01*
X89686097Y-89953663D01*
X89688419Y-89958643D01*
X89688420Y-89958645D01*
X89770121Y-90133851D01*
X89785965Y-90167829D01*
X89921505Y-90361401D01*
X90088599Y-90528495D01*
X90093107Y-90531652D01*
X90093110Y-90531654D01*
X90271820Y-90656788D01*
X90316148Y-90712245D01*
X90323457Y-90782865D01*
X90291426Y-90846225D01*
X90271822Y-90863211D01*
X90088599Y-90991505D01*
X89921505Y-91158599D01*
X89785965Y-91352171D01*
X89783644Y-91357149D01*
X89783642Y-91357152D01*
X89766712Y-91393458D01*
X89686097Y-91566337D01*
X89624937Y-91794592D01*
X89604341Y-92030000D01*
X86500500Y-92030000D01*
X86500500Y-76790000D01*
X89604341Y-76790000D01*
X89624937Y-77025408D01*
X89686097Y-77253663D01*
X89688419Y-77258643D01*
X89688420Y-77258645D01*
X89770121Y-77433851D01*
X89785965Y-77467829D01*
X89921505Y-77661401D01*
X90088599Y-77828495D01*
X90093107Y-77831652D01*
X90093110Y-77831654D01*
X90265880Y-77952629D01*
X90310208Y-78008086D01*
X90317517Y-78078706D01*
X90285486Y-78142066D01*
X90251790Y-78167605D01*
X90238458Y-78174545D01*
X90229738Y-78180036D01*
X90059433Y-78307905D01*
X90051726Y-78314748D01*
X89904590Y-78468717D01*
X89898104Y-78476727D01*
X89778098Y-78652649D01*
X89773000Y-78661623D01*
X89683338Y-78854783D01*
X89679775Y-78864470D01*
X89624389Y-79064183D01*
X89625912Y-79072607D01*
X89638292Y-79076000D01*
X94818344Y-79076000D01*
X94831875Y-79072027D01*
X94833180Y-79062947D01*
X94791214Y-78895875D01*
X94787894Y-78886124D01*
X94702972Y-78690814D01*
X94698105Y-78681739D01*
X94582426Y-78502926D01*
X94576136Y-78494757D01*
X94432806Y-78337240D01*
X94425273Y-78330215D01*
X94258139Y-78198222D01*
X94249557Y-78192520D01*
X94203863Y-78167296D01*
X94153892Y-78116864D01*
X94139120Y-78047421D01*
X94164236Y-77981015D01*
X94192485Y-77953774D01*
X94366890Y-77831654D01*
X94366893Y-77831652D01*
X94371401Y-77828495D01*
X94538495Y-77661401D01*
X94674035Y-77467829D01*
X94689880Y-77433851D01*
X94771580Y-77258645D01*
X94771581Y-77258643D01*
X94773903Y-77253663D01*
X94835063Y-77025408D01*
X94855659Y-76790000D01*
X94835063Y-76554592D01*
X94773903Y-76326337D01*
X94693288Y-76153458D01*
X94676358Y-76117152D01*
X94676356Y-76117149D01*
X94674035Y-76112171D01*
X94538495Y-75918599D01*
X94418885Y-75798989D01*
X94384859Y-75736677D01*
X94389924Y-75665862D01*
X94432471Y-75609026D01*
X94463752Y-75591912D01*
X94584419Y-75546677D01*
X94584420Y-75546676D01*
X94592824Y-75543526D01*
X94600003Y-75538146D01*
X94600006Y-75538144D01*
X94700365Y-75462928D01*
X94707546Y-75457546D01*
X94725361Y-75433776D01*
X94788144Y-75350006D01*
X94788146Y-75350003D01*
X94793526Y-75342824D01*
X94843851Y-75208580D01*
X94846688Y-75182471D01*
X94850131Y-75150774D01*
X94850131Y-75150773D01*
X94850500Y-75147377D01*
X94850499Y-73352624D01*
X94843851Y-73291420D01*
X94793526Y-73157176D01*
X94788146Y-73149997D01*
X94788144Y-73149994D01*
X94712928Y-73049635D01*
X94707546Y-73042454D01*
X94700365Y-73037072D01*
X94600006Y-72961856D01*
X94600003Y-72961854D01*
X94592824Y-72956474D01*
X94485821Y-72916361D01*
X94465975Y-72908921D01*
X94465973Y-72908921D01*
X94458580Y-72906149D01*
X94450730Y-72905296D01*
X94450729Y-72905296D01*
X94400774Y-72899869D01*
X94400773Y-72899869D01*
X94397377Y-72899500D01*
X93500132Y-72899500D01*
X92602624Y-72899501D01*
X92599230Y-72899870D01*
X92599224Y-72899870D01*
X92549278Y-72905295D01*
X92549274Y-72905296D01*
X92541420Y-72906149D01*
X92407176Y-72956474D01*
X92399997Y-72961854D01*
X92399994Y-72961856D01*
X92299635Y-73037072D01*
X92292454Y-73042454D01*
X92287072Y-73049635D01*
X92211856Y-73149994D01*
X92211854Y-73149997D01*
X92206474Y-73157176D01*
X92203324Y-73165580D01*
X92203323Y-73165581D01*
X92186107Y-73211505D01*
X92158924Y-73284019D01*
X92158088Y-73286248D01*
X92115447Y-73343013D01*
X92048886Y-73367714D01*
X91979537Y-73352507D01*
X91951011Y-73331115D01*
X91831401Y-73211505D01*
X91826893Y-73208348D01*
X91826890Y-73208346D01*
X91642339Y-73079122D01*
X91642336Y-73079120D01*
X91637830Y-73075965D01*
X91632848Y-73073642D01*
X91632843Y-73073639D01*
X91428645Y-72978420D01*
X91428644Y-72978419D01*
X91423663Y-72976097D01*
X91418355Y-72974675D01*
X91418353Y-72974674D01*
X91200723Y-72916361D01*
X91200722Y-72916361D01*
X91195408Y-72914937D01*
X90960000Y-72894341D01*
X90724592Y-72914937D01*
X90719278Y-72916361D01*
X90719277Y-72916361D01*
X90501647Y-72974674D01*
X90501645Y-72974675D01*
X90496337Y-72976097D01*
X90491357Y-72978419D01*
X90491355Y-72978420D01*
X90287152Y-73073642D01*
X90287149Y-73073644D01*
X90282171Y-73075965D01*
X90088599Y-73211505D01*
X89921505Y-73378599D01*
X89785965Y-73572171D01*
X89686097Y-73786337D01*
X89624937Y-74014592D01*
X89604341Y-74250000D01*
X89624937Y-74485408D01*
X89686097Y-74713663D01*
X89785965Y-74927829D01*
X89921505Y-75121401D01*
X90088599Y-75288495D01*
X90093107Y-75291652D01*
X90093110Y-75291654D01*
X90271820Y-75416788D01*
X90316148Y-75472245D01*
X90323457Y-75542865D01*
X90291426Y-75606225D01*
X90271822Y-75623211D01*
X90088599Y-75751505D01*
X89921505Y-75918599D01*
X89785965Y-76112171D01*
X89783644Y-76117149D01*
X89783642Y-76117152D01*
X89766712Y-76153458D01*
X89686097Y-76326337D01*
X89624937Y-76554592D01*
X89604341Y-76790000D01*
X86500500Y-76790000D01*
X86500500Y-67126500D01*
X86520502Y-67058379D01*
X86574158Y-67011886D01*
X86626500Y-67000500D01*
X103991426Y-67000500D01*
X103992197Y-67000502D01*
X104068624Y-67000969D01*
X104096482Y-66993007D01*
X104113241Y-66989429D01*
X104122644Y-66988083D01*
X104133029Y-66986596D01*
X104133030Y-66986596D01*
X104141918Y-66985323D01*
X104150092Y-66981607D01*
X104150094Y-66981606D01*
X104164788Y-66974925D01*
X104182312Y-66968477D01*
X104197845Y-66964038D01*
X104197849Y-66964036D01*
X104206471Y-66961572D01*
X104230975Y-66946111D01*
X104246058Y-66937974D01*
X104264252Y-66929702D01*
X104264255Y-66929700D01*
X104272428Y-66925984D01*
X104291464Y-66909581D01*
X104306477Y-66898473D01*
X104327720Y-66885070D01*
X104333663Y-66878341D01*
X104333665Y-66878339D01*
X104346897Y-66863356D01*
X104359091Y-66851310D01*
X104374236Y-66838260D01*
X104381037Y-66832400D01*
X104394704Y-66811314D01*
X104405991Y-66796444D01*
X104416683Y-66784338D01*
X104416683Y-66784337D01*
X104422623Y-66777612D01*
X104434934Y-66751391D01*
X104443254Y-66736413D01*
X104454131Y-66719631D01*
X104454132Y-66719628D01*
X104459015Y-66712095D01*
X104466215Y-66688019D01*
X104472871Y-66670589D01*
X104483553Y-66647837D01*
X104488010Y-66619213D01*
X104491793Y-66602495D01*
X104497522Y-66583340D01*
X104497523Y-66583332D01*
X104500093Y-66574739D01*
X104500301Y-66540818D01*
X104500332Y-66540075D01*
X104500500Y-66538991D01*
X104500500Y-66508574D01*
X104500502Y-66507804D01*
X104500788Y-66461009D01*
X104500969Y-66431376D01*
X104500589Y-66430047D01*
X104500500Y-66428737D01*
X104500500Y-63126500D01*
X104520502Y-63058379D01*
X104574158Y-63011886D01*
X104626500Y-63000500D01*
X124373500Y-63000500D01*
X124441621Y-63020502D01*
G37*
%TD.AperFunction*%
%TD*%
M02*
