%TF.GenerationSoftware,KiCad,Pcbnew,8.0.1*%
%TF.CreationDate,2024-03-24T13:46:44+02:00*%
%TF.ProjectId,EEE3088F Sensing Subsystem Project,45454533-3038-4384-9620-53656e73696e,rev?*%
%TF.SameCoordinates,Original*%
%TF.FileFunction,Paste,Top*%
%TF.FilePolarity,Positive*%
%FSLAX46Y46*%
G04 Gerber Fmt 4.6, Leading zero omitted, Abs format (unit mm)*
G04 Created by KiCad (PCBNEW 8.0.1) date 2024-03-24 13:46:44*
%MOMM*%
%LPD*%
G01*
G04 APERTURE LIST*
G04 Aperture macros list*
%AMRoundRect*
0 Rectangle with rounded corners*
0 $1 Rounding radius*
0 $2 $3 $4 $5 $6 $7 $8 $9 X,Y pos of 4 corners*
0 Add a 4 corners polygon primitive as box body*
4,1,4,$2,$3,$4,$5,$6,$7,$8,$9,$2,$3,0*
0 Add four circle primitives for the rounded corners*
1,1,$1+$1,$2,$3*
1,1,$1+$1,$4,$5*
1,1,$1+$1,$6,$7*
1,1,$1+$1,$8,$9*
0 Add four rect primitives between the rounded corners*
20,1,$1+$1,$2,$3,$4,$5,0*
20,1,$1+$1,$4,$5,$6,$7,0*
20,1,$1+$1,$6,$7,$8,$9,0*
20,1,$1+$1,$8,$9,$2,$3,0*%
G04 Aperture macros list end*
%ADD10RoundRect,0.250000X-0.250000X-0.475000X0.250000X-0.475000X0.250000X0.475000X-0.250000X0.475000X0*%
%ADD11RoundRect,0.250000X0.250000X0.475000X-0.250000X0.475000X-0.250000X-0.475000X0.250000X-0.475000X0*%
%ADD12RoundRect,0.250000X-0.262500X-0.450000X0.262500X-0.450000X0.262500X0.450000X-0.262500X0.450000X0*%
%ADD13RoundRect,0.250000X0.132583X-0.503814X0.503814X-0.132583X-0.132583X0.503814X-0.503814X0.132583X0*%
%ADD14RoundRect,0.140000X0.140000X0.170000X-0.140000X0.170000X-0.140000X-0.170000X0.140000X-0.170000X0*%
%ADD15RoundRect,0.135000X-0.135000X-0.185000X0.135000X-0.185000X0.135000X0.185000X-0.135000X0.185000X0*%
%ADD16RoundRect,0.135000X-0.185000X0.135000X-0.185000X-0.135000X0.185000X-0.135000X0.185000X0.135000X0*%
%ADD17RoundRect,0.135000X0.135000X0.185000X-0.135000X0.185000X-0.135000X-0.185000X0.135000X-0.185000X0*%
%ADD18RoundRect,0.200000X-0.200000X-0.275000X0.200000X-0.275000X0.200000X0.275000X-0.200000X0.275000X0*%
%ADD19RoundRect,0.200000X0.275000X-0.200000X0.275000X0.200000X-0.275000X0.200000X-0.275000X-0.200000X0*%
%ADD20RoundRect,0.140000X-0.140000X-0.170000X0.140000X-0.170000X0.140000X0.170000X-0.140000X0.170000X0*%
%ADD21RoundRect,0.200000X-0.275000X0.200000X-0.275000X-0.200000X0.275000X-0.200000X0.275000X0.200000X0*%
G04 APERTURE END LIST*
D10*
%TO.C,C1*%
X71600000Y-122500000D03*
X73500000Y-122500000D03*
%TD*%
D11*
%TO.C,C3*%
X99450000Y-130000000D03*
X97550000Y-130000000D03*
%TD*%
D10*
%TO.C,C5*%
X97600001Y-121000000D03*
X99500001Y-121000000D03*
%TD*%
D12*
%TO.C,R4*%
X61762500Y-123500000D03*
X63587500Y-123500000D03*
%TD*%
%TO.C,R9*%
X71087500Y-132000000D03*
X72912500Y-132000000D03*
%TD*%
D13*
%TO.C,R14*%
X110771402Y-117728598D03*
X112061872Y-116438128D03*
%TD*%
D14*
%TO.C,C4*%
X93540000Y-132000000D03*
X94500000Y-132000000D03*
%TD*%
D15*
%TO.C,R2*%
X59149999Y-133500000D03*
X60169997Y-133500000D03*
%TD*%
D16*
%TO.C,R3*%
X65140000Y-134009999D03*
X65140000Y-132990001D03*
%TD*%
D15*
%TO.C,R6*%
X81980001Y-129000000D03*
X82999999Y-129000000D03*
%TD*%
D17*
%TO.C,R8*%
X91509999Y-128500000D03*
X90490001Y-128500000D03*
%TD*%
D15*
%TO.C,R12*%
X114980001Y-133500000D03*
X115999999Y-133500000D03*
%TD*%
D17*
%TO.C,R13*%
X119990001Y-133000000D03*
X121009999Y-133000000D03*
%TD*%
D18*
%TO.C,R10*%
X77000000Y-132000000D03*
X78650000Y-132000000D03*
%TD*%
D19*
%TO.C,R15*%
X105000000Y-119150000D03*
X105000000Y-117500000D03*
%TD*%
D20*
%TO.C,C2*%
X77480000Y-123000000D03*
X76520000Y-123000000D03*
%TD*%
D18*
%TO.C,R1*%
X54474999Y-133500000D03*
X52824999Y-133500000D03*
%TD*%
D20*
%TO.C,C6*%
X103980000Y-123000000D03*
X103020000Y-123000000D03*
%TD*%
D21*
%TO.C,R5*%
X67649999Y-123325000D03*
X67649999Y-121675000D03*
%TD*%
D18*
%TO.C,R7*%
X86350000Y-129500000D03*
X88000000Y-129500000D03*
%TD*%
%TO.C,R11*%
X112325000Y-133500000D03*
X110675000Y-133500000D03*
%TD*%
M02*
