%TF.GenerationSoftware,KiCad,Pcbnew,8.0.1*%
%TF.CreationDate,2024-03-24T13:46:44+02:00*%
%TF.ProjectId,EEE3088F Sensing Subsystem Project,45454533-3038-4384-9620-53656e73696e,rev?*%
%TF.SameCoordinates,Original*%
%TF.FileFunction,Copper,L1,Top*%
%TF.FilePolarity,Positive*%
%FSLAX46Y46*%
G04 Gerber Fmt 4.6, Leading zero omitted, Abs format (unit mm)*
G04 Created by KiCad (PCBNEW 8.0.1) date 2024-03-24 13:46:44*
%MOMM*%
%LPD*%
G01*
G04 APERTURE LIST*
G04 Aperture macros list*
%AMRoundRect*
0 Rectangle with rounded corners*
0 $1 Rounding radius*
0 $2 $3 $4 $5 $6 $7 $8 $9 X,Y pos of 4 corners*
0 Add a 4 corners polygon primitive as box body*
4,1,4,$2,$3,$4,$5,$6,$7,$8,$9,$2,$3,0*
0 Add four circle primitives for the rounded corners*
1,1,$1+$1,$2,$3*
1,1,$1+$1,$4,$5*
1,1,$1+$1,$6,$7*
1,1,$1+$1,$8,$9*
0 Add four rect primitives between the rounded corners*
20,1,$1+$1,$2,$3,$4,$5,0*
20,1,$1+$1,$4,$5,$6,$7,0*
20,1,$1+$1,$6,$7,$8,$9,0*
20,1,$1+$1,$8,$9,$2,$3,0*%
%AMRotRect*
0 Rectangle, with rotation*
0 The origin of the aperture is its center*
0 $1 length*
0 $2 width*
0 $3 Rotation angle, in degrees counterclockwise*
0 Add horizontal line*
21,1,$1,$2,0,0,$3*%
G04 Aperture macros list end*
%ADD10C,0.300000*%
%TA.AperFunction,NonConductor*%
%ADD11C,0.300000*%
%TD*%
%TA.AperFunction,NonConductor*%
%ADD12C,0.200000*%
%TD*%
%TA.AperFunction,ComponentPad*%
%ADD13RotRect,1.371600X1.371600X225.000000*%
%TD*%
%TA.AperFunction,ComponentPad*%
%ADD14C,1.371600*%
%TD*%
%TA.AperFunction,ComponentPad*%
%ADD15R,1.371600X1.371600*%
%TD*%
%TA.AperFunction,ComponentPad*%
%ADD16RotRect,1.371600X1.371600X315.000000*%
%TD*%
%TA.AperFunction,SMDPad,CuDef*%
%ADD17RoundRect,0.250000X-0.250000X-0.475000X0.250000X-0.475000X0.250000X0.475000X-0.250000X0.475000X0*%
%TD*%
%TA.AperFunction,SMDPad,CuDef*%
%ADD18RoundRect,0.250000X0.250000X0.475000X-0.250000X0.475000X-0.250000X-0.475000X0.250000X-0.475000X0*%
%TD*%
%TA.AperFunction,SMDPad,CuDef*%
%ADD19RoundRect,0.250000X-0.262500X-0.450000X0.262500X-0.450000X0.262500X0.450000X-0.262500X0.450000X0*%
%TD*%
%TA.AperFunction,SMDPad,CuDef*%
%ADD20RoundRect,0.250000X0.132583X-0.503814X0.503814X-0.132583X-0.132583X0.503814X-0.503814X0.132583X0*%
%TD*%
%TA.AperFunction,SMDPad,CuDef*%
%ADD21R,1.000000X1.500000*%
%TD*%
%TA.AperFunction,SMDPad,CuDef*%
%ADD22RoundRect,0.140000X0.140000X0.170000X-0.140000X0.170000X-0.140000X-0.170000X0.140000X-0.170000X0*%
%TD*%
%TA.AperFunction,ComponentPad*%
%ADD23R,1.700000X1.700000*%
%TD*%
%TA.AperFunction,ComponentPad*%
%ADD24O,1.700000X1.700000*%
%TD*%
%TA.AperFunction,SMDPad,CuDef*%
%ADD25R,1.500000X1.000000*%
%TD*%
%TA.AperFunction,ComponentPad*%
%ADD26R,1.800000X1.800000*%
%TD*%
%TA.AperFunction,ComponentPad*%
%ADD27C,1.800000*%
%TD*%
%TA.AperFunction,SMDPad,CuDef*%
%ADD28RoundRect,0.135000X-0.135000X-0.185000X0.135000X-0.185000X0.135000X0.185000X-0.135000X0.185000X0*%
%TD*%
%TA.AperFunction,SMDPad,CuDef*%
%ADD29RoundRect,0.135000X-0.185000X0.135000X-0.185000X-0.135000X0.185000X-0.135000X0.185000X0.135000X0*%
%TD*%
%TA.AperFunction,SMDPad,CuDef*%
%ADD30RoundRect,0.135000X0.135000X0.185000X-0.135000X0.185000X-0.135000X-0.185000X0.135000X-0.185000X0*%
%TD*%
%TA.AperFunction,SMDPad,CuDef*%
%ADD31RoundRect,0.200000X-0.200000X-0.275000X0.200000X-0.275000X0.200000X0.275000X-0.200000X0.275000X0*%
%TD*%
%TA.AperFunction,SMDPad,CuDef*%
%ADD32RoundRect,0.200000X0.275000X-0.200000X0.275000X0.200000X-0.275000X0.200000X-0.275000X-0.200000X0*%
%TD*%
%TA.AperFunction,SMDPad,CuDef*%
%ADD33RoundRect,0.140000X-0.140000X-0.170000X0.140000X-0.170000X0.140000X0.170000X-0.140000X0.170000X0*%
%TD*%
%TA.AperFunction,ComponentPad*%
%ADD34RotRect,1.800000X1.800000X225.000000*%
%TD*%
%TA.AperFunction,SMDPad,CuDef*%
%ADD35RoundRect,0.200000X-0.275000X0.200000X-0.275000X-0.200000X0.275000X-0.200000X0.275000X0.200000X0*%
%TD*%
%TA.AperFunction,ComponentPad*%
%ADD36R,1.050000X1.500000*%
%TD*%
%TA.AperFunction,ComponentPad*%
%ADD37O,1.050000X1.500000*%
%TD*%
%TA.AperFunction,ViaPad*%
%ADD38C,0.800000*%
%TD*%
%TA.AperFunction,Conductor*%
%ADD39C,0.400000*%
%TD*%
%TA.AperFunction,Conductor*%
%ADD40C,0.600000*%
%TD*%
G04 APERTURE END LIST*
D10*
D11*
X100785716Y-154878328D02*
X100785716Y-155878328D01*
X100428573Y-154306900D02*
X100071430Y-155378328D01*
X100071430Y-155378328D02*
X101000001Y-155378328D01*
X101857144Y-154378328D02*
X102000001Y-154378328D01*
X102000001Y-154378328D02*
X102142858Y-154449757D01*
X102142858Y-154449757D02*
X102214287Y-154521185D01*
X102214287Y-154521185D02*
X102285715Y-154664042D01*
X102285715Y-154664042D02*
X102357144Y-154949757D01*
X102357144Y-154949757D02*
X102357144Y-155306900D01*
X102357144Y-155306900D02*
X102285715Y-155592614D01*
X102285715Y-155592614D02*
X102214287Y-155735471D01*
X102214287Y-155735471D02*
X102142858Y-155806900D01*
X102142858Y-155806900D02*
X102000001Y-155878328D01*
X102000001Y-155878328D02*
X101857144Y-155878328D01*
X101857144Y-155878328D02*
X101714287Y-155806900D01*
X101714287Y-155806900D02*
X101642858Y-155735471D01*
X101642858Y-155735471D02*
X101571429Y-155592614D01*
X101571429Y-155592614D02*
X101500001Y-155306900D01*
X101500001Y-155306900D02*
X101500001Y-154949757D01*
X101500001Y-154949757D02*
X101571429Y-154664042D01*
X101571429Y-154664042D02*
X101642858Y-154521185D01*
X101642858Y-154521185D02*
X101714287Y-154449757D01*
X101714287Y-154449757D02*
X101857144Y-154378328D01*
X103000000Y-155735471D02*
X103071429Y-155806900D01*
X103071429Y-155806900D02*
X103000000Y-155878328D01*
X103000000Y-155878328D02*
X102928572Y-155806900D01*
X102928572Y-155806900D02*
X103000000Y-155735471D01*
X103000000Y-155735471D02*
X103000000Y-155878328D01*
X104000001Y-154378328D02*
X104142858Y-154378328D01*
X104142858Y-154378328D02*
X104285715Y-154449757D01*
X104285715Y-154449757D02*
X104357144Y-154521185D01*
X104357144Y-154521185D02*
X104428572Y-154664042D01*
X104428572Y-154664042D02*
X104500001Y-154949757D01*
X104500001Y-154949757D02*
X104500001Y-155306900D01*
X104500001Y-155306900D02*
X104428572Y-155592614D01*
X104428572Y-155592614D02*
X104357144Y-155735471D01*
X104357144Y-155735471D02*
X104285715Y-155806900D01*
X104285715Y-155806900D02*
X104142858Y-155878328D01*
X104142858Y-155878328D02*
X104000001Y-155878328D01*
X104000001Y-155878328D02*
X103857144Y-155806900D01*
X103857144Y-155806900D02*
X103785715Y-155735471D01*
X103785715Y-155735471D02*
X103714286Y-155592614D01*
X103714286Y-155592614D02*
X103642858Y-155306900D01*
X103642858Y-155306900D02*
X103642858Y-154949757D01*
X103642858Y-154949757D02*
X103714286Y-154664042D01*
X103714286Y-154664042D02*
X103785715Y-154521185D01*
X103785715Y-154521185D02*
X103857144Y-154449757D01*
X103857144Y-154449757D02*
X104000001Y-154378328D01*
X105428572Y-154378328D02*
X105571429Y-154378328D01*
X105571429Y-154378328D02*
X105714286Y-154449757D01*
X105714286Y-154449757D02*
X105785715Y-154521185D01*
X105785715Y-154521185D02*
X105857143Y-154664042D01*
X105857143Y-154664042D02*
X105928572Y-154949757D01*
X105928572Y-154949757D02*
X105928572Y-155306900D01*
X105928572Y-155306900D02*
X105857143Y-155592614D01*
X105857143Y-155592614D02*
X105785715Y-155735471D01*
X105785715Y-155735471D02*
X105714286Y-155806900D01*
X105714286Y-155806900D02*
X105571429Y-155878328D01*
X105571429Y-155878328D02*
X105428572Y-155878328D01*
X105428572Y-155878328D02*
X105285715Y-155806900D01*
X105285715Y-155806900D02*
X105214286Y-155735471D01*
X105214286Y-155735471D02*
X105142857Y-155592614D01*
X105142857Y-155592614D02*
X105071429Y-155306900D01*
X105071429Y-155306900D02*
X105071429Y-154949757D01*
X105071429Y-154949757D02*
X105142857Y-154664042D01*
X105142857Y-154664042D02*
X105214286Y-154521185D01*
X105214286Y-154521185D02*
X105285715Y-154449757D01*
X105285715Y-154449757D02*
X105428572Y-154378328D01*
X106857143Y-154378328D02*
X107000000Y-154378328D01*
X107000000Y-154378328D02*
X107142857Y-154449757D01*
X107142857Y-154449757D02*
X107214286Y-154521185D01*
X107214286Y-154521185D02*
X107285714Y-154664042D01*
X107285714Y-154664042D02*
X107357143Y-154949757D01*
X107357143Y-154949757D02*
X107357143Y-155306900D01*
X107357143Y-155306900D02*
X107285714Y-155592614D01*
X107285714Y-155592614D02*
X107214286Y-155735471D01*
X107214286Y-155735471D02*
X107142857Y-155806900D01*
X107142857Y-155806900D02*
X107000000Y-155878328D01*
X107000000Y-155878328D02*
X106857143Y-155878328D01*
X106857143Y-155878328D02*
X106714286Y-155806900D01*
X106714286Y-155806900D02*
X106642857Y-155735471D01*
X106642857Y-155735471D02*
X106571428Y-155592614D01*
X106571428Y-155592614D02*
X106500000Y-155306900D01*
X106500000Y-155306900D02*
X106500000Y-154949757D01*
X106500000Y-154949757D02*
X106571428Y-154664042D01*
X106571428Y-154664042D02*
X106642857Y-154521185D01*
X106642857Y-154521185D02*
X106714286Y-154449757D01*
X106714286Y-154449757D02*
X106857143Y-154378328D01*
X108285714Y-154378328D02*
X108428571Y-154378328D01*
X108428571Y-154378328D02*
X108571428Y-154449757D01*
X108571428Y-154449757D02*
X108642857Y-154521185D01*
X108642857Y-154521185D02*
X108714285Y-154664042D01*
X108714285Y-154664042D02*
X108785714Y-154949757D01*
X108785714Y-154949757D02*
X108785714Y-155306900D01*
X108785714Y-155306900D02*
X108714285Y-155592614D01*
X108714285Y-155592614D02*
X108642857Y-155735471D01*
X108642857Y-155735471D02*
X108571428Y-155806900D01*
X108571428Y-155806900D02*
X108428571Y-155878328D01*
X108428571Y-155878328D02*
X108285714Y-155878328D01*
X108285714Y-155878328D02*
X108142857Y-155806900D01*
X108142857Y-155806900D02*
X108071428Y-155735471D01*
X108071428Y-155735471D02*
X107999999Y-155592614D01*
X107999999Y-155592614D02*
X107928571Y-155306900D01*
X107928571Y-155306900D02*
X107928571Y-154949757D01*
X107928571Y-154949757D02*
X107999999Y-154664042D01*
X107999999Y-154664042D02*
X108071428Y-154521185D01*
X108071428Y-154521185D02*
X108142857Y-154449757D01*
X108142857Y-154449757D02*
X108285714Y-154378328D01*
X110571427Y-155878328D02*
X110571427Y-154878328D01*
X110571427Y-155021185D02*
X110642856Y-154949757D01*
X110642856Y-154949757D02*
X110785713Y-154878328D01*
X110785713Y-154878328D02*
X110999999Y-154878328D01*
X110999999Y-154878328D02*
X111142856Y-154949757D01*
X111142856Y-154949757D02*
X111214285Y-155092614D01*
X111214285Y-155092614D02*
X111214285Y-155878328D01*
X111214285Y-155092614D02*
X111285713Y-154949757D01*
X111285713Y-154949757D02*
X111428570Y-154878328D01*
X111428570Y-154878328D02*
X111642856Y-154878328D01*
X111642856Y-154878328D02*
X111785713Y-154949757D01*
X111785713Y-154949757D02*
X111857142Y-155092614D01*
X111857142Y-155092614D02*
X111857142Y-155878328D01*
X112571427Y-155878328D02*
X112571427Y-154878328D01*
X112571427Y-155021185D02*
X112642856Y-154949757D01*
X112642856Y-154949757D02*
X112785713Y-154878328D01*
X112785713Y-154878328D02*
X112999999Y-154878328D01*
X112999999Y-154878328D02*
X113142856Y-154949757D01*
X113142856Y-154949757D02*
X113214285Y-155092614D01*
X113214285Y-155092614D02*
X113214285Y-155878328D01*
X113214285Y-155092614D02*
X113285713Y-154949757D01*
X113285713Y-154949757D02*
X113428570Y-154878328D01*
X113428570Y-154878328D02*
X113642856Y-154878328D01*
X113642856Y-154878328D02*
X113785713Y-154949757D01*
X113785713Y-154949757D02*
X113857142Y-155092614D01*
X113857142Y-155092614D02*
X113857142Y-155878328D01*
D12*
X127000000Y-143500000D02*
X127000000Y-157586420D01*
X87000000Y-143500000D02*
X87000000Y-157586420D01*
X127000000Y-157000000D02*
X87000000Y-157000000D01*
X127000000Y-157000000D02*
X87000000Y-157000000D01*
X127000000Y-157000000D02*
X125873496Y-157586421D01*
X127000000Y-157000000D02*
X125873496Y-156413579D01*
X87000000Y-157000000D02*
X88126504Y-156413579D01*
X87000000Y-157000000D02*
X88126504Y-157586421D01*
D13*
%TO.P,LED3,1*%
%TO.N,3V3B*%
X122000000Y-120000000D03*
D14*
%TO.P,LED3,2*%
%TO.N,PA3*%
X120203949Y-121796051D03*
%TD*%
D15*
%TO.P,LED2,1*%
%TO.N,3V3B*%
X85000000Y-116500000D03*
D14*
%TO.P,LED2,2*%
%TO.N,PA4*%
X85000000Y-119040000D03*
%TD*%
D16*
%TO.P,LED1,1*%
%TO.N,3V3B*%
X51500000Y-120000000D03*
D14*
%TO.P,LED1,2*%
%TO.N,PA5*%
X53296051Y-121796051D03*
%TD*%
D17*
%TO.P,C1,1*%
%TO.N,PA5*%
X71600000Y-122500000D03*
%TO.P,C1,2*%
%TO.N,GND*%
X73500000Y-122500000D03*
%TD*%
D18*
%TO.P,C3,1*%
%TO.N,PA4*%
X99450000Y-130000000D03*
%TO.P,C3,2*%
%TO.N,GND*%
X97550000Y-130000000D03*
%TD*%
D17*
%TO.P,C5,1*%
%TO.N,PA3*%
X97600001Y-121000000D03*
%TO.P,C5,2*%
%TO.N,GND*%
X99500001Y-121000000D03*
%TD*%
D19*
%TO.P,R4,1*%
%TO.N,PA5*%
X61762500Y-123500000D03*
%TO.P,R4,2*%
%TO.N,GND*%
X63587500Y-123500000D03*
%TD*%
%TO.P,R9,1*%
%TO.N,PA4*%
X71087500Y-132000000D03*
%TO.P,R9,2*%
%TO.N,GND*%
X72912500Y-132000000D03*
%TD*%
D20*
%TO.P,R14,1*%
%TO.N,PA3*%
X110771402Y-117728598D03*
%TO.P,R14,2*%
%TO.N,GND*%
X112061872Y-116438128D03*
%TD*%
D21*
%TO.P,JP15,1,A*%
%TO.N,Net-(D3-K)*%
X120000000Y-128000000D03*
%TO.P,JP15,2,B*%
%TO.N,Net-(JP15-B)*%
X121299998Y-128000000D03*
%TD*%
%TO.P,JP14,1,A*%
%TO.N,Net-(JP14-A)*%
X91350000Y-125500000D03*
%TO.P,JP14,2,B*%
%TO.N,Net-(D2-K)*%
X92650000Y-125500000D03*
%TD*%
%TO.P,JP13,1,A*%
%TO.N,Net-(D1-K)*%
X64649999Y-127000000D03*
%TO.P,JP13,2,B*%
%TO.N,Net-(JP13-B)*%
X63350001Y-127000000D03*
%TD*%
D22*
%TO.P,C4,2*%
%TO.N,GND*%
X93540000Y-132000000D03*
%TO.P,C4,1*%
%TO.N,Net-(JP8-A)*%
X94500000Y-132000000D03*
%TD*%
D23*
%TO.P,J1,1,Pin_1*%
%TO.N,RESV3*%
X103780000Y-140040000D03*
D24*
%TO.P,J1,2,Pin_2*%
%TO.N,3V3A*%
X103780000Y-137500000D03*
%TO.P,J1,3,Pin_3*%
%TO.N,GND*%
X101240000Y-140040000D03*
%TO.P,J1,4,Pin_4*%
%TO.N,BATT1*%
X101240000Y-137500000D03*
%TO.P,J1,5,Pin_5*%
%TO.N,PA3*%
X98700000Y-140040000D03*
%TO.P,J1,6,Pin_6*%
%TO.N,RESV2*%
X98700000Y-137500000D03*
%TO.P,J1,7,Pin_7*%
%TO.N,PA4*%
X96160000Y-140040000D03*
%TO.P,J1,8,Pin_8*%
%TO.N,PE15*%
X96160000Y-137500000D03*
%TO.P,J1,9,Pin_9*%
%TO.N,GND*%
X93620000Y-140040000D03*
%TO.P,J1,10,Pin_10*%
%TO.N,PE14*%
X93620000Y-137500000D03*
%TO.P,J1,11,Pin_11*%
%TO.N,PA5*%
X91080000Y-140040000D03*
%TO.P,J1,12,Pin_12*%
%TO.N,PE13*%
X91080000Y-137500000D03*
%TO.P,J1,13,Pin_13*%
%TO.N,PA6*%
X88540000Y-140040000D03*
%TO.P,J1,14,Pin_14*%
%TO.N,PE12*%
X88540000Y-137500000D03*
%TO.P,J1,15,Pin_15*%
%TO.N,GND*%
X86000000Y-140040000D03*
%TO.P,J1,16,Pin_16*%
%TO.N,PE11*%
X86000000Y-137500000D03*
%TO.P,J1,17,Pin_17*%
%TO.N,PA7*%
X83460000Y-140040000D03*
%TO.P,J1,18,Pin_18*%
%TO.N,PE10*%
X83460000Y-137500000D03*
%TO.P,J1,19,Pin_19*%
%TO.N,PC4*%
X80920000Y-140040000D03*
%TO.P,J1,20,Pin_20*%
%TO.N,PE9*%
X80920000Y-137500000D03*
%TO.P,J1,21,Pin_21*%
%TO.N,GND*%
X78380000Y-140040000D03*
%TO.P,J1,22,Pin_22*%
%TO.N,PE8*%
X78380000Y-137500000D03*
%TO.P,J1,23,Pin_23*%
%TO.N,PC5*%
X75840000Y-140040000D03*
%TO.P,J1,24,Pin_24*%
%TO.N,RESV1*%
X75840000Y-137500000D03*
%TO.P,J1,25,Pin_25*%
%TO.N,AB0*%
X73300000Y-140040000D03*
%TO.P,J1,26,Pin_26*%
%TO.N,BATT2*%
X73300000Y-137500000D03*
%TO.P,J1,27,Pin_27*%
%TO.N,GND*%
X70760000Y-140040000D03*
%TO.P,J1,28,Pin_28*%
%TO.N,3V3B*%
X70760000Y-137500000D03*
%TD*%
D21*
%TO.P,JP8,1,A*%
%TO.N,Net-(JP8-A)*%
X100200002Y-127500000D03*
%TO.P,JP8,2,B*%
%TO.N,PA4*%
X101500000Y-127500000D03*
%TD*%
%TO.P,JP9,1,A*%
%TO.N,Net-(JP9-A)*%
X117500000Y-138500000D03*
%TO.P,JP9,2,B*%
%TO.N,PE15*%
X118799998Y-138500000D03*
%TD*%
D25*
%TO.P,JP3,1,A*%
%TO.N,Net-(JP3-A)*%
X65149999Y-117649999D03*
%TO.P,JP3,2,B*%
%TO.N,PA5*%
X65149999Y-116350001D03*
%TD*%
D21*
%TO.P,JP5,1,A*%
%TO.N,Net-(JP5-A)*%
X89200002Y-133000000D03*
%TO.P,JP5,2,B*%
%TO.N,PE14*%
X90500000Y-133000000D03*
%TD*%
%TO.P,JP11,2,B*%
%TO.N,PA3*%
X108500000Y-123000000D03*
%TO.P,JP11,1,A*%
%TO.N,Net-(JP11-A)*%
X107200002Y-123000000D03*
%TD*%
D26*
%TO.P,D2,1,K*%
%TO.N,Net-(D2-K)*%
X90460000Y-116000000D03*
D27*
%TO.P,D2,2,A*%
%TO.N,3V3A*%
X93000000Y-116000000D03*
%TD*%
D28*
%TO.P,R2,1*%
%TO.N,Net-(JP2-A)*%
X59149999Y-133500000D03*
%TO.P,R2,2*%
%TO.N,Net-(Q1-B)*%
X60169997Y-133500000D03*
%TD*%
D29*
%TO.P,R3,2*%
%TO.N,Net-(Q1-C)*%
X65140000Y-134009999D03*
%TO.P,R3,1*%
%TO.N,Net-(JP13-B)*%
X65140000Y-132990001D03*
%TD*%
D28*
%TO.P,R6,1*%
%TO.N,Net-(JP6-A)*%
X81980001Y-129000000D03*
%TO.P,R6,2*%
%TO.N,Net-(Q2-B)*%
X82999999Y-129000000D03*
%TD*%
D30*
%TO.P,R8,1*%
%TO.N,Net-(JP14-A)*%
X91509999Y-128500000D03*
%TO.P,R8,2*%
%TO.N,Net-(Q2-C)*%
X90490001Y-128500000D03*
%TD*%
D28*
%TO.P,R12,1*%
%TO.N,Net-(JP9-A)*%
X114980001Y-133500000D03*
%TO.P,R12,2*%
%TO.N,Net-(Q3-B)*%
X115999999Y-133500000D03*
%TD*%
D30*
%TO.P,R13,2*%
%TO.N,Net-(Q3-C)*%
X119990001Y-133000000D03*
%TO.P,R13,1*%
%TO.N,Net-(JP15-B)*%
X121009999Y-133000000D03*
%TD*%
D31*
%TO.P,R10,1*%
%TO.N,Net-(JP7-A)*%
X77000000Y-132000000D03*
%TO.P,R10,2*%
%TO.N,GND*%
X78650000Y-132000000D03*
%TD*%
D32*
%TO.P,R15,1*%
%TO.N,Net-(JP11-A)*%
X105000000Y-119150000D03*
%TO.P,R15,2*%
%TO.N,GND*%
X105000000Y-117500000D03*
%TD*%
D33*
%TO.P,C2,2*%
%TO.N,GND*%
X77480000Y-123000000D03*
%TO.P,C2,1*%
%TO.N,Net-(JP4-A)*%
X76520000Y-123000000D03*
%TD*%
D21*
%TO.P,JP4,1,A*%
%TO.N,Net-(JP4-A)*%
X75649999Y-117000000D03*
%TO.P,JP4,2,B*%
%TO.N,PA5*%
X74350001Y-117000000D03*
%TD*%
%TO.P,JP6,2,B*%
%TO.N,PE14*%
X85149999Y-133000000D03*
%TO.P,JP6,1,A*%
%TO.N,Net-(JP6-A)*%
X83850001Y-133000000D03*
%TD*%
D26*
%TO.P,D1,1,K*%
%TO.N,Net-(D1-K)*%
X56500000Y-116775000D03*
D27*
%TO.P,D1,2,A*%
%TO.N,3V3A*%
X56500000Y-114235000D03*
%TD*%
D34*
%TO.P,D3,1,K*%
%TO.N,Net-(D3-K)*%
X119000000Y-115000000D03*
D27*
%TO.P,D3,2,A*%
%TO.N,3V3A*%
X117203949Y-116796051D03*
%TD*%
D31*
%TO.P,R1,2*%
%TO.N,Net-(Q1-B)*%
X54474999Y-133500000D03*
%TO.P,R1,1*%
%TO.N,Net-(JP1-A)*%
X52824999Y-133500000D03*
%TD*%
D33*
%TO.P,C6,2*%
%TO.N,GND*%
X103980000Y-123000000D03*
%TO.P,C6,1*%
%TO.N,Net-(JP12-A)*%
X103020000Y-123000000D03*
%TD*%
D35*
%TO.P,R5,2*%
%TO.N,GND*%
X67649999Y-123325000D03*
%TO.P,R5,1*%
%TO.N,Net-(JP3-A)*%
X67649999Y-121675000D03*
%TD*%
D31*
%TO.P,R7,1*%
%TO.N,Net-(JP5-A)*%
X86350000Y-129500000D03*
%TO.P,R7,2*%
%TO.N,Net-(Q2-B)*%
X88000000Y-129500000D03*
%TD*%
%TO.P,R11,2*%
%TO.N,Net-(Q3-B)*%
X112325000Y-133500000D03*
%TO.P,R11,1*%
%TO.N,Net-(JP10-A)*%
X110675000Y-133500000D03*
%TD*%
D21*
%TO.P,JP7,1,A*%
%TO.N,Net-(JP7-A)*%
X75799999Y-127000000D03*
%TO.P,JP7,2,B*%
%TO.N,PA4*%
X74500001Y-127000000D03*
%TD*%
D36*
%TO.P,Q2,1,E*%
%TO.N,GND*%
X83230000Y-124360000D03*
D37*
%TO.P,Q2,2,B*%
%TO.N,Net-(Q2-B)*%
X84500000Y-124360000D03*
%TO.P,Q2,3,C*%
%TO.N,Net-(Q2-C)*%
X85770000Y-124360000D03*
%TD*%
D36*
%TO.P,Q3,1,E*%
%TO.N,GND*%
X113960000Y-128000000D03*
D37*
%TO.P,Q3,2,B*%
%TO.N,Net-(Q3-B)*%
X115230001Y-128000000D03*
%TO.P,Q3,3,C*%
%TO.N,Net-(Q3-C)*%
X116500000Y-128000000D03*
%TD*%
%TO.P,Q1,3,C*%
%TO.N,Net-(Q1-C)*%
X58270000Y-127500000D03*
%TO.P,Q1,2,B*%
%TO.N,Net-(Q1-B)*%
X57000001Y-127500000D03*
D36*
%TO.P,Q1,1,E*%
%TO.N,GND*%
X55730000Y-127500000D03*
%TD*%
D21*
%TO.P,JP2,1,A*%
%TO.N,Net-(JP2-A)*%
X58850001Y-138500000D03*
%TO.P,JP2,2,B*%
%TO.N,PE8*%
X60149999Y-138500000D03*
%TD*%
%TO.P,JP1,1,A*%
%TO.N,Net-(JP1-A)*%
X52649999Y-138500000D03*
%TO.P,JP1,2,B*%
%TO.N,PE8*%
X53949997Y-138500000D03*
%TD*%
%TO.P,JP12,1,A*%
%TO.N,Net-(JP12-A)*%
X97149999Y-115500000D03*
%TO.P,JP12,2,B*%
%TO.N,PA3*%
X95850001Y-115500000D03*
%TD*%
%TO.P,JP10,1,A*%
%TO.N,Net-(JP10-A)*%
X112200002Y-138500000D03*
%TO.P,JP10,2,B*%
%TO.N,PE15*%
X113500000Y-138500000D03*
%TD*%
D38*
%TO.N,GND*%
X102500000Y-132500000D03*
X98000000Y-132500000D03*
%TO.N,PA3*%
X115136397Y-120136397D03*
X117000000Y-120000000D03*
%TO.N,GND*%
X96500000Y-125000000D03*
X98000000Y-123500000D03*
%TO.N,PE15*%
X113500000Y-140500000D03*
%TO.N,3V3B*%
X77000000Y-120000000D03*
%TO.N,PA5*%
X61047518Y-119452482D03*
X71863603Y-125363603D03*
%TO.N,Net-(Q3-B)*%
X117055686Y-130444314D03*
X115924315Y-131575685D03*
%TO.N,PA4*%
X92200000Y-122500000D03*
X94000000Y-122500000D03*
%TO.N,PA5*%
X59916147Y-120583853D03*
%TD*%
D39*
%TO.N,PA5*%
X59916147Y-120583853D02*
X54508249Y-120583853D01*
X54508249Y-120583853D02*
X53296051Y-121796051D01*
D40*
%TO.N,3V3B*%
X77000000Y-120000000D02*
X80500000Y-116500000D01*
X80500000Y-116500000D02*
X85000000Y-116500000D01*
D39*
%TO.N,PA4*%
X85000000Y-119040000D02*
X88740000Y-119040000D01*
X88740000Y-119040000D02*
X92200000Y-122500000D01*
X85000000Y-119040000D02*
X83960000Y-119040000D01*
X83960000Y-119040000D02*
X80500000Y-122500000D01*
D40*
%TO.N,3V3B*%
X122000000Y-120000000D02*
X123000000Y-121000000D01*
X116881370Y-142500000D02*
X69690811Y-142500000D01*
X69690811Y-142500000D02*
X68290000Y-141099189D01*
X123000000Y-121000000D02*
X123000000Y-136381370D01*
X123000000Y-136381370D02*
X116881370Y-142500000D01*
X68290000Y-141099189D02*
X68290000Y-139970000D01*
X68290000Y-139970000D02*
X70260000Y-138000000D01*
D39*
%TO.N,PA3*%
X117000000Y-120000000D02*
X118407898Y-120000000D01*
X118407898Y-120000000D02*
X120203949Y-121796051D01*
%TO.N,Net-(D3-K)*%
X120000000Y-128000000D02*
X116000000Y-124000000D01*
X118500000Y-115500000D02*
X119000000Y-115000000D01*
X116000000Y-124000000D02*
X116000000Y-119838478D01*
X116000000Y-119838478D02*
X118503949Y-117334529D01*
X118503949Y-116257573D02*
X118500000Y-116253624D01*
X118503949Y-117334529D02*
X118503949Y-116257573D01*
X118500000Y-116253624D02*
X118500000Y-115500000D01*
%TO.N,PA3*%
X115136397Y-120136397D02*
X115136397Y-118136397D01*
X115136397Y-118136397D02*
X114666726Y-117666726D01*
X114666726Y-117666726D02*
X108666726Y-117666726D01*
X108666726Y-117666726D02*
X108500000Y-117500000D01*
%TO.N,Net-(D1-K)*%
X56500000Y-116775000D02*
X57238665Y-116775000D01*
X66000000Y-122000000D02*
X66000000Y-125649999D01*
X57238665Y-116775000D02*
X61463665Y-121000000D01*
X65000000Y-121000000D02*
X66000000Y-122000000D01*
X61463665Y-121000000D02*
X65000000Y-121000000D01*
X66000000Y-125649999D02*
X64649999Y-127000000D01*
%TO.N,Net-(D2-K)*%
X90460000Y-116000000D02*
X93000000Y-118540000D01*
X93000000Y-118540000D02*
X93000000Y-125150000D01*
X93000000Y-125150000D02*
X92650000Y-125500000D01*
%TO.N,GND*%
X102500000Y-132500000D02*
X103000000Y-132500000D01*
X103000000Y-132500000D02*
X107500000Y-128000000D01*
X107500000Y-128000000D02*
X113960000Y-128000000D01*
X98020000Y-130000000D02*
X98020000Y-132480000D01*
X98020000Y-132480000D02*
X98000000Y-132500000D01*
%TO.N,PA4*%
X101500000Y-127500000D02*
X101500000Y-126350000D01*
X99450000Y-124300000D02*
X97300000Y-124300000D01*
X101500000Y-126350000D02*
X99450000Y-124300000D01*
X98980000Y-130000000D02*
X100000000Y-130000000D01*
X100000000Y-130000000D02*
X101500000Y-128500000D01*
X101500000Y-128500000D02*
X101500000Y-127500000D01*
X98980000Y-130000000D02*
X98980000Y-135452233D01*
X97450000Y-136982233D02*
X97450000Y-138750000D01*
X98980000Y-135452233D02*
X97450000Y-136982233D01*
X97450000Y-138750000D02*
X96160000Y-140040000D01*
X95500000Y-122500000D02*
X97300000Y-124300000D01*
X94000000Y-122500000D02*
X95500000Y-122500000D01*
%TO.N,Net-(JP8-A)*%
X94500000Y-131500000D02*
X94500000Y-131000000D01*
X94500000Y-131000000D02*
X98000000Y-127500000D01*
X98000000Y-127500000D02*
X100200002Y-127500000D01*
X94500000Y-132000000D02*
X94500000Y-131000000D01*
%TO.N,PA3*%
X108500000Y-123000000D02*
X108500000Y-124000000D01*
X99950000Y-132550000D02*
X99950000Y-138790000D01*
X108500000Y-124000000D02*
X99950000Y-132550000D01*
X99950000Y-138790000D02*
X98700000Y-140040000D01*
%TO.N,Net-(JP12-A)*%
X97149999Y-115500000D02*
X99848528Y-115500000D01*
X99848528Y-115500000D02*
X103020000Y-118671472D01*
X103020000Y-118671472D02*
X103020000Y-123000000D01*
%TO.N,PA3*%
X98070001Y-121000000D02*
X95850001Y-118780000D01*
X95850001Y-118780000D02*
X95850001Y-115500000D01*
%TO.N,GND*%
X99030001Y-121000000D02*
X99030001Y-122469999D01*
X99030001Y-122469999D02*
X98000000Y-123500000D01*
%TO.N,PA3*%
X108500000Y-117500000D02*
X105000000Y-114000000D01*
X96599999Y-114000000D02*
X95850001Y-114749998D01*
X105000000Y-114000000D02*
X96599999Y-114000000D01*
X95850001Y-114749998D02*
X95850001Y-115500000D01*
X108500000Y-123000000D02*
X108500000Y-117500000D01*
%TO.N,GND*%
X84750000Y-141290000D02*
X79630000Y-141290000D01*
X86000000Y-140040000D02*
X84750000Y-141290000D01*
X79630000Y-141290000D02*
X78380000Y-140040000D01*
X87250000Y-141290000D02*
X86000000Y-140040000D01*
X92370000Y-141290000D02*
X87250000Y-141290000D01*
X93620000Y-140040000D02*
X92370000Y-141290000D01*
X94870000Y-141290000D02*
X93620000Y-140040000D01*
X99990000Y-141290000D02*
X94870000Y-141290000D01*
X101240000Y-140040000D02*
X99990000Y-141290000D01*
X79670000Y-133020000D02*
X79670000Y-137977767D01*
X78650000Y-132000000D02*
X79670000Y-133020000D01*
X79670000Y-137977767D02*
X78857767Y-138790000D01*
X78857767Y-138790000D02*
X72010000Y-138790000D01*
X72010000Y-138790000D02*
X70760000Y-140040000D01*
%TO.N,PE14*%
X90500000Y-133000000D02*
X90500000Y-134380000D01*
X90500000Y-134380000D02*
X92370000Y-136250000D01*
X88399999Y-136250000D02*
X90500000Y-136250000D01*
X90500000Y-136250000D02*
X92370000Y-136250000D01*
X85149999Y-133000000D02*
X88399999Y-136250000D01*
X92370000Y-136250000D02*
X93620000Y-137500000D01*
%TO.N,PE8*%
X60149999Y-138500000D02*
X61730345Y-138500000D01*
X61730345Y-138500000D02*
X63980345Y-136250000D01*
X63980345Y-136250000D02*
X77130000Y-136250000D01*
X77130000Y-136250000D02*
X78380000Y-137500000D01*
%TO.N,PA5*%
X59916147Y-120583853D02*
X59916147Y-121566147D01*
X59916147Y-121566147D02*
X61850000Y-123500000D01*
%TO.N,Net-(JP13-B)*%
X63350001Y-127000000D02*
X63350001Y-131200002D01*
X63350001Y-131200002D02*
X65140000Y-132990001D01*
%TO.N,Net-(JP14-A)*%
X91350000Y-125500000D02*
X91350000Y-128340001D01*
X91350000Y-128340001D02*
X91509999Y-128500000D01*
%TO.N,Net-(JP15-B)*%
X121299998Y-128000000D02*
X121299998Y-132710001D01*
X121299998Y-132710001D02*
X121009999Y-133000000D01*
%TO.N,Net-(Q3-C)*%
X116500000Y-128000000D02*
X119990001Y-131490001D01*
X119990001Y-131490001D02*
X119990001Y-133000000D01*
%TO.N,PA4*%
X74999999Y-125750000D02*
X74500001Y-126249998D01*
X74500001Y-126249998D02*
X74500001Y-127000000D01*
X80500000Y-125750000D02*
X74999999Y-125750000D01*
X80500000Y-122500000D02*
X80500000Y-125750000D01*
%TO.N,GND*%
X78650000Y-132000000D02*
X78510000Y-132140000D01*
X96500000Y-125000000D02*
X93540000Y-127960000D01*
X93540000Y-127960000D02*
X93540000Y-132000000D01*
%TO.N,Net-(Q2-C)*%
X90490001Y-128500000D02*
X89910000Y-128500000D01*
X89910000Y-128500000D02*
X85770000Y-124360000D01*
%TO.N,Net-(Q2-B)*%
X84500000Y-124360000D02*
X84500000Y-126000000D01*
X84500000Y-126000000D02*
X88000000Y-129500000D01*
X84500000Y-124360000D02*
X84500000Y-127499999D01*
X84500000Y-127499999D02*
X82999999Y-129000000D01*
%TO.N,Net-(JP11-A)*%
X105000000Y-119150000D02*
X105000000Y-120799998D01*
X105000000Y-120799998D02*
X107200002Y-123000000D01*
%TO.N,Net-(JP4-A)*%
X75649999Y-117000000D02*
X75649999Y-122129999D01*
X75649999Y-122129999D02*
X76520000Y-123000000D01*
%TO.N,PE8*%
X60149999Y-138500000D02*
X60149999Y-138250000D01*
%TO.N,Net-(JP3-A)*%
X67649999Y-121675000D02*
X67649999Y-120149999D01*
X67649999Y-120149999D02*
X65149999Y-117649999D01*
%TO.N,PE15*%
X113500000Y-140500000D02*
X115391420Y-140500000D01*
X115391420Y-140500000D02*
X115445710Y-140445710D01*
X113500000Y-138500000D02*
X115445710Y-140445710D01*
X115445710Y-140445710D02*
X117945710Y-140445710D01*
X118799998Y-139591422D02*
X118799998Y-138500000D01*
X117945710Y-140445710D02*
X118799998Y-139591422D01*
%TO.N,PA5*%
X64149999Y-116350001D02*
X61047518Y-119452482D01*
X65149999Y-116350001D02*
X64149999Y-116350001D01*
X71600001Y-122500000D02*
X71600001Y-125100001D01*
X71600001Y-125100001D02*
X71863603Y-125363603D01*
%TO.N,Net-(JP6-A)*%
X81980001Y-129000000D02*
X81980001Y-131130000D01*
X81980001Y-131130000D02*
X83850001Y-133000000D01*
%TO.N,Net-(JP5-A)*%
X86350000Y-129500000D02*
X86350000Y-130149998D01*
X86350000Y-130149998D02*
X89200002Y-133000000D01*
%TO.N,Net-(Q3-B)*%
X115999999Y-133500000D02*
X115999999Y-131651369D01*
X117055686Y-130444314D02*
X115230001Y-128618629D01*
X115999999Y-131651369D02*
X115924315Y-131575685D01*
X115230001Y-128618629D02*
X115230001Y-128000000D01*
X112325000Y-133500000D02*
X113045000Y-132780000D01*
X113045000Y-132780000D02*
X115599998Y-132780000D01*
X115599998Y-132780000D02*
X115999999Y-133180001D01*
X115999999Y-133180001D02*
X115999999Y-133500000D01*
%TO.N,Net-(JP9-A)*%
X114980001Y-133500000D02*
X114980001Y-135980001D01*
X114980001Y-135980001D02*
X117500000Y-138500000D01*
%TO.N,Net-(JP10-A)*%
X110675000Y-133500000D02*
X110675000Y-136974998D01*
X110675000Y-136974998D02*
X112200002Y-138500000D01*
%TO.N,PA4*%
X74500001Y-127000000D02*
X74500001Y-128587499D01*
X74500001Y-128587499D02*
X71087500Y-132000000D01*
%TO.N,Net-(JP7-A)*%
X75799999Y-127000000D02*
X75799999Y-130799999D01*
X75799999Y-130799999D02*
X77000000Y-132000000D01*
%TO.N,PA5*%
X74350001Y-117000000D02*
X74350001Y-119750000D01*
X74350001Y-119750000D02*
X71600001Y-122500000D01*
X65149999Y-116350001D02*
X66299999Y-116350001D01*
X66299999Y-116350001D02*
X71600001Y-121650003D01*
X71600001Y-121650003D02*
X71600001Y-122500000D01*
%TO.N,Net-(Q1-C)*%
X58270000Y-127500000D02*
X64779999Y-134009999D01*
X64779999Y-134009999D02*
X65140000Y-134009999D01*
%TO.N,Net-(Q1-B)*%
X60169997Y-133500000D02*
X60169997Y-133180001D01*
X60169997Y-133180001D02*
X57964994Y-130974998D01*
X57964994Y-130974998D02*
X57000001Y-130974998D01*
%TO.N,Net-(JP2-A)*%
X59149999Y-133500000D02*
X59149999Y-138200002D01*
X59149999Y-138200002D02*
X58850001Y-138500000D01*
%TO.N,Net-(Q1-B)*%
X54474999Y-133500000D02*
X57000001Y-130974998D01*
X57000001Y-130974998D02*
X57000001Y-127500000D01*
%TO.N,Net-(JP1-A)*%
X52649999Y-138500000D02*
X52649999Y-133675000D01*
X52649999Y-133675000D02*
X52824999Y-133500000D01*
%TO.N,PE8*%
X53949997Y-138500000D02*
X55099997Y-139650000D01*
X55099997Y-139650000D02*
X59850000Y-139650000D01*
X59850000Y-139650000D02*
X60149999Y-139350001D01*
X60149999Y-139350001D02*
X60149999Y-138500000D01*
%TD*%
%TA.AperFunction,Conductor*%
%TO.N,GND*%
G36*
X55270594Y-113266682D02*
G01*
X55326204Y-113308983D01*
X55350116Y-113374633D01*
X55334740Y-113442790D01*
X55330177Y-113450348D01*
X55257015Y-113562331D01*
X55163251Y-113776092D01*
X55105948Y-114002377D01*
X55086673Y-114234994D01*
X55086673Y-114235005D01*
X55105948Y-114467622D01*
X55163251Y-114693907D01*
X55257015Y-114907668D01*
X55384686Y-115103084D01*
X55471856Y-115197775D01*
X55502779Y-115260429D01*
X55494919Y-115329855D01*
X55450772Y-115384011D01*
X55423963Y-115397939D01*
X55353794Y-115424111D01*
X55236739Y-115511739D01*
X55149111Y-115628795D01*
X55098011Y-115765795D01*
X55098011Y-115765797D01*
X55091500Y-115826345D01*
X55091500Y-117723654D01*
X55098011Y-117784202D01*
X55098011Y-117784204D01*
X55131276Y-117873387D01*
X55149111Y-117921204D01*
X55236739Y-118038261D01*
X55353796Y-118125889D01*
X55490799Y-118176989D01*
X55518050Y-118179918D01*
X55551345Y-118183499D01*
X55551362Y-118183500D01*
X57448638Y-118183500D01*
X57448654Y-118183499D01*
X57486560Y-118179423D01*
X57509201Y-118176989D01*
X57528842Y-118169662D01*
X57598531Y-118164677D01*
X57659852Y-118198158D01*
X57659857Y-118198163D01*
X59125366Y-119663672D01*
X59158851Y-119724995D01*
X59153867Y-119794687D01*
X59111995Y-119850620D01*
X59046531Y-119875037D01*
X59037685Y-119875353D01*
X54438463Y-119875353D01*
X54301593Y-119902578D01*
X54301583Y-119902581D01*
X54279289Y-119911816D01*
X54279288Y-119911816D01*
X54172652Y-119955985D01*
X54172650Y-119955986D01*
X54056607Y-120033524D01*
X54056603Y-120033527D01*
X53521736Y-120568394D01*
X53460413Y-120601879D01*
X53411271Y-120602602D01*
X53406719Y-120601751D01*
X53185383Y-120601751D01*
X52967815Y-120642422D01*
X52967812Y-120642422D01*
X52967812Y-120642423D01*
X52828314Y-120696464D01*
X52758690Y-120702325D01*
X52696951Y-120669615D01*
X52662696Y-120608718D01*
X52666803Y-120538970D01*
X52695840Y-120493156D01*
X52863815Y-120325181D01*
X52863824Y-120325172D01*
X52902044Y-120277743D01*
X52952249Y-120167809D01*
X52962786Y-120144737D01*
X52962787Y-120144732D01*
X52983596Y-120000000D01*
X52962787Y-119855266D01*
X52962786Y-119855265D01*
X52962786Y-119855262D01*
X52913259Y-119746815D01*
X52902044Y-119722257D01*
X52863824Y-119674828D01*
X52863819Y-119674823D01*
X52863815Y-119674818D01*
X51825181Y-118636184D01*
X51825175Y-118636179D01*
X51825172Y-118636176D01*
X51777743Y-118597956D01*
X51777739Y-118597954D01*
X51644737Y-118537213D01*
X51644732Y-118537212D01*
X51500000Y-118516404D01*
X51355267Y-118537212D01*
X51355262Y-118537213D01*
X51222260Y-118597954D01*
X51222255Y-118597957D01*
X51174818Y-118636184D01*
X50136184Y-119674818D01*
X50097957Y-119722255D01*
X50097954Y-119722260D01*
X50037213Y-119855262D01*
X50037212Y-119855267D01*
X50016404Y-120000000D01*
X50037212Y-120144732D01*
X50037213Y-120144737D01*
X50095249Y-120271815D01*
X50097956Y-120277743D01*
X50136176Y-120325172D01*
X50136179Y-120325175D01*
X50136184Y-120325181D01*
X51174818Y-121363815D01*
X51174823Y-121363819D01*
X51174828Y-121363824D01*
X51222257Y-121402044D01*
X51256598Y-121417727D01*
X51355262Y-121462786D01*
X51355265Y-121462786D01*
X51355266Y-121462787D01*
X51500000Y-121483596D01*
X51644734Y-121462787D01*
X51644735Y-121462786D01*
X51644737Y-121462786D01*
X51691502Y-121441429D01*
X51777743Y-121402044D01*
X51825172Y-121363824D01*
X51988637Y-121200358D01*
X52049959Y-121166875D01*
X52119650Y-121171859D01*
X52175584Y-121213730D01*
X52200001Y-121279195D01*
X52187319Y-121343309D01*
X52177634Y-121362759D01*
X52177628Y-121362774D01*
X52117056Y-121575659D01*
X52096635Y-121796050D01*
X52096635Y-121796051D01*
X52117056Y-122016442D01*
X52177628Y-122229327D01*
X52177633Y-122229340D01*
X52276287Y-122427462D01*
X52405000Y-122597906D01*
X52409672Y-122604092D01*
X52573241Y-122753206D01*
X52573243Y-122753207D01*
X52573244Y-122753208D01*
X52761421Y-122869722D01*
X52761423Y-122869723D01*
X52761425Y-122869724D01*
X52967815Y-122949680D01*
X53185383Y-122990351D01*
X53185385Y-122990351D01*
X53406717Y-122990351D01*
X53406719Y-122990351D01*
X53624287Y-122949680D01*
X53830677Y-122869724D01*
X54018861Y-122753206D01*
X54182430Y-122604092D01*
X54315815Y-122427462D01*
X54414473Y-122229330D01*
X54475045Y-122016443D01*
X54495467Y-121796051D01*
X54484093Y-121673310D01*
X54497508Y-121604741D01*
X54519883Y-121574188D01*
X54642430Y-121451642D01*
X54765400Y-121328672D01*
X54826723Y-121295187D01*
X54853081Y-121292353D01*
X59083647Y-121292353D01*
X59150686Y-121312038D01*
X59196441Y-121364842D01*
X59207647Y-121416353D01*
X59207647Y-121635932D01*
X59229940Y-121748008D01*
X59229941Y-121748011D01*
X59234874Y-121772808D01*
X59234875Y-121772812D01*
X59288282Y-121901748D01*
X59288283Y-121901751D01*
X59365818Y-122017789D01*
X59365821Y-122017793D01*
X60705181Y-123357152D01*
X60738666Y-123418475D01*
X60741500Y-123444833D01*
X60741500Y-124000537D01*
X60741501Y-124000553D01*
X60752113Y-124104427D01*
X60793796Y-124230219D01*
X60807885Y-124272738D01*
X60900970Y-124423652D01*
X61026348Y-124549030D01*
X61177262Y-124642115D01*
X61345574Y-124697887D01*
X61449455Y-124708500D01*
X62075544Y-124708499D01*
X62179426Y-124697887D01*
X62347738Y-124642115D01*
X62498652Y-124549030D01*
X62624030Y-124423652D01*
X62717115Y-124272738D01*
X62717116Y-124272735D01*
X62720906Y-124266591D01*
X62722653Y-124267668D01*
X62762069Y-124222892D01*
X62829260Y-124203732D01*
X62896143Y-124223940D01*
X62927558Y-124253417D01*
X62967813Y-124307190D01*
X63082906Y-124393350D01*
X63082913Y-124393354D01*
X63217620Y-124443596D01*
X63217627Y-124443598D01*
X63277155Y-124449999D01*
X63277172Y-124450000D01*
X63462500Y-124450000D01*
X63462500Y-123625000D01*
X63712500Y-123625000D01*
X63712500Y-124450000D01*
X63897828Y-124450000D01*
X63897844Y-124449999D01*
X63957372Y-124443598D01*
X63957379Y-124443596D01*
X64092086Y-124393354D01*
X64092093Y-124393350D01*
X64207187Y-124307190D01*
X64207190Y-124307187D01*
X64293350Y-124192093D01*
X64293354Y-124192086D01*
X64343596Y-124057379D01*
X64343598Y-124057372D01*
X64349999Y-123997844D01*
X64350000Y-123997827D01*
X64350000Y-123625000D01*
X63712500Y-123625000D01*
X63462500Y-123625000D01*
X63462500Y-122550000D01*
X63712500Y-122550000D01*
X63712500Y-123375000D01*
X64350000Y-123375000D01*
X64350000Y-123002172D01*
X64349999Y-123002155D01*
X64343598Y-122942627D01*
X64343596Y-122942620D01*
X64293354Y-122807913D01*
X64293350Y-122807906D01*
X64207190Y-122692812D01*
X64207187Y-122692809D01*
X64092093Y-122606649D01*
X64092086Y-122606645D01*
X63957379Y-122556403D01*
X63957372Y-122556401D01*
X63897844Y-122550000D01*
X63712500Y-122550000D01*
X63462500Y-122550000D01*
X63277155Y-122550000D01*
X63217627Y-122556401D01*
X63217620Y-122556403D01*
X63082913Y-122606645D01*
X63082906Y-122606649D01*
X62967812Y-122692809D01*
X62927557Y-122746583D01*
X62871623Y-122788453D01*
X62801931Y-122793437D01*
X62740609Y-122759951D01*
X62721687Y-122732927D01*
X62720906Y-122733409D01*
X62717115Y-122727263D01*
X62717115Y-122727262D01*
X62624030Y-122576348D01*
X62498652Y-122450970D01*
X62375486Y-122375000D01*
X62347740Y-122357886D01*
X62347735Y-122357884D01*
X62179427Y-122302113D01*
X62075552Y-122291500D01*
X62075545Y-122291500D01*
X61694833Y-122291500D01*
X61627794Y-122271815D01*
X61607152Y-122255181D01*
X61266729Y-121914758D01*
X61233244Y-121853435D01*
X61238228Y-121783743D01*
X61280100Y-121727810D01*
X61345564Y-121703393D01*
X61378601Y-121705459D01*
X61393883Y-121708500D01*
X61393884Y-121708500D01*
X64655167Y-121708500D01*
X64722206Y-121728185D01*
X64742848Y-121744819D01*
X65255181Y-122257151D01*
X65288666Y-122318474D01*
X65291500Y-122344832D01*
X65291500Y-125305166D01*
X65271815Y-125372205D01*
X65255181Y-125392847D01*
X64942848Y-125705181D01*
X64881525Y-125738666D01*
X64855167Y-125741500D01*
X64101344Y-125741500D01*
X64040796Y-125748011D01*
X64033241Y-125749796D01*
X64032774Y-125747822D01*
X63973621Y-125752044D01*
X63962704Y-125748838D01*
X63959203Y-125748011D01*
X63898655Y-125741500D01*
X63898639Y-125741500D01*
X62801363Y-125741500D01*
X62801346Y-125741500D01*
X62740798Y-125748011D01*
X62740796Y-125748011D01*
X62603796Y-125799111D01*
X62486740Y-125886739D01*
X62399112Y-126003795D01*
X62348012Y-126140795D01*
X62348012Y-126140797D01*
X62341501Y-126201345D01*
X62341501Y-127798654D01*
X62348012Y-127859202D01*
X62348012Y-127859204D01*
X62384546Y-127957152D01*
X62399112Y-127996204D01*
X62486740Y-128113261D01*
X62568375Y-128174372D01*
X62591812Y-128191917D01*
X62633683Y-128247851D01*
X62641501Y-128291184D01*
X62641501Y-130570168D01*
X62621816Y-130637207D01*
X62569012Y-130682962D01*
X62499854Y-130692906D01*
X62436298Y-130663881D01*
X62429820Y-130657849D01*
X59339819Y-127567848D01*
X59306334Y-127506525D01*
X59303500Y-127480167D01*
X59303500Y-127173206D01*
X59303499Y-127173204D01*
X59298994Y-127150556D01*
X59263783Y-126973539D01*
X59253899Y-126949677D01*
X59185879Y-126785460D01*
X59185872Y-126785447D01*
X59072772Y-126616182D01*
X59072769Y-126616178D01*
X58928821Y-126472230D01*
X58928817Y-126472227D01*
X58759552Y-126359127D01*
X58759539Y-126359120D01*
X58571465Y-126281218D01*
X58571453Y-126281215D01*
X58371794Y-126241500D01*
X58371791Y-126241500D01*
X58168209Y-126241500D01*
X58168206Y-126241500D01*
X57968546Y-126281215D01*
X57968538Y-126281217D01*
X57780457Y-126359122D01*
X57780445Y-126359129D01*
X57703888Y-126410282D01*
X57637211Y-126431159D01*
X57569831Y-126412674D01*
X57566142Y-126410303D01*
X57489547Y-126359124D01*
X57489546Y-126359123D01*
X57489544Y-126359122D01*
X57301466Y-126281218D01*
X57301454Y-126281215D01*
X57101795Y-126241500D01*
X57101792Y-126241500D01*
X56898210Y-126241500D01*
X56898207Y-126241500D01*
X56698547Y-126281215D01*
X56698535Y-126281218D01*
X56510461Y-126359120D01*
X56510448Y-126359127D01*
X56365603Y-126455911D01*
X56341185Y-126472227D01*
X56336119Y-126475612D01*
X56335383Y-126474511D01*
X56277324Y-126499167D01*
X56262975Y-126500000D01*
X55855000Y-126500000D01*
X55855000Y-127145265D01*
X55779370Y-127125000D01*
X55680630Y-127125000D01*
X55605000Y-127145265D01*
X55605000Y-126500000D01*
X55180373Y-126500000D01*
X55107459Y-126514503D01*
X55107455Y-126514505D01*
X55024760Y-126569760D01*
X54969505Y-126652455D01*
X54969503Y-126652459D01*
X54955000Y-126725371D01*
X54955000Y-127375000D01*
X55375265Y-127375000D01*
X55355000Y-127450630D01*
X55355000Y-127549370D01*
X55375265Y-127625000D01*
X54955000Y-127625000D01*
X54955000Y-128274628D01*
X54969503Y-128347540D01*
X54969505Y-128347544D01*
X55024760Y-128430239D01*
X55107455Y-128485494D01*
X55107459Y-128485496D01*
X55180371Y-128499999D01*
X55180374Y-128500000D01*
X55605000Y-128500000D01*
X55605000Y-127854734D01*
X55680630Y-127875000D01*
X55779370Y-127875000D01*
X55855000Y-127854734D01*
X55855000Y-128500000D01*
X56167501Y-128500000D01*
X56234540Y-128519685D01*
X56280295Y-128572489D01*
X56291501Y-128624000D01*
X56291501Y-130630164D01*
X56271816Y-130697203D01*
X56255182Y-130717845D01*
X54492845Y-132480181D01*
X54431522Y-132513666D01*
X54405165Y-132516500D01*
X54217726Y-132516500D01*
X54146353Y-132522985D01*
X54146343Y-132522988D01*
X53982089Y-132574171D01*
X53834840Y-132663186D01*
X53834839Y-132663187D01*
X53737680Y-132760347D01*
X53676357Y-132793832D01*
X53606665Y-132788848D01*
X53562318Y-132760347D01*
X53465157Y-132663186D01*
X53367956Y-132604426D01*
X53317912Y-132574173D01*
X53153648Y-132522987D01*
X53153646Y-132522986D01*
X53153644Y-132522986D01*
X53103666Y-132518444D01*
X53082264Y-132516500D01*
X53082261Y-132516500D01*
X52567726Y-132516500D01*
X52496353Y-132522985D01*
X52496343Y-132522988D01*
X52332089Y-132574171D01*
X52184840Y-132663186D01*
X52063185Y-132784841D01*
X51974172Y-132932086D01*
X51922985Y-133096354D01*
X51916499Y-133167737D01*
X51916499Y-133832272D01*
X51922984Y-133903645D01*
X51922986Y-133903652D01*
X51935884Y-133945042D01*
X51941499Y-133981933D01*
X51941499Y-137208816D01*
X51921814Y-137275855D01*
X51891810Y-137308083D01*
X51786738Y-137386739D01*
X51699110Y-137503795D01*
X51648010Y-137640795D01*
X51648010Y-137640797D01*
X51641499Y-137701345D01*
X51641499Y-139298654D01*
X51648010Y-139359202D01*
X51648010Y-139359204D01*
X51690460Y-139473012D01*
X51699110Y-139496204D01*
X51786738Y-139613261D01*
X51903795Y-139700889D01*
X52018948Y-139743839D01*
X52038556Y-139751153D01*
X52040798Y-139751989D01*
X52068049Y-139754918D01*
X52101344Y-139758499D01*
X52101361Y-139758500D01*
X53198637Y-139758500D01*
X53198653Y-139758499D01*
X53236559Y-139754423D01*
X53259200Y-139751989D01*
X53259206Y-139751986D01*
X53266753Y-139750204D01*
X53267220Y-139752183D01*
X53326338Y-139747946D01*
X53337262Y-139751153D01*
X53340790Y-139751987D01*
X53340796Y-139751989D01*
X53357776Y-139753814D01*
X53401342Y-139758499D01*
X53401359Y-139758500D01*
X54155165Y-139758500D01*
X54222204Y-139778185D01*
X54242846Y-139794819D01*
X54648351Y-140200325D01*
X54648355Y-140200328D01*
X54764392Y-140277862D01*
X54764393Y-140277862D01*
X54764397Y-140277865D01*
X54801755Y-140293339D01*
X54893335Y-140331273D01*
X55030211Y-140358499D01*
X55030215Y-140358500D01*
X55030216Y-140358500D01*
X59919782Y-140358500D01*
X59988221Y-140344886D01*
X59988222Y-140344886D01*
X60005448Y-140341459D01*
X60056662Y-140331273D01*
X60107845Y-140310072D01*
X60185601Y-140277865D01*
X60301643Y-140200328D01*
X60700327Y-139801643D01*
X60702722Y-139798057D01*
X60756331Y-139753249D01*
X60762494Y-139750761D01*
X60845521Y-139719792D01*
X60896203Y-139700889D01*
X61013260Y-139613261D01*
X61100888Y-139496204D01*
X61151988Y-139359201D01*
X61156284Y-139319245D01*
X61183022Y-139254694D01*
X61240414Y-139214845D01*
X61279573Y-139208500D01*
X61800128Y-139208500D01*
X61840169Y-139200535D01*
X61880212Y-139192570D01*
X61937007Y-139181273D01*
X61984743Y-139161500D01*
X62065946Y-139127865D01*
X62181988Y-139050328D01*
X64237496Y-136994818D01*
X64298819Y-136961334D01*
X64325177Y-136958500D01*
X69336429Y-136958500D01*
X69403468Y-136978185D01*
X69449223Y-137030989D01*
X69459167Y-137100147D01*
X69456635Y-137112940D01*
X69415436Y-137275628D01*
X69415434Y-137275640D01*
X69396844Y-137499994D01*
X69396844Y-137500000D01*
X69408914Y-137645668D01*
X69394832Y-137714104D01*
X69373018Y-137743588D01*
X67661996Y-139454610D01*
X67573519Y-139587026D01*
X67573512Y-139587039D01*
X67562652Y-139613260D01*
X67562652Y-139613261D01*
X67512570Y-139734168D01*
X67512568Y-139734176D01*
X67481500Y-139890365D01*
X67481500Y-141178823D01*
X67512568Y-141335012D01*
X67512571Y-141335024D01*
X67526558Y-141368791D01*
X67526560Y-141368794D01*
X67573517Y-141482160D01*
X67661996Y-141614577D01*
X67661999Y-141614581D01*
X68835738Y-142788319D01*
X68869223Y-142849642D01*
X68864239Y-142919334D01*
X68822367Y-142975267D01*
X68756903Y-142999684D01*
X68748057Y-143000000D01*
X47124000Y-143000000D01*
X47056961Y-142980315D01*
X47011206Y-142927511D01*
X47000000Y-142876000D01*
X47000000Y-123500812D01*
X47000012Y-123499120D01*
X47002289Y-123332227D01*
X47004407Y-123176977D01*
X47004680Y-123170278D01*
X47010647Y-123082379D01*
X47048408Y-122526130D01*
X47049157Y-122518556D01*
X47132487Y-121878789D01*
X47133702Y-121871275D01*
X47256349Y-121237862D01*
X47258026Y-121230433D01*
X47419520Y-120605790D01*
X47421653Y-120598481D01*
X47621379Y-119984996D01*
X47623951Y-119977851D01*
X47861152Y-119377849D01*
X47864181Y-119370832D01*
X48137934Y-118786642D01*
X48141365Y-118779870D01*
X48450668Y-118213634D01*
X48454509Y-118207091D01*
X48798150Y-117661034D01*
X48802408Y-117654710D01*
X49179072Y-117130913D01*
X49183708Y-117124870D01*
X49591972Y-116625311D01*
X49596980Y-116619556D01*
X50035282Y-116146147D01*
X50040630Y-116140716D01*
X50507318Y-115695242D01*
X50512985Y-115690157D01*
X51006291Y-115274307D01*
X51012246Y-115269594D01*
X51530241Y-114884995D01*
X51536501Y-114880640D01*
X52077255Y-114528723D01*
X52083748Y-114524777D01*
X52645185Y-114206895D01*
X52651925Y-114203349D01*
X53231893Y-113920720D01*
X53238854Y-113917590D01*
X53835170Y-113671276D01*
X53842271Y-113668597D01*
X54452620Y-113459556D01*
X54459918Y-113457305D01*
X55082010Y-113286317D01*
X55089439Y-113284521D01*
X55153013Y-113271202D01*
X55200944Y-113261162D01*
X55270594Y-113266682D01*
G37*
%TD.AperFunction*%
%TA.AperFunction,Conductor*%
G36*
X109989796Y-118394911D02*
G01*
X110010438Y-118411545D01*
X110235070Y-118636176D01*
X110403385Y-118804491D01*
X110403393Y-118804497D01*
X110403398Y-118804502D01*
X110484336Y-118870437D01*
X110484340Y-118870439D01*
X110484344Y-118870443D01*
X110484346Y-118870444D01*
X110484349Y-118870446D01*
X110600189Y-118928623D01*
X110642796Y-118950021D01*
X110815329Y-118990912D01*
X110815331Y-118990912D01*
X110992638Y-118990912D01*
X110992640Y-118990912D01*
X111165174Y-118950021D01*
X111323625Y-118870443D01*
X111404584Y-118804493D01*
X111797530Y-118411544D01*
X111858853Y-118378060D01*
X111885211Y-118375226D01*
X114303897Y-118375226D01*
X114370936Y-118394911D01*
X114416691Y-118447715D01*
X114427897Y-118499226D01*
X114427897Y-119517935D01*
X114408212Y-119584974D01*
X114401172Y-119594194D01*
X114401176Y-119594197D01*
X114397354Y-119599456D01*
X114301870Y-119764840D01*
X114301867Y-119764847D01*
X114243870Y-119943344D01*
X114242855Y-119946469D01*
X114222893Y-120136397D01*
X114242855Y-120326325D01*
X114242856Y-120326328D01*
X114301867Y-120507946D01*
X114301870Y-120507953D01*
X114397357Y-120673341D01*
X114525144Y-120815263D01*
X114679645Y-120927515D01*
X114854109Y-121005191D01*
X115040910Y-121044897D01*
X115167500Y-121044897D01*
X115234539Y-121064582D01*
X115280294Y-121117386D01*
X115291500Y-121168897D01*
X115291500Y-124069785D01*
X115318725Y-124206655D01*
X115318727Y-124206662D01*
X115328483Y-124230215D01*
X115328484Y-124230219D01*
X115328485Y-124230219D01*
X115372135Y-124335601D01*
X115372136Y-124335604D01*
X115449671Y-124451642D01*
X115449674Y-124451646D01*
X118955181Y-127957152D01*
X118988666Y-128018475D01*
X118991500Y-128044833D01*
X118991500Y-128798654D01*
X118998011Y-128859202D01*
X118998011Y-128859204D01*
X119032814Y-128952511D01*
X119049111Y-128996204D01*
X119136739Y-129113261D01*
X119253796Y-129200889D01*
X119368949Y-129243839D01*
X119385463Y-129249999D01*
X119390799Y-129251989D01*
X119418050Y-129254918D01*
X119451345Y-129258499D01*
X119451362Y-129258500D01*
X120467498Y-129258500D01*
X120534537Y-129278185D01*
X120580292Y-129330989D01*
X120591498Y-129382500D01*
X120591498Y-130790165D01*
X120571813Y-130857204D01*
X120519009Y-130902959D01*
X120449851Y-130912903D01*
X120386295Y-130883878D01*
X120379817Y-130877846D01*
X117569819Y-128067848D01*
X117536334Y-128006525D01*
X117533500Y-127980167D01*
X117533500Y-127673206D01*
X117533499Y-127673204D01*
X117527838Y-127644745D01*
X117493783Y-127473539D01*
X117452967Y-127375000D01*
X117415879Y-127285460D01*
X117415872Y-127285447D01*
X117302772Y-127116182D01*
X117302769Y-127116178D01*
X117158821Y-126972230D01*
X117158817Y-126972227D01*
X116989552Y-126859127D01*
X116989539Y-126859120D01*
X116801465Y-126781218D01*
X116801453Y-126781215D01*
X116601794Y-126741500D01*
X116601791Y-126741500D01*
X116398209Y-126741500D01*
X116398206Y-126741500D01*
X116198546Y-126781215D01*
X116198538Y-126781217D01*
X116010457Y-126859122D01*
X116010445Y-126859129D01*
X115933888Y-126910282D01*
X115867211Y-126931159D01*
X115799831Y-126912674D01*
X115796142Y-126910303D01*
X115719547Y-126859124D01*
X115719546Y-126859123D01*
X115719544Y-126859122D01*
X115531466Y-126781218D01*
X115531454Y-126781215D01*
X115331795Y-126741500D01*
X115331792Y-126741500D01*
X115128210Y-126741500D01*
X115128207Y-126741500D01*
X114928547Y-126781215D01*
X114928535Y-126781218D01*
X114740461Y-126859120D01*
X114740448Y-126859127D01*
X114605051Y-126949598D01*
X114571185Y-126972227D01*
X114566119Y-126975612D01*
X114565383Y-126974511D01*
X114507324Y-126999167D01*
X114492975Y-127000000D01*
X114085000Y-127000000D01*
X114085000Y-127645265D01*
X114009370Y-127625000D01*
X113910630Y-127625000D01*
X113835000Y-127645265D01*
X113835000Y-127000000D01*
X113410373Y-127000000D01*
X113337459Y-127014503D01*
X113337455Y-127014505D01*
X113254760Y-127069760D01*
X113199505Y-127152455D01*
X113199503Y-127152459D01*
X113185000Y-127225371D01*
X113185000Y-127875000D01*
X113605265Y-127875000D01*
X113585000Y-127950630D01*
X113585000Y-128049370D01*
X113605265Y-128125000D01*
X113185000Y-128125000D01*
X113185000Y-128774628D01*
X113199503Y-128847540D01*
X113199505Y-128847544D01*
X113254760Y-128930239D01*
X113337455Y-128985494D01*
X113337459Y-128985496D01*
X113410371Y-128999999D01*
X113410374Y-129000000D01*
X113835000Y-129000000D01*
X113835000Y-128354734D01*
X113910630Y-128375000D01*
X114009370Y-128375000D01*
X114085000Y-128354734D01*
X114085000Y-129000000D01*
X114492974Y-129000000D01*
X114560013Y-129019685D01*
X114570471Y-129027296D01*
X114571182Y-129027771D01*
X114571183Y-129027772D01*
X114740455Y-129140876D01*
X114740461Y-129140878D01*
X114745327Y-129143479D01*
X114774561Y-129165160D01*
X115452082Y-129842681D01*
X116064906Y-130455504D01*
X116098391Y-130516827D01*
X116093407Y-130586519D01*
X116051535Y-130642452D01*
X115986071Y-130666869D01*
X115977225Y-130667185D01*
X115828828Y-130667185D01*
X115642029Y-130706890D01*
X115467561Y-130784568D01*
X115313060Y-130896820D01*
X115185274Y-131038742D01*
X115089788Y-131204128D01*
X115089785Y-131204135D01*
X115035941Y-131369852D01*
X115030773Y-131385757D01*
X115010811Y-131575685D01*
X115030773Y-131765613D01*
X115077422Y-131909182D01*
X115079417Y-131979023D01*
X115043337Y-132038856D01*
X114980636Y-132069684D01*
X114959491Y-132071500D01*
X112975214Y-132071500D01*
X112838344Y-132098725D01*
X112838334Y-132098728D01*
X112827998Y-132103010D01*
X112827996Y-132103011D01*
X112709402Y-132152133D01*
X112709393Y-132152138D01*
X112593358Y-132229671D01*
X112593354Y-132229674D01*
X112342847Y-132480181D01*
X112281524Y-132513666D01*
X112255167Y-132516500D01*
X112067727Y-132516500D01*
X111996354Y-132522985D01*
X111996344Y-132522988D01*
X111832090Y-132574171D01*
X111684841Y-132663186D01*
X111684840Y-132663187D01*
X111587681Y-132760347D01*
X111526358Y-132793832D01*
X111456666Y-132788848D01*
X111412319Y-132760347D01*
X111315158Y-132663186D01*
X111217957Y-132604426D01*
X111167913Y-132574173D01*
X111003649Y-132522987D01*
X111003647Y-132522986D01*
X111003645Y-132522986D01*
X110953667Y-132518444D01*
X110932265Y-132516500D01*
X110932262Y-132516500D01*
X110417727Y-132516500D01*
X110346354Y-132522985D01*
X110346344Y-132522988D01*
X110182090Y-132574171D01*
X110034841Y-132663186D01*
X109913186Y-132784841D01*
X109824173Y-132932086D01*
X109772986Y-133096354D01*
X109766500Y-133167737D01*
X109766500Y-133832272D01*
X109772985Y-133903645D01*
X109772988Y-133903655D01*
X109824171Y-134067909D01*
X109824172Y-134067911D01*
X109824173Y-134067913D01*
X109911335Y-134212096D01*
X109913186Y-134215158D01*
X109930179Y-134232150D01*
X109963666Y-134293472D01*
X109966500Y-134319833D01*
X109966500Y-137044783D01*
X109993724Y-137181652D01*
X109993726Y-137181657D01*
X109997129Y-137189873D01*
X110047135Y-137310599D01*
X110047136Y-137310602D01*
X110124671Y-137426640D01*
X110124674Y-137426644D01*
X111155183Y-138457151D01*
X111188668Y-138518474D01*
X111191502Y-138544832D01*
X111191502Y-139298654D01*
X111198013Y-139359202D01*
X111198013Y-139359204D01*
X111240463Y-139473012D01*
X111249113Y-139496204D01*
X111336741Y-139613261D01*
X111453798Y-139700889D01*
X111568951Y-139743839D01*
X111588559Y-139751153D01*
X111590801Y-139751989D01*
X111618052Y-139754918D01*
X111651347Y-139758499D01*
X111651364Y-139758500D01*
X112666635Y-139758500D01*
X112733674Y-139778185D01*
X112779429Y-139830989D01*
X112789373Y-139900147D01*
X112763475Y-139956854D01*
X112764778Y-139957801D01*
X112760959Y-139963056D01*
X112665473Y-140128443D01*
X112665470Y-140128450D01*
X112611895Y-140293339D01*
X112606458Y-140310072D01*
X112586496Y-140500000D01*
X112606458Y-140689928D01*
X112606459Y-140689931D01*
X112665470Y-140871549D01*
X112665473Y-140871556D01*
X112760960Y-141036944D01*
X112820022Y-141102539D01*
X112888704Y-141178819D01*
X112888747Y-141178866D01*
X113043248Y-141291118D01*
X113217712Y-141368794D01*
X113404513Y-141408500D01*
X113595487Y-141408500D01*
X113782288Y-141368794D01*
X113956752Y-141291118D01*
X113964562Y-141285443D01*
X114037871Y-141232182D01*
X114103677Y-141208702D01*
X114110756Y-141208500D01*
X115461202Y-141208500D01*
X115529641Y-141194886D01*
X115529642Y-141194886D01*
X115546868Y-141191459D01*
X115598082Y-141181273D01*
X115635847Y-141165630D01*
X115635847Y-141165631D01*
X115635856Y-141165626D01*
X115640654Y-141163638D01*
X115688082Y-141154210D01*
X116784406Y-141154210D01*
X116851445Y-141173895D01*
X116897200Y-141226699D01*
X116907144Y-141295857D01*
X116878119Y-141359413D01*
X116872087Y-141365891D01*
X116582797Y-141655181D01*
X116521474Y-141688666D01*
X116495116Y-141691500D01*
X70077065Y-141691500D01*
X70010026Y-141671815D01*
X69989384Y-141655181D01*
X69134819Y-140800616D01*
X69101334Y-140739293D01*
X69098500Y-140712935D01*
X69098500Y-140356253D01*
X69118185Y-140289214D01*
X69134814Y-140268577D01*
X69489929Y-139913462D01*
X69551251Y-139879978D01*
X69620943Y-139884962D01*
X69665390Y-139915000D01*
X70275856Y-139915000D01*
X70260000Y-139974174D01*
X70260000Y-140105826D01*
X70275856Y-140165000D01*
X69666870Y-140165000D01*
X69674097Y-140242989D01*
X69674097Y-140242992D01*
X69729883Y-140439063D01*
X69729886Y-140439069D01*
X69820754Y-140621556D01*
X69943608Y-140784242D01*
X70094260Y-140921578D01*
X70267584Y-141028897D01*
X70457678Y-141102539D01*
X70635000Y-141135686D01*
X70635000Y-140524144D01*
X70694174Y-140540000D01*
X70825826Y-140540000D01*
X70885000Y-140524144D01*
X70885000Y-141135686D01*
X71062321Y-141102539D01*
X71252415Y-141028897D01*
X71425739Y-140921578D01*
X71576391Y-140784242D01*
X71699247Y-140621554D01*
X71779935Y-140459511D01*
X71827438Y-140408273D01*
X71895100Y-140390852D01*
X71961441Y-140412777D01*
X72005396Y-140467089D01*
X72008957Y-140477784D01*
X72009036Y-140477758D01*
X72010703Y-140482613D01*
X72010704Y-140482616D01*
X72020928Y-140505925D01*
X72101140Y-140688792D01*
X72224276Y-140877265D01*
X72224284Y-140877276D01*
X72376756Y-141042902D01*
X72376760Y-141042906D01*
X72554424Y-141181189D01*
X72554425Y-141181189D01*
X72554427Y-141181191D01*
X72638519Y-141226699D01*
X72752426Y-141288342D01*
X72965365Y-141361444D01*
X73187431Y-141398500D01*
X73412569Y-141398500D01*
X73634635Y-141361444D01*
X73847574Y-141288342D01*
X74045576Y-141181189D01*
X74223240Y-141042906D01*
X74375722Y-140877268D01*
X74466193Y-140738790D01*
X74519338Y-140693437D01*
X74588569Y-140684013D01*
X74651905Y-140713515D01*
X74673804Y-140738787D01*
X74764278Y-140877268D01*
X74764283Y-140877273D01*
X74764284Y-140877276D01*
X74916756Y-141042902D01*
X74916760Y-141042906D01*
X75094424Y-141181189D01*
X75094425Y-141181189D01*
X75094427Y-141181191D01*
X75178519Y-141226699D01*
X75292426Y-141288342D01*
X75505365Y-141361444D01*
X75727431Y-141398500D01*
X75952569Y-141398500D01*
X76174635Y-141361444D01*
X76387574Y-141288342D01*
X76585576Y-141181189D01*
X76763240Y-141042906D01*
X76915722Y-140877268D01*
X77038860Y-140688791D01*
X77129296Y-140482616D01*
X77129298Y-140482604D01*
X77130964Y-140477758D01*
X77132455Y-140478270D01*
X77164372Y-140424210D01*
X77226783Y-140392800D01*
X77296268Y-140400118D01*
X77350767Y-140443841D01*
X77360064Y-140459510D01*
X77440754Y-140621556D01*
X77563608Y-140784242D01*
X77714260Y-140921578D01*
X77887584Y-141028897D01*
X78077678Y-141102539D01*
X78255000Y-141135686D01*
X78255000Y-140524144D01*
X78314174Y-140540000D01*
X78445826Y-140540000D01*
X78505000Y-140524144D01*
X78505000Y-141135686D01*
X78682321Y-141102539D01*
X78872415Y-141028897D01*
X79045739Y-140921578D01*
X79196391Y-140784242D01*
X79319247Y-140621554D01*
X79399935Y-140459511D01*
X79447438Y-140408273D01*
X79515100Y-140390852D01*
X79581441Y-140412777D01*
X79625396Y-140467089D01*
X79628957Y-140477784D01*
X79629036Y-140477758D01*
X79630703Y-140482613D01*
X79630704Y-140482616D01*
X79640928Y-140505925D01*
X79721140Y-140688792D01*
X79844276Y-140877265D01*
X79844284Y-140877276D01*
X79996756Y-141042902D01*
X79996760Y-141042906D01*
X80174424Y-141181189D01*
X80174425Y-141181189D01*
X80174427Y-141181191D01*
X80258519Y-141226699D01*
X80372426Y-141288342D01*
X80585365Y-141361444D01*
X80807431Y-141398500D01*
X81032569Y-141398500D01*
X81254635Y-141361444D01*
X81467574Y-141288342D01*
X81665576Y-141181189D01*
X81843240Y-141042906D01*
X81995722Y-140877268D01*
X82086193Y-140738790D01*
X82139338Y-140693437D01*
X82208569Y-140684013D01*
X82271905Y-140713515D01*
X82293804Y-140738787D01*
X82384278Y-140877268D01*
X82384283Y-140877273D01*
X82384284Y-140877276D01*
X82536756Y-141042902D01*
X82536760Y-141042906D01*
X82714424Y-141181189D01*
X82714425Y-141181189D01*
X82714427Y-141181191D01*
X82798519Y-141226699D01*
X82912426Y-141288342D01*
X83125365Y-141361444D01*
X83347431Y-141398500D01*
X83572569Y-141398500D01*
X83794635Y-141361444D01*
X84007574Y-141288342D01*
X84205576Y-141181189D01*
X84383240Y-141042906D01*
X84535722Y-140877268D01*
X84658860Y-140688791D01*
X84749296Y-140482616D01*
X84749298Y-140482604D01*
X84750964Y-140477758D01*
X84752455Y-140478270D01*
X84784372Y-140424210D01*
X84846783Y-140392800D01*
X84916268Y-140400118D01*
X84970767Y-140443841D01*
X84980064Y-140459510D01*
X85060754Y-140621556D01*
X85183608Y-140784242D01*
X85334260Y-140921578D01*
X85507584Y-141028897D01*
X85697678Y-141102539D01*
X85875000Y-141135686D01*
X85875000Y-140524144D01*
X85934174Y-140540000D01*
X86065826Y-140540000D01*
X86125000Y-140524144D01*
X86125000Y-141135686D01*
X86302321Y-141102539D01*
X86492415Y-141028897D01*
X86665739Y-140921578D01*
X86816391Y-140784242D01*
X86939247Y-140621554D01*
X87019935Y-140459511D01*
X87067438Y-140408273D01*
X87135100Y-140390852D01*
X87201441Y-140412777D01*
X87245396Y-140467089D01*
X87248957Y-140477784D01*
X87249036Y-140477758D01*
X87250703Y-140482613D01*
X87250704Y-140482616D01*
X87260928Y-140505925D01*
X87341140Y-140688792D01*
X87464276Y-140877265D01*
X87464284Y-140877276D01*
X87616756Y-141042902D01*
X87616760Y-141042906D01*
X87794424Y-141181189D01*
X87794425Y-141181189D01*
X87794427Y-141181191D01*
X87878519Y-141226699D01*
X87992426Y-141288342D01*
X88205365Y-141361444D01*
X88427431Y-141398500D01*
X88652569Y-141398500D01*
X88874635Y-141361444D01*
X89087574Y-141288342D01*
X89285576Y-141181189D01*
X89463240Y-141042906D01*
X89615722Y-140877268D01*
X89706193Y-140738790D01*
X89759338Y-140693437D01*
X89828569Y-140684013D01*
X89891905Y-140713515D01*
X89913804Y-140738787D01*
X90004278Y-140877268D01*
X90004283Y-140877273D01*
X90004284Y-140877276D01*
X90156756Y-141042902D01*
X90156760Y-141042906D01*
X90334424Y-141181189D01*
X90334425Y-141181189D01*
X90334427Y-141181191D01*
X90418519Y-141226699D01*
X90532426Y-141288342D01*
X90745365Y-141361444D01*
X90967431Y-141398500D01*
X91192569Y-141398500D01*
X91414635Y-141361444D01*
X91627574Y-141288342D01*
X91825576Y-141181189D01*
X92003240Y-141042906D01*
X92155722Y-140877268D01*
X92278860Y-140688791D01*
X92369296Y-140482616D01*
X92369298Y-140482604D01*
X92370964Y-140477758D01*
X92372455Y-140478270D01*
X92404372Y-140424210D01*
X92466783Y-140392800D01*
X92536268Y-140400118D01*
X92590767Y-140443841D01*
X92600064Y-140459510D01*
X92680754Y-140621556D01*
X92803608Y-140784242D01*
X92954260Y-140921578D01*
X93127584Y-141028897D01*
X93317678Y-141102539D01*
X93495000Y-141135686D01*
X93495000Y-140524144D01*
X93554174Y-140540000D01*
X93685826Y-140540000D01*
X93745000Y-140524144D01*
X93745000Y-141135686D01*
X93922321Y-141102539D01*
X94112415Y-141028897D01*
X94285739Y-140921578D01*
X94436391Y-140784242D01*
X94559247Y-140621554D01*
X94639935Y-140459511D01*
X94687438Y-140408273D01*
X94755100Y-140390852D01*
X94821441Y-140412777D01*
X94865396Y-140467089D01*
X94868957Y-140477784D01*
X94869036Y-140477758D01*
X94870703Y-140482613D01*
X94870704Y-140482616D01*
X94880928Y-140505925D01*
X94961140Y-140688792D01*
X95084276Y-140877265D01*
X95084284Y-140877276D01*
X95236756Y-141042902D01*
X95236760Y-141042906D01*
X95414424Y-141181189D01*
X95414425Y-141181189D01*
X95414427Y-141181191D01*
X95498519Y-141226699D01*
X95612426Y-141288342D01*
X95825365Y-141361444D01*
X96047431Y-141398500D01*
X96272569Y-141398500D01*
X96494635Y-141361444D01*
X96707574Y-141288342D01*
X96905576Y-141181189D01*
X97083240Y-141042906D01*
X97235722Y-140877268D01*
X97326193Y-140738790D01*
X97379338Y-140693437D01*
X97448569Y-140684013D01*
X97511905Y-140713515D01*
X97533804Y-140738787D01*
X97624278Y-140877268D01*
X97624283Y-140877273D01*
X97624284Y-140877276D01*
X97776756Y-141042902D01*
X97776760Y-141042906D01*
X97954424Y-141181189D01*
X97954425Y-141181189D01*
X97954427Y-141181191D01*
X98038519Y-141226699D01*
X98152426Y-141288342D01*
X98365365Y-141361444D01*
X98587431Y-141398500D01*
X98812569Y-141398500D01*
X99034635Y-141361444D01*
X99247574Y-141288342D01*
X99445576Y-141181189D01*
X99623240Y-141042906D01*
X99775722Y-140877268D01*
X99898860Y-140688791D01*
X99989296Y-140482616D01*
X99989298Y-140482604D01*
X99990964Y-140477758D01*
X99992455Y-140478270D01*
X100024372Y-140424210D01*
X100086783Y-140392800D01*
X100156268Y-140400118D01*
X100210767Y-140443841D01*
X100220064Y-140459510D01*
X100300754Y-140621556D01*
X100423608Y-140784242D01*
X100574260Y-140921578D01*
X100747584Y-141028897D01*
X100937678Y-141102539D01*
X101115000Y-141135686D01*
X101115000Y-140524144D01*
X101174174Y-140540000D01*
X101305826Y-140540000D01*
X101365000Y-140524144D01*
X101365000Y-141135686D01*
X101542321Y-141102539D01*
X101732415Y-141028897D01*
X101905739Y-140921578D01*
X102056391Y-140784242D01*
X102179245Y-140621557D01*
X102186499Y-140606989D01*
X102234001Y-140555751D01*
X102301663Y-140538329D01*
X102368004Y-140560253D01*
X102411960Y-140614564D01*
X102421500Y-140662259D01*
X102421500Y-140938654D01*
X102428011Y-140999202D01*
X102428011Y-140999204D01*
X102466554Y-141102539D01*
X102479111Y-141136204D01*
X102566739Y-141253261D01*
X102683796Y-141340889D01*
X102820799Y-141391989D01*
X102848050Y-141394918D01*
X102881345Y-141398499D01*
X102881362Y-141398500D01*
X104678638Y-141398500D01*
X104678654Y-141398499D01*
X104705692Y-141395591D01*
X104739201Y-141391989D01*
X104876204Y-141340889D01*
X104993261Y-141253261D01*
X105080889Y-141136204D01*
X105131989Y-140999201D01*
X105135591Y-140965692D01*
X105138499Y-140938654D01*
X105138500Y-140938637D01*
X105138500Y-139141362D01*
X105138499Y-139141345D01*
X105135157Y-139110270D01*
X105131989Y-139080799D01*
X105120912Y-139051102D01*
X105088499Y-138964200D01*
X105080889Y-138943796D01*
X104993261Y-138826739D01*
X104876204Y-138739111D01*
X104758404Y-138695172D01*
X104702471Y-138653300D01*
X104678055Y-138587835D01*
X104692908Y-138519562D01*
X104710504Y-138495014D01*
X104855722Y-138337268D01*
X104978860Y-138148791D01*
X105069296Y-137942616D01*
X105124564Y-137724368D01*
X105126339Y-137702947D01*
X105143156Y-137500005D01*
X105143156Y-137499994D01*
X105124565Y-137275640D01*
X105124563Y-137275628D01*
X105069296Y-137057385D01*
X105063768Y-137044783D01*
X104978860Y-136851209D01*
X104962706Y-136826484D01*
X104855723Y-136662734D01*
X104855715Y-136662723D01*
X104703243Y-136497097D01*
X104703238Y-136497092D01*
X104562389Y-136387464D01*
X104525576Y-136358811D01*
X104525575Y-136358810D01*
X104525572Y-136358808D01*
X104327580Y-136251661D01*
X104327577Y-136251659D01*
X104327574Y-136251658D01*
X104327571Y-136251657D01*
X104327569Y-136251656D01*
X104114637Y-136178556D01*
X103892569Y-136141500D01*
X103667431Y-136141500D01*
X103445362Y-136178556D01*
X103232430Y-136251656D01*
X103232419Y-136251661D01*
X103034427Y-136358808D01*
X103034422Y-136358812D01*
X102856761Y-136497092D01*
X102856756Y-136497097D01*
X102704284Y-136662723D01*
X102704276Y-136662734D01*
X102613808Y-136801206D01*
X102560662Y-136846562D01*
X102491431Y-136855986D01*
X102428095Y-136826484D01*
X102406192Y-136801206D01*
X102315723Y-136662734D01*
X102315715Y-136662723D01*
X102163243Y-136497097D01*
X102163238Y-136497092D01*
X102022389Y-136387464D01*
X101985576Y-136358811D01*
X101985575Y-136358810D01*
X101985572Y-136358808D01*
X101787580Y-136251661D01*
X101787577Y-136251659D01*
X101787574Y-136251658D01*
X101787571Y-136251657D01*
X101787569Y-136251656D01*
X101574637Y-136178556D01*
X101352569Y-136141500D01*
X101127431Y-136141500D01*
X100905365Y-136178555D01*
X100822762Y-136206913D01*
X100752963Y-136210062D01*
X100692542Y-136174975D01*
X100660682Y-136112792D01*
X100658500Y-136089631D01*
X100658500Y-132894833D01*
X100678185Y-132827794D01*
X100694819Y-132807152D01*
X109050325Y-124451646D01*
X109050328Y-124451643D01*
X109127865Y-124335601D01*
X109151581Y-124278342D01*
X109195421Y-124223941D01*
X109222808Y-124209614D01*
X109246204Y-124200889D01*
X109363261Y-124113261D01*
X109450889Y-123996204D01*
X109501989Y-123859201D01*
X109506676Y-123815605D01*
X109508499Y-123798654D01*
X109508500Y-123798637D01*
X109508500Y-122201362D01*
X109508499Y-122201345D01*
X109504526Y-122164399D01*
X109501989Y-122140799D01*
X109493343Y-122117619D01*
X109471933Y-122060217D01*
X109450889Y-122003796D01*
X109363261Y-121886739D01*
X109258188Y-121808082D01*
X109216318Y-121752149D01*
X109208500Y-121708816D01*
X109208500Y-118499226D01*
X109228185Y-118432187D01*
X109280989Y-118386432D01*
X109332500Y-118375226D01*
X109922757Y-118375226D01*
X109989796Y-118394911D01*
G37*
%TD.AperFunction*%
%TA.AperFunction,Conductor*%
G36*
X77191905Y-138173515D02*
G01*
X77213804Y-138198787D01*
X77304278Y-138337268D01*
X77304283Y-138337273D01*
X77304284Y-138337276D01*
X77456756Y-138502902D01*
X77456761Y-138502907D01*
X77478159Y-138519562D01*
X77634424Y-138641189D01*
X77634425Y-138641189D01*
X77634427Y-138641191D01*
X77708439Y-138681244D01*
X77832426Y-138748342D01*
X77871101Y-138761619D01*
X77954863Y-138790375D01*
X78011878Y-138830761D01*
X78038009Y-138895560D01*
X78024957Y-138964200D01*
X77976869Y-139014888D01*
X77959394Y-139023282D01*
X77887590Y-139051098D01*
X77887588Y-139051100D01*
X77714260Y-139158421D01*
X77563608Y-139295757D01*
X77440754Y-139458443D01*
X77360064Y-139620489D01*
X77312561Y-139671726D01*
X77244898Y-139689147D01*
X77178557Y-139667221D01*
X77134603Y-139612910D01*
X77131043Y-139602214D01*
X77130964Y-139602242D01*
X77129297Y-139597391D01*
X77129296Y-139597384D01*
X77038860Y-139391209D01*
X77022706Y-139366484D01*
X76915723Y-139202734D01*
X76915715Y-139202723D01*
X76763243Y-139037097D01*
X76763238Y-139037092D01*
X76585577Y-138898812D01*
X76585578Y-138898812D01*
X76585576Y-138898811D01*
X76549070Y-138879055D01*
X76499479Y-138829836D01*
X76484371Y-138761619D01*
X76508541Y-138696064D01*
X76549070Y-138660945D01*
X76549084Y-138660936D01*
X76585576Y-138641189D01*
X76763240Y-138502906D01*
X76915722Y-138337268D01*
X77006193Y-138198790D01*
X77059338Y-138153437D01*
X77128569Y-138144013D01*
X77191905Y-138173515D01*
G37*
%TD.AperFunction*%
%TA.AperFunction,Conductor*%
G36*
X72111905Y-138173515D02*
G01*
X72133804Y-138198787D01*
X72224278Y-138337268D01*
X72224283Y-138337273D01*
X72224284Y-138337276D01*
X72376756Y-138502902D01*
X72376761Y-138502907D01*
X72398159Y-138519562D01*
X72554424Y-138641189D01*
X72554429Y-138641191D01*
X72554431Y-138641193D01*
X72590930Y-138660946D01*
X72640520Y-138710165D01*
X72655628Y-138778382D01*
X72631457Y-138843937D01*
X72590930Y-138879054D01*
X72554431Y-138898806D01*
X72554422Y-138898812D01*
X72376761Y-139037092D01*
X72376756Y-139037097D01*
X72224284Y-139202723D01*
X72224276Y-139202734D01*
X72101140Y-139391207D01*
X72010703Y-139597386D01*
X72009036Y-139602242D01*
X72007553Y-139601732D01*
X71975595Y-139655819D01*
X71913172Y-139687207D01*
X71843689Y-139679864D01*
X71789207Y-139636121D01*
X71779935Y-139620489D01*
X71699245Y-139458443D01*
X71576391Y-139295757D01*
X71425739Y-139158421D01*
X71252415Y-139051102D01*
X71180605Y-139023283D01*
X71125204Y-138980710D01*
X71101613Y-138914943D01*
X71117324Y-138846863D01*
X71167348Y-138798084D01*
X71185136Y-138790375D01*
X71268899Y-138761619D01*
X71307574Y-138748342D01*
X71505576Y-138641189D01*
X71683240Y-138502906D01*
X71835722Y-138337268D01*
X71926193Y-138198790D01*
X71979338Y-138153437D01*
X72048569Y-138144013D01*
X72111905Y-138173515D01*
G37*
%TD.AperFunction*%
%TA.AperFunction,Conductor*%
G36*
X79731905Y-138173515D02*
G01*
X79753804Y-138198787D01*
X79844278Y-138337268D01*
X79844283Y-138337273D01*
X79844284Y-138337276D01*
X79996756Y-138502902D01*
X79996761Y-138502907D01*
X80018159Y-138519562D01*
X80174424Y-138641189D01*
X80174429Y-138641191D01*
X80174431Y-138641193D01*
X80210930Y-138660946D01*
X80260520Y-138710165D01*
X80275628Y-138778382D01*
X80251457Y-138843937D01*
X80210930Y-138879054D01*
X80174431Y-138898806D01*
X80174422Y-138898812D01*
X79996761Y-139037092D01*
X79996756Y-139037097D01*
X79844284Y-139202723D01*
X79844276Y-139202734D01*
X79721140Y-139391207D01*
X79630703Y-139597386D01*
X79629036Y-139602242D01*
X79627553Y-139601732D01*
X79595595Y-139655819D01*
X79533172Y-139687207D01*
X79463689Y-139679864D01*
X79409207Y-139636121D01*
X79399935Y-139620489D01*
X79319245Y-139458443D01*
X79196391Y-139295757D01*
X79045739Y-139158421D01*
X78872415Y-139051102D01*
X78800605Y-139023283D01*
X78745204Y-138980710D01*
X78721613Y-138914943D01*
X78737324Y-138846863D01*
X78787348Y-138798084D01*
X78805136Y-138790375D01*
X78888899Y-138761619D01*
X78927574Y-138748342D01*
X79125576Y-138641189D01*
X79303240Y-138502906D01*
X79455722Y-138337268D01*
X79546193Y-138198790D01*
X79599338Y-138153437D01*
X79668569Y-138144013D01*
X79731905Y-138173515D01*
G37*
%TD.AperFunction*%
%TA.AperFunction,Conductor*%
G36*
X74651905Y-138173515D02*
G01*
X74673804Y-138198787D01*
X74764278Y-138337268D01*
X74764283Y-138337273D01*
X74764284Y-138337276D01*
X74916756Y-138502902D01*
X74916761Y-138502907D01*
X74938159Y-138519562D01*
X75094424Y-138641189D01*
X75094429Y-138641191D01*
X75094431Y-138641193D01*
X75130930Y-138660946D01*
X75180520Y-138710165D01*
X75195628Y-138778382D01*
X75171457Y-138843937D01*
X75130930Y-138879054D01*
X75094431Y-138898806D01*
X75094422Y-138898812D01*
X74916761Y-139037092D01*
X74916756Y-139037097D01*
X74764284Y-139202723D01*
X74764276Y-139202734D01*
X74673808Y-139341206D01*
X74620662Y-139386562D01*
X74551431Y-139395986D01*
X74488095Y-139366484D01*
X74466192Y-139341206D01*
X74375723Y-139202734D01*
X74375715Y-139202723D01*
X74223243Y-139037097D01*
X74223238Y-139037092D01*
X74045577Y-138898812D01*
X74045578Y-138898812D01*
X74045576Y-138898811D01*
X74009070Y-138879055D01*
X73959479Y-138829836D01*
X73944371Y-138761619D01*
X73968541Y-138696064D01*
X74009070Y-138660945D01*
X74009084Y-138660936D01*
X74045576Y-138641189D01*
X74223240Y-138502906D01*
X74375722Y-138337268D01*
X74466193Y-138198790D01*
X74519338Y-138153437D01*
X74588569Y-138144013D01*
X74651905Y-138173515D01*
G37*
%TD.AperFunction*%
%TA.AperFunction,Conductor*%
G36*
X83798191Y-117328185D02*
G01*
X83843946Y-117380989D01*
X83847325Y-117389144D01*
X83861484Y-117427105D01*
X83863312Y-117432006D01*
X83890796Y-117468720D01*
X83950939Y-117549061D01*
X84067996Y-117636689D01*
X84204999Y-117687789D01*
X84232250Y-117690718D01*
X84265545Y-117694299D01*
X84265562Y-117694300D01*
X84504215Y-117694300D01*
X84571254Y-117713985D01*
X84617009Y-117766789D01*
X84626953Y-117835947D01*
X84597928Y-117899503D01*
X84549008Y-117933927D01*
X84465379Y-117966324D01*
X84465370Y-117966328D01*
X84277193Y-118082842D01*
X84113620Y-118231959D01*
X84075660Y-118282227D01*
X84019551Y-118323863D01*
X83976706Y-118331500D01*
X83890214Y-118331500D01*
X83753345Y-118358724D01*
X83753336Y-118358727D01*
X83745962Y-118361782D01*
X83624403Y-118412132D01*
X83624401Y-118412133D01*
X83508358Y-118489671D01*
X83508354Y-118489674D01*
X79949674Y-122048353D01*
X79949671Y-122048356D01*
X79872138Y-122164393D01*
X79872131Y-122164406D01*
X79857252Y-122200330D01*
X79857252Y-122200331D01*
X79818728Y-122293335D01*
X79818725Y-122293344D01*
X79810109Y-122336662D01*
X79791677Y-122429326D01*
X79791672Y-122429354D01*
X79791500Y-122430216D01*
X79791500Y-124917500D01*
X79771815Y-124984539D01*
X79719011Y-125030294D01*
X79667500Y-125041500D01*
X74930216Y-125041500D01*
X74913531Y-125044819D01*
X74895745Y-125048357D01*
X74895744Y-125048357D01*
X74793343Y-125068725D01*
X74793332Y-125068728D01*
X74765594Y-125080217D01*
X74765595Y-125080218D01*
X74664394Y-125122136D01*
X74548356Y-125199671D01*
X74548352Y-125199674D01*
X74042847Y-125705181D01*
X73981524Y-125738666D01*
X73955166Y-125741500D01*
X73951346Y-125741500D01*
X73890798Y-125748011D01*
X73890796Y-125748011D01*
X73753796Y-125799111D01*
X73636740Y-125886739D01*
X73549112Y-126003795D01*
X73498012Y-126140795D01*
X73498012Y-126140797D01*
X73491501Y-126201345D01*
X73491501Y-127798654D01*
X73498012Y-127859202D01*
X73498012Y-127859204D01*
X73534546Y-127957152D01*
X73549112Y-127996204D01*
X73636739Y-128113260D01*
X73636741Y-128113262D01*
X73714064Y-128171145D01*
X73755936Y-128227078D01*
X73760920Y-128296770D01*
X73727435Y-128358093D01*
X71330346Y-130755181D01*
X71269023Y-130788666D01*
X71242665Y-130791500D01*
X70774462Y-130791500D01*
X70774446Y-130791501D01*
X70670572Y-130802113D01*
X70502264Y-130857884D01*
X70502259Y-130857886D01*
X70351346Y-130950971D01*
X70225971Y-131076346D01*
X70132886Y-131227259D01*
X70132884Y-131227264D01*
X70077113Y-131395572D01*
X70066500Y-131499447D01*
X70066500Y-132500537D01*
X70066501Y-132500553D01*
X70077113Y-132604427D01*
X70132884Y-132772735D01*
X70132886Y-132772740D01*
X70145896Y-132793832D01*
X70225970Y-132923652D01*
X70351348Y-133049030D01*
X70502262Y-133142115D01*
X70670574Y-133197887D01*
X70774455Y-133208500D01*
X71400544Y-133208499D01*
X71504426Y-133197887D01*
X71672738Y-133142115D01*
X71823652Y-133049030D01*
X71949030Y-132923652D01*
X72042115Y-132772738D01*
X72042116Y-132772735D01*
X72045906Y-132766591D01*
X72047653Y-132767668D01*
X72087069Y-132722892D01*
X72154260Y-132703732D01*
X72221143Y-132723940D01*
X72252558Y-132753417D01*
X72292813Y-132807190D01*
X72407906Y-132893350D01*
X72407913Y-132893354D01*
X72542620Y-132943596D01*
X72542627Y-132943598D01*
X72602155Y-132949999D01*
X72602172Y-132950000D01*
X72787500Y-132950000D01*
X72787500Y-132125000D01*
X73037500Y-132125000D01*
X73037500Y-132950000D01*
X73222828Y-132950000D01*
X73222844Y-132949999D01*
X73282372Y-132943598D01*
X73282379Y-132943596D01*
X73417086Y-132893354D01*
X73417093Y-132893350D01*
X73532187Y-132807190D01*
X73532190Y-132807187D01*
X73618350Y-132692093D01*
X73618354Y-132692086D01*
X73668596Y-132557379D01*
X73668598Y-132557372D01*
X73674999Y-132497844D01*
X73675000Y-132497827D01*
X73675000Y-132125000D01*
X73037500Y-132125000D01*
X72787500Y-132125000D01*
X72787500Y-131999000D01*
X72807185Y-131931961D01*
X72859989Y-131886206D01*
X72911500Y-131875000D01*
X73675000Y-131875000D01*
X73675000Y-131502172D01*
X73674999Y-131502155D01*
X73668598Y-131442627D01*
X73668596Y-131442620D01*
X73618354Y-131307913D01*
X73618350Y-131307906D01*
X73532190Y-131192812D01*
X73532187Y-131192809D01*
X73417093Y-131106649D01*
X73417088Y-131106646D01*
X73281576Y-131056103D01*
X73225643Y-131014231D01*
X73201226Y-130948767D01*
X73216078Y-130880494D01*
X73237224Y-130852245D01*
X74879818Y-129209653D01*
X74941141Y-129176168D01*
X75010833Y-129181152D01*
X75066766Y-129223024D01*
X75091183Y-129288488D01*
X75091499Y-129297334D01*
X75091499Y-130869783D01*
X75098547Y-130905214D01*
X75098547Y-130905216D01*
X75115076Y-130988315D01*
X75115077Y-130988318D01*
X75118726Y-131006660D01*
X75118727Y-131006664D01*
X75172134Y-131135600D01*
X75172135Y-131135603D01*
X75249670Y-131251641D01*
X75249673Y-131251645D01*
X76055181Y-132057151D01*
X76088666Y-132118474D01*
X76091500Y-132144831D01*
X76091500Y-132332272D01*
X76097985Y-132403645D01*
X76097988Y-132403655D01*
X76149171Y-132567909D01*
X76149172Y-132567911D01*
X76149173Y-132567913D01*
X76238184Y-132715155D01*
X76238186Y-132715158D01*
X76359841Y-132836813D01*
X76359843Y-132836814D01*
X76359845Y-132836816D01*
X76507087Y-132925827D01*
X76671351Y-132977013D01*
X76742735Y-132983500D01*
X77257264Y-132983499D01*
X77257272Y-132983499D01*
X77328645Y-132977014D01*
X77328648Y-132977013D01*
X77328649Y-132977013D01*
X77492913Y-132925827D01*
X77640155Y-132836816D01*
X77761816Y-132715155D01*
X77850827Y-132567913D01*
X77854030Y-132557631D01*
X77892764Y-132499485D01*
X77956789Y-132471509D01*
X78025774Y-132482588D01*
X78072186Y-132520886D01*
X78128207Y-132596792D01*
X78237354Y-132677346D01*
X78365397Y-132722149D01*
X78395778Y-132724998D01*
X78395806Y-132724999D01*
X78524999Y-132724999D01*
X78525000Y-132724998D01*
X78525000Y-132125000D01*
X78775000Y-132125000D01*
X78775000Y-132724999D01*
X78904196Y-132724999D01*
X78934606Y-132722148D01*
X79062645Y-132677346D01*
X79171792Y-132596792D01*
X79252346Y-132487645D01*
X79297149Y-132359604D01*
X79297149Y-132359600D01*
X79300000Y-132329206D01*
X79300000Y-132125000D01*
X78775000Y-132125000D01*
X78525000Y-132125000D01*
X78525000Y-131275000D01*
X78775000Y-131275000D01*
X78775000Y-131875000D01*
X79299999Y-131875000D01*
X79299999Y-131670803D01*
X79297148Y-131640393D01*
X79252346Y-131512354D01*
X79171792Y-131403207D01*
X79062645Y-131322653D01*
X78934602Y-131277850D01*
X78904207Y-131275000D01*
X78775000Y-131275000D01*
X78525000Y-131275000D01*
X78395804Y-131275000D01*
X78365393Y-131277851D01*
X78237354Y-131322653D01*
X78128207Y-131403208D01*
X78072185Y-131479114D01*
X78016537Y-131521364D01*
X77946881Y-131526821D01*
X77885332Y-131493754D01*
X77854030Y-131442367D01*
X77853292Y-131440000D01*
X77850827Y-131432087D01*
X77761816Y-131284845D01*
X77761814Y-131284843D01*
X77761813Y-131284841D01*
X77640158Y-131163186D01*
X77594530Y-131135603D01*
X77492913Y-131074173D01*
X77328649Y-131022987D01*
X77328647Y-131022986D01*
X77328645Y-131022986D01*
X77278667Y-131018444D01*
X77257265Y-131016500D01*
X77257262Y-131016500D01*
X77069832Y-131016500D01*
X77002793Y-130996815D01*
X76982151Y-130980181D01*
X76544818Y-130542847D01*
X76511333Y-130481524D01*
X76508499Y-130455166D01*
X76508499Y-128291184D01*
X76528184Y-128224145D01*
X76558188Y-128191917D01*
X76581625Y-128174372D01*
X76663260Y-128113261D01*
X76750888Y-127996204D01*
X76801988Y-127859201D01*
X76808345Y-127800075D01*
X76808498Y-127798654D01*
X76808499Y-127798637D01*
X76808499Y-126582500D01*
X76828184Y-126515461D01*
X76880988Y-126469706D01*
X76932499Y-126458500D01*
X80569782Y-126458500D01*
X80569783Y-126458499D01*
X80706662Y-126431273D01*
X80835601Y-126377864D01*
X80951642Y-126300328D01*
X81050328Y-126201642D01*
X81127864Y-126085601D01*
X81181273Y-125956662D01*
X81201164Y-125856662D01*
X81208500Y-125819783D01*
X81208500Y-122844831D01*
X81228185Y-122777792D01*
X81244814Y-122757155D01*
X84050986Y-119950982D01*
X84112307Y-119917499D01*
X84181999Y-119922483D01*
X84222203Y-119947028D01*
X84277189Y-119997154D01*
X84277191Y-119997156D01*
X84465370Y-120113671D01*
X84465372Y-120113672D01*
X84465374Y-120113673D01*
X84671764Y-120193629D01*
X84889332Y-120234300D01*
X84889334Y-120234300D01*
X85110666Y-120234300D01*
X85110668Y-120234300D01*
X85328236Y-120193629D01*
X85534626Y-120113673D01*
X85722810Y-119997155D01*
X85886379Y-119848041D01*
X85924340Y-119797773D01*
X85980449Y-119756137D01*
X86023294Y-119748500D01*
X88395167Y-119748500D01*
X88462206Y-119768185D01*
X88482848Y-119784819D01*
X91265836Y-122567806D01*
X91299321Y-122629129D01*
X91301475Y-122642518D01*
X91306458Y-122689928D01*
X91306459Y-122689930D01*
X91306459Y-122689932D01*
X91365470Y-122871549D01*
X91365473Y-122871556D01*
X91460960Y-123036944D01*
X91588747Y-123178866D01*
X91743248Y-123291118D01*
X91917712Y-123368794D01*
X92104513Y-123408500D01*
X92167500Y-123408500D01*
X92234539Y-123428185D01*
X92280294Y-123480989D01*
X92291500Y-123532500D01*
X92291500Y-124117500D01*
X92271815Y-124184539D01*
X92219011Y-124230294D01*
X92167500Y-124241500D01*
X92101345Y-124241500D01*
X92040802Y-124248010D01*
X92033245Y-124249796D01*
X92032778Y-124247822D01*
X91973626Y-124252046D01*
X91962708Y-124248839D01*
X91959197Y-124248010D01*
X91898654Y-124241500D01*
X91898638Y-124241500D01*
X90801362Y-124241500D01*
X90801345Y-124241500D01*
X90740797Y-124248011D01*
X90740795Y-124248011D01*
X90603795Y-124299111D01*
X90486739Y-124386739D01*
X90399111Y-124503795D01*
X90348011Y-124640795D01*
X90348011Y-124640797D01*
X90341500Y-124701345D01*
X90341500Y-126298654D01*
X90348011Y-126359202D01*
X90348011Y-126359204D01*
X90399111Y-126496204D01*
X90486739Y-126613261D01*
X90591811Y-126691917D01*
X90633682Y-126747851D01*
X90641500Y-126791184D01*
X90641500Y-127547500D01*
X90621815Y-127614539D01*
X90569011Y-127660294D01*
X90517501Y-127671500D01*
X90290024Y-127671500D01*
X90290001Y-127671501D01*
X90253539Y-127674370D01*
X90253529Y-127674372D01*
X90194397Y-127691550D01*
X90124528Y-127691349D01*
X90072125Y-127660154D01*
X86839819Y-124427848D01*
X86806334Y-124366525D01*
X86803500Y-124340167D01*
X86803500Y-124033206D01*
X86803499Y-124033204D01*
X86797003Y-124000545D01*
X86763783Y-123833539D01*
X86737421Y-123769895D01*
X86685879Y-123645460D01*
X86685872Y-123645447D01*
X86572772Y-123476182D01*
X86572769Y-123476178D01*
X86428821Y-123332230D01*
X86428817Y-123332227D01*
X86259552Y-123219127D01*
X86259539Y-123219120D01*
X86071465Y-123141218D01*
X86071453Y-123141215D01*
X85871794Y-123101500D01*
X85871791Y-123101500D01*
X85668209Y-123101500D01*
X85668206Y-123101500D01*
X85468546Y-123141215D01*
X85468534Y-123141218D01*
X85280457Y-123219122D01*
X85203890Y-123270282D01*
X85137212Y-123291159D01*
X85069832Y-123272674D01*
X85066110Y-123270282D01*
X85028001Y-123244819D01*
X84989546Y-123219124D01*
X84989543Y-123219122D01*
X84989542Y-123219122D01*
X84801465Y-123141218D01*
X84801453Y-123141215D01*
X84601794Y-123101500D01*
X84601791Y-123101500D01*
X84398209Y-123101500D01*
X84398206Y-123101500D01*
X84198546Y-123141215D01*
X84198534Y-123141218D01*
X84010460Y-123219120D01*
X84010447Y-123219127D01*
X83865602Y-123315911D01*
X83841184Y-123332227D01*
X83836118Y-123335612D01*
X83835382Y-123334511D01*
X83777323Y-123359167D01*
X83762974Y-123360000D01*
X83355000Y-123360000D01*
X83355000Y-124005265D01*
X83279370Y-123985000D01*
X83180630Y-123985000D01*
X83105000Y-124005265D01*
X83105000Y-123360000D01*
X82680373Y-123360000D01*
X82607459Y-123374503D01*
X82607455Y-123374505D01*
X82524760Y-123429760D01*
X82469505Y-123512455D01*
X82469503Y-123512459D01*
X82455000Y-123585371D01*
X82455000Y-124235000D01*
X82875265Y-124235000D01*
X82855000Y-124310630D01*
X82855000Y-124409370D01*
X82875265Y-124485000D01*
X82455000Y-124485000D01*
X82455000Y-125134628D01*
X82469503Y-125207540D01*
X82469505Y-125207544D01*
X82524760Y-125290239D01*
X82607455Y-125345494D01*
X82607459Y-125345496D01*
X82680371Y-125359999D01*
X82680374Y-125360000D01*
X83105000Y-125360000D01*
X83105000Y-124714734D01*
X83180630Y-124735000D01*
X83279370Y-124735000D01*
X83355000Y-124714734D01*
X83355000Y-125360000D01*
X83667500Y-125360000D01*
X83734539Y-125379685D01*
X83780294Y-125432489D01*
X83791500Y-125484000D01*
X83791500Y-127155165D01*
X83771815Y-127222204D01*
X83755181Y-127242846D01*
X82861139Y-128136887D01*
X82799816Y-128170372D01*
X82783188Y-128172824D01*
X82763531Y-128174371D01*
X82607407Y-128219729D01*
X82607399Y-128219732D01*
X82553119Y-128251833D01*
X82485395Y-128269014D01*
X82426881Y-128251833D01*
X82372600Y-128219732D01*
X82372592Y-128219729D01*
X82216473Y-128174372D01*
X82216462Y-128174370D01*
X82184178Y-128171829D01*
X82179990Y-128171500D01*
X82179989Y-128171500D01*
X81780023Y-128171500D01*
X81780001Y-128171501D01*
X81743534Y-128174371D01*
X81743533Y-128174371D01*
X81587409Y-128219729D01*
X81587406Y-128219730D01*
X81447462Y-128302492D01*
X81447454Y-128302498D01*
X81332499Y-128417453D01*
X81332493Y-128417461D01*
X81249731Y-128557405D01*
X81249730Y-128557408D01*
X81204373Y-128713526D01*
X81204371Y-128713538D01*
X81201501Y-128750005D01*
X81201501Y-129249977D01*
X81201502Y-129249999D01*
X81204372Y-129286466D01*
X81204372Y-129286467D01*
X81249730Y-129442592D01*
X81249733Y-129442599D01*
X81254232Y-129450206D01*
X81271501Y-129513328D01*
X81271501Y-131060218D01*
X81271501Y-131199782D01*
X81272365Y-131204128D01*
X81276097Y-131222885D01*
X81276097Y-131222888D01*
X81298726Y-131336654D01*
X81298728Y-131336662D01*
X81312133Y-131369024D01*
X81312133Y-131369025D01*
X81352136Y-131465601D01*
X81352137Y-131465604D01*
X81429672Y-131581642D01*
X81429675Y-131581646D01*
X82805182Y-132957152D01*
X82838667Y-133018475D01*
X82841501Y-133044833D01*
X82841501Y-133798654D01*
X82848012Y-133859202D01*
X82848012Y-133859204D01*
X82879116Y-133942594D01*
X82899112Y-133996204D01*
X82986740Y-134113261D01*
X83103797Y-134200889D01*
X83207724Y-134239652D01*
X83238558Y-134251153D01*
X83240800Y-134251989D01*
X83268051Y-134254918D01*
X83301346Y-134258499D01*
X83301363Y-134258500D01*
X84398639Y-134258500D01*
X84398655Y-134258499D01*
X84436561Y-134254423D01*
X84459202Y-134251989D01*
X84459208Y-134251986D01*
X84466755Y-134250204D01*
X84467222Y-134252183D01*
X84526340Y-134247946D01*
X84537264Y-134251153D01*
X84540792Y-134251987D01*
X84540798Y-134251989D01*
X84557778Y-134253814D01*
X84601344Y-134258499D01*
X84601361Y-134258500D01*
X85355166Y-134258500D01*
X85422205Y-134278185D01*
X85442847Y-134294819D01*
X87546224Y-136398196D01*
X87579709Y-136459519D01*
X87574725Y-136529211D01*
X87549773Y-136569860D01*
X87464279Y-136662730D01*
X87464276Y-136662734D01*
X87373808Y-136801206D01*
X87320662Y-136846562D01*
X87251431Y-136855986D01*
X87188095Y-136826484D01*
X87166192Y-136801206D01*
X87075723Y-136662734D01*
X87075715Y-136662723D01*
X86923243Y-136497097D01*
X86923238Y-136497092D01*
X86782389Y-136387464D01*
X86745576Y-136358811D01*
X86745575Y-136358810D01*
X86745572Y-136358808D01*
X86547580Y-136251661D01*
X86547577Y-136251659D01*
X86547574Y-136251658D01*
X86547571Y-136251657D01*
X86547569Y-136251656D01*
X86334637Y-136178556D01*
X86112569Y-136141500D01*
X85887431Y-136141500D01*
X85665362Y-136178556D01*
X85452430Y-136251656D01*
X85452419Y-136251661D01*
X85254427Y-136358808D01*
X85254422Y-136358812D01*
X85076761Y-136497092D01*
X85076756Y-136497097D01*
X84924284Y-136662723D01*
X84924276Y-136662734D01*
X84833808Y-136801206D01*
X84780662Y-136846562D01*
X84711431Y-136855986D01*
X84648095Y-136826484D01*
X84626192Y-136801206D01*
X84535723Y-136662734D01*
X84535715Y-136662723D01*
X84383243Y-136497097D01*
X84383238Y-136497092D01*
X84242389Y-136387464D01*
X84205576Y-136358811D01*
X84205575Y-136358810D01*
X84205572Y-136358808D01*
X84007580Y-136251661D01*
X84007577Y-136251659D01*
X84007574Y-136251658D01*
X84007571Y-136251657D01*
X84007569Y-136251656D01*
X83794637Y-136178556D01*
X83572569Y-136141500D01*
X83347431Y-136141500D01*
X83125362Y-136178556D01*
X82912430Y-136251656D01*
X82912419Y-136251661D01*
X82714427Y-136358808D01*
X82714422Y-136358812D01*
X82536761Y-136497092D01*
X82536756Y-136497097D01*
X82384284Y-136662723D01*
X82384276Y-136662734D01*
X82293808Y-136801206D01*
X82240662Y-136846562D01*
X82171431Y-136855986D01*
X82108095Y-136826484D01*
X82086192Y-136801206D01*
X81995723Y-136662734D01*
X81995715Y-136662723D01*
X81843243Y-136497097D01*
X81843238Y-136497092D01*
X81702389Y-136387464D01*
X81665576Y-136358811D01*
X81665575Y-136358810D01*
X81665572Y-136358808D01*
X81467580Y-136251661D01*
X81467577Y-136251659D01*
X81467574Y-136251658D01*
X81467571Y-136251657D01*
X81467569Y-136251656D01*
X81254637Y-136178556D01*
X81032569Y-136141500D01*
X80807431Y-136141500D01*
X80585362Y-136178556D01*
X80372430Y-136251656D01*
X80372419Y-136251661D01*
X80174427Y-136358808D01*
X80174422Y-136358812D01*
X79996761Y-136497092D01*
X79996756Y-136497097D01*
X79844284Y-136662723D01*
X79844276Y-136662734D01*
X79753808Y-136801206D01*
X79700662Y-136846562D01*
X79631431Y-136855986D01*
X79568095Y-136826484D01*
X79546192Y-136801206D01*
X79455723Y-136662734D01*
X79455715Y-136662723D01*
X79303243Y-136497097D01*
X79303238Y-136497092D01*
X79162389Y-136387464D01*
X79125576Y-136358811D01*
X79125575Y-136358810D01*
X79125572Y-136358808D01*
X78927580Y-136251661D01*
X78927577Y-136251659D01*
X78927574Y-136251658D01*
X78927571Y-136251657D01*
X78927569Y-136251656D01*
X78714637Y-136178556D01*
X78492569Y-136141500D01*
X78267431Y-136141500D01*
X78267430Y-136141500D01*
X78121313Y-136165881D01*
X78051948Y-136157499D01*
X78013224Y-136131253D01*
X77581646Y-135699674D01*
X77581638Y-135699668D01*
X77465603Y-135622136D01*
X77465599Y-135622134D01*
X77390073Y-135590850D01*
X77374427Y-135584369D01*
X77374426Y-135584368D01*
X77336664Y-135568727D01*
X77336658Y-135568725D01*
X77268221Y-135555113D01*
X77199785Y-135541500D01*
X77199782Y-135541500D01*
X77199781Y-135541500D01*
X63910564Y-135541500D01*
X63910559Y-135541500D01*
X63773690Y-135568724D01*
X63773686Y-135568726D01*
X63773684Y-135568726D01*
X63773683Y-135568727D01*
X63720275Y-135590849D01*
X63720273Y-135590850D01*
X63644746Y-135622134D01*
X63644742Y-135622136D01*
X63528707Y-135699668D01*
X63528699Y-135699674D01*
X61473193Y-137755181D01*
X61411870Y-137788666D01*
X61385512Y-137791500D01*
X61279573Y-137791500D01*
X61212534Y-137771815D01*
X61166779Y-137719011D01*
X61156284Y-137680755D01*
X61151988Y-137640798D01*
X61151987Y-137640795D01*
X61129521Y-137580564D01*
X61100888Y-137503796D01*
X61013260Y-137386739D01*
X60896203Y-137299111D01*
X60759202Y-137248011D01*
X60698653Y-137241500D01*
X60698637Y-137241500D01*
X59982499Y-137241500D01*
X59915460Y-137221815D01*
X59869705Y-137169011D01*
X59858499Y-137117500D01*
X59858499Y-134452499D01*
X59878184Y-134385460D01*
X59930988Y-134339705D01*
X59982494Y-134328499D01*
X60369985Y-134328499D01*
X60406463Y-134325629D01*
X60562593Y-134280269D01*
X60702538Y-134197506D01*
X60817503Y-134082541D01*
X60900266Y-133942596D01*
X60945626Y-133786466D01*
X60948497Y-133749989D01*
X60948496Y-133250012D01*
X60945626Y-133213534D01*
X60900266Y-133057404D01*
X60862456Y-132993471D01*
X60857421Y-132984957D01*
X60849592Y-132969288D01*
X60816486Y-132889363D01*
X60797862Y-132844400D01*
X60797860Y-132844398D01*
X60797860Y-132844396D01*
X60720325Y-132728358D01*
X60720322Y-132728354D01*
X58416640Y-130424672D01*
X58416632Y-130424666D01*
X58300597Y-130347134D01*
X58300593Y-130347132D01*
X58273890Y-130336071D01*
X58209421Y-130309367D01*
X58209420Y-130309366D01*
X58171658Y-130293725D01*
X58171652Y-130293723D01*
X58103215Y-130280111D01*
X58034779Y-130266498D01*
X58034776Y-130266498D01*
X58034775Y-130266498D01*
X57832501Y-130266498D01*
X57765462Y-130246813D01*
X57719707Y-130194009D01*
X57708501Y-130142498D01*
X57708501Y-128796651D01*
X57728186Y-128729612D01*
X57780990Y-128683857D01*
X57850148Y-128673913D01*
X57879953Y-128682090D01*
X57955876Y-128713538D01*
X57968539Y-128718783D01*
X58135446Y-128751983D01*
X58168204Y-128758499D01*
X58168207Y-128758500D01*
X58168209Y-128758500D01*
X58371791Y-128758500D01*
X58435851Y-128745757D01*
X58505439Y-128751983D01*
X58547722Y-128779693D01*
X64328353Y-134560324D01*
X64328357Y-134560327D01*
X64444398Y-134637864D01*
X64444399Y-134637864D01*
X64444400Y-134637865D01*
X64444402Y-134637866D01*
X64491818Y-134657506D01*
X64535571Y-134675629D01*
X64573337Y-134691272D01*
X64614714Y-134699502D01*
X64653634Y-134714383D01*
X64697404Y-134740268D01*
X64853534Y-134785628D01*
X64890011Y-134788499D01*
X65389988Y-134788498D01*
X65426466Y-134785628D01*
X65582596Y-134740268D01*
X65722541Y-134657505D01*
X65837506Y-134542540D01*
X65920269Y-134402595D01*
X65965629Y-134246465D01*
X65968500Y-134209988D01*
X65968499Y-133810011D01*
X65965629Y-133773533D01*
X65947414Y-133710837D01*
X65920271Y-133617407D01*
X65920269Y-133617403D01*
X65888165Y-133563118D01*
X65870983Y-133495398D01*
X65888164Y-133436882D01*
X65920269Y-133382597D01*
X65920269Y-133382593D01*
X65920271Y-133382592D01*
X65965627Y-133226474D01*
X65965627Y-133226473D01*
X65965629Y-133226467D01*
X65968500Y-133189990D01*
X65968499Y-132790013D01*
X65965629Y-132753535D01*
X65920269Y-132597405D01*
X65837506Y-132457460D01*
X65837504Y-132457458D01*
X65837501Y-132457454D01*
X65722546Y-132342499D01*
X65722538Y-132342493D01*
X65603776Y-132272258D01*
X65582596Y-132259732D01*
X65582595Y-132259731D01*
X65582594Y-132259731D01*
X65582591Y-132259730D01*
X65426473Y-132214373D01*
X65426452Y-132214369D01*
X65406805Y-132212823D01*
X65341517Y-132187938D01*
X65328856Y-132176887D01*
X64094820Y-130942850D01*
X64061335Y-130881527D01*
X64058501Y-130855169D01*
X64058501Y-128382500D01*
X64078186Y-128315461D01*
X64130990Y-128269706D01*
X64182501Y-128258500D01*
X65198637Y-128258500D01*
X65198653Y-128258499D01*
X65225691Y-128255591D01*
X65259200Y-128251989D01*
X65259619Y-128251833D01*
X65278423Y-128244819D01*
X65396203Y-128200889D01*
X65513260Y-128113261D01*
X65600888Y-127996204D01*
X65651988Y-127859201D01*
X65658345Y-127800075D01*
X65658498Y-127798654D01*
X65658499Y-127798637D01*
X65658499Y-127044832D01*
X65678184Y-126977793D01*
X65694818Y-126957151D01*
X66550325Y-126101644D01*
X66550328Y-126101641D01*
X66627865Y-125985599D01*
X66681273Y-125856660D01*
X66681273Y-125856657D01*
X66681275Y-125856653D01*
X66688609Y-125819783D01*
X66708499Y-125719784D01*
X66708500Y-125719781D01*
X66708500Y-123712551D01*
X66728185Y-123645512D01*
X66780989Y-123599757D01*
X66850147Y-123589813D01*
X66913703Y-123618838D01*
X66949542Y-123671597D01*
X66972652Y-123737645D01*
X67053206Y-123846792D01*
X67162353Y-123927346D01*
X67290396Y-123972149D01*
X67320791Y-123974999D01*
X67524998Y-123974999D01*
X67524999Y-123974998D01*
X67524999Y-123450000D01*
X67774999Y-123450000D01*
X67774999Y-123974999D01*
X67979195Y-123974999D01*
X68009605Y-123972148D01*
X68137644Y-123927346D01*
X68246791Y-123846792D01*
X68327345Y-123737645D01*
X68372148Y-123609604D01*
X68372148Y-123609600D01*
X68374999Y-123579206D01*
X68374999Y-123450000D01*
X67774999Y-123450000D01*
X67524999Y-123450000D01*
X67524999Y-123324000D01*
X67544684Y-123256961D01*
X67597488Y-123211206D01*
X67648999Y-123200000D01*
X68374998Y-123200000D01*
X68374998Y-123070803D01*
X68372147Y-123040393D01*
X68327345Y-122912354D01*
X68246791Y-122803207D01*
X68170885Y-122747186D01*
X68128634Y-122691538D01*
X68123176Y-122621882D01*
X68156244Y-122560333D01*
X68207629Y-122529031D01*
X68217912Y-122525827D01*
X68365154Y-122436816D01*
X68486815Y-122315155D01*
X68575826Y-122167913D01*
X68627012Y-122003649D01*
X68633499Y-121932265D01*
X68633498Y-121417736D01*
X68633498Y-121417735D01*
X68633498Y-121417727D01*
X68627013Y-121346354D01*
X68627010Y-121346344D01*
X68575827Y-121182090D01*
X68575826Y-121182089D01*
X68575826Y-121182087D01*
X68486815Y-121034845D01*
X68486813Y-121034843D01*
X68486812Y-121034841D01*
X68394818Y-120942847D01*
X68361333Y-120881524D01*
X68358499Y-120855166D01*
X68358499Y-120080217D01*
X68358498Y-120080213D01*
X68348789Y-120031401D01*
X68331272Y-119943337D01*
X68303112Y-119875353D01*
X68302981Y-119875037D01*
X68277866Y-119814403D01*
X68277864Y-119814398D01*
X68200327Y-119698357D01*
X68200324Y-119698353D01*
X66444818Y-117942847D01*
X66411333Y-117881524D01*
X66408499Y-117855166D01*
X66408499Y-117759833D01*
X66428184Y-117692794D01*
X66480988Y-117647039D01*
X66550146Y-117637095D01*
X66613702Y-117666120D01*
X66620180Y-117672152D01*
X70601911Y-121653883D01*
X70635396Y-121715206D01*
X70631937Y-121780566D01*
X70602113Y-121870573D01*
X70591500Y-121974447D01*
X70591500Y-123025537D01*
X70591501Y-123025553D01*
X70602113Y-123129427D01*
X70657884Y-123297735D01*
X70657886Y-123297740D01*
X70679133Y-123332187D01*
X70748614Y-123444833D01*
X70750971Y-123448653D01*
X70855182Y-123552864D01*
X70888667Y-123614187D01*
X70891501Y-123640545D01*
X70891501Y-125169787D01*
X70918725Y-125306654D01*
X70918728Y-125306662D01*
X70942313Y-125363603D01*
X70945865Y-125372177D01*
X70954625Y-125406667D01*
X70970061Y-125553532D01*
X70970062Y-125553535D01*
X71029073Y-125735152D01*
X71029076Y-125735159D01*
X71124563Y-125900547D01*
X71252350Y-126042469D01*
X71406851Y-126154721D01*
X71581315Y-126232397D01*
X71768116Y-126272103D01*
X71959090Y-126272103D01*
X72145891Y-126232397D01*
X72320355Y-126154721D01*
X72474856Y-126042469D01*
X72602643Y-125900547D01*
X72698130Y-125735159D01*
X72757145Y-125553531D01*
X72777107Y-125363603D01*
X72757145Y-125173675D01*
X72698130Y-124992047D01*
X72602643Y-124826659D01*
X72486695Y-124697886D01*
X72474857Y-124684738D01*
X72359615Y-124601009D01*
X72316950Y-124545678D01*
X72308501Y-124500691D01*
X72308501Y-123640543D01*
X72328186Y-123573504D01*
X72344820Y-123552862D01*
X72396870Y-123500812D01*
X72449030Y-123448652D01*
X72542115Y-123297738D01*
X72569923Y-123213816D01*
X72609695Y-123156372D01*
X72674211Y-123129548D01*
X72742987Y-123141863D01*
X72794187Y-123189405D01*
X72803810Y-123209486D01*
X72806643Y-123217082D01*
X72806649Y-123217093D01*
X72892809Y-123332187D01*
X72892812Y-123332190D01*
X73007906Y-123418350D01*
X73007913Y-123418354D01*
X73142620Y-123468596D01*
X73142627Y-123468598D01*
X73202155Y-123474999D01*
X73202172Y-123475000D01*
X73375000Y-123475000D01*
X73375000Y-122625000D01*
X73625000Y-122625000D01*
X73625000Y-123475000D01*
X73797828Y-123475000D01*
X73797844Y-123474999D01*
X73857372Y-123468598D01*
X73857379Y-123468596D01*
X73992086Y-123418354D01*
X73992093Y-123418350D01*
X74107187Y-123332190D01*
X74107190Y-123332187D01*
X74193350Y-123217093D01*
X74193354Y-123217086D01*
X74243596Y-123082379D01*
X74243598Y-123082372D01*
X74249999Y-123022844D01*
X74250000Y-123022827D01*
X74250000Y-122625000D01*
X73625000Y-122625000D01*
X73375000Y-122625000D01*
X73375000Y-122499000D01*
X73394685Y-122431961D01*
X73447489Y-122386206D01*
X73499000Y-122375000D01*
X74250000Y-122375000D01*
X74250000Y-121977172D01*
X74249999Y-121977155D01*
X74243598Y-121917627D01*
X74243596Y-121917620D01*
X74193354Y-121782913D01*
X74193350Y-121782906D01*
X74107190Y-121667812D01*
X74107187Y-121667809D01*
X73992093Y-121581649D01*
X73992086Y-121581645D01*
X73857379Y-121531403D01*
X73857368Y-121531400D01*
X73856090Y-121531263D01*
X73855166Y-121530880D01*
X73849832Y-121529620D01*
X73850036Y-121528754D01*
X73791541Y-121504519D01*
X73751699Y-121447122D01*
X73749212Y-121377297D01*
X73781673Y-121320297D01*
X74729818Y-120372154D01*
X74791141Y-120338669D01*
X74860833Y-120343653D01*
X74916766Y-120385525D01*
X74941183Y-120450989D01*
X74941499Y-120459835D01*
X74941499Y-122060217D01*
X74941499Y-122199781D01*
X74941500Y-122199786D01*
X74942868Y-122206662D01*
X74942869Y-122206668D01*
X74968724Y-122336652D01*
X74968726Y-122336661D01*
X74977517Y-122357884D01*
X74983420Y-122372136D01*
X75022130Y-122465593D01*
X75022137Y-122465606D01*
X75099670Y-122581641D01*
X75099673Y-122581645D01*
X75697271Y-123179242D01*
X75730756Y-123240565D01*
X75733207Y-123257190D01*
X75734392Y-123272244D01*
X75734394Y-123272258D01*
X75780104Y-123429592D01*
X75780106Y-123429597D01*
X75863510Y-123570626D01*
X75863516Y-123570634D01*
X75979365Y-123686483D01*
X75979369Y-123686486D01*
X75979371Y-123686488D01*
X76120403Y-123769894D01*
X76161895Y-123781948D01*
X76277741Y-123815605D01*
X76277744Y-123815605D01*
X76277746Y-123815606D01*
X76314516Y-123818500D01*
X76314522Y-123818500D01*
X76725478Y-123818500D01*
X76725484Y-123818500D01*
X76762254Y-123815606D01*
X76762256Y-123815605D01*
X76762258Y-123815605D01*
X76803746Y-123803551D01*
X76919597Y-123769894D01*
X77060629Y-123686488D01*
X77159149Y-123587967D01*
X77220470Y-123554484D01*
X77266227Y-123553177D01*
X77309304Y-123559999D01*
X77354999Y-123559999D01*
X77355000Y-123559998D01*
X77355000Y-123125000D01*
X77605000Y-123125000D01*
X77605000Y-123559999D01*
X77650689Y-123559999D01*
X77742017Y-123545534D01*
X77852093Y-123489447D01*
X77852098Y-123489444D01*
X77939444Y-123402098D01*
X77939448Y-123402093D01*
X77995536Y-123292015D01*
X78010000Y-123200691D01*
X78010000Y-123125000D01*
X77605000Y-123125000D01*
X77355000Y-123125000D01*
X77355000Y-122440000D01*
X77605000Y-122440000D01*
X77605000Y-122875000D01*
X78009999Y-122875000D01*
X78009999Y-122799310D01*
X77995534Y-122707982D01*
X77939447Y-122597906D01*
X77939444Y-122597901D01*
X77852098Y-122510555D01*
X77852093Y-122510551D01*
X77742015Y-122454463D01*
X77650691Y-122440000D01*
X77605000Y-122440000D01*
X77355000Y-122440000D01*
X77309310Y-122440000D01*
X77266226Y-122446824D01*
X77196933Y-122437868D01*
X77159149Y-122412031D01*
X77060634Y-122313516D01*
X77060626Y-122313510D01*
X76919597Y-122230106D01*
X76919592Y-122230104D01*
X76762258Y-122184394D01*
X76762244Y-122184392D01*
X76747190Y-122183207D01*
X76681903Y-122158322D01*
X76669242Y-122147271D01*
X76394818Y-121872847D01*
X76361333Y-121811524D01*
X76358499Y-121785166D01*
X76358499Y-120899227D01*
X76378184Y-120832188D01*
X76430988Y-120786433D01*
X76500146Y-120776489D01*
X76536972Y-120789234D01*
X76537311Y-120788474D01*
X76543245Y-120791116D01*
X76543248Y-120791118D01*
X76717712Y-120868794D01*
X76904513Y-120908500D01*
X77095487Y-120908500D01*
X77282288Y-120868794D01*
X77456752Y-120791118D01*
X77611253Y-120678866D01*
X77739040Y-120536944D01*
X77834527Y-120371556D01*
X77855501Y-120307000D01*
X77885748Y-120257641D01*
X80798572Y-117344819D01*
X80859895Y-117311334D01*
X80886253Y-117308500D01*
X83731152Y-117308500D01*
X83798191Y-117328185D01*
G37*
%TD.AperFunction*%
%TA.AperFunction,Conductor*%
G36*
X95222206Y-123228185D02*
G01*
X95242848Y-123244819D01*
X96848350Y-124850321D01*
X96848353Y-124850323D01*
X96848357Y-124850327D01*
X96902435Y-124886461D01*
X96964394Y-124927862D01*
X96964396Y-124927863D01*
X96964399Y-124927865D01*
X96983078Y-124935602D01*
X97001759Y-124943340D01*
X97001760Y-124943340D01*
X97093338Y-124981273D01*
X97230214Y-125008499D01*
X97230218Y-125008500D01*
X97230219Y-125008500D01*
X99105167Y-125008500D01*
X99172206Y-125028185D01*
X99192848Y-125044819D01*
X99766529Y-125618500D01*
X100177849Y-126029819D01*
X100211334Y-126091142D01*
X100206350Y-126160833D01*
X100164478Y-126216767D01*
X100099014Y-126241184D01*
X100090168Y-126241500D01*
X99651347Y-126241500D01*
X99590799Y-126248011D01*
X99590797Y-126248011D01*
X99453797Y-126299111D01*
X99336741Y-126386739D01*
X99249113Y-126503795D01*
X99198013Y-126640795D01*
X99198012Y-126640798D01*
X99193717Y-126680755D01*
X99166979Y-126745306D01*
X99109587Y-126785155D01*
X99070428Y-126791500D01*
X97930214Y-126791500D01*
X97793345Y-126818725D01*
X97793337Y-126818727D01*
X97717807Y-126850013D01*
X97717806Y-126850013D01*
X97664403Y-126872132D01*
X97664402Y-126872133D01*
X97577473Y-126930218D01*
X97548469Y-126949598D01*
X97548364Y-126949668D01*
X97548359Y-126949671D01*
X97548351Y-126949677D01*
X93949674Y-130548353D01*
X93949671Y-130548356D01*
X93872138Y-130664393D01*
X93872136Y-130664397D01*
X93872135Y-130664399D01*
X93844873Y-130730217D01*
X93822112Y-130785167D01*
X93819495Y-130791486D01*
X93819487Y-130791504D01*
X93818728Y-130793335D01*
X93818726Y-130793339D01*
X93792870Y-130923331D01*
X93792869Y-130923338D01*
X93791501Y-130930213D01*
X93791500Y-130930223D01*
X93791500Y-131316000D01*
X93771815Y-131383039D01*
X93719011Y-131428794D01*
X93667500Y-131440000D01*
X93665000Y-131440000D01*
X93665000Y-132559999D01*
X93710694Y-132559999D01*
X93753772Y-132553176D01*
X93823065Y-132562130D01*
X93860848Y-132587965D01*
X93959371Y-132686488D01*
X94100403Y-132769894D01*
X94134438Y-132779782D01*
X94257741Y-132815605D01*
X94257744Y-132815605D01*
X94257746Y-132815606D01*
X94294516Y-132818500D01*
X94294522Y-132818500D01*
X94705478Y-132818500D01*
X94705484Y-132818500D01*
X94742254Y-132815606D01*
X94742256Y-132815605D01*
X94742258Y-132815605D01*
X94817201Y-132793832D01*
X94899597Y-132769894D01*
X95040629Y-132686488D01*
X95156488Y-132570629D01*
X95239894Y-132429597D01*
X95285606Y-132272254D01*
X95288500Y-132235484D01*
X95288500Y-131764516D01*
X95285606Y-131727746D01*
X95283302Y-131719817D01*
X95247883Y-131597901D01*
X95239894Y-131570403D01*
X95239892Y-131570399D01*
X95225768Y-131546516D01*
X95208500Y-131483395D01*
X95208500Y-131344832D01*
X95228185Y-131277793D01*
X95244819Y-131257151D01*
X96376970Y-130125000D01*
X96800000Y-130125000D01*
X96800000Y-130522844D01*
X96806401Y-130582372D01*
X96806403Y-130582379D01*
X96856645Y-130717086D01*
X96856649Y-130717093D01*
X96942809Y-130832187D01*
X96942812Y-130832190D01*
X97057906Y-130918350D01*
X97057913Y-130918354D01*
X97192620Y-130968596D01*
X97192627Y-130968598D01*
X97252155Y-130974999D01*
X97252172Y-130975000D01*
X97425000Y-130975000D01*
X97425000Y-130125000D01*
X96800000Y-130125000D01*
X96376970Y-130125000D01*
X96625804Y-129876166D01*
X96687127Y-129842681D01*
X96756819Y-129847665D01*
X96799352Y-129875000D01*
X97551000Y-129875000D01*
X97618039Y-129894685D01*
X97663794Y-129947489D01*
X97675000Y-129999000D01*
X97675000Y-130975000D01*
X97847828Y-130975000D01*
X97847844Y-130974999D01*
X97907372Y-130968598D01*
X97907379Y-130968596D01*
X98042086Y-130918354D01*
X98042089Y-130918352D01*
X98073188Y-130895072D01*
X98138652Y-130870654D01*
X98206925Y-130885505D01*
X98256331Y-130934910D01*
X98271500Y-130994338D01*
X98271500Y-135107399D01*
X98251815Y-135174438D01*
X98235181Y-135195080D01*
X97076281Y-136353979D01*
X97014958Y-136387464D01*
X96945266Y-136382480D01*
X96912442Y-136364155D01*
X96905575Y-136358810D01*
X96905570Y-136358807D01*
X96707580Y-136251661D01*
X96707577Y-136251659D01*
X96707574Y-136251658D01*
X96707571Y-136251657D01*
X96707569Y-136251656D01*
X96494637Y-136178556D01*
X96272569Y-136141500D01*
X96047431Y-136141500D01*
X95825362Y-136178556D01*
X95612430Y-136251656D01*
X95612419Y-136251661D01*
X95414427Y-136358808D01*
X95414422Y-136358812D01*
X95236761Y-136497092D01*
X95236756Y-136497097D01*
X95084284Y-136662723D01*
X95084276Y-136662734D01*
X94993808Y-136801206D01*
X94940662Y-136846562D01*
X94871431Y-136855986D01*
X94808095Y-136826484D01*
X94786192Y-136801206D01*
X94695723Y-136662734D01*
X94695715Y-136662723D01*
X94543243Y-136497097D01*
X94543238Y-136497092D01*
X94402389Y-136387464D01*
X94365576Y-136358811D01*
X94365575Y-136358810D01*
X94365572Y-136358808D01*
X94167580Y-136251661D01*
X94167577Y-136251659D01*
X94167574Y-136251658D01*
X94167571Y-136251657D01*
X94167569Y-136251656D01*
X93954637Y-136178556D01*
X93732569Y-136141500D01*
X93507431Y-136141500D01*
X93507430Y-136141500D01*
X93361313Y-136165881D01*
X93291948Y-136157499D01*
X93253224Y-136131253D01*
X91384426Y-134262455D01*
X91350941Y-134201132D01*
X91355925Y-134131440D01*
X91372841Y-134100463D01*
X91386258Y-134082541D01*
X91450889Y-133996204D01*
X91501989Y-133859201D01*
X91505598Y-133825627D01*
X91508499Y-133798654D01*
X91508500Y-133798637D01*
X91508500Y-132201362D01*
X91508499Y-132201345D01*
X91503208Y-132152138D01*
X91501989Y-132140799D01*
X91496096Y-132125000D01*
X93010001Y-132125000D01*
X93010001Y-132200689D01*
X93024465Y-132292017D01*
X93080552Y-132402093D01*
X93080555Y-132402098D01*
X93167901Y-132489444D01*
X93167906Y-132489448D01*
X93277984Y-132545536D01*
X93277983Y-132545536D01*
X93369304Y-132559999D01*
X93414999Y-132559999D01*
X93415000Y-132559998D01*
X93415000Y-132125000D01*
X93010001Y-132125000D01*
X91496096Y-132125000D01*
X91479522Y-132080564D01*
X91450889Y-132003796D01*
X91363261Y-131886739D01*
X91347580Y-131875000D01*
X93010000Y-131875000D01*
X93415000Y-131875000D01*
X93415000Y-131440000D01*
X93369311Y-131440000D01*
X93277982Y-131454465D01*
X93167906Y-131510552D01*
X93167901Y-131510555D01*
X93080555Y-131597901D01*
X93080551Y-131597906D01*
X93024463Y-131707984D01*
X93010000Y-131799308D01*
X93010000Y-131875000D01*
X91347580Y-131875000D01*
X91246204Y-131799111D01*
X91109203Y-131748011D01*
X91048654Y-131741500D01*
X91048638Y-131741500D01*
X89951362Y-131741500D01*
X89951345Y-131741500D01*
X89890797Y-131748011D01*
X89883242Y-131749796D01*
X89882775Y-131747822D01*
X89823622Y-131752044D01*
X89812705Y-131748838D01*
X89809204Y-131748011D01*
X89748656Y-131741500D01*
X89748640Y-131741500D01*
X88994834Y-131741500D01*
X88927795Y-131721815D01*
X88907153Y-131705181D01*
X87897152Y-130695180D01*
X87863667Y-130633857D01*
X87868651Y-130564165D01*
X87910523Y-130508232D01*
X87975987Y-130483815D01*
X87984818Y-130483499D01*
X88257264Y-130483499D01*
X88257272Y-130483499D01*
X88328645Y-130477014D01*
X88328648Y-130477013D01*
X88328649Y-130477013D01*
X88492913Y-130425827D01*
X88640155Y-130336816D01*
X88761816Y-130215155D01*
X88850827Y-130067913D01*
X88902013Y-129903649D01*
X88908500Y-129832265D01*
X88908499Y-129167736D01*
X88908499Y-129167735D01*
X88908499Y-129167727D01*
X88902014Y-129096354D01*
X88902011Y-129096344D01*
X88850828Y-128932090D01*
X88850827Y-128932089D01*
X88850827Y-128932087D01*
X88761816Y-128784845D01*
X88761814Y-128784843D01*
X88761813Y-128784841D01*
X88640158Y-128663186D01*
X88492913Y-128574173D01*
X88439102Y-128557405D01*
X88328649Y-128522987D01*
X88328647Y-128522986D01*
X88328645Y-128522986D01*
X88278667Y-128518444D01*
X88257265Y-128516500D01*
X88257262Y-128516500D01*
X88069832Y-128516500D01*
X88002793Y-128496815D01*
X87982151Y-128480181D01*
X85247351Y-125745380D01*
X85213866Y-125684057D01*
X85218850Y-125614365D01*
X85260722Y-125558432D01*
X85326186Y-125534015D01*
X85382483Y-125543137D01*
X85468539Y-125578783D01*
X85635446Y-125611983D01*
X85668204Y-125618499D01*
X85668207Y-125618500D01*
X85668209Y-125618500D01*
X85871791Y-125618500D01*
X85935851Y-125605757D01*
X86005439Y-125611983D01*
X86047722Y-125639693D01*
X89458353Y-129050325D01*
X89458357Y-129050328D01*
X89574394Y-129127862D01*
X89574395Y-129127862D01*
X89574399Y-129127865D01*
X89662601Y-129164399D01*
X89703338Y-129181273D01*
X89731895Y-129186953D01*
X89771730Y-129194877D01*
X89771754Y-129194881D01*
X89771778Y-129194886D01*
X89823108Y-129205096D01*
X89840217Y-129208500D01*
X89840218Y-129208500D01*
X89840219Y-129208500D01*
X89942128Y-129208500D01*
X90005248Y-129225767D01*
X90097405Y-129280269D01*
X90125695Y-129288488D01*
X90253527Y-129325627D01*
X90253529Y-129325627D01*
X90253535Y-129325629D01*
X90290012Y-129328500D01*
X90689989Y-129328499D01*
X90726467Y-129325629D01*
X90823859Y-129297334D01*
X90882592Y-129280271D01*
X90882593Y-129280269D01*
X90882597Y-129280269D01*
X90936881Y-129248165D01*
X91004602Y-129230983D01*
X91063117Y-129248164D01*
X91117403Y-129280269D01*
X91117404Y-129280269D01*
X91117407Y-129280271D01*
X91273525Y-129325627D01*
X91273527Y-129325627D01*
X91273533Y-129325629D01*
X91310010Y-129328500D01*
X91709987Y-129328499D01*
X91746465Y-129325629D01*
X91902595Y-129280269D01*
X92042540Y-129197506D01*
X92157505Y-129082541D01*
X92240268Y-128942596D01*
X92285628Y-128786466D01*
X92288499Y-128749989D01*
X92288498Y-128250012D01*
X92285628Y-128213534D01*
X92240268Y-128057404D01*
X92157505Y-127917459D01*
X92157503Y-127917457D01*
X92157500Y-127917453D01*
X92094819Y-127854772D01*
X92061334Y-127793449D01*
X92058500Y-127767091D01*
X92058500Y-126882500D01*
X92078185Y-126815461D01*
X92130989Y-126769706D01*
X92182500Y-126758500D01*
X93198638Y-126758500D01*
X93198654Y-126758499D01*
X93225692Y-126755591D01*
X93259201Y-126751989D01*
X93396204Y-126700889D01*
X93513261Y-126613261D01*
X93600889Y-126496204D01*
X93651989Y-126359201D01*
X93655591Y-126325692D01*
X93658499Y-126298654D01*
X93658500Y-126298637D01*
X93658500Y-125436305D01*
X93667940Y-125388850D01*
X93679890Y-125360000D01*
X93681273Y-125356662D01*
X93708500Y-125219781D01*
X93708500Y-123519963D01*
X93728185Y-123452924D01*
X93780989Y-123407169D01*
X93850147Y-123397225D01*
X93858280Y-123398672D01*
X93904513Y-123408500D01*
X94095487Y-123408500D01*
X94282288Y-123368794D01*
X94456752Y-123291118D01*
X94482138Y-123272674D01*
X94537871Y-123232182D01*
X94603677Y-123208702D01*
X94610756Y-123208500D01*
X95155167Y-123208500D01*
X95222206Y-123228185D01*
G37*
%TD.AperFunction*%
%TA.AperFunction,Conductor*%
G36*
X116357767Y-113000158D02*
G01*
X116995284Y-113032347D01*
X117002818Y-113032959D01*
X117657739Y-113106416D01*
X117665234Y-113107490D01*
X118314435Y-113220896D01*
X118321840Y-113222424D01*
X118480582Y-113260295D01*
X118541223Y-113294998D01*
X118573476Y-113356978D01*
X118567100Y-113426556D01*
X118539488Y-113468590D01*
X117333254Y-114674825D01*
X117333250Y-114674829D01*
X117295032Y-114722255D01*
X117295031Y-114722256D01*
X117234289Y-114855265D01*
X117234288Y-114855267D01*
X117213479Y-115000000D01*
X117234288Y-115144732D01*
X117234289Y-115144734D01*
X117265026Y-115212040D01*
X117274969Y-115281199D01*
X117245943Y-115344754D01*
X117187165Y-115382528D01*
X117152231Y-115387551D01*
X117087237Y-115387551D01*
X117041189Y-115395235D01*
X116856994Y-115425971D01*
X116636229Y-115501761D01*
X116636215Y-115501767D01*
X116430937Y-115612857D01*
X116430934Y-115612859D01*
X116246730Y-115756232D01*
X116246725Y-115756236D01*
X116088635Y-115927966D01*
X115960964Y-116123382D01*
X115867200Y-116337143D01*
X115809897Y-116563428D01*
X115790622Y-116796045D01*
X115790622Y-116796056D01*
X115809897Y-117028673D01*
X115867200Y-117254958D01*
X115960964Y-117468719D01*
X116088635Y-117664135D01*
X116246410Y-117835523D01*
X116246729Y-117835869D01*
X116430932Y-117979241D01*
X116430935Y-117979242D01*
X116430937Y-117979244D01*
X116561308Y-118049797D01*
X116610899Y-118099016D01*
X116626007Y-118167233D01*
X116601837Y-118232789D01*
X116589972Y-118246533D01*
X116056578Y-118779928D01*
X115995255Y-118813413D01*
X115925564Y-118808429D01*
X115869630Y-118766558D01*
X115845213Y-118701093D01*
X115844897Y-118692247D01*
X115844897Y-118066616D01*
X115840320Y-118043610D01*
X115840319Y-118043605D01*
X115835980Y-118021792D01*
X115827517Y-117979241D01*
X115817670Y-117929735D01*
X115794330Y-117873387D01*
X115773108Y-117822152D01*
X115764265Y-117800802D01*
X115764258Y-117800789D01*
X115686725Y-117684754D01*
X115686722Y-117684750D01*
X115118372Y-117116400D01*
X115118368Y-117116397D01*
X115002330Y-117038862D01*
X115002327Y-117038861D01*
X114905919Y-116998928D01*
X114873388Y-116985453D01*
X114775957Y-116966073D01*
X114756232Y-116962149D01*
X114736509Y-116958226D01*
X114736508Y-116958226D01*
X114736507Y-116958226D01*
X113131335Y-116958226D01*
X113064296Y-116938541D01*
X113018541Y-116885737D01*
X113008597Y-116816579D01*
X113018541Y-116782715D01*
X113050364Y-116713032D01*
X113050366Y-116713024D01*
X113070826Y-116570710D01*
X113050366Y-116428396D01*
X113050365Y-116428391D01*
X112990639Y-116297613D01*
X112990638Y-116297611D01*
X112953060Y-116250980D01*
X112953054Y-116250973D01*
X112689429Y-115987348D01*
X112149553Y-116527224D01*
X112088230Y-116560709D01*
X112018538Y-116555725D01*
X111974191Y-116527224D01*
X111301732Y-115854765D01*
X111170682Y-115985816D01*
X111133105Y-116032446D01*
X111133104Y-116032448D01*
X111073378Y-116163226D01*
X111073377Y-116163231D01*
X111052917Y-116305545D01*
X111052917Y-116305546D01*
X111062475Y-116372032D01*
X111052530Y-116441190D01*
X111006775Y-116493994D01*
X110939735Y-116513677D01*
X110907247Y-116507948D01*
X110907036Y-116508841D01*
X110900009Y-116507175D01*
X110900008Y-116507175D01*
X110727475Y-116466284D01*
X110550164Y-116466284D01*
X110463897Y-116486729D01*
X110377628Y-116507175D01*
X110219180Y-116586752D01*
X110219177Y-116586754D01*
X110138228Y-116652695D01*
X110138213Y-116652709D01*
X109869017Y-116921907D01*
X109807694Y-116955392D01*
X109781336Y-116958226D01*
X109011558Y-116958226D01*
X108944519Y-116938541D01*
X108923877Y-116921907D01*
X107679959Y-115677988D01*
X111478509Y-115677988D01*
X112061872Y-116261351D01*
X112512652Y-115810571D01*
X112249026Y-115546945D01*
X112249019Y-115546939D01*
X112202388Y-115509361D01*
X112202386Y-115509360D01*
X112071608Y-115449634D01*
X112071603Y-115449633D01*
X111929289Y-115429173D01*
X111786975Y-115449633D01*
X111786970Y-115449634D01*
X111656192Y-115509360D01*
X111656190Y-115509361D01*
X111609560Y-115546938D01*
X111478509Y-115677988D01*
X107679959Y-115677988D01*
X105451646Y-113449674D01*
X105451642Y-113449671D01*
X105335604Y-113372136D01*
X105335601Y-113372135D01*
X105241728Y-113333252D01*
X105206663Y-113318727D01*
X105186898Y-113314795D01*
X105087533Y-113295031D01*
X105069782Y-113291500D01*
X105069781Y-113291500D01*
X96669780Y-113291500D01*
X96530217Y-113291500D01*
X96512466Y-113295031D01*
X96512465Y-113295031D01*
X96393344Y-113318725D01*
X96393336Y-113318727D01*
X96317806Y-113350013D01*
X96264394Y-113372136D01*
X96148356Y-113449671D01*
X96148352Y-113449674D01*
X95392847Y-114205181D01*
X95331524Y-114238666D01*
X95305166Y-114241500D01*
X95301346Y-114241500D01*
X95240798Y-114248011D01*
X95240796Y-114248011D01*
X95103796Y-114299111D01*
X94986740Y-114386739D01*
X94899112Y-114503795D01*
X94848012Y-114640795D01*
X94848012Y-114640797D01*
X94841501Y-114701345D01*
X94841501Y-116298654D01*
X94848012Y-116359202D01*
X94848012Y-116359204D01*
X94887952Y-116466284D01*
X94899112Y-116496204D01*
X94986740Y-116613261D01*
X95066100Y-116672669D01*
X95091812Y-116691917D01*
X95133683Y-116747851D01*
X95141501Y-116791184D01*
X95141501Y-118849785D01*
X95168726Y-118986655D01*
X95168727Y-118986659D01*
X95168728Y-118986662D01*
X95170089Y-118989946D01*
X95177183Y-119007072D01*
X95177184Y-119007076D01*
X95222136Y-119115601D01*
X95222137Y-119115604D01*
X95299672Y-119231642D01*
X95299675Y-119231646D01*
X96555182Y-120487152D01*
X96588667Y-120548475D01*
X96591501Y-120574833D01*
X96591501Y-121525537D01*
X96591502Y-121525553D01*
X96602114Y-121629427D01*
X96652196Y-121780566D01*
X96657886Y-121797738D01*
X96750971Y-121948652D01*
X96876349Y-122074030D01*
X97027263Y-122167115D01*
X97195575Y-122222887D01*
X97299456Y-122233500D01*
X97900545Y-122233499D01*
X98004427Y-122222887D01*
X98172739Y-122167115D01*
X98323653Y-122074030D01*
X98449031Y-121948652D01*
X98542116Y-121797738D01*
X98569924Y-121713816D01*
X98609696Y-121656372D01*
X98674212Y-121629548D01*
X98742988Y-121641863D01*
X98794188Y-121689405D01*
X98803811Y-121709486D01*
X98806644Y-121717082D01*
X98806650Y-121717093D01*
X98892810Y-121832187D01*
X98892813Y-121832190D01*
X99007907Y-121918350D01*
X99007914Y-121918354D01*
X99142621Y-121968596D01*
X99142628Y-121968598D01*
X99202156Y-121974999D01*
X99202173Y-121975000D01*
X99375001Y-121975000D01*
X99375001Y-121125000D01*
X99625001Y-121125000D01*
X99625001Y-121975000D01*
X99797829Y-121975000D01*
X99797845Y-121974999D01*
X99857373Y-121968598D01*
X99857380Y-121968596D01*
X99992087Y-121918354D01*
X99992094Y-121918350D01*
X100107188Y-121832190D01*
X100107191Y-121832187D01*
X100193351Y-121717093D01*
X100193355Y-121717086D01*
X100243597Y-121582379D01*
X100243599Y-121582372D01*
X100250000Y-121522844D01*
X100250001Y-121522827D01*
X100250001Y-121125000D01*
X99625001Y-121125000D01*
X99375001Y-121125000D01*
X99375001Y-120025000D01*
X99625001Y-120025000D01*
X99625001Y-120875000D01*
X100250001Y-120875000D01*
X100250001Y-120477172D01*
X100250000Y-120477155D01*
X100243599Y-120417627D01*
X100243597Y-120417620D01*
X100193355Y-120282913D01*
X100193351Y-120282906D01*
X100107191Y-120167812D01*
X100107188Y-120167809D01*
X99992094Y-120081649D01*
X99992087Y-120081645D01*
X99857380Y-120031403D01*
X99857373Y-120031401D01*
X99797845Y-120025000D01*
X99625001Y-120025000D01*
X99375001Y-120025000D01*
X99202156Y-120025000D01*
X99142628Y-120031401D01*
X99142621Y-120031403D01*
X99007914Y-120081645D01*
X99007907Y-120081649D01*
X98892813Y-120167809D01*
X98892810Y-120167812D01*
X98806650Y-120282906D01*
X98806647Y-120282912D01*
X98803811Y-120290516D01*
X98761938Y-120346448D01*
X98696473Y-120370863D01*
X98628200Y-120356010D01*
X98578796Y-120306603D01*
X98569924Y-120286183D01*
X98542116Y-120202262D01*
X98449031Y-120051348D01*
X98323653Y-119925970D01*
X98172739Y-119832885D01*
X98116942Y-119814396D01*
X98004428Y-119777113D01*
X97900553Y-119766500D01*
X97900546Y-119766500D01*
X97889834Y-119766500D01*
X97822795Y-119746815D01*
X97802153Y-119730181D01*
X96594820Y-118522848D01*
X96561335Y-118461525D01*
X96558501Y-118435167D01*
X96558501Y-116882500D01*
X96578186Y-116815461D01*
X96630990Y-116769706D01*
X96682501Y-116758500D01*
X97698637Y-116758500D01*
X97698653Y-116758499D01*
X97725691Y-116755591D01*
X97759200Y-116751989D01*
X97896203Y-116700889D01*
X98013260Y-116613261D01*
X98100888Y-116496204D01*
X98151988Y-116359201D01*
X98156284Y-116319245D01*
X98183022Y-116254694D01*
X98240414Y-116214845D01*
X98279573Y-116208500D01*
X99503695Y-116208500D01*
X99570734Y-116228185D01*
X99591376Y-116244819D01*
X102275181Y-118928623D01*
X102308666Y-118989946D01*
X102311500Y-119016304D01*
X102311500Y-122483395D01*
X102294232Y-122546516D01*
X102280107Y-122570399D01*
X102280105Y-122570404D01*
X102234394Y-122727741D01*
X102234393Y-122727747D01*
X102231500Y-122764510D01*
X102231500Y-123235489D01*
X102234393Y-123272252D01*
X102234394Y-123272258D01*
X102280104Y-123429592D01*
X102280106Y-123429597D01*
X102363510Y-123570626D01*
X102363516Y-123570634D01*
X102479365Y-123686483D01*
X102479369Y-123686486D01*
X102479371Y-123686488D01*
X102620403Y-123769894D01*
X102661895Y-123781948D01*
X102777741Y-123815605D01*
X102777744Y-123815605D01*
X102777746Y-123815606D01*
X102814516Y-123818500D01*
X102814522Y-123818500D01*
X103225478Y-123818500D01*
X103225484Y-123818500D01*
X103262254Y-123815606D01*
X103262256Y-123815605D01*
X103262258Y-123815605D01*
X103303746Y-123803551D01*
X103419597Y-123769894D01*
X103560629Y-123686488D01*
X103659149Y-123587967D01*
X103720470Y-123554484D01*
X103766227Y-123553177D01*
X103809304Y-123559999D01*
X103854999Y-123559999D01*
X103855000Y-123559998D01*
X103855000Y-123125000D01*
X104105000Y-123125000D01*
X104105000Y-123559999D01*
X104150689Y-123559999D01*
X104242017Y-123545534D01*
X104352093Y-123489447D01*
X104352098Y-123489444D01*
X104439444Y-123402098D01*
X104439448Y-123402093D01*
X104495536Y-123292015D01*
X104510000Y-123200691D01*
X104510000Y-123125000D01*
X104105000Y-123125000D01*
X103855000Y-123125000D01*
X103855000Y-122440000D01*
X104105000Y-122440000D01*
X104105000Y-122875000D01*
X104509999Y-122875000D01*
X104509999Y-122799310D01*
X104495534Y-122707982D01*
X104439447Y-122597906D01*
X104439444Y-122597901D01*
X104352098Y-122510555D01*
X104352093Y-122510551D01*
X104242015Y-122454463D01*
X104150691Y-122440000D01*
X104105000Y-122440000D01*
X103855000Y-122440000D01*
X103854999Y-122439999D01*
X103852502Y-122440000D01*
X103785462Y-122420317D01*
X103739707Y-122367514D01*
X103728500Y-122316000D01*
X103728500Y-118601690D01*
X103728499Y-118601686D01*
X103724919Y-118583687D01*
X103701273Y-118464810D01*
X103658596Y-118361780D01*
X103657331Y-118358727D01*
X103647868Y-118335879D01*
X103647867Y-118335878D01*
X103647865Y-118335872D01*
X103631791Y-118311815D01*
X103570328Y-118219829D01*
X103570325Y-118219826D01*
X102725499Y-117375000D01*
X104275000Y-117375000D01*
X104875000Y-117375000D01*
X104875000Y-116850000D01*
X105125000Y-116850000D01*
X105125000Y-117375000D01*
X105724999Y-117375000D01*
X105724999Y-117245803D01*
X105722148Y-117215393D01*
X105677346Y-117087354D01*
X105596792Y-116978207D01*
X105487645Y-116897653D01*
X105359602Y-116852850D01*
X105329207Y-116850000D01*
X105125000Y-116850000D01*
X104875000Y-116850000D01*
X104670804Y-116850000D01*
X104640393Y-116852851D01*
X104512354Y-116897653D01*
X104403207Y-116978207D01*
X104322653Y-117087354D01*
X104277850Y-117215395D01*
X104277850Y-117215399D01*
X104275000Y-117245793D01*
X104275000Y-117375000D01*
X102725499Y-117375000D01*
X100300174Y-114949674D01*
X100300173Y-114949673D01*
X100279115Y-114935603D01*
X100234309Y-114881990D01*
X100225602Y-114812666D01*
X100255756Y-114749638D01*
X100315199Y-114712918D01*
X100348005Y-114708500D01*
X104655167Y-114708500D01*
X104722206Y-114728185D01*
X104742848Y-114744819D01*
X107755181Y-117757151D01*
X107788666Y-117818474D01*
X107791500Y-117844832D01*
X107791500Y-121617500D01*
X107771815Y-121684539D01*
X107719011Y-121730294D01*
X107667500Y-121741500D01*
X106994834Y-121741500D01*
X106927795Y-121721815D01*
X106907153Y-121705181D01*
X105744819Y-120542846D01*
X105711334Y-120481523D01*
X105708500Y-120455165D01*
X105708500Y-119969833D01*
X105728185Y-119902794D01*
X105744814Y-119882156D01*
X105836816Y-119790155D01*
X105925827Y-119642913D01*
X105977013Y-119478649D01*
X105983500Y-119407265D01*
X105983499Y-118892736D01*
X105983499Y-118892735D01*
X105983499Y-118892727D01*
X105977014Y-118821354D01*
X105977011Y-118821344D01*
X105925828Y-118657090D01*
X105925827Y-118657089D01*
X105925827Y-118657087D01*
X105836816Y-118509845D01*
X105836814Y-118509843D01*
X105836813Y-118509841D01*
X105715158Y-118388186D01*
X105693720Y-118375226D01*
X105567913Y-118299173D01*
X105567912Y-118299172D01*
X105567911Y-118299172D01*
X105557628Y-118295968D01*
X105499481Y-118257230D01*
X105471508Y-118193204D01*
X105482590Y-118124219D01*
X105520887Y-118077813D01*
X105596791Y-118021793D01*
X105677346Y-117912645D01*
X105722149Y-117784604D01*
X105722149Y-117784600D01*
X105725000Y-117754206D01*
X105725000Y-117625000D01*
X104275001Y-117625000D01*
X104275001Y-117754196D01*
X104277851Y-117784606D01*
X104322653Y-117912645D01*
X104403207Y-118021792D01*
X104479113Y-118077813D01*
X104521364Y-118133461D01*
X104526822Y-118203117D01*
X104493754Y-118264666D01*
X104442373Y-118295967D01*
X104432089Y-118299171D01*
X104284841Y-118388186D01*
X104163186Y-118509841D01*
X104074173Y-118657086D01*
X104022986Y-118821354D01*
X104016500Y-118892737D01*
X104016500Y-119407272D01*
X104022985Y-119478645D01*
X104022988Y-119478655D01*
X104074171Y-119642909D01*
X104074172Y-119642911D01*
X104074173Y-119642913D01*
X104163184Y-119790155D01*
X104255182Y-119882153D01*
X104288666Y-119943474D01*
X104291500Y-119969833D01*
X104291500Y-120869781D01*
X104295896Y-120891885D01*
X104309996Y-120962768D01*
X104309996Y-120962769D01*
X104318724Y-121006652D01*
X104318727Y-121006661D01*
X104372135Y-121135599D01*
X104372136Y-121135602D01*
X104449671Y-121251640D01*
X104449674Y-121251644D01*
X106155183Y-122957151D01*
X106188668Y-123018474D01*
X106191502Y-123044832D01*
X106191502Y-123798654D01*
X106198013Y-123859202D01*
X106198013Y-123859204D01*
X106240140Y-123972148D01*
X106249113Y-123996204D01*
X106336741Y-124113261D01*
X106453798Y-124200889D01*
X106562679Y-124241500D01*
X106582355Y-124248839D01*
X106590801Y-124251989D01*
X106618052Y-124254918D01*
X106651347Y-124258499D01*
X106651364Y-124258500D01*
X106940167Y-124258500D01*
X107007206Y-124278185D01*
X107052961Y-124330989D01*
X107062905Y-124400147D01*
X107033880Y-124463703D01*
X107027848Y-124470181D01*
X100609343Y-130888685D01*
X100548020Y-130922170D01*
X100478328Y-130917186D01*
X100422395Y-130875314D01*
X100397978Y-130809850D01*
X100403955Y-130762005D01*
X100447887Y-130629426D01*
X100451976Y-130589394D01*
X100478371Y-130524704D01*
X100487644Y-130514325D01*
X102050328Y-128951643D01*
X102127865Y-128835601D01*
X102151581Y-128778343D01*
X102195421Y-128723941D01*
X102222808Y-128709614D01*
X102246204Y-128700889D01*
X102363261Y-128613261D01*
X102450889Y-128496204D01*
X102501989Y-128359201D01*
X102506285Y-128319245D01*
X102508499Y-128298654D01*
X102508500Y-128298637D01*
X102508500Y-126701362D01*
X102508499Y-126701345D01*
X102505157Y-126670270D01*
X102501989Y-126640799D01*
X102492807Y-126616182D01*
X102479522Y-126580564D01*
X102450889Y-126503796D01*
X102363261Y-126386739D01*
X102363259Y-126386738D01*
X102363259Y-126386737D01*
X102296968Y-126337112D01*
X102246204Y-126299111D01*
X102246202Y-126299110D01*
X102244356Y-126297728D01*
X102202484Y-126241795D01*
X102197051Y-126222664D01*
X102181273Y-126143338D01*
X102150805Y-126069782D01*
X102127865Y-126014399D01*
X102050328Y-125898358D01*
X102050325Y-125898354D01*
X99901646Y-123749674D01*
X99901638Y-123749668D01*
X99785603Y-123672136D01*
X99785599Y-123672134D01*
X99721328Y-123645512D01*
X99694427Y-123634369D01*
X99694426Y-123634368D01*
X99656664Y-123618727D01*
X99656658Y-123618725D01*
X99588221Y-123605113D01*
X99519785Y-123591500D01*
X99519782Y-123591500D01*
X99519781Y-123591500D01*
X97644832Y-123591500D01*
X97577793Y-123571815D01*
X97557151Y-123555181D01*
X95951646Y-121949674D01*
X95951642Y-121949671D01*
X95835604Y-121872136D01*
X95835601Y-121872135D01*
X95740335Y-121832675D01*
X95706663Y-121818727D01*
X95687748Y-121814965D01*
X95592661Y-121796051D01*
X95569782Y-121791500D01*
X94610756Y-121791500D01*
X94543717Y-121771815D01*
X94537871Y-121767818D01*
X94456756Y-121708884D01*
X94456752Y-121708882D01*
X94282288Y-121631206D01*
X94282286Y-121631205D01*
X94095487Y-121591500D01*
X93904513Y-121591500D01*
X93858281Y-121601327D01*
X93788614Y-121596011D01*
X93732880Y-121553874D01*
X93708775Y-121488294D01*
X93708500Y-121480037D01*
X93708500Y-118470218D01*
X93708499Y-118470214D01*
X93696947Y-118412136D01*
X93681273Y-118333338D01*
X93645919Y-118247987D01*
X93627865Y-118204399D01*
X93627008Y-118203117D01*
X93601323Y-118164677D01*
X93550327Y-118088357D01*
X93550323Y-118088353D01*
X93550321Y-118088350D01*
X93076024Y-117614053D01*
X93042539Y-117552730D01*
X93047523Y-117483038D01*
X93089395Y-117427105D01*
X93143292Y-117404064D01*
X93346951Y-117370080D01*
X93567727Y-117294287D01*
X93773017Y-117183190D01*
X93957220Y-117039818D01*
X94115314Y-116868083D01*
X94242984Y-116672669D01*
X94336749Y-116458907D01*
X94394051Y-116232626D01*
X94403103Y-116123382D01*
X94413327Y-116000005D01*
X94413327Y-115999994D01*
X94398122Y-115816499D01*
X94394051Y-115767374D01*
X94336749Y-115541093D01*
X94242984Y-115327331D01*
X94158341Y-115197775D01*
X94115313Y-115131915D01*
X93957223Y-114960185D01*
X93957222Y-114960184D01*
X93957220Y-114960182D01*
X93773017Y-114816810D01*
X93773015Y-114816809D01*
X93773014Y-114816808D01*
X93773011Y-114816806D01*
X93567733Y-114705716D01*
X93567730Y-114705715D01*
X93567727Y-114705713D01*
X93567721Y-114705711D01*
X93567719Y-114705710D01*
X93346954Y-114629920D01*
X93155730Y-114598011D01*
X93116712Y-114591500D01*
X92883288Y-114591500D01*
X92844270Y-114598011D01*
X92653045Y-114629920D01*
X92432280Y-114705710D01*
X92432266Y-114705716D01*
X92226988Y-114816806D01*
X92226985Y-114816808D01*
X92042781Y-114960181D01*
X92039010Y-114963653D01*
X92038290Y-114962871D01*
X91982899Y-114996147D01*
X91913061Y-114994034D01*
X91855452Y-114954500D01*
X91835397Y-114919503D01*
X91817729Y-114872135D01*
X91810889Y-114853796D01*
X91723261Y-114736739D01*
X91606204Y-114649111D01*
X91583908Y-114640795D01*
X91469203Y-114598011D01*
X91408654Y-114591500D01*
X91408638Y-114591500D01*
X89511362Y-114591500D01*
X89511345Y-114591500D01*
X89450797Y-114598011D01*
X89450795Y-114598011D01*
X89313795Y-114649111D01*
X89196739Y-114736739D01*
X89109111Y-114853795D01*
X89058011Y-114990795D01*
X89058011Y-114990797D01*
X89051500Y-115051345D01*
X89051500Y-116948654D01*
X89058011Y-117009202D01*
X89058011Y-117009204D01*
X89101154Y-117124870D01*
X89109111Y-117146204D01*
X89196739Y-117263261D01*
X89313796Y-117350889D01*
X89450799Y-117401989D01*
X89478050Y-117404918D01*
X89511345Y-117408499D01*
X89511362Y-117408500D01*
X90815167Y-117408500D01*
X90882206Y-117428185D01*
X90902848Y-117444819D01*
X92255181Y-118797151D01*
X92288666Y-118858474D01*
X92291500Y-118884832D01*
X92291500Y-121290166D01*
X92271815Y-121357205D01*
X92219011Y-121402960D01*
X92149853Y-121412904D01*
X92086297Y-121383879D01*
X92079819Y-121377847D01*
X89191646Y-118489674D01*
X89191642Y-118489671D01*
X89075604Y-118412136D01*
X89075601Y-118412135D01*
X88954035Y-118361781D01*
X88954034Y-118361780D01*
X88946662Y-118358727D01*
X88946647Y-118358724D01*
X88831756Y-118335871D01*
X88831755Y-118335870D01*
X88831754Y-118335870D01*
X88809782Y-118331500D01*
X86023294Y-118331500D01*
X85956255Y-118311815D01*
X85924340Y-118282227D01*
X85886379Y-118231959D01*
X85722810Y-118082845D01*
X85722807Y-118082843D01*
X85722806Y-118082842D01*
X85534629Y-117966328D01*
X85534620Y-117966324D01*
X85450992Y-117933927D01*
X85395590Y-117891354D01*
X85371999Y-117825587D01*
X85387710Y-117757507D01*
X85437734Y-117708728D01*
X85495785Y-117694300D01*
X85734438Y-117694300D01*
X85734454Y-117694299D01*
X85761492Y-117691391D01*
X85795001Y-117687789D01*
X85932004Y-117636689D01*
X86049061Y-117549061D01*
X86136689Y-117432004D01*
X86187789Y-117295001D01*
X86192094Y-117254958D01*
X86194299Y-117234454D01*
X86194300Y-117234437D01*
X86194300Y-115765562D01*
X86194299Y-115765545D01*
X86189678Y-115722570D01*
X86187789Y-115704999D01*
X86182636Y-115691184D01*
X86150042Y-115603796D01*
X86136689Y-115567996D01*
X86049061Y-115450939D01*
X85932004Y-115363311D01*
X85795003Y-115312211D01*
X85734454Y-115305700D01*
X85734438Y-115305700D01*
X84265562Y-115305700D01*
X84265545Y-115305700D01*
X84204997Y-115312211D01*
X84204995Y-115312211D01*
X84067995Y-115363311D01*
X83950939Y-115450939D01*
X83863312Y-115567993D01*
X83863311Y-115567996D01*
X83847332Y-115610836D01*
X83805462Y-115666767D01*
X83739998Y-115691184D01*
X83731152Y-115691500D01*
X80420365Y-115691500D01*
X80264176Y-115722568D01*
X80264168Y-115722570D01*
X80160379Y-115765562D01*
X80117033Y-115783516D01*
X80117024Y-115783521D01*
X80067669Y-115816498D01*
X80067670Y-115816499D01*
X79984610Y-115871997D01*
X79928642Y-115927966D01*
X79871997Y-115984611D01*
X79871995Y-115984613D01*
X76747822Y-119108784D01*
X76710578Y-119134382D01*
X76543248Y-119208882D01*
X76543244Y-119208884D01*
X76537312Y-119211526D01*
X76536661Y-119210064D01*
X76476576Y-119224630D01*
X76410554Y-119201766D01*
X76367373Y-119146837D01*
X76358499Y-119100772D01*
X76358499Y-118291184D01*
X76378184Y-118224145D01*
X76408188Y-118191917D01*
X76419433Y-118183499D01*
X76513260Y-118113261D01*
X76600888Y-117996204D01*
X76651988Y-117859201D01*
X76655971Y-117822152D01*
X76658498Y-117798654D01*
X76658499Y-117798637D01*
X76658499Y-116201362D01*
X76658498Y-116201345D01*
X76655156Y-116170270D01*
X76651988Y-116140799D01*
X76651957Y-116140716D01*
X76629521Y-116080564D01*
X76600888Y-116003796D01*
X76513260Y-115886739D01*
X76396203Y-115799111D01*
X76259202Y-115748011D01*
X76198653Y-115741500D01*
X76198637Y-115741500D01*
X75101361Y-115741500D01*
X75101344Y-115741500D01*
X75040796Y-115748011D01*
X75033241Y-115749796D01*
X75032774Y-115747822D01*
X74973621Y-115752044D01*
X74962704Y-115748838D01*
X74959203Y-115748011D01*
X74898655Y-115741500D01*
X74898639Y-115741500D01*
X73801363Y-115741500D01*
X73801346Y-115741500D01*
X73740798Y-115748011D01*
X73740796Y-115748011D01*
X73603796Y-115799111D01*
X73486740Y-115886739D01*
X73399112Y-116003795D01*
X73348012Y-116140795D01*
X73348012Y-116140797D01*
X73341501Y-116201345D01*
X73341501Y-117798654D01*
X73348012Y-117859202D01*
X73348012Y-117859204D01*
X73392785Y-117979240D01*
X73399112Y-117996204D01*
X73486740Y-118113261D01*
X73580567Y-118183499D01*
X73591812Y-118191917D01*
X73633683Y-118247851D01*
X73641501Y-118291184D01*
X73641501Y-119405166D01*
X73621816Y-119472205D01*
X73605182Y-119492847D01*
X72112680Y-120985349D01*
X72051357Y-121018834D01*
X71981665Y-121013850D01*
X71937318Y-120985349D01*
X66751645Y-115799675D01*
X66751637Y-115799669D01*
X66635602Y-115722137D01*
X66635598Y-115722135D01*
X66594223Y-115704997D01*
X66544426Y-115684370D01*
X66544425Y-115684369D01*
X66506663Y-115668728D01*
X66506657Y-115668726D01*
X66438220Y-115655114D01*
X66427343Y-115652950D01*
X66365434Y-115620565D01*
X66352271Y-115605645D01*
X66350887Y-115603796D01*
X66263260Y-115486740D01*
X66146203Y-115399112D01*
X66143058Y-115397939D01*
X66009202Y-115348012D01*
X65948653Y-115341501D01*
X65948637Y-115341501D01*
X64351361Y-115341501D01*
X64351344Y-115341501D01*
X64290796Y-115348012D01*
X64290794Y-115348012D01*
X64153794Y-115399112D01*
X64036738Y-115486740D01*
X63949110Y-115603796D01*
X63949109Y-115603797D01*
X63940383Y-115627194D01*
X63898511Y-115683126D01*
X63871656Y-115698419D01*
X63814397Y-115722136D01*
X63814396Y-115722137D01*
X63698361Y-115799669D01*
X63698353Y-115799675D01*
X60980563Y-118517465D01*
X60919240Y-118550950D01*
X60918663Y-118551074D01*
X60765232Y-118583687D01*
X60765230Y-118583688D01*
X60600373Y-118657087D01*
X60590764Y-118661365D01*
X60436262Y-118773618D01*
X60436257Y-118773622D01*
X60430348Y-118780185D01*
X60370858Y-118816829D01*
X60301001Y-118815494D01*
X60250523Y-118784887D01*
X57944819Y-116479183D01*
X57911334Y-116417860D01*
X57908500Y-116391502D01*
X57908500Y-115826362D01*
X57908499Y-115826345D01*
X57903894Y-115783517D01*
X57901989Y-115765799D01*
X57901894Y-115765545D01*
X57865782Y-115668726D01*
X57850889Y-115628796D01*
X57763261Y-115511739D01*
X57646204Y-115424111D01*
X57576037Y-115397939D01*
X57520104Y-115356067D01*
X57495688Y-115290602D01*
X57510541Y-115222329D01*
X57528138Y-115197780D01*
X57615314Y-115103083D01*
X57742984Y-114907669D01*
X57836749Y-114693907D01*
X57894051Y-114467626D01*
X57912249Y-114248011D01*
X57913327Y-114235005D01*
X57913327Y-114234994D01*
X57894051Y-114002377D01*
X57894051Y-114002374D01*
X57836749Y-113776093D01*
X57742984Y-113562331D01*
X57675838Y-113459556D01*
X57615316Y-113366919D01*
X57482298Y-113222424D01*
X57469003Y-113207982D01*
X57438082Y-113145329D01*
X57445942Y-113075902D01*
X57490089Y-113021747D01*
X57556506Y-113000056D01*
X57560234Y-113000000D01*
X116351514Y-113000000D01*
X116357767Y-113000158D01*
G37*
%TD.AperFunction*%
%TD*%
M02*
