M48
; DRILL file {KiCad 8.0.1} date 2024-03-24T13:46:44+0200
; FORMAT={-:-/ absolute / inch / decimal}
; #@! TF.CreationDate,2024-03-24T13:46:44+02:00
; #@! TF.GenerationSoftware,Kicad,Pcbnew,8.0.1
; #@! TF.FileFunction,Plated,1,2,PTH
FMAT,2
INCH
; #@! TA.AperFunction,Plated,PTH,ViaDrill
T1C0.0157
; #@! TA.AperFunction,Plated,PTH,ComponentDrill
T2C0.0295
; #@! TA.AperFunction,Plated,PTH,ComponentDrill
T3C0.0340
; #@! TA.AperFunction,Plated,PTH,ComponentDrill
T4C0.0354
; #@! TA.AperFunction,Plated,PTH,ComponentDrill
T5C0.0394
%
G90
G05
T1
X2.3589Y-4.7474
X2.4034Y-4.7029
X2.8293Y-4.9356
X3.0315Y-4.7244
X3.6299Y-4.8228
X3.7008Y-4.8228
X3.7992Y-4.9213
X3.8583Y-4.8622
X3.8583Y-5.2165
X4.0354Y-5.2165
X4.4685Y-5.5315
X4.5329Y-4.7298
X4.5639Y-5.1801
X4.6063Y-4.7244
X4.6085Y-5.1356
T2
X2.1941Y-5.0197
X2.2441Y-5.0197
X2.2941Y-5.0197
X3.2768Y-4.8961
X3.3268Y-4.8961
X3.3768Y-4.8961
X4.4866Y-5.0394
X4.5366Y-5.0394
X4.5866Y-5.0394
T3
X2.0276Y-4.7244
X2.0983Y-4.7951
X3.3465Y-4.5866
X3.3465Y-4.6866
X4.7324Y-4.7951
X4.8031Y-4.7244
T4
X2.2244Y-4.4974
X2.2244Y-4.5974
X3.5614Y-4.5669
X3.6614Y-4.5669
X4.6143Y-4.5983
X4.685Y-4.5276
T5
X2.7858Y-5.4134
X2.7858Y-5.5134
X2.8858Y-5.4134
X2.8858Y-5.5134
X2.9858Y-5.4134
X2.9858Y-5.5134
X3.0858Y-5.4134
X3.0858Y-5.5134
X3.1858Y-5.4134
X3.1858Y-5.5134
X3.2858Y-5.4134
X3.2858Y-5.5134
X3.3858Y-5.4134
X3.3858Y-5.5134
X3.4858Y-5.4134
X3.4858Y-5.5134
X3.5858Y-5.4134
X3.5858Y-5.5134
X3.6858Y-5.4134
X3.6858Y-5.5134
X3.7858Y-5.4134
X3.7858Y-5.5134
X3.8858Y-5.4134
X3.8858Y-5.5134
X3.9858Y-5.4134
X3.9858Y-5.5134
X4.0858Y-5.4134
X4.0858Y-5.5134
M30
