%TF.GenerationSoftware,KiCad,Pcbnew,8.0.1*%
%TF.CreationDate,2024-03-24T13:46:44+02:00*%
%TF.ProjectId,EEE3088F Sensing Subsystem Project,45454533-3038-4384-9620-53656e73696e,rev?*%
%TF.SameCoordinates,Original*%
%TF.FileFunction,Legend,Bot*%
%TF.FilePolarity,Positive*%
%FSLAX46Y46*%
G04 Gerber Fmt 4.6, Leading zero omitted, Abs format (unit mm)*
G04 Created by KiCad (PCBNEW 8.0.1) date 2024-03-24 13:46:44*
%MOMM*%
%LPD*%
G01*
G04 APERTURE LIST*
G04 Aperture macros list*
%AMRotRect*
0 Rectangle, with rotation*
0 The origin of the aperture is its center*
0 $1 length*
0 $2 width*
0 $3 Rotation angle, in degrees counterclockwise*
0 Add horizontal line*
21,1,$1,$2,0,0,$3*%
G04 Aperture macros list end*
%ADD10C,0.150000*%
%ADD11C,0.120000*%
%ADD12RotRect,1.371600X1.371600X225.000000*%
%ADD13C,1.371600*%
%ADD14R,1.371600X1.371600*%
%ADD15RotRect,1.371600X1.371600X315.000000*%
%ADD16R,1.700000X1.700000*%
%ADD17O,1.700000X1.700000*%
%ADD18R,1.800000X1.800000*%
%ADD19C,1.800000*%
%ADD20RotRect,1.800000X1.800000X225.000000*%
%ADD21R,1.050000X1.500000*%
%ADD22O,1.050000X1.500000*%
G04 APERTURE END LIST*
D10*
X105564819Y-138436666D02*
X106279104Y-138436666D01*
X106279104Y-138436666D02*
X106421961Y-138389047D01*
X106421961Y-138389047D02*
X106517200Y-138293809D01*
X106517200Y-138293809D02*
X106564819Y-138150952D01*
X106564819Y-138150952D02*
X106564819Y-138055714D01*
X106564819Y-139436666D02*
X106564819Y-138865238D01*
X106564819Y-139150952D02*
X105564819Y-139150952D01*
X105564819Y-139150952D02*
X105707676Y-139055714D01*
X105707676Y-139055714D02*
X105802914Y-138960476D01*
X105802914Y-138960476D02*
X105850533Y-138865238D01*
D11*
%TO.C,J1*%
X105110000Y-140040000D02*
X105110000Y-141370000D01*
X105110000Y-141370000D02*
X103780000Y-141370000D01*
X69430000Y-141370000D02*
X102510000Y-141370000D01*
X102510000Y-138770000D02*
X102510000Y-141370000D01*
X69430000Y-136170000D02*
X69430000Y-141370000D01*
X105110000Y-136170000D02*
X105110000Y-138770000D01*
X105110000Y-138770000D02*
X102510000Y-138770000D01*
X69430000Y-136170000D02*
X105110000Y-136170000D01*
%TD*%
%LPC*%
D12*
%TO.C,LED3*%
X122000000Y-120000000D03*
D13*
X120203949Y-121796051D03*
%TD*%
D14*
%TO.C,LED2*%
X85000000Y-116500000D03*
D13*
X85000000Y-119040000D03*
%TD*%
D15*
%TO.C,LED1*%
X51500000Y-120000000D03*
D13*
X53296051Y-121796051D03*
%TD*%
D16*
%TO.C,J1*%
X103780000Y-140040000D03*
D17*
X103780000Y-137500000D03*
X101240000Y-140040000D03*
X101240000Y-137500000D03*
X98700000Y-140040000D03*
X98700000Y-137500000D03*
X96160000Y-140040000D03*
X96160000Y-137500000D03*
X93620000Y-140040000D03*
X93620000Y-137500000D03*
X91080000Y-140040000D03*
X91080000Y-137500000D03*
X88540000Y-140040000D03*
X88540000Y-137500000D03*
X86000000Y-140040000D03*
X86000000Y-137500000D03*
X83460000Y-140040000D03*
X83460000Y-137500000D03*
X80920000Y-140040000D03*
X80920000Y-137500000D03*
X78380000Y-140040000D03*
X78380000Y-137500000D03*
X75840000Y-140040000D03*
X75840000Y-137500000D03*
X73300000Y-140040000D03*
X73300000Y-137500000D03*
X70760000Y-140040000D03*
X70760000Y-137500000D03*
%TD*%
D18*
%TO.C,D2*%
X90460000Y-116000000D03*
D19*
X93000000Y-116000000D03*
%TD*%
D18*
%TO.C,D1*%
X56500000Y-116775000D03*
D19*
X56500000Y-114235000D03*
%TD*%
D20*
%TO.C,D3*%
X119000000Y-115000000D03*
D19*
X117203949Y-116796051D03*
%TD*%
D21*
%TO.C,Q2*%
X83230000Y-124360000D03*
D22*
X84500000Y-124360000D03*
X85770000Y-124360000D03*
%TD*%
D21*
%TO.C,Q3*%
X113960000Y-128000000D03*
D22*
X115230001Y-128000000D03*
X116500000Y-128000000D03*
%TD*%
%TO.C,Q1*%
X58270000Y-127500000D03*
X57000001Y-127500000D03*
D21*
X55730000Y-127500000D03*
%TD*%
%LPD*%
M02*
