%TF.GenerationSoftware,KiCad,Pcbnew,8.0.1*%
%TF.CreationDate,2024-03-24T13:46:44+02:00*%
%TF.ProjectId,EEE3088F Sensing Subsystem Project,45454533-3038-4384-9620-53656e73696e,rev?*%
%TF.SameCoordinates,Original*%
%TF.FileFunction,Legend,Top*%
%TF.FilePolarity,Positive*%
%FSLAX46Y46*%
G04 Gerber Fmt 4.6, Leading zero omitted, Abs format (unit mm)*
G04 Created by KiCad (PCBNEW 8.0.1) date 2024-03-24 13:46:44*
%MOMM*%
%LPD*%
G01*
G04 APERTURE LIST*
G04 Aperture macros list*
%AMRoundRect*
0 Rectangle with rounded corners*
0 $1 Rounding radius*
0 $2 $3 $4 $5 $6 $7 $8 $9 X,Y pos of 4 corners*
0 Add a 4 corners polygon primitive as box body*
4,1,4,$2,$3,$4,$5,$6,$7,$8,$9,$2,$3,0*
0 Add four circle primitives for the rounded corners*
1,1,$1+$1,$2,$3*
1,1,$1+$1,$4,$5*
1,1,$1+$1,$6,$7*
1,1,$1+$1,$8,$9*
0 Add four rect primitives between the rounded corners*
20,1,$1+$1,$2,$3,$4,$5,0*
20,1,$1+$1,$4,$5,$6,$7,0*
20,1,$1+$1,$6,$7,$8,$9,0*
20,1,$1+$1,$8,$9,$2,$3,0*%
%AMRotRect*
0 Rectangle, with rotation*
0 The origin of the aperture is its center*
0 $1 length*
0 $2 width*
0 $3 Rotation angle, in degrees counterclockwise*
0 Add horizontal line*
21,1,$1,$2,0,0,$3*%
G04 Aperture macros list end*
%ADD10C,0.150000*%
%ADD11C,0.152400*%
%ADD12C,0.120000*%
%ADD13RotRect,1.371600X1.371600X225.000000*%
%ADD14C,1.371600*%
%ADD15R,1.371600X1.371600*%
%ADD16RotRect,1.371600X1.371600X315.000000*%
%ADD17RoundRect,0.250000X-0.250000X-0.475000X0.250000X-0.475000X0.250000X0.475000X-0.250000X0.475000X0*%
%ADD18RoundRect,0.250000X0.250000X0.475000X-0.250000X0.475000X-0.250000X-0.475000X0.250000X-0.475000X0*%
%ADD19RoundRect,0.250000X-0.262500X-0.450000X0.262500X-0.450000X0.262500X0.450000X-0.262500X0.450000X0*%
%ADD20RoundRect,0.250000X0.132583X-0.503814X0.503814X-0.132583X-0.132583X0.503814X-0.503814X0.132583X0*%
%ADD21R,1.000000X1.500000*%
%ADD22RoundRect,0.140000X0.140000X0.170000X-0.140000X0.170000X-0.140000X-0.170000X0.140000X-0.170000X0*%
%ADD23R,1.700000X1.700000*%
%ADD24O,1.700000X1.700000*%
%ADD25R,1.500000X1.000000*%
%ADD26R,1.800000X1.800000*%
%ADD27C,1.800000*%
%ADD28RoundRect,0.135000X-0.135000X-0.185000X0.135000X-0.185000X0.135000X0.185000X-0.135000X0.185000X0*%
%ADD29RoundRect,0.135000X-0.185000X0.135000X-0.185000X-0.135000X0.185000X-0.135000X0.185000X0.135000X0*%
%ADD30RoundRect,0.135000X0.135000X0.185000X-0.135000X0.185000X-0.135000X-0.185000X0.135000X-0.185000X0*%
%ADD31RoundRect,0.200000X-0.200000X-0.275000X0.200000X-0.275000X0.200000X0.275000X-0.200000X0.275000X0*%
%ADD32RoundRect,0.200000X0.275000X-0.200000X0.275000X0.200000X-0.275000X0.200000X-0.275000X-0.200000X0*%
%ADD33RoundRect,0.140000X-0.140000X-0.170000X0.140000X-0.170000X0.140000X0.170000X-0.140000X0.170000X0*%
%ADD34RotRect,1.800000X1.800000X225.000000*%
%ADD35RoundRect,0.200000X-0.275000X0.200000X-0.275000X-0.200000X0.275000X-0.200000X0.275000X0.200000X0*%
%ADD36R,1.050000X1.500000*%
%ADD37O,1.050000X1.500000*%
G04 APERTURE END LIST*
D10*
X123887108Y-124030319D02*
X123550390Y-123693602D01*
X123550390Y-123693602D02*
X124257497Y-122986495D01*
X124493200Y-123895632D02*
X124728902Y-124131335D01*
X124459528Y-124602739D02*
X124122810Y-124266022D01*
X124122810Y-124266022D02*
X124829917Y-123558915D01*
X124829917Y-123558915D02*
X125166635Y-123895632D01*
X124762574Y-124905785D02*
X125469680Y-124198678D01*
X125469680Y-124198678D02*
X125638039Y-124367037D01*
X125638039Y-124367037D02*
X125705383Y-124501724D01*
X125705383Y-124501724D02*
X125705383Y-124636411D01*
X125705383Y-124636411D02*
X125671711Y-124737426D01*
X125671711Y-124737426D02*
X125570696Y-124905785D01*
X125570696Y-124905785D02*
X125469680Y-125006800D01*
X125469680Y-125006800D02*
X125301322Y-125107815D01*
X125301322Y-125107815D02*
X125200306Y-125141487D01*
X125200306Y-125141487D02*
X125065619Y-125141487D01*
X125065619Y-125141487D02*
X124930932Y-125074144D01*
X124930932Y-125074144D02*
X124762574Y-124905785D01*
X126109444Y-124838441D02*
X126547177Y-125276174D01*
X126547177Y-125276174D02*
X126042100Y-125309846D01*
X126042100Y-125309846D02*
X126143115Y-125410861D01*
X126143115Y-125410861D02*
X126176787Y-125511876D01*
X126176787Y-125511876D02*
X126176787Y-125579220D01*
X126176787Y-125579220D02*
X126143115Y-125680235D01*
X126143115Y-125680235D02*
X125974757Y-125848594D01*
X125974757Y-125848594D02*
X125873741Y-125882266D01*
X125873741Y-125882266D02*
X125806398Y-125882266D01*
X125806398Y-125882266D02*
X125705383Y-125848594D01*
X125705383Y-125848594D02*
X125503352Y-125646563D01*
X125503352Y-125646563D02*
X125469680Y-125545548D01*
X125469680Y-125545548D02*
X125469680Y-125478205D01*
X80380952Y-114454819D02*
X79904762Y-114454819D01*
X79904762Y-114454819D02*
X79904762Y-113454819D01*
X80714286Y-113931009D02*
X81047619Y-113931009D01*
X81190476Y-114454819D02*
X80714286Y-114454819D01*
X80714286Y-114454819D02*
X80714286Y-113454819D01*
X80714286Y-113454819D02*
X81190476Y-113454819D01*
X81619048Y-114454819D02*
X81619048Y-113454819D01*
X81619048Y-113454819D02*
X81857143Y-113454819D01*
X81857143Y-113454819D02*
X82000000Y-113502438D01*
X82000000Y-113502438D02*
X82095238Y-113597676D01*
X82095238Y-113597676D02*
X82142857Y-113692914D01*
X82142857Y-113692914D02*
X82190476Y-113883390D01*
X82190476Y-113883390D02*
X82190476Y-114026247D01*
X82190476Y-114026247D02*
X82142857Y-114216723D01*
X82142857Y-114216723D02*
X82095238Y-114311961D01*
X82095238Y-114311961D02*
X82000000Y-114407200D01*
X82000000Y-114407200D02*
X81857143Y-114454819D01*
X81857143Y-114454819D02*
X81619048Y-114454819D01*
X82571429Y-113550057D02*
X82619048Y-113502438D01*
X82619048Y-113502438D02*
X82714286Y-113454819D01*
X82714286Y-113454819D02*
X82952381Y-113454819D01*
X82952381Y-113454819D02*
X83047619Y-113502438D01*
X83047619Y-113502438D02*
X83095238Y-113550057D01*
X83095238Y-113550057D02*
X83142857Y-113645295D01*
X83142857Y-113645295D02*
X83142857Y-113740533D01*
X83142857Y-113740533D02*
X83095238Y-113883390D01*
X83095238Y-113883390D02*
X82523810Y-114454819D01*
X82523810Y-114454819D02*
X83142857Y-114454819D01*
X48530319Y-126112891D02*
X48193602Y-126449609D01*
X48193602Y-126449609D02*
X47486495Y-125742502D01*
X48395632Y-125506799D02*
X48631335Y-125271097D01*
X49102739Y-125540471D02*
X48766022Y-125877189D01*
X48766022Y-125877189D02*
X48058915Y-125170082D01*
X48058915Y-125170082D02*
X48395632Y-124833364D01*
X49405785Y-125237425D02*
X48698678Y-124530319D01*
X48698678Y-124530319D02*
X48867037Y-124361960D01*
X48867037Y-124361960D02*
X49001724Y-124294616D01*
X49001724Y-124294616D02*
X49136411Y-124294616D01*
X49136411Y-124294616D02*
X49237426Y-124328288D01*
X49237426Y-124328288D02*
X49405785Y-124429303D01*
X49405785Y-124429303D02*
X49506800Y-124530319D01*
X49506800Y-124530319D02*
X49607815Y-124698677D01*
X49607815Y-124698677D02*
X49641487Y-124799693D01*
X49641487Y-124799693D02*
X49641487Y-124934380D01*
X49641487Y-124934380D02*
X49574144Y-125069067D01*
X49574144Y-125069067D02*
X49405785Y-125237425D01*
X50483281Y-124159929D02*
X50079220Y-124563990D01*
X50281250Y-124361960D02*
X49574144Y-123654853D01*
X49574144Y-123654853D02*
X49607815Y-123823212D01*
X49607815Y-123823212D02*
X49607815Y-123957899D01*
X49607815Y-123957899D02*
X49574144Y-124058914D01*
X72383333Y-121179580D02*
X72335714Y-121227200D01*
X72335714Y-121227200D02*
X72192857Y-121274819D01*
X72192857Y-121274819D02*
X72097619Y-121274819D01*
X72097619Y-121274819D02*
X71954762Y-121227200D01*
X71954762Y-121227200D02*
X71859524Y-121131961D01*
X71859524Y-121131961D02*
X71811905Y-121036723D01*
X71811905Y-121036723D02*
X71764286Y-120846247D01*
X71764286Y-120846247D02*
X71764286Y-120703390D01*
X71764286Y-120703390D02*
X71811905Y-120512914D01*
X71811905Y-120512914D02*
X71859524Y-120417676D01*
X71859524Y-120417676D02*
X71954762Y-120322438D01*
X71954762Y-120322438D02*
X72097619Y-120274819D01*
X72097619Y-120274819D02*
X72192857Y-120274819D01*
X72192857Y-120274819D02*
X72335714Y-120322438D01*
X72335714Y-120322438D02*
X72383333Y-120370057D01*
X73335714Y-121274819D02*
X72764286Y-121274819D01*
X73050000Y-121274819D02*
X73050000Y-120274819D01*
X73050000Y-120274819D02*
X72954762Y-120417676D01*
X72954762Y-120417676D02*
X72859524Y-120512914D01*
X72859524Y-120512914D02*
X72764286Y-120560533D01*
X98333333Y-132039580D02*
X98285714Y-132087200D01*
X98285714Y-132087200D02*
X98142857Y-132134819D01*
X98142857Y-132134819D02*
X98047619Y-132134819D01*
X98047619Y-132134819D02*
X97904762Y-132087200D01*
X97904762Y-132087200D02*
X97809524Y-131991961D01*
X97809524Y-131991961D02*
X97761905Y-131896723D01*
X97761905Y-131896723D02*
X97714286Y-131706247D01*
X97714286Y-131706247D02*
X97714286Y-131563390D01*
X97714286Y-131563390D02*
X97761905Y-131372914D01*
X97761905Y-131372914D02*
X97809524Y-131277676D01*
X97809524Y-131277676D02*
X97904762Y-131182438D01*
X97904762Y-131182438D02*
X98047619Y-131134819D01*
X98047619Y-131134819D02*
X98142857Y-131134819D01*
X98142857Y-131134819D02*
X98285714Y-131182438D01*
X98285714Y-131182438D02*
X98333333Y-131230057D01*
X98666667Y-131134819D02*
X99285714Y-131134819D01*
X99285714Y-131134819D02*
X98952381Y-131515771D01*
X98952381Y-131515771D02*
X99095238Y-131515771D01*
X99095238Y-131515771D02*
X99190476Y-131563390D01*
X99190476Y-131563390D02*
X99238095Y-131611009D01*
X99238095Y-131611009D02*
X99285714Y-131706247D01*
X99285714Y-131706247D02*
X99285714Y-131944342D01*
X99285714Y-131944342D02*
X99238095Y-132039580D01*
X99238095Y-132039580D02*
X99190476Y-132087200D01*
X99190476Y-132087200D02*
X99095238Y-132134819D01*
X99095238Y-132134819D02*
X98809524Y-132134819D01*
X98809524Y-132134819D02*
X98714286Y-132087200D01*
X98714286Y-132087200D02*
X98666667Y-132039580D01*
X98383334Y-119679580D02*
X98335715Y-119727200D01*
X98335715Y-119727200D02*
X98192858Y-119774819D01*
X98192858Y-119774819D02*
X98097620Y-119774819D01*
X98097620Y-119774819D02*
X97954763Y-119727200D01*
X97954763Y-119727200D02*
X97859525Y-119631961D01*
X97859525Y-119631961D02*
X97811906Y-119536723D01*
X97811906Y-119536723D02*
X97764287Y-119346247D01*
X97764287Y-119346247D02*
X97764287Y-119203390D01*
X97764287Y-119203390D02*
X97811906Y-119012914D01*
X97811906Y-119012914D02*
X97859525Y-118917676D01*
X97859525Y-118917676D02*
X97954763Y-118822438D01*
X97954763Y-118822438D02*
X98097620Y-118774819D01*
X98097620Y-118774819D02*
X98192858Y-118774819D01*
X98192858Y-118774819D02*
X98335715Y-118822438D01*
X98335715Y-118822438D02*
X98383334Y-118870057D01*
X99288096Y-118774819D02*
X98811906Y-118774819D01*
X98811906Y-118774819D02*
X98764287Y-119251009D01*
X98764287Y-119251009D02*
X98811906Y-119203390D01*
X98811906Y-119203390D02*
X98907144Y-119155771D01*
X98907144Y-119155771D02*
X99145239Y-119155771D01*
X99145239Y-119155771D02*
X99240477Y-119203390D01*
X99240477Y-119203390D02*
X99288096Y-119251009D01*
X99288096Y-119251009D02*
X99335715Y-119346247D01*
X99335715Y-119346247D02*
X99335715Y-119584342D01*
X99335715Y-119584342D02*
X99288096Y-119679580D01*
X99288096Y-119679580D02*
X99240477Y-119727200D01*
X99240477Y-119727200D02*
X99145239Y-119774819D01*
X99145239Y-119774819D02*
X98907144Y-119774819D01*
X98907144Y-119774819D02*
X98811906Y-119727200D01*
X98811906Y-119727200D02*
X98764287Y-119679580D01*
X62508333Y-122304819D02*
X62175000Y-121828628D01*
X61936905Y-122304819D02*
X61936905Y-121304819D01*
X61936905Y-121304819D02*
X62317857Y-121304819D01*
X62317857Y-121304819D02*
X62413095Y-121352438D01*
X62413095Y-121352438D02*
X62460714Y-121400057D01*
X62460714Y-121400057D02*
X62508333Y-121495295D01*
X62508333Y-121495295D02*
X62508333Y-121638152D01*
X62508333Y-121638152D02*
X62460714Y-121733390D01*
X62460714Y-121733390D02*
X62413095Y-121781009D01*
X62413095Y-121781009D02*
X62317857Y-121828628D01*
X62317857Y-121828628D02*
X61936905Y-121828628D01*
X63365476Y-121638152D02*
X63365476Y-122304819D01*
X63127381Y-121257200D02*
X62889286Y-121971485D01*
X62889286Y-121971485D02*
X63508333Y-121971485D01*
X71833333Y-130804819D02*
X71500000Y-130328628D01*
X71261905Y-130804819D02*
X71261905Y-129804819D01*
X71261905Y-129804819D02*
X71642857Y-129804819D01*
X71642857Y-129804819D02*
X71738095Y-129852438D01*
X71738095Y-129852438D02*
X71785714Y-129900057D01*
X71785714Y-129900057D02*
X71833333Y-129995295D01*
X71833333Y-129995295D02*
X71833333Y-130138152D01*
X71833333Y-130138152D02*
X71785714Y-130233390D01*
X71785714Y-130233390D02*
X71738095Y-130281009D01*
X71738095Y-130281009D02*
X71642857Y-130328628D01*
X71642857Y-130328628D02*
X71261905Y-130328628D01*
X72309524Y-130804819D02*
X72500000Y-130804819D01*
X72500000Y-130804819D02*
X72595238Y-130757200D01*
X72595238Y-130757200D02*
X72642857Y-130709580D01*
X72642857Y-130709580D02*
X72738095Y-130566723D01*
X72738095Y-130566723D02*
X72785714Y-130376247D01*
X72785714Y-130376247D02*
X72785714Y-129995295D01*
X72785714Y-129995295D02*
X72738095Y-129900057D01*
X72738095Y-129900057D02*
X72690476Y-129852438D01*
X72690476Y-129852438D02*
X72595238Y-129804819D01*
X72595238Y-129804819D02*
X72404762Y-129804819D01*
X72404762Y-129804819D02*
X72309524Y-129852438D01*
X72309524Y-129852438D02*
X72261905Y-129900057D01*
X72261905Y-129900057D02*
X72214286Y-129995295D01*
X72214286Y-129995295D02*
X72214286Y-130233390D01*
X72214286Y-130233390D02*
X72261905Y-130328628D01*
X72261905Y-130328628D02*
X72309524Y-130376247D01*
X72309524Y-130376247D02*
X72404762Y-130423866D01*
X72404762Y-130423866D02*
X72595238Y-130423866D01*
X72595238Y-130423866D02*
X72690476Y-130376247D01*
X72690476Y-130376247D02*
X72738095Y-130328628D01*
X72738095Y-130328628D02*
X72785714Y-130233390D01*
X110116947Y-116692811D02*
X109544528Y-116591796D01*
X109712886Y-117096872D02*
X109005780Y-116389765D01*
X109005780Y-116389765D02*
X109275154Y-116120391D01*
X109275154Y-116120391D02*
X109376169Y-116086719D01*
X109376169Y-116086719D02*
X109443512Y-116086719D01*
X109443512Y-116086719D02*
X109544528Y-116120391D01*
X109544528Y-116120391D02*
X109645543Y-116221406D01*
X109645543Y-116221406D02*
X109679215Y-116322422D01*
X109679215Y-116322422D02*
X109679215Y-116389765D01*
X109679215Y-116389765D02*
X109645543Y-116490780D01*
X109645543Y-116490780D02*
X109376169Y-116760154D01*
X110790382Y-116019376D02*
X110386321Y-116423437D01*
X110588352Y-116221406D02*
X109881245Y-115514300D01*
X109881245Y-115514300D02*
X109914917Y-115682658D01*
X109914917Y-115682658D02*
X109914917Y-115817345D01*
X109914917Y-115817345D02*
X109881245Y-115918361D01*
X110925070Y-114941880D02*
X111396474Y-115413284D01*
X110487337Y-114840864D02*
X110824054Y-115514299D01*
X110824054Y-115514299D02*
X111261787Y-115076567D01*
X119340475Y-125654819D02*
X119340475Y-126369104D01*
X119340475Y-126369104D02*
X119292856Y-126511961D01*
X119292856Y-126511961D02*
X119197618Y-126607200D01*
X119197618Y-126607200D02*
X119054761Y-126654819D01*
X119054761Y-126654819D02*
X118959523Y-126654819D01*
X119816666Y-126654819D02*
X119816666Y-125654819D01*
X119816666Y-125654819D02*
X120197618Y-125654819D01*
X120197618Y-125654819D02*
X120292856Y-125702438D01*
X120292856Y-125702438D02*
X120340475Y-125750057D01*
X120340475Y-125750057D02*
X120388094Y-125845295D01*
X120388094Y-125845295D02*
X120388094Y-125988152D01*
X120388094Y-125988152D02*
X120340475Y-126083390D01*
X120340475Y-126083390D02*
X120292856Y-126131009D01*
X120292856Y-126131009D02*
X120197618Y-126178628D01*
X120197618Y-126178628D02*
X119816666Y-126178628D01*
X121340475Y-126654819D02*
X120769047Y-126654819D01*
X121054761Y-126654819D02*
X121054761Y-125654819D01*
X121054761Y-125654819D02*
X120959523Y-125797676D01*
X120959523Y-125797676D02*
X120864285Y-125892914D01*
X120864285Y-125892914D02*
X120769047Y-125940533D01*
X122245237Y-125654819D02*
X121769047Y-125654819D01*
X121769047Y-125654819D02*
X121721428Y-126131009D01*
X121721428Y-126131009D02*
X121769047Y-126083390D01*
X121769047Y-126083390D02*
X121864285Y-126035771D01*
X121864285Y-126035771D02*
X122102380Y-126035771D01*
X122102380Y-126035771D02*
X122197618Y-126083390D01*
X122197618Y-126083390D02*
X122245237Y-126131009D01*
X122245237Y-126131009D02*
X122292856Y-126226247D01*
X122292856Y-126226247D02*
X122292856Y-126464342D01*
X122292856Y-126464342D02*
X122245237Y-126559580D01*
X122245237Y-126559580D02*
X122197618Y-126607200D01*
X122197618Y-126607200D02*
X122102380Y-126654819D01*
X122102380Y-126654819D02*
X121864285Y-126654819D01*
X121864285Y-126654819D02*
X121769047Y-126607200D01*
X121769047Y-126607200D02*
X121721428Y-126559580D01*
X90690476Y-123154819D02*
X90690476Y-123869104D01*
X90690476Y-123869104D02*
X90642857Y-124011961D01*
X90642857Y-124011961D02*
X90547619Y-124107200D01*
X90547619Y-124107200D02*
X90404762Y-124154819D01*
X90404762Y-124154819D02*
X90309524Y-124154819D01*
X91166667Y-124154819D02*
X91166667Y-123154819D01*
X91166667Y-123154819D02*
X91547619Y-123154819D01*
X91547619Y-123154819D02*
X91642857Y-123202438D01*
X91642857Y-123202438D02*
X91690476Y-123250057D01*
X91690476Y-123250057D02*
X91738095Y-123345295D01*
X91738095Y-123345295D02*
X91738095Y-123488152D01*
X91738095Y-123488152D02*
X91690476Y-123583390D01*
X91690476Y-123583390D02*
X91642857Y-123631009D01*
X91642857Y-123631009D02*
X91547619Y-123678628D01*
X91547619Y-123678628D02*
X91166667Y-123678628D01*
X92690476Y-124154819D02*
X92119048Y-124154819D01*
X92404762Y-124154819D02*
X92404762Y-123154819D01*
X92404762Y-123154819D02*
X92309524Y-123297676D01*
X92309524Y-123297676D02*
X92214286Y-123392914D01*
X92214286Y-123392914D02*
X92119048Y-123440533D01*
X93547619Y-123488152D02*
X93547619Y-124154819D01*
X93309524Y-123107200D02*
X93071429Y-123821485D01*
X93071429Y-123821485D02*
X93690476Y-123821485D01*
X62690476Y-128254819D02*
X62690476Y-128969104D01*
X62690476Y-128969104D02*
X62642857Y-129111961D01*
X62642857Y-129111961D02*
X62547619Y-129207200D01*
X62547619Y-129207200D02*
X62404762Y-129254819D01*
X62404762Y-129254819D02*
X62309524Y-129254819D01*
X63166667Y-129254819D02*
X63166667Y-128254819D01*
X63166667Y-128254819D02*
X63547619Y-128254819D01*
X63547619Y-128254819D02*
X63642857Y-128302438D01*
X63642857Y-128302438D02*
X63690476Y-128350057D01*
X63690476Y-128350057D02*
X63738095Y-128445295D01*
X63738095Y-128445295D02*
X63738095Y-128588152D01*
X63738095Y-128588152D02*
X63690476Y-128683390D01*
X63690476Y-128683390D02*
X63642857Y-128731009D01*
X63642857Y-128731009D02*
X63547619Y-128778628D01*
X63547619Y-128778628D02*
X63166667Y-128778628D01*
X64690476Y-129254819D02*
X64119048Y-129254819D01*
X64404762Y-129254819D02*
X64404762Y-128254819D01*
X64404762Y-128254819D02*
X64309524Y-128397676D01*
X64309524Y-128397676D02*
X64214286Y-128492914D01*
X64214286Y-128492914D02*
X64119048Y-128540533D01*
X65023810Y-128254819D02*
X65642857Y-128254819D01*
X65642857Y-128254819D02*
X65309524Y-128635771D01*
X65309524Y-128635771D02*
X65452381Y-128635771D01*
X65452381Y-128635771D02*
X65547619Y-128683390D01*
X65547619Y-128683390D02*
X65595238Y-128731009D01*
X65595238Y-128731009D02*
X65642857Y-128826247D01*
X65642857Y-128826247D02*
X65642857Y-129064342D01*
X65642857Y-129064342D02*
X65595238Y-129159580D01*
X65595238Y-129159580D02*
X65547619Y-129207200D01*
X65547619Y-129207200D02*
X65452381Y-129254819D01*
X65452381Y-129254819D02*
X65166667Y-129254819D01*
X65166667Y-129254819D02*
X65071429Y-129207200D01*
X65071429Y-129207200D02*
X65023810Y-129159580D01*
X93853333Y-133519580D02*
X93805714Y-133567200D01*
X93805714Y-133567200D02*
X93662857Y-133614819D01*
X93662857Y-133614819D02*
X93567619Y-133614819D01*
X93567619Y-133614819D02*
X93424762Y-133567200D01*
X93424762Y-133567200D02*
X93329524Y-133471961D01*
X93329524Y-133471961D02*
X93281905Y-133376723D01*
X93281905Y-133376723D02*
X93234286Y-133186247D01*
X93234286Y-133186247D02*
X93234286Y-133043390D01*
X93234286Y-133043390D02*
X93281905Y-132852914D01*
X93281905Y-132852914D02*
X93329524Y-132757676D01*
X93329524Y-132757676D02*
X93424762Y-132662438D01*
X93424762Y-132662438D02*
X93567619Y-132614819D01*
X93567619Y-132614819D02*
X93662857Y-132614819D01*
X93662857Y-132614819D02*
X93805714Y-132662438D01*
X93805714Y-132662438D02*
X93853333Y-132710057D01*
X94710476Y-132948152D02*
X94710476Y-133614819D01*
X94472381Y-132567200D02*
X94234286Y-133281485D01*
X94234286Y-133281485D02*
X94853333Y-133281485D01*
X100016667Y-125154819D02*
X100016667Y-125869104D01*
X100016667Y-125869104D02*
X99969048Y-126011961D01*
X99969048Y-126011961D02*
X99873810Y-126107200D01*
X99873810Y-126107200D02*
X99730953Y-126154819D01*
X99730953Y-126154819D02*
X99635715Y-126154819D01*
X100492858Y-126154819D02*
X100492858Y-125154819D01*
X100492858Y-125154819D02*
X100873810Y-125154819D01*
X100873810Y-125154819D02*
X100969048Y-125202438D01*
X100969048Y-125202438D02*
X101016667Y-125250057D01*
X101016667Y-125250057D02*
X101064286Y-125345295D01*
X101064286Y-125345295D02*
X101064286Y-125488152D01*
X101064286Y-125488152D02*
X101016667Y-125583390D01*
X101016667Y-125583390D02*
X100969048Y-125631009D01*
X100969048Y-125631009D02*
X100873810Y-125678628D01*
X100873810Y-125678628D02*
X100492858Y-125678628D01*
X101635715Y-125583390D02*
X101540477Y-125535771D01*
X101540477Y-125535771D02*
X101492858Y-125488152D01*
X101492858Y-125488152D02*
X101445239Y-125392914D01*
X101445239Y-125392914D02*
X101445239Y-125345295D01*
X101445239Y-125345295D02*
X101492858Y-125250057D01*
X101492858Y-125250057D02*
X101540477Y-125202438D01*
X101540477Y-125202438D02*
X101635715Y-125154819D01*
X101635715Y-125154819D02*
X101826191Y-125154819D01*
X101826191Y-125154819D02*
X101921429Y-125202438D01*
X101921429Y-125202438D02*
X101969048Y-125250057D01*
X101969048Y-125250057D02*
X102016667Y-125345295D01*
X102016667Y-125345295D02*
X102016667Y-125392914D01*
X102016667Y-125392914D02*
X101969048Y-125488152D01*
X101969048Y-125488152D02*
X101921429Y-125535771D01*
X101921429Y-125535771D02*
X101826191Y-125583390D01*
X101826191Y-125583390D02*
X101635715Y-125583390D01*
X101635715Y-125583390D02*
X101540477Y-125631009D01*
X101540477Y-125631009D02*
X101492858Y-125678628D01*
X101492858Y-125678628D02*
X101445239Y-125773866D01*
X101445239Y-125773866D02*
X101445239Y-125964342D01*
X101445239Y-125964342D02*
X101492858Y-126059580D01*
X101492858Y-126059580D02*
X101540477Y-126107200D01*
X101540477Y-126107200D02*
X101635715Y-126154819D01*
X101635715Y-126154819D02*
X101826191Y-126154819D01*
X101826191Y-126154819D02*
X101921429Y-126107200D01*
X101921429Y-126107200D02*
X101969048Y-126059580D01*
X101969048Y-126059580D02*
X102016667Y-125964342D01*
X102016667Y-125964342D02*
X102016667Y-125773866D01*
X102016667Y-125773866D02*
X101969048Y-125678628D01*
X101969048Y-125678628D02*
X101921429Y-125631009D01*
X101921429Y-125631009D02*
X101826191Y-125583390D01*
X117316665Y-136154819D02*
X117316665Y-136869104D01*
X117316665Y-136869104D02*
X117269046Y-137011961D01*
X117269046Y-137011961D02*
X117173808Y-137107200D01*
X117173808Y-137107200D02*
X117030951Y-137154819D01*
X117030951Y-137154819D02*
X116935713Y-137154819D01*
X117792856Y-137154819D02*
X117792856Y-136154819D01*
X117792856Y-136154819D02*
X118173808Y-136154819D01*
X118173808Y-136154819D02*
X118269046Y-136202438D01*
X118269046Y-136202438D02*
X118316665Y-136250057D01*
X118316665Y-136250057D02*
X118364284Y-136345295D01*
X118364284Y-136345295D02*
X118364284Y-136488152D01*
X118364284Y-136488152D02*
X118316665Y-136583390D01*
X118316665Y-136583390D02*
X118269046Y-136631009D01*
X118269046Y-136631009D02*
X118173808Y-136678628D01*
X118173808Y-136678628D02*
X117792856Y-136678628D01*
X118840475Y-137154819D02*
X119030951Y-137154819D01*
X119030951Y-137154819D02*
X119126189Y-137107200D01*
X119126189Y-137107200D02*
X119173808Y-137059580D01*
X119173808Y-137059580D02*
X119269046Y-136916723D01*
X119269046Y-136916723D02*
X119316665Y-136726247D01*
X119316665Y-136726247D02*
X119316665Y-136345295D01*
X119316665Y-136345295D02*
X119269046Y-136250057D01*
X119269046Y-136250057D02*
X119221427Y-136202438D01*
X119221427Y-136202438D02*
X119126189Y-136154819D01*
X119126189Y-136154819D02*
X118935713Y-136154819D01*
X118935713Y-136154819D02*
X118840475Y-136202438D01*
X118840475Y-136202438D02*
X118792856Y-136250057D01*
X118792856Y-136250057D02*
X118745237Y-136345295D01*
X118745237Y-136345295D02*
X118745237Y-136583390D01*
X118745237Y-136583390D02*
X118792856Y-136678628D01*
X118792856Y-136678628D02*
X118840475Y-136726247D01*
X118840475Y-136726247D02*
X118935713Y-136773866D01*
X118935713Y-136773866D02*
X119126189Y-136773866D01*
X119126189Y-136773866D02*
X119221427Y-136726247D01*
X119221427Y-136726247D02*
X119269046Y-136678628D01*
X119269046Y-136678628D02*
X119316665Y-136583390D01*
X62804818Y-117833333D02*
X63519103Y-117833333D01*
X63519103Y-117833333D02*
X63661960Y-117880952D01*
X63661960Y-117880952D02*
X63757199Y-117976190D01*
X63757199Y-117976190D02*
X63804818Y-118119047D01*
X63804818Y-118119047D02*
X63804818Y-118214285D01*
X63804818Y-117357142D02*
X62804818Y-117357142D01*
X62804818Y-117357142D02*
X62804818Y-116976190D01*
X62804818Y-116976190D02*
X62852437Y-116880952D01*
X62852437Y-116880952D02*
X62900056Y-116833333D01*
X62900056Y-116833333D02*
X62995294Y-116785714D01*
X62995294Y-116785714D02*
X63138151Y-116785714D01*
X63138151Y-116785714D02*
X63233389Y-116833333D01*
X63233389Y-116833333D02*
X63281008Y-116880952D01*
X63281008Y-116880952D02*
X63328627Y-116976190D01*
X63328627Y-116976190D02*
X63328627Y-117357142D01*
X62804818Y-116452380D02*
X62804818Y-115833333D01*
X62804818Y-115833333D02*
X63185770Y-116166666D01*
X63185770Y-116166666D02*
X63185770Y-116023809D01*
X63185770Y-116023809D02*
X63233389Y-115928571D01*
X63233389Y-115928571D02*
X63281008Y-115880952D01*
X63281008Y-115880952D02*
X63376246Y-115833333D01*
X63376246Y-115833333D02*
X63614341Y-115833333D01*
X63614341Y-115833333D02*
X63709579Y-115880952D01*
X63709579Y-115880952D02*
X63757199Y-115928571D01*
X63757199Y-115928571D02*
X63804818Y-116023809D01*
X63804818Y-116023809D02*
X63804818Y-116309523D01*
X63804818Y-116309523D02*
X63757199Y-116404761D01*
X63757199Y-116404761D02*
X63709579Y-116452380D01*
X89016667Y-130654819D02*
X89016667Y-131369104D01*
X89016667Y-131369104D02*
X88969048Y-131511961D01*
X88969048Y-131511961D02*
X88873810Y-131607200D01*
X88873810Y-131607200D02*
X88730953Y-131654819D01*
X88730953Y-131654819D02*
X88635715Y-131654819D01*
X89492858Y-131654819D02*
X89492858Y-130654819D01*
X89492858Y-130654819D02*
X89873810Y-130654819D01*
X89873810Y-130654819D02*
X89969048Y-130702438D01*
X89969048Y-130702438D02*
X90016667Y-130750057D01*
X90016667Y-130750057D02*
X90064286Y-130845295D01*
X90064286Y-130845295D02*
X90064286Y-130988152D01*
X90064286Y-130988152D02*
X90016667Y-131083390D01*
X90016667Y-131083390D02*
X89969048Y-131131009D01*
X89969048Y-131131009D02*
X89873810Y-131178628D01*
X89873810Y-131178628D02*
X89492858Y-131178628D01*
X90969048Y-130654819D02*
X90492858Y-130654819D01*
X90492858Y-130654819D02*
X90445239Y-131131009D01*
X90445239Y-131131009D02*
X90492858Y-131083390D01*
X90492858Y-131083390D02*
X90588096Y-131035771D01*
X90588096Y-131035771D02*
X90826191Y-131035771D01*
X90826191Y-131035771D02*
X90921429Y-131083390D01*
X90921429Y-131083390D02*
X90969048Y-131131009D01*
X90969048Y-131131009D02*
X91016667Y-131226247D01*
X91016667Y-131226247D02*
X91016667Y-131464342D01*
X91016667Y-131464342D02*
X90969048Y-131559580D01*
X90969048Y-131559580D02*
X90921429Y-131607200D01*
X90921429Y-131607200D02*
X90826191Y-131654819D01*
X90826191Y-131654819D02*
X90588096Y-131654819D01*
X90588096Y-131654819D02*
X90492858Y-131607200D01*
X90492858Y-131607200D02*
X90445239Y-131559580D01*
X106540477Y-120654819D02*
X106540477Y-121369104D01*
X106540477Y-121369104D02*
X106492858Y-121511961D01*
X106492858Y-121511961D02*
X106397620Y-121607200D01*
X106397620Y-121607200D02*
X106254763Y-121654819D01*
X106254763Y-121654819D02*
X106159525Y-121654819D01*
X107016668Y-121654819D02*
X107016668Y-120654819D01*
X107016668Y-120654819D02*
X107397620Y-120654819D01*
X107397620Y-120654819D02*
X107492858Y-120702438D01*
X107492858Y-120702438D02*
X107540477Y-120750057D01*
X107540477Y-120750057D02*
X107588096Y-120845295D01*
X107588096Y-120845295D02*
X107588096Y-120988152D01*
X107588096Y-120988152D02*
X107540477Y-121083390D01*
X107540477Y-121083390D02*
X107492858Y-121131009D01*
X107492858Y-121131009D02*
X107397620Y-121178628D01*
X107397620Y-121178628D02*
X107016668Y-121178628D01*
X108540477Y-121654819D02*
X107969049Y-121654819D01*
X108254763Y-121654819D02*
X108254763Y-120654819D01*
X108254763Y-120654819D02*
X108159525Y-120797676D01*
X108159525Y-120797676D02*
X108064287Y-120892914D01*
X108064287Y-120892914D02*
X107969049Y-120940533D01*
X109492858Y-121654819D02*
X108921430Y-121654819D01*
X109207144Y-121654819D02*
X109207144Y-120654819D01*
X109207144Y-120654819D02*
X109111906Y-120797676D01*
X109111906Y-120797676D02*
X109016668Y-120892914D01*
X109016668Y-120892914D02*
X108921430Y-120940533D01*
X90991905Y-119454819D02*
X90991905Y-118454819D01*
X90991905Y-118454819D02*
X91230000Y-118454819D01*
X91230000Y-118454819D02*
X91372857Y-118502438D01*
X91372857Y-118502438D02*
X91468095Y-118597676D01*
X91468095Y-118597676D02*
X91515714Y-118692914D01*
X91515714Y-118692914D02*
X91563333Y-118883390D01*
X91563333Y-118883390D02*
X91563333Y-119026247D01*
X91563333Y-119026247D02*
X91515714Y-119216723D01*
X91515714Y-119216723D02*
X91468095Y-119311961D01*
X91468095Y-119311961D02*
X91372857Y-119407200D01*
X91372857Y-119407200D02*
X91230000Y-119454819D01*
X91230000Y-119454819D02*
X90991905Y-119454819D01*
X91944286Y-118550057D02*
X91991905Y-118502438D01*
X91991905Y-118502438D02*
X92087143Y-118454819D01*
X92087143Y-118454819D02*
X92325238Y-118454819D01*
X92325238Y-118454819D02*
X92420476Y-118502438D01*
X92420476Y-118502438D02*
X92468095Y-118550057D01*
X92468095Y-118550057D02*
X92515714Y-118645295D01*
X92515714Y-118645295D02*
X92515714Y-118740533D01*
X92515714Y-118740533D02*
X92468095Y-118883390D01*
X92468095Y-118883390D02*
X91896667Y-119454819D01*
X91896667Y-119454819D02*
X92515714Y-119454819D01*
X59493331Y-132784819D02*
X59159998Y-132308628D01*
X58921903Y-132784819D02*
X58921903Y-131784819D01*
X58921903Y-131784819D02*
X59302855Y-131784819D01*
X59302855Y-131784819D02*
X59398093Y-131832438D01*
X59398093Y-131832438D02*
X59445712Y-131880057D01*
X59445712Y-131880057D02*
X59493331Y-131975295D01*
X59493331Y-131975295D02*
X59493331Y-132118152D01*
X59493331Y-132118152D02*
X59445712Y-132213390D01*
X59445712Y-132213390D02*
X59398093Y-132261009D01*
X59398093Y-132261009D02*
X59302855Y-132308628D01*
X59302855Y-132308628D02*
X58921903Y-132308628D01*
X59874284Y-131880057D02*
X59921903Y-131832438D01*
X59921903Y-131832438D02*
X60017141Y-131784819D01*
X60017141Y-131784819D02*
X60255236Y-131784819D01*
X60255236Y-131784819D02*
X60350474Y-131832438D01*
X60350474Y-131832438D02*
X60398093Y-131880057D01*
X60398093Y-131880057D02*
X60445712Y-131975295D01*
X60445712Y-131975295D02*
X60445712Y-132070533D01*
X60445712Y-132070533D02*
X60398093Y-132213390D01*
X60398093Y-132213390D02*
X59826665Y-132784819D01*
X59826665Y-132784819D02*
X60445712Y-132784819D01*
X66764819Y-133666666D02*
X66288628Y-133999999D01*
X66764819Y-134238094D02*
X65764819Y-134238094D01*
X65764819Y-134238094D02*
X65764819Y-133857142D01*
X65764819Y-133857142D02*
X65812438Y-133761904D01*
X65812438Y-133761904D02*
X65860057Y-133714285D01*
X65860057Y-133714285D02*
X65955295Y-133666666D01*
X65955295Y-133666666D02*
X66098152Y-133666666D01*
X66098152Y-133666666D02*
X66193390Y-133714285D01*
X66193390Y-133714285D02*
X66241009Y-133761904D01*
X66241009Y-133761904D02*
X66288628Y-133857142D01*
X66288628Y-133857142D02*
X66288628Y-134238094D01*
X65764819Y-133333332D02*
X65764819Y-132714285D01*
X65764819Y-132714285D02*
X66145771Y-133047618D01*
X66145771Y-133047618D02*
X66145771Y-132904761D01*
X66145771Y-132904761D02*
X66193390Y-132809523D01*
X66193390Y-132809523D02*
X66241009Y-132761904D01*
X66241009Y-132761904D02*
X66336247Y-132714285D01*
X66336247Y-132714285D02*
X66574342Y-132714285D01*
X66574342Y-132714285D02*
X66669580Y-132761904D01*
X66669580Y-132761904D02*
X66717200Y-132809523D01*
X66717200Y-132809523D02*
X66764819Y-132904761D01*
X66764819Y-132904761D02*
X66764819Y-133190475D01*
X66764819Y-133190475D02*
X66717200Y-133285713D01*
X66717200Y-133285713D02*
X66669580Y-133333332D01*
X82323333Y-128284819D02*
X81990000Y-127808628D01*
X81751905Y-128284819D02*
X81751905Y-127284819D01*
X81751905Y-127284819D02*
X82132857Y-127284819D01*
X82132857Y-127284819D02*
X82228095Y-127332438D01*
X82228095Y-127332438D02*
X82275714Y-127380057D01*
X82275714Y-127380057D02*
X82323333Y-127475295D01*
X82323333Y-127475295D02*
X82323333Y-127618152D01*
X82323333Y-127618152D02*
X82275714Y-127713390D01*
X82275714Y-127713390D02*
X82228095Y-127761009D01*
X82228095Y-127761009D02*
X82132857Y-127808628D01*
X82132857Y-127808628D02*
X81751905Y-127808628D01*
X83180476Y-127284819D02*
X82990000Y-127284819D01*
X82990000Y-127284819D02*
X82894762Y-127332438D01*
X82894762Y-127332438D02*
X82847143Y-127380057D01*
X82847143Y-127380057D02*
X82751905Y-127522914D01*
X82751905Y-127522914D02*
X82704286Y-127713390D01*
X82704286Y-127713390D02*
X82704286Y-128094342D01*
X82704286Y-128094342D02*
X82751905Y-128189580D01*
X82751905Y-128189580D02*
X82799524Y-128237200D01*
X82799524Y-128237200D02*
X82894762Y-128284819D01*
X82894762Y-128284819D02*
X83085238Y-128284819D01*
X83085238Y-128284819D02*
X83180476Y-128237200D01*
X83180476Y-128237200D02*
X83228095Y-128189580D01*
X83228095Y-128189580D02*
X83275714Y-128094342D01*
X83275714Y-128094342D02*
X83275714Y-127856247D01*
X83275714Y-127856247D02*
X83228095Y-127761009D01*
X83228095Y-127761009D02*
X83180476Y-127713390D01*
X83180476Y-127713390D02*
X83085238Y-127665771D01*
X83085238Y-127665771D02*
X82894762Y-127665771D01*
X82894762Y-127665771D02*
X82799524Y-127713390D01*
X82799524Y-127713390D02*
X82751905Y-127761009D01*
X82751905Y-127761009D02*
X82704286Y-127856247D01*
X90833333Y-130124819D02*
X90500000Y-129648628D01*
X90261905Y-130124819D02*
X90261905Y-129124819D01*
X90261905Y-129124819D02*
X90642857Y-129124819D01*
X90642857Y-129124819D02*
X90738095Y-129172438D01*
X90738095Y-129172438D02*
X90785714Y-129220057D01*
X90785714Y-129220057D02*
X90833333Y-129315295D01*
X90833333Y-129315295D02*
X90833333Y-129458152D01*
X90833333Y-129458152D02*
X90785714Y-129553390D01*
X90785714Y-129553390D02*
X90738095Y-129601009D01*
X90738095Y-129601009D02*
X90642857Y-129648628D01*
X90642857Y-129648628D02*
X90261905Y-129648628D01*
X91404762Y-129553390D02*
X91309524Y-129505771D01*
X91309524Y-129505771D02*
X91261905Y-129458152D01*
X91261905Y-129458152D02*
X91214286Y-129362914D01*
X91214286Y-129362914D02*
X91214286Y-129315295D01*
X91214286Y-129315295D02*
X91261905Y-129220057D01*
X91261905Y-129220057D02*
X91309524Y-129172438D01*
X91309524Y-129172438D02*
X91404762Y-129124819D01*
X91404762Y-129124819D02*
X91595238Y-129124819D01*
X91595238Y-129124819D02*
X91690476Y-129172438D01*
X91690476Y-129172438D02*
X91738095Y-129220057D01*
X91738095Y-129220057D02*
X91785714Y-129315295D01*
X91785714Y-129315295D02*
X91785714Y-129362914D01*
X91785714Y-129362914D02*
X91738095Y-129458152D01*
X91738095Y-129458152D02*
X91690476Y-129505771D01*
X91690476Y-129505771D02*
X91595238Y-129553390D01*
X91595238Y-129553390D02*
X91404762Y-129553390D01*
X91404762Y-129553390D02*
X91309524Y-129601009D01*
X91309524Y-129601009D02*
X91261905Y-129648628D01*
X91261905Y-129648628D02*
X91214286Y-129743866D01*
X91214286Y-129743866D02*
X91214286Y-129934342D01*
X91214286Y-129934342D02*
X91261905Y-130029580D01*
X91261905Y-130029580D02*
X91309524Y-130077200D01*
X91309524Y-130077200D02*
X91404762Y-130124819D01*
X91404762Y-130124819D02*
X91595238Y-130124819D01*
X91595238Y-130124819D02*
X91690476Y-130077200D01*
X91690476Y-130077200D02*
X91738095Y-130029580D01*
X91738095Y-130029580D02*
X91785714Y-129934342D01*
X91785714Y-129934342D02*
X91785714Y-129743866D01*
X91785714Y-129743866D02*
X91738095Y-129648628D01*
X91738095Y-129648628D02*
X91690476Y-129601009D01*
X91690476Y-129601009D02*
X91595238Y-129553390D01*
X114847142Y-132784819D02*
X114513809Y-132308628D01*
X114275714Y-132784819D02*
X114275714Y-131784819D01*
X114275714Y-131784819D02*
X114656666Y-131784819D01*
X114656666Y-131784819D02*
X114751904Y-131832438D01*
X114751904Y-131832438D02*
X114799523Y-131880057D01*
X114799523Y-131880057D02*
X114847142Y-131975295D01*
X114847142Y-131975295D02*
X114847142Y-132118152D01*
X114847142Y-132118152D02*
X114799523Y-132213390D01*
X114799523Y-132213390D02*
X114751904Y-132261009D01*
X114751904Y-132261009D02*
X114656666Y-132308628D01*
X114656666Y-132308628D02*
X114275714Y-132308628D01*
X115799523Y-132784819D02*
X115228095Y-132784819D01*
X115513809Y-132784819D02*
X115513809Y-131784819D01*
X115513809Y-131784819D02*
X115418571Y-131927676D01*
X115418571Y-131927676D02*
X115323333Y-132022914D01*
X115323333Y-132022914D02*
X115228095Y-132070533D01*
X116180476Y-131880057D02*
X116228095Y-131832438D01*
X116228095Y-131832438D02*
X116323333Y-131784819D01*
X116323333Y-131784819D02*
X116561428Y-131784819D01*
X116561428Y-131784819D02*
X116656666Y-131832438D01*
X116656666Y-131832438D02*
X116704285Y-131880057D01*
X116704285Y-131880057D02*
X116751904Y-131975295D01*
X116751904Y-131975295D02*
X116751904Y-132070533D01*
X116751904Y-132070533D02*
X116704285Y-132213390D01*
X116704285Y-132213390D02*
X116132857Y-132784819D01*
X116132857Y-132784819D02*
X116751904Y-132784819D01*
X119857142Y-134624819D02*
X119523809Y-134148628D01*
X119285714Y-134624819D02*
X119285714Y-133624819D01*
X119285714Y-133624819D02*
X119666666Y-133624819D01*
X119666666Y-133624819D02*
X119761904Y-133672438D01*
X119761904Y-133672438D02*
X119809523Y-133720057D01*
X119809523Y-133720057D02*
X119857142Y-133815295D01*
X119857142Y-133815295D02*
X119857142Y-133958152D01*
X119857142Y-133958152D02*
X119809523Y-134053390D01*
X119809523Y-134053390D02*
X119761904Y-134101009D01*
X119761904Y-134101009D02*
X119666666Y-134148628D01*
X119666666Y-134148628D02*
X119285714Y-134148628D01*
X120809523Y-134624819D02*
X120238095Y-134624819D01*
X120523809Y-134624819D02*
X120523809Y-133624819D01*
X120523809Y-133624819D02*
X120428571Y-133767676D01*
X120428571Y-133767676D02*
X120333333Y-133862914D01*
X120333333Y-133862914D02*
X120238095Y-133910533D01*
X121142857Y-133624819D02*
X121761904Y-133624819D01*
X121761904Y-133624819D02*
X121428571Y-134005771D01*
X121428571Y-134005771D02*
X121571428Y-134005771D01*
X121571428Y-134005771D02*
X121666666Y-134053390D01*
X121666666Y-134053390D02*
X121714285Y-134101009D01*
X121714285Y-134101009D02*
X121761904Y-134196247D01*
X121761904Y-134196247D02*
X121761904Y-134434342D01*
X121761904Y-134434342D02*
X121714285Y-134529580D01*
X121714285Y-134529580D02*
X121666666Y-134577200D01*
X121666666Y-134577200D02*
X121571428Y-134624819D01*
X121571428Y-134624819D02*
X121285714Y-134624819D01*
X121285714Y-134624819D02*
X121190476Y-134577200D01*
X121190476Y-134577200D02*
X121142857Y-134529580D01*
X77182142Y-131024819D02*
X76848809Y-130548628D01*
X76610714Y-131024819D02*
X76610714Y-130024819D01*
X76610714Y-130024819D02*
X76991666Y-130024819D01*
X76991666Y-130024819D02*
X77086904Y-130072438D01*
X77086904Y-130072438D02*
X77134523Y-130120057D01*
X77134523Y-130120057D02*
X77182142Y-130215295D01*
X77182142Y-130215295D02*
X77182142Y-130358152D01*
X77182142Y-130358152D02*
X77134523Y-130453390D01*
X77134523Y-130453390D02*
X77086904Y-130501009D01*
X77086904Y-130501009D02*
X76991666Y-130548628D01*
X76991666Y-130548628D02*
X76610714Y-130548628D01*
X78134523Y-131024819D02*
X77563095Y-131024819D01*
X77848809Y-131024819D02*
X77848809Y-130024819D01*
X77848809Y-130024819D02*
X77753571Y-130167676D01*
X77753571Y-130167676D02*
X77658333Y-130262914D01*
X77658333Y-130262914D02*
X77563095Y-130310533D01*
X78753571Y-130024819D02*
X78848809Y-130024819D01*
X78848809Y-130024819D02*
X78944047Y-130072438D01*
X78944047Y-130072438D02*
X78991666Y-130120057D01*
X78991666Y-130120057D02*
X79039285Y-130215295D01*
X79039285Y-130215295D02*
X79086904Y-130405771D01*
X79086904Y-130405771D02*
X79086904Y-130643866D01*
X79086904Y-130643866D02*
X79039285Y-130834342D01*
X79039285Y-130834342D02*
X78991666Y-130929580D01*
X78991666Y-130929580D02*
X78944047Y-130977200D01*
X78944047Y-130977200D02*
X78848809Y-131024819D01*
X78848809Y-131024819D02*
X78753571Y-131024819D01*
X78753571Y-131024819D02*
X78658333Y-130977200D01*
X78658333Y-130977200D02*
X78610714Y-130929580D01*
X78610714Y-130929580D02*
X78563095Y-130834342D01*
X78563095Y-130834342D02*
X78515476Y-130643866D01*
X78515476Y-130643866D02*
X78515476Y-130405771D01*
X78515476Y-130405771D02*
X78563095Y-130215295D01*
X78563095Y-130215295D02*
X78610714Y-130120057D01*
X78610714Y-130120057D02*
X78658333Y-130072438D01*
X78658333Y-130072438D02*
X78753571Y-130024819D01*
X104024819Y-118967857D02*
X103548628Y-119301190D01*
X104024819Y-119539285D02*
X103024819Y-119539285D01*
X103024819Y-119539285D02*
X103024819Y-119158333D01*
X103024819Y-119158333D02*
X103072438Y-119063095D01*
X103072438Y-119063095D02*
X103120057Y-119015476D01*
X103120057Y-119015476D02*
X103215295Y-118967857D01*
X103215295Y-118967857D02*
X103358152Y-118967857D01*
X103358152Y-118967857D02*
X103453390Y-119015476D01*
X103453390Y-119015476D02*
X103501009Y-119063095D01*
X103501009Y-119063095D02*
X103548628Y-119158333D01*
X103548628Y-119158333D02*
X103548628Y-119539285D01*
X104024819Y-118015476D02*
X104024819Y-118586904D01*
X104024819Y-118301190D02*
X103024819Y-118301190D01*
X103024819Y-118301190D02*
X103167676Y-118396428D01*
X103167676Y-118396428D02*
X103262914Y-118491666D01*
X103262914Y-118491666D02*
X103310533Y-118586904D01*
X103024819Y-117110714D02*
X103024819Y-117586904D01*
X103024819Y-117586904D02*
X103501009Y-117634523D01*
X103501009Y-117634523D02*
X103453390Y-117586904D01*
X103453390Y-117586904D02*
X103405771Y-117491666D01*
X103405771Y-117491666D02*
X103405771Y-117253571D01*
X103405771Y-117253571D02*
X103453390Y-117158333D01*
X103453390Y-117158333D02*
X103501009Y-117110714D01*
X103501009Y-117110714D02*
X103596247Y-117063095D01*
X103596247Y-117063095D02*
X103834342Y-117063095D01*
X103834342Y-117063095D02*
X103929580Y-117110714D01*
X103929580Y-117110714D02*
X103977200Y-117158333D01*
X103977200Y-117158333D02*
X104024819Y-117253571D01*
X104024819Y-117253571D02*
X104024819Y-117491666D01*
X104024819Y-117491666D02*
X103977200Y-117586904D01*
X103977200Y-117586904D02*
X103929580Y-117634523D01*
X76833333Y-122199580D02*
X76785714Y-122247200D01*
X76785714Y-122247200D02*
X76642857Y-122294819D01*
X76642857Y-122294819D02*
X76547619Y-122294819D01*
X76547619Y-122294819D02*
X76404762Y-122247200D01*
X76404762Y-122247200D02*
X76309524Y-122151961D01*
X76309524Y-122151961D02*
X76261905Y-122056723D01*
X76261905Y-122056723D02*
X76214286Y-121866247D01*
X76214286Y-121866247D02*
X76214286Y-121723390D01*
X76214286Y-121723390D02*
X76261905Y-121532914D01*
X76261905Y-121532914D02*
X76309524Y-121437676D01*
X76309524Y-121437676D02*
X76404762Y-121342438D01*
X76404762Y-121342438D02*
X76547619Y-121294819D01*
X76547619Y-121294819D02*
X76642857Y-121294819D01*
X76642857Y-121294819D02*
X76785714Y-121342438D01*
X76785714Y-121342438D02*
X76833333Y-121390057D01*
X77214286Y-121390057D02*
X77261905Y-121342438D01*
X77261905Y-121342438D02*
X77357143Y-121294819D01*
X77357143Y-121294819D02*
X77595238Y-121294819D01*
X77595238Y-121294819D02*
X77690476Y-121342438D01*
X77690476Y-121342438D02*
X77738095Y-121390057D01*
X77738095Y-121390057D02*
X77785714Y-121485295D01*
X77785714Y-121485295D02*
X77785714Y-121580533D01*
X77785714Y-121580533D02*
X77738095Y-121723390D01*
X77738095Y-121723390D02*
X77166667Y-122294819D01*
X77166667Y-122294819D02*
X77785714Y-122294819D01*
X74166666Y-118254819D02*
X74166666Y-118969104D01*
X74166666Y-118969104D02*
X74119047Y-119111961D01*
X74119047Y-119111961D02*
X74023809Y-119207200D01*
X74023809Y-119207200D02*
X73880952Y-119254819D01*
X73880952Y-119254819D02*
X73785714Y-119254819D01*
X74642857Y-119254819D02*
X74642857Y-118254819D01*
X74642857Y-118254819D02*
X75023809Y-118254819D01*
X75023809Y-118254819D02*
X75119047Y-118302438D01*
X75119047Y-118302438D02*
X75166666Y-118350057D01*
X75166666Y-118350057D02*
X75214285Y-118445295D01*
X75214285Y-118445295D02*
X75214285Y-118588152D01*
X75214285Y-118588152D02*
X75166666Y-118683390D01*
X75166666Y-118683390D02*
X75119047Y-118731009D01*
X75119047Y-118731009D02*
X75023809Y-118778628D01*
X75023809Y-118778628D02*
X74642857Y-118778628D01*
X76071428Y-118588152D02*
X76071428Y-119254819D01*
X75833333Y-118207200D02*
X75595238Y-118921485D01*
X75595238Y-118921485D02*
X76214285Y-118921485D01*
X83666666Y-130654819D02*
X83666666Y-131369104D01*
X83666666Y-131369104D02*
X83619047Y-131511961D01*
X83619047Y-131511961D02*
X83523809Y-131607200D01*
X83523809Y-131607200D02*
X83380952Y-131654819D01*
X83380952Y-131654819D02*
X83285714Y-131654819D01*
X84142857Y-131654819D02*
X84142857Y-130654819D01*
X84142857Y-130654819D02*
X84523809Y-130654819D01*
X84523809Y-130654819D02*
X84619047Y-130702438D01*
X84619047Y-130702438D02*
X84666666Y-130750057D01*
X84666666Y-130750057D02*
X84714285Y-130845295D01*
X84714285Y-130845295D02*
X84714285Y-130988152D01*
X84714285Y-130988152D02*
X84666666Y-131083390D01*
X84666666Y-131083390D02*
X84619047Y-131131009D01*
X84619047Y-131131009D02*
X84523809Y-131178628D01*
X84523809Y-131178628D02*
X84142857Y-131178628D01*
X85571428Y-130654819D02*
X85380952Y-130654819D01*
X85380952Y-130654819D02*
X85285714Y-130702438D01*
X85285714Y-130702438D02*
X85238095Y-130750057D01*
X85238095Y-130750057D02*
X85142857Y-130892914D01*
X85142857Y-130892914D02*
X85095238Y-131083390D01*
X85095238Y-131083390D02*
X85095238Y-131464342D01*
X85095238Y-131464342D02*
X85142857Y-131559580D01*
X85142857Y-131559580D02*
X85190476Y-131607200D01*
X85190476Y-131607200D02*
X85285714Y-131654819D01*
X85285714Y-131654819D02*
X85476190Y-131654819D01*
X85476190Y-131654819D02*
X85571428Y-131607200D01*
X85571428Y-131607200D02*
X85619047Y-131559580D01*
X85619047Y-131559580D02*
X85666666Y-131464342D01*
X85666666Y-131464342D02*
X85666666Y-131226247D01*
X85666666Y-131226247D02*
X85619047Y-131131009D01*
X85619047Y-131131009D02*
X85571428Y-131083390D01*
X85571428Y-131083390D02*
X85476190Y-131035771D01*
X85476190Y-131035771D02*
X85285714Y-131035771D01*
X85285714Y-131035771D02*
X85190476Y-131083390D01*
X85190476Y-131083390D02*
X85142857Y-131131009D01*
X85142857Y-131131009D02*
X85095238Y-131226247D01*
X53994819Y-116243093D02*
X52994819Y-116243093D01*
X52994819Y-116243093D02*
X52994819Y-116004998D01*
X52994819Y-116004998D02*
X53042438Y-115862141D01*
X53042438Y-115862141D02*
X53137676Y-115766903D01*
X53137676Y-115766903D02*
X53232914Y-115719284D01*
X53232914Y-115719284D02*
X53423390Y-115671665D01*
X53423390Y-115671665D02*
X53566247Y-115671665D01*
X53566247Y-115671665D02*
X53756723Y-115719284D01*
X53756723Y-115719284D02*
X53851961Y-115766903D01*
X53851961Y-115766903D02*
X53947200Y-115862141D01*
X53947200Y-115862141D02*
X53994819Y-116004998D01*
X53994819Y-116004998D02*
X53994819Y-116243093D01*
X53994819Y-114719284D02*
X53994819Y-115290712D01*
X53994819Y-115004998D02*
X52994819Y-115004998D01*
X52994819Y-115004998D02*
X53137676Y-115100236D01*
X53137676Y-115100236D02*
X53232914Y-115195474D01*
X53232914Y-115195474D02*
X53280533Y-115290712D01*
X115299693Y-115343517D02*
X114592587Y-114636410D01*
X114592587Y-114636410D02*
X114760945Y-114468051D01*
X114760945Y-114468051D02*
X114895632Y-114400708D01*
X114895632Y-114400708D02*
X115030319Y-114400708D01*
X115030319Y-114400708D02*
X115131335Y-114434380D01*
X115131335Y-114434380D02*
X115299693Y-114535395D01*
X115299693Y-114535395D02*
X115400709Y-114636410D01*
X115400709Y-114636410D02*
X115501724Y-114804769D01*
X115501724Y-114804769D02*
X115535396Y-114905784D01*
X115535396Y-114905784D02*
X115535396Y-115040471D01*
X115535396Y-115040471D02*
X115468052Y-115175158D01*
X115468052Y-115175158D02*
X115299693Y-115343517D01*
X115232350Y-113996647D02*
X115670083Y-113558914D01*
X115670083Y-113558914D02*
X115703754Y-114063990D01*
X115703754Y-114063990D02*
X115804770Y-113962975D01*
X115804770Y-113962975D02*
X115905785Y-113929303D01*
X115905785Y-113929303D02*
X115973128Y-113929303D01*
X115973128Y-113929303D02*
X116074144Y-113962975D01*
X116074144Y-113962975D02*
X116242502Y-114131334D01*
X116242502Y-114131334D02*
X116276174Y-114232349D01*
X116276174Y-114232349D02*
X116276174Y-114299693D01*
X116276174Y-114299693D02*
X116242502Y-114400708D01*
X116242502Y-114400708D02*
X116040472Y-114602738D01*
X116040472Y-114602738D02*
X115939457Y-114636410D01*
X115939457Y-114636410D02*
X115872113Y-114636410D01*
X53483332Y-132524819D02*
X53149999Y-132048628D01*
X52911904Y-132524819D02*
X52911904Y-131524819D01*
X52911904Y-131524819D02*
X53292856Y-131524819D01*
X53292856Y-131524819D02*
X53388094Y-131572438D01*
X53388094Y-131572438D02*
X53435713Y-131620057D01*
X53435713Y-131620057D02*
X53483332Y-131715295D01*
X53483332Y-131715295D02*
X53483332Y-131858152D01*
X53483332Y-131858152D02*
X53435713Y-131953390D01*
X53435713Y-131953390D02*
X53388094Y-132001009D01*
X53388094Y-132001009D02*
X53292856Y-132048628D01*
X53292856Y-132048628D02*
X52911904Y-132048628D01*
X54435713Y-132524819D02*
X53864285Y-132524819D01*
X54149999Y-132524819D02*
X54149999Y-131524819D01*
X54149999Y-131524819D02*
X54054761Y-131667676D01*
X54054761Y-131667676D02*
X53959523Y-131762914D01*
X53959523Y-131762914D02*
X53864285Y-131810533D01*
X103333333Y-122199580D02*
X103285714Y-122247200D01*
X103285714Y-122247200D02*
X103142857Y-122294819D01*
X103142857Y-122294819D02*
X103047619Y-122294819D01*
X103047619Y-122294819D02*
X102904762Y-122247200D01*
X102904762Y-122247200D02*
X102809524Y-122151961D01*
X102809524Y-122151961D02*
X102761905Y-122056723D01*
X102761905Y-122056723D02*
X102714286Y-121866247D01*
X102714286Y-121866247D02*
X102714286Y-121723390D01*
X102714286Y-121723390D02*
X102761905Y-121532914D01*
X102761905Y-121532914D02*
X102809524Y-121437676D01*
X102809524Y-121437676D02*
X102904762Y-121342438D01*
X102904762Y-121342438D02*
X103047619Y-121294819D01*
X103047619Y-121294819D02*
X103142857Y-121294819D01*
X103142857Y-121294819D02*
X103285714Y-121342438D01*
X103285714Y-121342438D02*
X103333333Y-121390057D01*
X104190476Y-121294819D02*
X104000000Y-121294819D01*
X104000000Y-121294819D02*
X103904762Y-121342438D01*
X103904762Y-121342438D02*
X103857143Y-121390057D01*
X103857143Y-121390057D02*
X103761905Y-121532914D01*
X103761905Y-121532914D02*
X103714286Y-121723390D01*
X103714286Y-121723390D02*
X103714286Y-122104342D01*
X103714286Y-122104342D02*
X103761905Y-122199580D01*
X103761905Y-122199580D02*
X103809524Y-122247200D01*
X103809524Y-122247200D02*
X103904762Y-122294819D01*
X103904762Y-122294819D02*
X104095238Y-122294819D01*
X104095238Y-122294819D02*
X104190476Y-122247200D01*
X104190476Y-122247200D02*
X104238095Y-122199580D01*
X104238095Y-122199580D02*
X104285714Y-122104342D01*
X104285714Y-122104342D02*
X104285714Y-121866247D01*
X104285714Y-121866247D02*
X104238095Y-121771009D01*
X104238095Y-121771009D02*
X104190476Y-121723390D01*
X104190476Y-121723390D02*
X104095238Y-121675771D01*
X104095238Y-121675771D02*
X103904762Y-121675771D01*
X103904762Y-121675771D02*
X103809524Y-121723390D01*
X103809524Y-121723390D02*
X103761905Y-121771009D01*
X103761905Y-121771009D02*
X103714286Y-121866247D01*
X69534818Y-122666666D02*
X69058627Y-122999999D01*
X69534818Y-123238094D02*
X68534818Y-123238094D01*
X68534818Y-123238094D02*
X68534818Y-122857142D01*
X68534818Y-122857142D02*
X68582437Y-122761904D01*
X68582437Y-122761904D02*
X68630056Y-122714285D01*
X68630056Y-122714285D02*
X68725294Y-122666666D01*
X68725294Y-122666666D02*
X68868151Y-122666666D01*
X68868151Y-122666666D02*
X68963389Y-122714285D01*
X68963389Y-122714285D02*
X69011008Y-122761904D01*
X69011008Y-122761904D02*
X69058627Y-122857142D01*
X69058627Y-122857142D02*
X69058627Y-123238094D01*
X68534818Y-121761904D02*
X68534818Y-122238094D01*
X68534818Y-122238094D02*
X69011008Y-122285713D01*
X69011008Y-122285713D02*
X68963389Y-122238094D01*
X68963389Y-122238094D02*
X68915770Y-122142856D01*
X68915770Y-122142856D02*
X68915770Y-121904761D01*
X68915770Y-121904761D02*
X68963389Y-121809523D01*
X68963389Y-121809523D02*
X69011008Y-121761904D01*
X69011008Y-121761904D02*
X69106246Y-121714285D01*
X69106246Y-121714285D02*
X69344341Y-121714285D01*
X69344341Y-121714285D02*
X69439579Y-121761904D01*
X69439579Y-121761904D02*
X69487199Y-121809523D01*
X69487199Y-121809523D02*
X69534818Y-121904761D01*
X69534818Y-121904761D02*
X69534818Y-122142856D01*
X69534818Y-122142856D02*
X69487199Y-122238094D01*
X69487199Y-122238094D02*
X69439579Y-122285713D01*
X87008333Y-128524819D02*
X86675000Y-128048628D01*
X86436905Y-128524819D02*
X86436905Y-127524819D01*
X86436905Y-127524819D02*
X86817857Y-127524819D01*
X86817857Y-127524819D02*
X86913095Y-127572438D01*
X86913095Y-127572438D02*
X86960714Y-127620057D01*
X86960714Y-127620057D02*
X87008333Y-127715295D01*
X87008333Y-127715295D02*
X87008333Y-127858152D01*
X87008333Y-127858152D02*
X86960714Y-127953390D01*
X86960714Y-127953390D02*
X86913095Y-128001009D01*
X86913095Y-128001009D02*
X86817857Y-128048628D01*
X86817857Y-128048628D02*
X86436905Y-128048628D01*
X87341667Y-127524819D02*
X88008333Y-127524819D01*
X88008333Y-127524819D02*
X87579762Y-128524819D01*
X110857142Y-132524819D02*
X110523809Y-132048628D01*
X110285714Y-132524819D02*
X110285714Y-131524819D01*
X110285714Y-131524819D02*
X110666666Y-131524819D01*
X110666666Y-131524819D02*
X110761904Y-131572438D01*
X110761904Y-131572438D02*
X110809523Y-131620057D01*
X110809523Y-131620057D02*
X110857142Y-131715295D01*
X110857142Y-131715295D02*
X110857142Y-131858152D01*
X110857142Y-131858152D02*
X110809523Y-131953390D01*
X110809523Y-131953390D02*
X110761904Y-132001009D01*
X110761904Y-132001009D02*
X110666666Y-132048628D01*
X110666666Y-132048628D02*
X110285714Y-132048628D01*
X111809523Y-132524819D02*
X111238095Y-132524819D01*
X111523809Y-132524819D02*
X111523809Y-131524819D01*
X111523809Y-131524819D02*
X111428571Y-131667676D01*
X111428571Y-131667676D02*
X111333333Y-131762914D01*
X111333333Y-131762914D02*
X111238095Y-131810533D01*
X112761904Y-132524819D02*
X112190476Y-132524819D01*
X112476190Y-132524819D02*
X112476190Y-131524819D01*
X112476190Y-131524819D02*
X112380952Y-131667676D01*
X112380952Y-131667676D02*
X112285714Y-131762914D01*
X112285714Y-131762914D02*
X112190476Y-131810533D01*
X74316666Y-128254819D02*
X74316666Y-128969104D01*
X74316666Y-128969104D02*
X74269047Y-129111961D01*
X74269047Y-129111961D02*
X74173809Y-129207200D01*
X74173809Y-129207200D02*
X74030952Y-129254819D01*
X74030952Y-129254819D02*
X73935714Y-129254819D01*
X74792857Y-129254819D02*
X74792857Y-128254819D01*
X74792857Y-128254819D02*
X75173809Y-128254819D01*
X75173809Y-128254819D02*
X75269047Y-128302438D01*
X75269047Y-128302438D02*
X75316666Y-128350057D01*
X75316666Y-128350057D02*
X75364285Y-128445295D01*
X75364285Y-128445295D02*
X75364285Y-128588152D01*
X75364285Y-128588152D02*
X75316666Y-128683390D01*
X75316666Y-128683390D02*
X75269047Y-128731009D01*
X75269047Y-128731009D02*
X75173809Y-128778628D01*
X75173809Y-128778628D02*
X74792857Y-128778628D01*
X75697619Y-128254819D02*
X76364285Y-128254819D01*
X76364285Y-128254819D02*
X75935714Y-129254819D01*
X80404761Y-125050057D02*
X80309523Y-125002438D01*
X80309523Y-125002438D02*
X80214285Y-124907200D01*
X80214285Y-124907200D02*
X80071428Y-124764342D01*
X80071428Y-124764342D02*
X79976190Y-124716723D01*
X79976190Y-124716723D02*
X79880952Y-124716723D01*
X79928571Y-124954819D02*
X79833333Y-124907200D01*
X79833333Y-124907200D02*
X79738095Y-124811961D01*
X79738095Y-124811961D02*
X79690476Y-124621485D01*
X79690476Y-124621485D02*
X79690476Y-124288152D01*
X79690476Y-124288152D02*
X79738095Y-124097676D01*
X79738095Y-124097676D02*
X79833333Y-124002438D01*
X79833333Y-124002438D02*
X79928571Y-123954819D01*
X79928571Y-123954819D02*
X80119047Y-123954819D01*
X80119047Y-123954819D02*
X80214285Y-124002438D01*
X80214285Y-124002438D02*
X80309523Y-124097676D01*
X80309523Y-124097676D02*
X80357142Y-124288152D01*
X80357142Y-124288152D02*
X80357142Y-124621485D01*
X80357142Y-124621485D02*
X80309523Y-124811961D01*
X80309523Y-124811961D02*
X80214285Y-124907200D01*
X80214285Y-124907200D02*
X80119047Y-124954819D01*
X80119047Y-124954819D02*
X79928571Y-124954819D01*
X80738095Y-124050057D02*
X80785714Y-124002438D01*
X80785714Y-124002438D02*
X80880952Y-123954819D01*
X80880952Y-123954819D02*
X81119047Y-123954819D01*
X81119047Y-123954819D02*
X81214285Y-124002438D01*
X81214285Y-124002438D02*
X81261904Y-124050057D01*
X81261904Y-124050057D02*
X81309523Y-124145295D01*
X81309523Y-124145295D02*
X81309523Y-124240533D01*
X81309523Y-124240533D02*
X81261904Y-124383390D01*
X81261904Y-124383390D02*
X80690476Y-124954819D01*
X80690476Y-124954819D02*
X81309523Y-124954819D01*
X115134761Y-124990056D02*
X115039523Y-124942437D01*
X115039523Y-124942437D02*
X114944285Y-124847199D01*
X114944285Y-124847199D02*
X114801428Y-124704341D01*
X114801428Y-124704341D02*
X114706190Y-124656722D01*
X114706190Y-124656722D02*
X114610952Y-124656722D01*
X114658571Y-124894818D02*
X114563333Y-124847199D01*
X114563333Y-124847199D02*
X114468095Y-124751960D01*
X114468095Y-124751960D02*
X114420476Y-124561484D01*
X114420476Y-124561484D02*
X114420476Y-124228151D01*
X114420476Y-124228151D02*
X114468095Y-124037675D01*
X114468095Y-124037675D02*
X114563333Y-123942437D01*
X114563333Y-123942437D02*
X114658571Y-123894818D01*
X114658571Y-123894818D02*
X114849047Y-123894818D01*
X114849047Y-123894818D02*
X114944285Y-123942437D01*
X114944285Y-123942437D02*
X115039523Y-124037675D01*
X115039523Y-124037675D02*
X115087142Y-124228151D01*
X115087142Y-124228151D02*
X115087142Y-124561484D01*
X115087142Y-124561484D02*
X115039523Y-124751960D01*
X115039523Y-124751960D02*
X114944285Y-124847199D01*
X114944285Y-124847199D02*
X114849047Y-124894818D01*
X114849047Y-124894818D02*
X114658571Y-124894818D01*
X115420476Y-123894818D02*
X116039523Y-123894818D01*
X116039523Y-123894818D02*
X115706190Y-124275770D01*
X115706190Y-124275770D02*
X115849047Y-124275770D01*
X115849047Y-124275770D02*
X115944285Y-124323389D01*
X115944285Y-124323389D02*
X115991904Y-124371008D01*
X115991904Y-124371008D02*
X116039523Y-124466246D01*
X116039523Y-124466246D02*
X116039523Y-124704341D01*
X116039523Y-124704341D02*
X115991904Y-124799579D01*
X115991904Y-124799579D02*
X115944285Y-124847199D01*
X115944285Y-124847199D02*
X115849047Y-124894818D01*
X115849047Y-124894818D02*
X115563333Y-124894818D01*
X115563333Y-124894818D02*
X115468095Y-124847199D01*
X115468095Y-124847199D02*
X115420476Y-124799579D01*
X56904761Y-124490056D02*
X56809523Y-124442437D01*
X56809523Y-124442437D02*
X56714285Y-124347199D01*
X56714285Y-124347199D02*
X56571428Y-124204341D01*
X56571428Y-124204341D02*
X56476190Y-124156722D01*
X56476190Y-124156722D02*
X56380952Y-124156722D01*
X56428571Y-124394818D02*
X56333333Y-124347199D01*
X56333333Y-124347199D02*
X56238095Y-124251960D01*
X56238095Y-124251960D02*
X56190476Y-124061484D01*
X56190476Y-124061484D02*
X56190476Y-123728151D01*
X56190476Y-123728151D02*
X56238095Y-123537675D01*
X56238095Y-123537675D02*
X56333333Y-123442437D01*
X56333333Y-123442437D02*
X56428571Y-123394818D01*
X56428571Y-123394818D02*
X56619047Y-123394818D01*
X56619047Y-123394818D02*
X56714285Y-123442437D01*
X56714285Y-123442437D02*
X56809523Y-123537675D01*
X56809523Y-123537675D02*
X56857142Y-123728151D01*
X56857142Y-123728151D02*
X56857142Y-124061484D01*
X56857142Y-124061484D02*
X56809523Y-124251960D01*
X56809523Y-124251960D02*
X56714285Y-124347199D01*
X56714285Y-124347199D02*
X56619047Y-124394818D01*
X56619047Y-124394818D02*
X56428571Y-124394818D01*
X57809523Y-124394818D02*
X57238095Y-124394818D01*
X57523809Y-124394818D02*
X57523809Y-123394818D01*
X57523809Y-123394818D02*
X57428571Y-123537675D01*
X57428571Y-123537675D02*
X57333333Y-123632913D01*
X57333333Y-123632913D02*
X57238095Y-123680532D01*
X58666666Y-136154819D02*
X58666666Y-136869104D01*
X58666666Y-136869104D02*
X58619047Y-137011961D01*
X58619047Y-137011961D02*
X58523809Y-137107200D01*
X58523809Y-137107200D02*
X58380952Y-137154819D01*
X58380952Y-137154819D02*
X58285714Y-137154819D01*
X59142857Y-137154819D02*
X59142857Y-136154819D01*
X59142857Y-136154819D02*
X59523809Y-136154819D01*
X59523809Y-136154819D02*
X59619047Y-136202438D01*
X59619047Y-136202438D02*
X59666666Y-136250057D01*
X59666666Y-136250057D02*
X59714285Y-136345295D01*
X59714285Y-136345295D02*
X59714285Y-136488152D01*
X59714285Y-136488152D02*
X59666666Y-136583390D01*
X59666666Y-136583390D02*
X59619047Y-136631009D01*
X59619047Y-136631009D02*
X59523809Y-136678628D01*
X59523809Y-136678628D02*
X59142857Y-136678628D01*
X60095238Y-136250057D02*
X60142857Y-136202438D01*
X60142857Y-136202438D02*
X60238095Y-136154819D01*
X60238095Y-136154819D02*
X60476190Y-136154819D01*
X60476190Y-136154819D02*
X60571428Y-136202438D01*
X60571428Y-136202438D02*
X60619047Y-136250057D01*
X60619047Y-136250057D02*
X60666666Y-136345295D01*
X60666666Y-136345295D02*
X60666666Y-136440533D01*
X60666666Y-136440533D02*
X60619047Y-136583390D01*
X60619047Y-136583390D02*
X60047619Y-137154819D01*
X60047619Y-137154819D02*
X60666666Y-137154819D01*
X52466664Y-136154819D02*
X52466664Y-136869104D01*
X52466664Y-136869104D02*
X52419045Y-137011961D01*
X52419045Y-137011961D02*
X52323807Y-137107200D01*
X52323807Y-137107200D02*
X52180950Y-137154819D01*
X52180950Y-137154819D02*
X52085712Y-137154819D01*
X52942855Y-137154819D02*
X52942855Y-136154819D01*
X52942855Y-136154819D02*
X53323807Y-136154819D01*
X53323807Y-136154819D02*
X53419045Y-136202438D01*
X53419045Y-136202438D02*
X53466664Y-136250057D01*
X53466664Y-136250057D02*
X53514283Y-136345295D01*
X53514283Y-136345295D02*
X53514283Y-136488152D01*
X53514283Y-136488152D02*
X53466664Y-136583390D01*
X53466664Y-136583390D02*
X53419045Y-136631009D01*
X53419045Y-136631009D02*
X53323807Y-136678628D01*
X53323807Y-136678628D02*
X52942855Y-136678628D01*
X54466664Y-137154819D02*
X53895236Y-137154819D01*
X54180950Y-137154819D02*
X54180950Y-136154819D01*
X54180950Y-136154819D02*
X54085712Y-136297676D01*
X54085712Y-136297676D02*
X53990474Y-136392914D01*
X53990474Y-136392914D02*
X53895236Y-136440533D01*
X95190476Y-116754819D02*
X95190476Y-117469104D01*
X95190476Y-117469104D02*
X95142857Y-117611961D01*
X95142857Y-117611961D02*
X95047619Y-117707200D01*
X95047619Y-117707200D02*
X94904762Y-117754819D01*
X94904762Y-117754819D02*
X94809524Y-117754819D01*
X95666667Y-117754819D02*
X95666667Y-116754819D01*
X95666667Y-116754819D02*
X96047619Y-116754819D01*
X96047619Y-116754819D02*
X96142857Y-116802438D01*
X96142857Y-116802438D02*
X96190476Y-116850057D01*
X96190476Y-116850057D02*
X96238095Y-116945295D01*
X96238095Y-116945295D02*
X96238095Y-117088152D01*
X96238095Y-117088152D02*
X96190476Y-117183390D01*
X96190476Y-117183390D02*
X96142857Y-117231009D01*
X96142857Y-117231009D02*
X96047619Y-117278628D01*
X96047619Y-117278628D02*
X95666667Y-117278628D01*
X97190476Y-117754819D02*
X96619048Y-117754819D01*
X96904762Y-117754819D02*
X96904762Y-116754819D01*
X96904762Y-116754819D02*
X96809524Y-116897676D01*
X96809524Y-116897676D02*
X96714286Y-116992914D01*
X96714286Y-116992914D02*
X96619048Y-117040533D01*
X97571429Y-116850057D02*
X97619048Y-116802438D01*
X97619048Y-116802438D02*
X97714286Y-116754819D01*
X97714286Y-116754819D02*
X97952381Y-116754819D01*
X97952381Y-116754819D02*
X98047619Y-116802438D01*
X98047619Y-116802438D02*
X98095238Y-116850057D01*
X98095238Y-116850057D02*
X98142857Y-116945295D01*
X98142857Y-116945295D02*
X98142857Y-117040533D01*
X98142857Y-117040533D02*
X98095238Y-117183390D01*
X98095238Y-117183390D02*
X97523810Y-117754819D01*
X97523810Y-117754819D02*
X98142857Y-117754819D01*
X111540477Y-136154819D02*
X111540477Y-136869104D01*
X111540477Y-136869104D02*
X111492858Y-137011961D01*
X111492858Y-137011961D02*
X111397620Y-137107200D01*
X111397620Y-137107200D02*
X111254763Y-137154819D01*
X111254763Y-137154819D02*
X111159525Y-137154819D01*
X112016668Y-137154819D02*
X112016668Y-136154819D01*
X112016668Y-136154819D02*
X112397620Y-136154819D01*
X112397620Y-136154819D02*
X112492858Y-136202438D01*
X112492858Y-136202438D02*
X112540477Y-136250057D01*
X112540477Y-136250057D02*
X112588096Y-136345295D01*
X112588096Y-136345295D02*
X112588096Y-136488152D01*
X112588096Y-136488152D02*
X112540477Y-136583390D01*
X112540477Y-136583390D02*
X112492858Y-136631009D01*
X112492858Y-136631009D02*
X112397620Y-136678628D01*
X112397620Y-136678628D02*
X112016668Y-136678628D01*
X113540477Y-137154819D02*
X112969049Y-137154819D01*
X113254763Y-137154819D02*
X113254763Y-136154819D01*
X113254763Y-136154819D02*
X113159525Y-136297676D01*
X113159525Y-136297676D02*
X113064287Y-136392914D01*
X113064287Y-136392914D02*
X112969049Y-136440533D01*
X114159525Y-136154819D02*
X114254763Y-136154819D01*
X114254763Y-136154819D02*
X114350001Y-136202438D01*
X114350001Y-136202438D02*
X114397620Y-136250057D01*
X114397620Y-136250057D02*
X114445239Y-136345295D01*
X114445239Y-136345295D02*
X114492858Y-136535771D01*
X114492858Y-136535771D02*
X114492858Y-136773866D01*
X114492858Y-136773866D02*
X114445239Y-136964342D01*
X114445239Y-136964342D02*
X114397620Y-137059580D01*
X114397620Y-137059580D02*
X114350001Y-137107200D01*
X114350001Y-137107200D02*
X114254763Y-137154819D01*
X114254763Y-137154819D02*
X114159525Y-137154819D01*
X114159525Y-137154819D02*
X114064287Y-137107200D01*
X114064287Y-137107200D02*
X114016668Y-137059580D01*
X114016668Y-137059580D02*
X113969049Y-136964342D01*
X113969049Y-136964342D02*
X113921430Y-136773866D01*
X113921430Y-136773866D02*
X113921430Y-136535771D01*
X113921430Y-136535771D02*
X113969049Y-136345295D01*
X113969049Y-136345295D02*
X114016668Y-136250057D01*
X114016668Y-136250057D02*
X114064287Y-136202438D01*
X114064287Y-136202438D02*
X114159525Y-136154819D01*
D11*
%TO.C,LED3*%
X124370788Y-117629212D02*
X123472762Y-118527238D01*
X124370788Y-118527238D02*
X123472762Y-117629212D01*
X124327774Y-120898026D02*
G75*
G02*
X117876174Y-120898026I-3225800J0D01*
G01*
X117876174Y-120898026D02*
G75*
G02*
X124327774Y-120898026I3225800J0D01*
G01*
%TO.C,LED2*%
X85000000Y-113147199D02*
X85000000Y-114417200D01*
X85635000Y-113782200D02*
X84365000Y-113782200D01*
X88225799Y-117770001D02*
G75*
G02*
X81774201Y-117770001I-3225799J0D01*
G01*
X81774201Y-117770001D02*
G75*
G02*
X88225799Y-117770001I3225799J0D01*
G01*
%TO.C,LED1*%
X49129212Y-117629212D02*
X50027238Y-118527238D01*
X50027238Y-117629212D02*
X49129212Y-118527238D01*
X55623826Y-120898026D02*
G75*
G02*
X49172226Y-120898026I-3225800J0D01*
G01*
X49172226Y-120898026D02*
G75*
G02*
X55623826Y-120898026I3225800J0D01*
G01*
D12*
%TO.C,C1*%
X72288748Y-121765000D02*
X72811252Y-121765000D01*
X72288748Y-123235000D02*
X72811252Y-123235000D01*
%TO.C,C3*%
X98761252Y-130735000D02*
X98238748Y-130735000D01*
X98761252Y-129265000D02*
X98238748Y-129265000D01*
%TO.C,C5*%
X98288749Y-120265000D02*
X98811253Y-120265000D01*
X98288749Y-121735000D02*
X98811253Y-121735000D01*
%TO.C,R4*%
X62447936Y-122765000D02*
X62902064Y-122765000D01*
X62447936Y-124235000D02*
X62902064Y-124235000D01*
%TO.C,R9*%
X71772936Y-131265000D02*
X72227064Y-131265000D01*
X71772936Y-132735000D02*
X72227064Y-132735000D01*
%TO.C,R14*%
X110736355Y-116724198D02*
X111057472Y-116403081D01*
X111775802Y-117763645D02*
X112096919Y-117442528D01*
%TO.C,JP15*%
X119249999Y-127000000D02*
X122049999Y-127000000D01*
X119249999Y-129000000D02*
X119249999Y-127000000D01*
X122049999Y-127000000D02*
X122049999Y-129000000D01*
X122049999Y-129000000D02*
X119249999Y-129000000D01*
%TO.C,JP14*%
X90600000Y-124500000D02*
X93400000Y-124500000D01*
X90600000Y-126500000D02*
X90600000Y-124500000D01*
X93400000Y-124500000D02*
X93400000Y-126500000D01*
X93400000Y-126500000D02*
X90600000Y-126500000D01*
%TO.C,JP13*%
X65400000Y-128000000D02*
X62600000Y-128000000D01*
X65400000Y-126000000D02*
X65400000Y-128000000D01*
X62600000Y-128000000D02*
X62600000Y-126000000D01*
X62600000Y-126000000D02*
X65400000Y-126000000D01*
%TO.C,C4*%
X94127836Y-131640000D02*
X93912164Y-131640000D01*
X94127836Y-132360000D02*
X93912164Y-132360000D01*
%TO.C,JP8*%
X99450001Y-126500000D02*
X102250001Y-126500000D01*
X99450001Y-128500000D02*
X99450001Y-126500000D01*
X102250001Y-126500000D02*
X102250001Y-128500000D01*
X102250001Y-128500000D02*
X99450001Y-128500000D01*
%TO.C,JP9*%
X116749999Y-137500000D02*
X119549999Y-137500000D01*
X116749999Y-139500000D02*
X116749999Y-137500000D01*
X119549999Y-137500000D02*
X119549999Y-139500000D01*
X119549999Y-139500000D02*
X116749999Y-139500000D01*
%TO.C,JP3*%
X64149999Y-118400000D02*
X64149999Y-115600000D01*
X66149999Y-118400000D02*
X64149999Y-118400000D01*
X64149999Y-115600000D02*
X66149999Y-115600000D01*
X66149999Y-115600000D02*
X66149999Y-118400000D01*
%TO.C,JP5*%
X88450001Y-132000000D02*
X91250001Y-132000000D01*
X88450001Y-134000000D02*
X88450001Y-132000000D01*
X91250001Y-132000000D02*
X91250001Y-134000000D01*
X91250001Y-134000000D02*
X88450001Y-134000000D01*
%TO.C,JP11*%
X109250001Y-124000000D02*
X106450001Y-124000000D01*
X109250001Y-122000000D02*
X109250001Y-124000000D01*
X106450001Y-124000000D02*
X106450001Y-122000000D01*
X106450001Y-122000000D02*
X109250001Y-122000000D01*
%TO.C,D2*%
X90170000Y-114764000D02*
X90170000Y-114920000D01*
X90170000Y-117080000D02*
X90170000Y-117236000D01*
X90170001Y-114764485D02*
G75*
G02*
X93402334Y-114921392I1559999J-1235515D01*
G01*
X90689040Y-114920001D02*
G75*
G02*
X92771129Y-114920164I1040960J-1079999D01*
G01*
X92771129Y-117079836D02*
G75*
G02*
X90689040Y-117079999I-1041129J1079836D01*
G01*
X93402334Y-117078608D02*
G75*
G02*
X90170001Y-117235515I-1672334J1078608D01*
G01*
%TO.C,R2*%
X59506357Y-133120000D02*
X59813639Y-133120000D01*
X59506357Y-133880000D02*
X59813639Y-133880000D01*
%TO.C,R3*%
X64760000Y-133346359D02*
X64760000Y-133653641D01*
X65520000Y-133346359D02*
X65520000Y-133653641D01*
%TO.C,R6*%
X82336359Y-128620000D02*
X82643641Y-128620000D01*
X82336359Y-129380000D02*
X82643641Y-129380000D01*
%TO.C,R8*%
X91153641Y-128880000D02*
X90846359Y-128880000D01*
X91153641Y-128120000D02*
X90846359Y-128120000D01*
%TO.C,R12*%
X115336359Y-133120000D02*
X115643641Y-133120000D01*
X115336359Y-133880000D02*
X115643641Y-133880000D01*
%TO.C,R13*%
X120653641Y-132620000D02*
X120346359Y-132620000D01*
X120653641Y-133380000D02*
X120346359Y-133380000D01*
%TO.C,R10*%
X77587742Y-131477500D02*
X78062258Y-131477500D01*
X77587742Y-132522500D02*
X78062258Y-132522500D01*
%TO.C,R15*%
X104477500Y-118562258D02*
X104477500Y-118087742D01*
X105522500Y-118562258D02*
X105522500Y-118087742D01*
%TO.C,C2*%
X76892164Y-123360000D02*
X77107836Y-123360000D01*
X76892164Y-122640000D02*
X77107836Y-122640000D01*
%TO.C,JP4*%
X76400000Y-118000000D02*
X73600000Y-118000000D01*
X76400000Y-116000000D02*
X76400000Y-118000000D01*
X73600000Y-118000000D02*
X73600000Y-116000000D01*
X73600000Y-116000000D02*
X76400000Y-116000000D01*
%TO.C,JP6*%
X85900000Y-134000000D02*
X83100000Y-134000000D01*
X85900000Y-132000000D02*
X85900000Y-134000000D01*
X83100000Y-134000000D02*
X83100000Y-132000000D01*
X83100000Y-132000000D02*
X85900000Y-132000000D01*
%TO.C,D1*%
X55264000Y-117065000D02*
X55420000Y-117065000D01*
X57580000Y-117065000D02*
X57736000Y-117065000D01*
X55264484Y-117064999D02*
G75*
G02*
X55421391Y-113832664I1235516J1560000D01*
G01*
X55420000Y-116545961D02*
G75*
G02*
X55420162Y-114463869I1080000J1040962D01*
G01*
X57579837Y-114463870D02*
G75*
G02*
X57579999Y-116545960I-1079837J-1041129D01*
G01*
X57578608Y-113832665D02*
G75*
G02*
X57735515Y-117064999I-1078608J-1672334D01*
G01*
%TO.C,D3*%
X120079045Y-115668923D02*
X119968736Y-115558614D01*
X118441386Y-114031264D02*
X118331077Y-113920955D01*
X120078702Y-115668581D02*
G75*
G02*
X117682146Y-117843237I-1976728J-229445D01*
G01*
X119601720Y-115925630D02*
G75*
G02*
X118129344Y-117397776I-1499746J27604D01*
G01*
X116602225Y-115870656D02*
G75*
G02*
X118074370Y-114398281I1499749J-27370D01*
G01*
X116156764Y-116317854D02*
G75*
G02*
X118331419Y-113921299I1945210J419828D01*
G01*
%TO.C,R1*%
X53412741Y-134022500D02*
X53887257Y-134022500D01*
X53412741Y-132977500D02*
X53887257Y-132977500D01*
%TO.C,C6*%
X103392164Y-123360000D02*
X103607836Y-123360000D01*
X103392164Y-122640000D02*
X103607836Y-122640000D01*
%TO.C,R5*%
X67127499Y-122262742D02*
X67127499Y-122737258D01*
X68172499Y-122262742D02*
X68172499Y-122737258D01*
%TO.C,R7*%
X86937742Y-128977500D02*
X87412258Y-128977500D01*
X86937742Y-130022500D02*
X87412258Y-130022500D01*
%TO.C,R11*%
X111262742Y-134022500D02*
X111737258Y-134022500D01*
X111262742Y-132977500D02*
X111737258Y-132977500D01*
%TO.C,JP7*%
X76550000Y-128000000D02*
X73750000Y-128000000D01*
X76550000Y-126000000D02*
X76550000Y-128000000D01*
X73750000Y-128000000D02*
X73750000Y-126000000D01*
X73750000Y-126000000D02*
X76550000Y-126000000D01*
%TO.C,Q2*%
X82700000Y-126210000D02*
X86300000Y-126210000D01*
X82661522Y-126198478D02*
G75*
G02*
X84500000Y-121760000I1838478J1838478D01*
G01*
X84500000Y-121760000D02*
G75*
G02*
X86338478Y-126198478I0J-2600000D01*
G01*
%TO.C,Q3*%
X113430000Y-129850000D02*
X117030000Y-129850000D01*
X113391522Y-129838478D02*
G75*
G02*
X115230000Y-125399999I1838479J1838478D01*
G01*
X115230000Y-125400000D02*
G75*
G02*
X117068478Y-129838478I1J-2600000D01*
G01*
%TO.C,Q1*%
X57000000Y-124900000D02*
G75*
G02*
X58838478Y-129338478I1J-2600000D01*
G01*
X55161522Y-129338478D02*
G75*
G02*
X57000000Y-124899999I1838479J1838478D01*
G01*
X55200000Y-129350000D02*
X58800000Y-129350000D01*
%TO.C,JP2*%
X58100000Y-137500000D02*
X60900000Y-137500000D01*
X58100000Y-139500000D02*
X58100000Y-137500000D01*
X60900000Y-137500000D02*
X60900000Y-139500000D01*
X60900000Y-139500000D02*
X58100000Y-139500000D01*
%TO.C,JP1*%
X51899998Y-137500000D02*
X54699998Y-137500000D01*
X51899998Y-139500000D02*
X51899998Y-137500000D01*
X54699998Y-137500000D02*
X54699998Y-139500000D01*
X54699998Y-139500000D02*
X51899998Y-139500000D01*
%TO.C,JP12*%
X97900000Y-116500000D02*
X95100000Y-116500000D01*
X97900000Y-114500000D02*
X97900000Y-116500000D01*
X95100000Y-116500000D02*
X95100000Y-114500000D01*
X95100000Y-114500000D02*
X97900000Y-114500000D01*
%TO.C,JP10*%
X111450001Y-137500000D02*
X114250001Y-137500000D01*
X111450001Y-139500000D02*
X111450001Y-137500000D01*
X114250001Y-137500000D02*
X114250001Y-139500000D01*
X114250001Y-139500000D02*
X111450001Y-139500000D01*
%TD*%
%LPC*%
D13*
%TO.C,LED3*%
X122000000Y-120000000D03*
D14*
X120203949Y-121796051D03*
%TD*%
D15*
%TO.C,LED2*%
X85000000Y-116500000D03*
D14*
X85000000Y-119040000D03*
%TD*%
D16*
%TO.C,LED1*%
X51500000Y-120000000D03*
D14*
X53296051Y-121796051D03*
%TD*%
D17*
%TO.C,C1*%
X71600000Y-122500000D03*
X73500000Y-122500000D03*
%TD*%
D18*
%TO.C,C3*%
X99450000Y-130000000D03*
X97550000Y-130000000D03*
%TD*%
D17*
%TO.C,C5*%
X97600001Y-121000000D03*
X99500001Y-121000000D03*
%TD*%
D19*
%TO.C,R4*%
X61762500Y-123500000D03*
X63587500Y-123500000D03*
%TD*%
%TO.C,R9*%
X71087500Y-132000000D03*
X72912500Y-132000000D03*
%TD*%
D20*
%TO.C,R14*%
X110771402Y-117728598D03*
X112061872Y-116438128D03*
%TD*%
D21*
%TO.C,JP15*%
X120000000Y-128000000D03*
X121299998Y-128000000D03*
%TD*%
%TO.C,JP14*%
X91350000Y-125500000D03*
X92650000Y-125500000D03*
%TD*%
%TO.C,JP13*%
X64649999Y-127000000D03*
X63350001Y-127000000D03*
%TD*%
D22*
%TO.C,C4*%
X93540000Y-132000000D03*
X94500000Y-132000000D03*
%TD*%
D23*
%TO.C,J1*%
X103780000Y-140040000D03*
D24*
X103780000Y-137500000D03*
X101240000Y-140040000D03*
X101240000Y-137500000D03*
X98700000Y-140040000D03*
X98700000Y-137500000D03*
X96160000Y-140040000D03*
X96160000Y-137500000D03*
X93620000Y-140040000D03*
X93620000Y-137500000D03*
X91080000Y-140040000D03*
X91080000Y-137500000D03*
X88540000Y-140040000D03*
X88540000Y-137500000D03*
X86000000Y-140040000D03*
X86000000Y-137500000D03*
X83460000Y-140040000D03*
X83460000Y-137500000D03*
X80920000Y-140040000D03*
X80920000Y-137500000D03*
X78380000Y-140040000D03*
X78380000Y-137500000D03*
X75840000Y-140040000D03*
X75840000Y-137500000D03*
X73300000Y-140040000D03*
X73300000Y-137500000D03*
X70760000Y-140040000D03*
X70760000Y-137500000D03*
%TD*%
D21*
%TO.C,JP8*%
X100200002Y-127500000D03*
X101500000Y-127500000D03*
%TD*%
%TO.C,JP9*%
X117500000Y-138500000D03*
X118799998Y-138500000D03*
%TD*%
D25*
%TO.C,JP3*%
X65149999Y-117649999D03*
X65149999Y-116350001D03*
%TD*%
D21*
%TO.C,JP5*%
X89200002Y-133000000D03*
X90500000Y-133000000D03*
%TD*%
%TO.C,JP11*%
X108500000Y-123000000D03*
X107200002Y-123000000D03*
%TD*%
D26*
%TO.C,D2*%
X90460000Y-116000000D03*
D27*
X93000000Y-116000000D03*
%TD*%
D28*
%TO.C,R2*%
X59149999Y-133500000D03*
X60169997Y-133500000D03*
%TD*%
D29*
%TO.C,R3*%
X65140000Y-134009999D03*
X65140000Y-132990001D03*
%TD*%
D28*
%TO.C,R6*%
X81980001Y-129000000D03*
X82999999Y-129000000D03*
%TD*%
D30*
%TO.C,R8*%
X91509999Y-128500000D03*
X90490001Y-128500000D03*
%TD*%
D28*
%TO.C,R12*%
X114980001Y-133500000D03*
X115999999Y-133500000D03*
%TD*%
D30*
%TO.C,R13*%
X119990001Y-133000000D03*
X121009999Y-133000000D03*
%TD*%
D31*
%TO.C,R10*%
X77000000Y-132000000D03*
X78650000Y-132000000D03*
%TD*%
D32*
%TO.C,R15*%
X105000000Y-119150000D03*
X105000000Y-117500000D03*
%TD*%
D33*
%TO.C,C2*%
X77480000Y-123000000D03*
X76520000Y-123000000D03*
%TD*%
D21*
%TO.C,JP4*%
X75649999Y-117000000D03*
X74350001Y-117000000D03*
%TD*%
%TO.C,JP6*%
X85149999Y-133000000D03*
X83850001Y-133000000D03*
%TD*%
D26*
%TO.C,D1*%
X56500000Y-116775000D03*
D27*
X56500000Y-114235000D03*
%TD*%
D34*
%TO.C,D3*%
X119000000Y-115000000D03*
D27*
X117203949Y-116796051D03*
%TD*%
D31*
%TO.C,R1*%
X54474999Y-133500000D03*
X52824999Y-133500000D03*
%TD*%
D33*
%TO.C,C6*%
X103980000Y-123000000D03*
X103020000Y-123000000D03*
%TD*%
D35*
%TO.C,R5*%
X67649999Y-123325000D03*
X67649999Y-121675000D03*
%TD*%
D31*
%TO.C,R7*%
X86350000Y-129500000D03*
X88000000Y-129500000D03*
%TD*%
%TO.C,R11*%
X112325000Y-133500000D03*
X110675000Y-133500000D03*
%TD*%
D21*
%TO.C,JP7*%
X75799999Y-127000000D03*
X74500001Y-127000000D03*
%TD*%
D36*
%TO.C,Q2*%
X83230000Y-124360000D03*
D37*
X84500000Y-124360000D03*
X85770000Y-124360000D03*
%TD*%
D36*
%TO.C,Q3*%
X113960000Y-128000000D03*
D37*
X115230001Y-128000000D03*
X116500000Y-128000000D03*
%TD*%
%TO.C,Q1*%
X58270000Y-127500000D03*
X57000001Y-127500000D03*
D36*
X55730000Y-127500000D03*
%TD*%
D21*
%TO.C,JP2*%
X58850001Y-138500000D03*
X60149999Y-138500000D03*
%TD*%
%TO.C,JP1*%
X52649999Y-138500000D03*
X53949997Y-138500000D03*
%TD*%
%TO.C,JP12*%
X97149999Y-115500000D03*
X95850001Y-115500000D03*
%TD*%
%TO.C,JP10*%
X112200002Y-138500000D03*
X113500000Y-138500000D03*
%TD*%
%LPD*%
M02*
