%TF.GenerationSoftware,KiCad,Pcbnew,(6.0.4-0)*%
%TF.CreationDate,2024-03-24T13:43:06+02:00*%
%TF.ProjectId,Project_PCB_v1,50726f6a-6563-4745-9f50-43425f76312e,rev?*%
%TF.SameCoordinates,Original*%
%TF.FileFunction,Copper,L2,Bot*%
%TF.FilePolarity,Positive*%
%FSLAX46Y46*%
G04 Gerber Fmt 4.6, Leading zero omitted, Abs format (unit mm)*
G04 Created by KiCad (PCBNEW (6.0.4-0)) date 2024-03-24 13:43:06*
%MOMM*%
%LPD*%
G01*
G04 APERTURE LIST*
G04 Aperture macros list*
%AMRoundRect*
0 Rectangle with rounded corners*
0 $1 Rounding radius*
0 $2 $3 $4 $5 $6 $7 $8 $9 X,Y pos of 4 corners*
0 Add a 4 corners polygon primitive as box body*
4,1,4,$2,$3,$4,$5,$6,$7,$8,$9,$2,$3,0*
0 Add four circle primitives for the rounded corners*
1,1,$1+$1,$2,$3*
1,1,$1+$1,$4,$5*
1,1,$1+$1,$6,$7*
1,1,$1+$1,$8,$9*
0 Add four rect primitives between the rounded corners*
20,1,$1+$1,$2,$3,$4,$5,0*
20,1,$1+$1,$4,$5,$6,$7,0*
20,1,$1+$1,$6,$7,$8,$9,0*
20,1,$1+$1,$8,$9,$2,$3,0*%
G04 Aperture macros list end*
%TA.AperFunction,NonConductor*%
%ADD10C,0.200000*%
%TD*%
%TA.AperFunction,ComponentPad*%
%ADD11R,1.700000X1.700000*%
%TD*%
%TA.AperFunction,ComponentPad*%
%ADD12O,1.700000X1.700000*%
%TD*%
%TA.AperFunction,ComponentPad*%
%ADD13RoundRect,0.250000X-0.350000X-0.625000X0.350000X-0.625000X0.350000X0.625000X-0.350000X0.625000X0*%
%TD*%
%TA.AperFunction,ComponentPad*%
%ADD14O,1.200000X1.750000*%
%TD*%
%TA.AperFunction,ComponentPad*%
%ADD15R,2.775000X2.775000*%
%TD*%
%TA.AperFunction,ComponentPad*%
%ADD16C,2.775000*%
%TD*%
%TA.AperFunction,ViaPad*%
%ADD17C,0.800000*%
%TD*%
G04 APERTURE END LIST*
D10*
X118250000Y-82250000D02*
X123000000Y-82250000D01*
X123000000Y-82250000D02*
X123000000Y-90000000D01*
X123000000Y-90000000D02*
X118250000Y-90000000D01*
X118250000Y-90000000D02*
X118250000Y-82250000D01*
D11*
%TO.P,PinCon1,1,Pin_1*%
%TO.N,Motor2_A*%
X93500000Y-74250000D03*
D12*
%TO.P,PinCon1,2,Pin_2*%
%TO.N,PC6-9 PWM1*%
X90960000Y-74250000D03*
%TO.P,PinCon1,3,Pin_3*%
%TO.N,Motor2_B*%
X93500000Y-76790000D03*
%TO.P,PinCon1,4,Pin_4*%
%TO.N,PC6-9 PWM2*%
X90960000Y-76790000D03*
%TO.P,PinCon1,5,Pin_5*%
%TO.N,GND*%
X93500000Y-79330000D03*
%TO.P,PinCon1,6,Pin_6*%
X90960000Y-79330000D03*
%TO.P,PinCon1,7,Pin_7*%
%TO.N,BATT_1*%
X93500000Y-81870000D03*
%TO.P,PinCon1,8,Pin_8*%
X90960000Y-81870000D03*
%TO.P,PinCon1,9,Pin_9*%
%TO.N,Reserve*%
X93500000Y-84410000D03*
%TO.P,PinCon1,10,Pin_10*%
%TO.N,BATT_ADC*%
X90960000Y-84410000D03*
%TO.P,PinCon1,11,Pin_11*%
%TO.N,5V_1*%
X93500000Y-86950000D03*
%TO.P,PinCon1,12,Pin_12*%
X90960000Y-86950000D03*
%TO.P,PinCon1,13,Pin_13*%
%TO.N,Motor1_A*%
X93500000Y-89490000D03*
%TO.P,PinCon1,14,Pin_14*%
%TO.N,PC6-9 PWM3*%
X90960000Y-89490000D03*
%TO.P,PinCon1,15,Pin_15*%
%TO.N,Motor1_B*%
X93500000Y-92030000D03*
%TO.P,PinCon1,16,Pin_16*%
%TO.N,PC6-9 PWM4*%
X90960000Y-92030000D03*
%TD*%
D13*
%TO.P,J2,1,Pin_1*%
%TO.N,Net-(J2-Pad1)*%
X120005000Y-98445000D03*
D14*
%TO.P,J2,2,Pin_2*%
%TO.N,GND*%
X122005000Y-98445000D03*
%TD*%
D15*
%TO.P,SB1,1*%
%TO.N,Net-(JP_SB_Bat1-Pad2)*%
X108665000Y-95000000D03*
D16*
%TO.P,SB1,2*%
%TO.N,Net-(JP_SB1-Pad2)*%
X103965000Y-95000000D03*
%TO.P,SB1,3*%
%TO.N,unconnected-(SB1-Pad3)*%
X99265000Y-95000000D03*
%TD*%
D17*
%TO.N,GND*%
X107500000Y-76500000D03*
X108465000Y-72500000D03*
X112965000Y-79250000D03*
X88500000Y-87000000D03*
X95965000Y-81500000D03*
X124000000Y-86500000D03*
X115215000Y-71500000D03*
X121465000Y-72250000D03*
X117250000Y-76000000D03*
X105465000Y-84250000D03*
X107465000Y-65250000D03*
%TD*%
%TA.AperFunction,Conductor*%
%TO.N,GND*%
G36*
X124441621Y-63020502D02*
G01*
X124488114Y-63074158D01*
X124499500Y-63126500D01*
X124499500Y-102873500D01*
X124479498Y-102941621D01*
X124425842Y-102988114D01*
X124373500Y-102999500D01*
X104626500Y-102999500D01*
X104558379Y-102979498D01*
X104511886Y-102925842D01*
X104500500Y-102873500D01*
X104500500Y-99508574D01*
X104500502Y-99507804D01*
X104500914Y-99440350D01*
X104500969Y-99431376D01*
X104493007Y-99403518D01*
X104489429Y-99386757D01*
X104486596Y-99366971D01*
X104486596Y-99366970D01*
X104485323Y-99358082D01*
X104474925Y-99335212D01*
X104468477Y-99317688D01*
X104464038Y-99302155D01*
X104464036Y-99302151D01*
X104461572Y-99293529D01*
X104446111Y-99269024D01*
X104437974Y-99253942D01*
X104429702Y-99235748D01*
X104429700Y-99235745D01*
X104425984Y-99227572D01*
X104409581Y-99208536D01*
X104398473Y-99193523D01*
X104385070Y-99172280D01*
X104378341Y-99166337D01*
X104378339Y-99166335D01*
X104363356Y-99153103D01*
X104351310Y-99140909D01*
X104338260Y-99125764D01*
X104333178Y-99119866D01*
X118904500Y-99119866D01*
X118904837Y-99123112D01*
X118904837Y-99123116D01*
X118913701Y-99208537D01*
X118915359Y-99224519D01*
X118970744Y-99390529D01*
X119062834Y-99539345D01*
X119186689Y-99662984D01*
X119335666Y-99754814D01*
X119342614Y-99757119D01*
X119342615Y-99757119D01*
X119495241Y-99807744D01*
X119495243Y-99807745D01*
X119501772Y-99809910D01*
X119605134Y-99820500D01*
X120404866Y-99820500D01*
X120408112Y-99820163D01*
X120408116Y-99820163D01*
X120502661Y-99810353D01*
X120502665Y-99810352D01*
X120509519Y-99809641D01*
X120516055Y-99807460D01*
X120516057Y-99807460D01*
X120668581Y-99756574D01*
X120675529Y-99754256D01*
X120824345Y-99662166D01*
X120947984Y-99538311D01*
X120981087Y-99484608D01*
X121033858Y-99437114D01*
X121103930Y-99425690D01*
X121169054Y-99453963D01*
X121187431Y-99472888D01*
X121195259Y-99482853D01*
X121203499Y-99491506D01*
X121354123Y-99622212D01*
X121363847Y-99629147D01*
X121536467Y-99729010D01*
X121547331Y-99733984D01*
X121735727Y-99799407D01*
X121736716Y-99799648D01*
X121747008Y-99798180D01*
X121751000Y-99784615D01*
X121751000Y-99780402D01*
X122259000Y-99780402D01*
X122262973Y-99793933D01*
X122272399Y-99795288D01*
X122361537Y-99773806D01*
X122372832Y-99769917D01*
X122554382Y-99687371D01*
X122564724Y-99681424D01*
X122727397Y-99566032D01*
X122736425Y-99558239D01*
X122874342Y-99414169D01*
X122881738Y-99404804D01*
X122989921Y-99237259D01*
X122995417Y-99226655D01*
X123069961Y-99041688D01*
X123073355Y-99030230D01*
X123111857Y-98833072D01*
X123112934Y-98824209D01*
X123113000Y-98821500D01*
X123113000Y-98717115D01*
X123108525Y-98701876D01*
X123107135Y-98700671D01*
X123099452Y-98699000D01*
X122277115Y-98699000D01*
X122261876Y-98703475D01*
X122260671Y-98704865D01*
X122259000Y-98712548D01*
X122259000Y-99780402D01*
X121751000Y-99780402D01*
X121751000Y-98172885D01*
X122259000Y-98172885D01*
X122263475Y-98188124D01*
X122264865Y-98189329D01*
X122272548Y-98191000D01*
X123094885Y-98191000D01*
X123110124Y-98186525D01*
X123111329Y-98185135D01*
X123113000Y-98177452D01*
X123113000Y-98120168D01*
X123112715Y-98114192D01*
X123098529Y-97965506D01*
X123096270Y-97953772D01*
X123040128Y-97762401D01*
X123035698Y-97751325D01*
X122944381Y-97574022D01*
X122937931Y-97563976D01*
X122814738Y-97407143D01*
X122806501Y-97398494D01*
X122655877Y-97267788D01*
X122646153Y-97260853D01*
X122473533Y-97160990D01*
X122462669Y-97156016D01*
X122274273Y-97090593D01*
X122273284Y-97090352D01*
X122262992Y-97091820D01*
X122259000Y-97105385D01*
X122259000Y-98172885D01*
X121751000Y-98172885D01*
X121751000Y-97109598D01*
X121747027Y-97096067D01*
X121737601Y-97094712D01*
X121648463Y-97116194D01*
X121637168Y-97120083D01*
X121455618Y-97202629D01*
X121445276Y-97208576D01*
X121282603Y-97323968D01*
X121273575Y-97331761D01*
X121180751Y-97428726D01*
X121119196Y-97464102D01*
X121048286Y-97460583D01*
X120990536Y-97419286D01*
X120982589Y-97407898D01*
X120951020Y-97356883D01*
X120947166Y-97350655D01*
X120823311Y-97227016D01*
X120674334Y-97135186D01*
X120617076Y-97116194D01*
X120514759Y-97082256D01*
X120514757Y-97082255D01*
X120508228Y-97080090D01*
X120404866Y-97069500D01*
X119605134Y-97069500D01*
X119601888Y-97069837D01*
X119601884Y-97069837D01*
X119507339Y-97079647D01*
X119507335Y-97079648D01*
X119500481Y-97080359D01*
X119493945Y-97082540D01*
X119493943Y-97082540D01*
X119393070Y-97116194D01*
X119334471Y-97135744D01*
X119185655Y-97227834D01*
X119062016Y-97351689D01*
X118970186Y-97500666D01*
X118967881Y-97507614D01*
X118967881Y-97507615D01*
X118949187Y-97563976D01*
X118915090Y-97666772D01*
X118904500Y-97770134D01*
X118904500Y-99119866D01*
X104333178Y-99119866D01*
X104332400Y-99118963D01*
X104311314Y-99105296D01*
X104296444Y-99094009D01*
X104284338Y-99083317D01*
X104284337Y-99083317D01*
X104277612Y-99077377D01*
X104251391Y-99065066D01*
X104236413Y-99056746D01*
X104219631Y-99045869D01*
X104219628Y-99045868D01*
X104212095Y-99040985D01*
X104188019Y-99033785D01*
X104170589Y-99027129D01*
X104147837Y-99016447D01*
X104119213Y-99011990D01*
X104102495Y-99008207D01*
X104083340Y-99002478D01*
X104083332Y-99002477D01*
X104074739Y-98999907D01*
X104065768Y-98999852D01*
X104065767Y-98999852D01*
X104061038Y-98999823D01*
X104040818Y-98999699D01*
X104040075Y-98999668D01*
X104038991Y-98999500D01*
X104008574Y-98999500D01*
X104007804Y-98999498D01*
X104007191Y-98999494D01*
X103931376Y-98999031D01*
X103930047Y-98999411D01*
X103928737Y-98999500D01*
X86626500Y-98999500D01*
X86558379Y-98979498D01*
X86511886Y-98925842D01*
X86500500Y-98873500D01*
X86500500Y-94940545D01*
X97373111Y-94940545D01*
X97383608Y-95207708D01*
X97431644Y-95470726D01*
X97516260Y-95724352D01*
X97635768Y-95963525D01*
X97787783Y-96183474D01*
X97969273Y-96379809D01*
X97972727Y-96382621D01*
X98173160Y-96545799D01*
X98173164Y-96545802D01*
X98176617Y-96548613D01*
X98405676Y-96686518D01*
X98409771Y-96688252D01*
X98409773Y-96688253D01*
X98647781Y-96789036D01*
X98647788Y-96789038D01*
X98651882Y-96790772D01*
X98746999Y-96815992D01*
X98906023Y-96858157D01*
X98906028Y-96858158D01*
X98910320Y-96859296D01*
X98914729Y-96859818D01*
X98914735Y-96859819D01*
X99089092Y-96880455D01*
X99175836Y-96890722D01*
X99443130Y-96884423D01*
X99525685Y-96870682D01*
X99702481Y-96841255D01*
X99702485Y-96841254D01*
X99706871Y-96840524D01*
X99711112Y-96839183D01*
X99711115Y-96839182D01*
X99957549Y-96761245D01*
X99957551Y-96761244D01*
X99961795Y-96759902D01*
X99965806Y-96757976D01*
X99965811Y-96757974D01*
X100198797Y-96646096D01*
X100198798Y-96646095D01*
X100202816Y-96644166D01*
X100350033Y-96545799D01*
X100421417Y-96498102D01*
X100421421Y-96498099D01*
X100425125Y-96495624D01*
X100624286Y-96317240D01*
X100796326Y-96112573D01*
X100937812Y-95885708D01*
X101045921Y-95641171D01*
X101093991Y-95470726D01*
X101117284Y-95388135D01*
X101117285Y-95388131D01*
X101118495Y-95383840D01*
X101154088Y-95118851D01*
X101157823Y-95000000D01*
X101153614Y-94940545D01*
X102073111Y-94940545D01*
X102083608Y-95207708D01*
X102131644Y-95470726D01*
X102216260Y-95724352D01*
X102335768Y-95963525D01*
X102487783Y-96183474D01*
X102669273Y-96379809D01*
X102672727Y-96382621D01*
X102873160Y-96545799D01*
X102873164Y-96545802D01*
X102876617Y-96548613D01*
X103105676Y-96686518D01*
X103109771Y-96688252D01*
X103109773Y-96688253D01*
X103347781Y-96789036D01*
X103347788Y-96789038D01*
X103351882Y-96790772D01*
X103446999Y-96815992D01*
X103606023Y-96858157D01*
X103606028Y-96858158D01*
X103610320Y-96859296D01*
X103614729Y-96859818D01*
X103614735Y-96859819D01*
X103789092Y-96880455D01*
X103875836Y-96890722D01*
X104143130Y-96884423D01*
X104225685Y-96870682D01*
X104402481Y-96841255D01*
X104402485Y-96841254D01*
X104406871Y-96840524D01*
X104411112Y-96839183D01*
X104411115Y-96839182D01*
X104657549Y-96761245D01*
X104657551Y-96761244D01*
X104661795Y-96759902D01*
X104665806Y-96757976D01*
X104665811Y-96757974D01*
X104898797Y-96646096D01*
X104898798Y-96646095D01*
X104902816Y-96644166D01*
X105050033Y-96545799D01*
X105121417Y-96498102D01*
X105121421Y-96498099D01*
X105125125Y-96495624D01*
X105324286Y-96317240D01*
X105496326Y-96112573D01*
X105637812Y-95885708D01*
X105745921Y-95641171D01*
X105793991Y-95470726D01*
X105817284Y-95388135D01*
X105817285Y-95388131D01*
X105818495Y-95383840D01*
X105854088Y-95118851D01*
X105857823Y-95000000D01*
X105853614Y-94940545D01*
X105839255Y-94737748D01*
X105838940Y-94733299D01*
X105782666Y-94471919D01*
X105763297Y-94419415D01*
X105691666Y-94225253D01*
X105690125Y-94221076D01*
X105563163Y-93985775D01*
X105404314Y-93770710D01*
X105216746Y-93580173D01*
X105213207Y-93577472D01*
X105213200Y-93577466D01*
X105197027Y-93565123D01*
X106777000Y-93565123D01*
X106777001Y-96434876D01*
X106783649Y-96496080D01*
X106833974Y-96630324D01*
X106839354Y-96637503D01*
X106839356Y-96637506D01*
X106914572Y-96737865D01*
X106919954Y-96745046D01*
X106927135Y-96750428D01*
X107027494Y-96825644D01*
X107027497Y-96825646D01*
X107034676Y-96831026D01*
X107111483Y-96859819D01*
X107161525Y-96878579D01*
X107161527Y-96878579D01*
X107168920Y-96881351D01*
X107176770Y-96882204D01*
X107176771Y-96882204D01*
X107226717Y-96887630D01*
X107230123Y-96888000D01*
X108664790Y-96888000D01*
X110099876Y-96887999D01*
X110103270Y-96887630D01*
X110103276Y-96887630D01*
X110153222Y-96882205D01*
X110153226Y-96882204D01*
X110161080Y-96881351D01*
X110295324Y-96831026D01*
X110302503Y-96825646D01*
X110302506Y-96825644D01*
X110402865Y-96750428D01*
X110410046Y-96745046D01*
X110415428Y-96737865D01*
X110490644Y-96637506D01*
X110490646Y-96637503D01*
X110496026Y-96630324D01*
X110546351Y-96496080D01*
X110553000Y-96434877D01*
X110552999Y-93565124D01*
X110552630Y-93561724D01*
X110547205Y-93511778D01*
X110547204Y-93511774D01*
X110546351Y-93503920D01*
X110496026Y-93369676D01*
X110490646Y-93362497D01*
X110490644Y-93362494D01*
X110415428Y-93262135D01*
X110410046Y-93254954D01*
X110402865Y-93249572D01*
X110302506Y-93174356D01*
X110302503Y-93174354D01*
X110295324Y-93168974D01*
X110195326Y-93131487D01*
X110168475Y-93121421D01*
X110168473Y-93121421D01*
X110161080Y-93118649D01*
X110153230Y-93117796D01*
X110153229Y-93117796D01*
X110103274Y-93112369D01*
X110103273Y-93112369D01*
X110099877Y-93112000D01*
X108665210Y-93112000D01*
X107230124Y-93112001D01*
X107226730Y-93112370D01*
X107226724Y-93112370D01*
X107176778Y-93117795D01*
X107176774Y-93117796D01*
X107168920Y-93118649D01*
X107034676Y-93168974D01*
X107027497Y-93174354D01*
X107027494Y-93174356D01*
X106927135Y-93249572D01*
X106919954Y-93254954D01*
X106914572Y-93262135D01*
X106839356Y-93362494D01*
X106839354Y-93362497D01*
X106833974Y-93369676D01*
X106783649Y-93503920D01*
X106777000Y-93565123D01*
X105197027Y-93565123D01*
X105007743Y-93420667D01*
X105004203Y-93417965D01*
X104907197Y-93363639D01*
X104774816Y-93289502D01*
X104774815Y-93289502D01*
X104770925Y-93287323D01*
X104703854Y-93261375D01*
X104525721Y-93192460D01*
X104525715Y-93192458D01*
X104521566Y-93190853D01*
X104517234Y-93189849D01*
X104517231Y-93189848D01*
X104410545Y-93165120D01*
X104261103Y-93130481D01*
X103994731Y-93107411D01*
X103990296Y-93107655D01*
X103990292Y-93107655D01*
X103872918Y-93114114D01*
X103727766Y-93122102D01*
X103465535Y-93174264D01*
X103374136Y-93206361D01*
X103217477Y-93261375D01*
X103217474Y-93261376D01*
X103213269Y-93262853D01*
X103209316Y-93264906D01*
X103209310Y-93264909D01*
X103131505Y-93305326D01*
X102976003Y-93386103D01*
X102972388Y-93388686D01*
X102972382Y-93388690D01*
X102934464Y-93415787D01*
X102758469Y-93541555D01*
X102755242Y-93544633D01*
X102755240Y-93544635D01*
X102717987Y-93580173D01*
X102565009Y-93726106D01*
X102399483Y-93936076D01*
X102265193Y-94167273D01*
X102263525Y-94171390D01*
X102263522Y-94171397D01*
X102166492Y-94410953D01*
X102164818Y-94415086D01*
X102100362Y-94674569D01*
X102073111Y-94940545D01*
X101153614Y-94940545D01*
X101139255Y-94737748D01*
X101138940Y-94733299D01*
X101082666Y-94471919D01*
X101063297Y-94419415D01*
X100991666Y-94225253D01*
X100990125Y-94221076D01*
X100863163Y-93985775D01*
X100704314Y-93770710D01*
X100516746Y-93580173D01*
X100513207Y-93577472D01*
X100513200Y-93577466D01*
X100307743Y-93420667D01*
X100304203Y-93417965D01*
X100207197Y-93363639D01*
X100074816Y-93289502D01*
X100074815Y-93289502D01*
X100070925Y-93287323D01*
X100003854Y-93261375D01*
X99825721Y-93192460D01*
X99825715Y-93192458D01*
X99821566Y-93190853D01*
X99817234Y-93189849D01*
X99817231Y-93189848D01*
X99710545Y-93165120D01*
X99561103Y-93130481D01*
X99294731Y-93107411D01*
X99290296Y-93107655D01*
X99290292Y-93107655D01*
X99172918Y-93114114D01*
X99027766Y-93122102D01*
X98765535Y-93174264D01*
X98674136Y-93206361D01*
X98517477Y-93261375D01*
X98517474Y-93261376D01*
X98513269Y-93262853D01*
X98509316Y-93264906D01*
X98509310Y-93264909D01*
X98431505Y-93305326D01*
X98276003Y-93386103D01*
X98272388Y-93388686D01*
X98272382Y-93388690D01*
X98234464Y-93415787D01*
X98058469Y-93541555D01*
X98055242Y-93544633D01*
X98055240Y-93544635D01*
X98017987Y-93580173D01*
X97865009Y-93726106D01*
X97699483Y-93936076D01*
X97565193Y-94167273D01*
X97563525Y-94171390D01*
X97563522Y-94171397D01*
X97466492Y-94410953D01*
X97464818Y-94415086D01*
X97400362Y-94674569D01*
X97373111Y-94940545D01*
X86500500Y-94940545D01*
X86500500Y-92030000D01*
X89604341Y-92030000D01*
X89624937Y-92265408D01*
X89686097Y-92493663D01*
X89688419Y-92498643D01*
X89688420Y-92498645D01*
X89770121Y-92673851D01*
X89785965Y-92707829D01*
X89921505Y-92901401D01*
X90088599Y-93068495D01*
X90093107Y-93071652D01*
X90093110Y-93071654D01*
X90239784Y-93174356D01*
X90282170Y-93204035D01*
X90287152Y-93206358D01*
X90287157Y-93206361D01*
X90460781Y-93287323D01*
X90496337Y-93303903D01*
X90501645Y-93305325D01*
X90501647Y-93305326D01*
X90715004Y-93362494D01*
X90724592Y-93365063D01*
X90960000Y-93385659D01*
X91195408Y-93365063D01*
X91204996Y-93362494D01*
X91418353Y-93305326D01*
X91418355Y-93305325D01*
X91423663Y-93303903D01*
X91459219Y-93287323D01*
X91632843Y-93206361D01*
X91632848Y-93206358D01*
X91637830Y-93204035D01*
X91680216Y-93174356D01*
X91826890Y-93071654D01*
X91826893Y-93071652D01*
X91831401Y-93068495D01*
X91998495Y-92901401D01*
X92126787Y-92718180D01*
X92182244Y-92673851D01*
X92252863Y-92666542D01*
X92316224Y-92698572D01*
X92333212Y-92718179D01*
X92461505Y-92901401D01*
X92628599Y-93068495D01*
X92633107Y-93071652D01*
X92633110Y-93071654D01*
X92779784Y-93174356D01*
X92822170Y-93204035D01*
X92827152Y-93206358D01*
X92827157Y-93206361D01*
X93000781Y-93287323D01*
X93036337Y-93303903D01*
X93041645Y-93305325D01*
X93041647Y-93305326D01*
X93255004Y-93362494D01*
X93264592Y-93365063D01*
X93500000Y-93385659D01*
X93735408Y-93365063D01*
X93744996Y-93362494D01*
X93958353Y-93305326D01*
X93958355Y-93305325D01*
X93963663Y-93303903D01*
X93999219Y-93287323D01*
X94172843Y-93206361D01*
X94172848Y-93206358D01*
X94177830Y-93204035D01*
X94220216Y-93174356D01*
X94366890Y-93071654D01*
X94366893Y-93071652D01*
X94371401Y-93068495D01*
X94538495Y-92901401D01*
X94674035Y-92707829D01*
X94689880Y-92673851D01*
X94771580Y-92498645D01*
X94771581Y-92498643D01*
X94773903Y-92493663D01*
X94835063Y-92265408D01*
X94855659Y-92030000D01*
X94835063Y-91794592D01*
X94773903Y-91566337D01*
X94693288Y-91393458D01*
X94676358Y-91357152D01*
X94676356Y-91357149D01*
X94674035Y-91352171D01*
X94538495Y-91158599D01*
X94371401Y-90991505D01*
X94366893Y-90988348D01*
X94366890Y-90988346D01*
X94239408Y-90899082D01*
X94188181Y-90863213D01*
X94143853Y-90807756D01*
X94136544Y-90737137D01*
X94168575Y-90673776D01*
X94188181Y-90656787D01*
X94366890Y-90531654D01*
X94366893Y-90531652D01*
X94371401Y-90528495D01*
X94538495Y-90361401D01*
X94674035Y-90167829D01*
X94689880Y-90133851D01*
X94752296Y-90000000D01*
X117644318Y-90000000D01*
X117649500Y-90039361D01*
X117664956Y-90156762D01*
X117725464Y-90302841D01*
X117821718Y-90428282D01*
X117947159Y-90524536D01*
X118093238Y-90585044D01*
X118250000Y-90605682D01*
X118258188Y-90604604D01*
X118281173Y-90601578D01*
X118297619Y-90600500D01*
X122952381Y-90600500D01*
X122968827Y-90601578D01*
X123000000Y-90605682D01*
X123008188Y-90604604D01*
X123039361Y-90600500D01*
X123148574Y-90586122D01*
X123156762Y-90585044D01*
X123302841Y-90524536D01*
X123428282Y-90428282D01*
X123524536Y-90302841D01*
X123585044Y-90156762D01*
X123605682Y-90000000D01*
X123601578Y-89968827D01*
X123600500Y-89952381D01*
X123600500Y-82297619D01*
X123601578Y-82281173D01*
X123604604Y-82258188D01*
X123605682Y-82250000D01*
X123585044Y-82093238D01*
X123524536Y-81947159D01*
X123428282Y-81821718D01*
X123302841Y-81725464D01*
X123156762Y-81664956D01*
X123039361Y-81649500D01*
X123000000Y-81644318D01*
X122991812Y-81645396D01*
X122968827Y-81648422D01*
X122952381Y-81649500D01*
X118297619Y-81649500D01*
X118281173Y-81648422D01*
X118258188Y-81645396D01*
X118250000Y-81644318D01*
X118210639Y-81649500D01*
X118093238Y-81664956D01*
X117947159Y-81725464D01*
X117821718Y-81821718D01*
X117725464Y-81947159D01*
X117664956Y-82093238D01*
X117644318Y-82250000D01*
X117645396Y-82258188D01*
X117648422Y-82281173D01*
X117649500Y-82297619D01*
X117649500Y-89952381D01*
X117648422Y-89968827D01*
X117644318Y-90000000D01*
X94752296Y-90000000D01*
X94771580Y-89958645D01*
X94771581Y-89958643D01*
X94773903Y-89953663D01*
X94835063Y-89725408D01*
X94855659Y-89490000D01*
X94835063Y-89254592D01*
X94773903Y-89026337D01*
X94693288Y-88853458D01*
X94676358Y-88817152D01*
X94676356Y-88817149D01*
X94674035Y-88812171D01*
X94538495Y-88618599D01*
X94371401Y-88451505D01*
X94366893Y-88448348D01*
X94366890Y-88448346D01*
X94193084Y-88326646D01*
X94188181Y-88323213D01*
X94143853Y-88267756D01*
X94136544Y-88197137D01*
X94168575Y-88133776D01*
X94188181Y-88116787D01*
X94366890Y-87991654D01*
X94366893Y-87991652D01*
X94371401Y-87988495D01*
X94538495Y-87821401D01*
X94674035Y-87627829D01*
X94689880Y-87593851D01*
X94771580Y-87418645D01*
X94771581Y-87418643D01*
X94773903Y-87413663D01*
X94791565Y-87347749D01*
X94833639Y-87190723D01*
X94833639Y-87190722D01*
X94835063Y-87185408D01*
X94855659Y-86950000D01*
X94835063Y-86714592D01*
X94773903Y-86486337D01*
X94693288Y-86313458D01*
X94676358Y-86277152D01*
X94676356Y-86277149D01*
X94674035Y-86272171D01*
X94538495Y-86078599D01*
X94371401Y-85911505D01*
X94366893Y-85908348D01*
X94366890Y-85908346D01*
X94239408Y-85819082D01*
X94188181Y-85783213D01*
X94143853Y-85727756D01*
X94136544Y-85657137D01*
X94168575Y-85593776D01*
X94188181Y-85576787D01*
X94366890Y-85451654D01*
X94366893Y-85451652D01*
X94371401Y-85448495D01*
X94538495Y-85281401D01*
X94674035Y-85087829D01*
X94689880Y-85053851D01*
X94771580Y-84878645D01*
X94771581Y-84878643D01*
X94773903Y-84873663D01*
X94835063Y-84645408D01*
X94855659Y-84410000D01*
X94835063Y-84174592D01*
X94828180Y-84148903D01*
X94775326Y-83951647D01*
X94775325Y-83951645D01*
X94773903Y-83946337D01*
X94739216Y-83871951D01*
X94676358Y-83737152D01*
X94676356Y-83737149D01*
X94674035Y-83732171D01*
X94538495Y-83538599D01*
X94371401Y-83371505D01*
X94366893Y-83368348D01*
X94366890Y-83368346D01*
X94239408Y-83279082D01*
X94188181Y-83243213D01*
X94143853Y-83187756D01*
X94136544Y-83117137D01*
X94168575Y-83053776D01*
X94188181Y-83036787D01*
X94366890Y-82911654D01*
X94366893Y-82911652D01*
X94371401Y-82908495D01*
X94538495Y-82741401D01*
X94674035Y-82547829D01*
X94689880Y-82513851D01*
X94771580Y-82338645D01*
X94771581Y-82338643D01*
X94773903Y-82333663D01*
X94787968Y-82281173D01*
X94833639Y-82110723D01*
X94833639Y-82110722D01*
X94835063Y-82105408D01*
X94855659Y-81870000D01*
X94835063Y-81634592D01*
X94773903Y-81406337D01*
X94693288Y-81233458D01*
X94676358Y-81197152D01*
X94676356Y-81197149D01*
X94674035Y-81192171D01*
X94538495Y-80998599D01*
X94371401Y-80831505D01*
X94366893Y-80828348D01*
X94366890Y-80828346D01*
X94195336Y-80708223D01*
X94151008Y-80652766D01*
X94143699Y-80582147D01*
X94175730Y-80518786D01*
X94198019Y-80500860D01*
X94197737Y-80500465D01*
X94375328Y-80373792D01*
X94383200Y-80367139D01*
X94534052Y-80216812D01*
X94540730Y-80208965D01*
X94665003Y-80036020D01*
X94670313Y-80027183D01*
X94764670Y-79836267D01*
X94768469Y-79826672D01*
X94830377Y-79622910D01*
X94832555Y-79612837D01*
X94833986Y-79601962D01*
X94831775Y-79587778D01*
X94818617Y-79584000D01*
X89643225Y-79584000D01*
X89629694Y-79587973D01*
X89628257Y-79597966D01*
X89658565Y-79732446D01*
X89661645Y-79742275D01*
X89741770Y-79939603D01*
X89746413Y-79948794D01*
X89857694Y-80130388D01*
X89863777Y-80138699D01*
X90003213Y-80299667D01*
X90010580Y-80306883D01*
X90174434Y-80442916D01*
X90182876Y-80448828D01*
X90259612Y-80493669D01*
X90308335Y-80545308D01*
X90321406Y-80615091D01*
X90294674Y-80680863D01*
X90268312Y-80705669D01*
X90088599Y-80831505D01*
X89921505Y-80998599D01*
X89785965Y-81192171D01*
X89783644Y-81197149D01*
X89783642Y-81197152D01*
X89766712Y-81233458D01*
X89686097Y-81406337D01*
X89624937Y-81634592D01*
X89604341Y-81870000D01*
X89624937Y-82105408D01*
X89626361Y-82110722D01*
X89626361Y-82110723D01*
X89672033Y-82281173D01*
X89686097Y-82333663D01*
X89688419Y-82338643D01*
X89688420Y-82338645D01*
X89770121Y-82513851D01*
X89785965Y-82547829D01*
X89921505Y-82741401D01*
X90088599Y-82908495D01*
X90093107Y-82911652D01*
X90093110Y-82911654D01*
X90271820Y-83036788D01*
X90316148Y-83092245D01*
X90323457Y-83162865D01*
X90291426Y-83226225D01*
X90271822Y-83243211D01*
X90088599Y-83371505D01*
X89921505Y-83538599D01*
X89785965Y-83732171D01*
X89783644Y-83737149D01*
X89783642Y-83737152D01*
X89720784Y-83871951D01*
X89686097Y-83946337D01*
X89684675Y-83951645D01*
X89684674Y-83951647D01*
X89631820Y-84148903D01*
X89624937Y-84174592D01*
X89604341Y-84410000D01*
X89624937Y-84645408D01*
X89686097Y-84873663D01*
X89688419Y-84878643D01*
X89688420Y-84878645D01*
X89770121Y-85053851D01*
X89785965Y-85087829D01*
X89921505Y-85281401D01*
X90088599Y-85448495D01*
X90093107Y-85451652D01*
X90093110Y-85451654D01*
X90271820Y-85576788D01*
X90316148Y-85632245D01*
X90323457Y-85702865D01*
X90291426Y-85766225D01*
X90271822Y-85783211D01*
X90088599Y-85911505D01*
X89921505Y-86078599D01*
X89785965Y-86272171D01*
X89783644Y-86277149D01*
X89783642Y-86277152D01*
X89766712Y-86313458D01*
X89686097Y-86486337D01*
X89624937Y-86714592D01*
X89604341Y-86950000D01*
X89624937Y-87185408D01*
X89626361Y-87190722D01*
X89626361Y-87190723D01*
X89668436Y-87347749D01*
X89686097Y-87413663D01*
X89688419Y-87418643D01*
X89688420Y-87418645D01*
X89770121Y-87593851D01*
X89785965Y-87627829D01*
X89921505Y-87821401D01*
X90088599Y-87988495D01*
X90093107Y-87991652D01*
X90093110Y-87991654D01*
X90271820Y-88116788D01*
X90316148Y-88172245D01*
X90323457Y-88242865D01*
X90291426Y-88306225D01*
X90271822Y-88323211D01*
X90088599Y-88451505D01*
X89921505Y-88618599D01*
X89785965Y-88812171D01*
X89783644Y-88817149D01*
X89783642Y-88817152D01*
X89766712Y-88853458D01*
X89686097Y-89026337D01*
X89624937Y-89254592D01*
X89604341Y-89490000D01*
X89624937Y-89725408D01*
X89686097Y-89953663D01*
X89688419Y-89958643D01*
X89688420Y-89958645D01*
X89770121Y-90133851D01*
X89785965Y-90167829D01*
X89921505Y-90361401D01*
X90088599Y-90528495D01*
X90093107Y-90531652D01*
X90093110Y-90531654D01*
X90271820Y-90656788D01*
X90316148Y-90712245D01*
X90323457Y-90782865D01*
X90291426Y-90846225D01*
X90271822Y-90863211D01*
X90088599Y-90991505D01*
X89921505Y-91158599D01*
X89785965Y-91352171D01*
X89783644Y-91357149D01*
X89783642Y-91357152D01*
X89766712Y-91393458D01*
X89686097Y-91566337D01*
X89624937Y-91794592D01*
X89604341Y-92030000D01*
X86500500Y-92030000D01*
X86500500Y-76790000D01*
X89604341Y-76790000D01*
X89624937Y-77025408D01*
X89686097Y-77253663D01*
X89688419Y-77258643D01*
X89688420Y-77258645D01*
X89770121Y-77433851D01*
X89785965Y-77467829D01*
X89921505Y-77661401D01*
X90088599Y-77828495D01*
X90093107Y-77831652D01*
X90093110Y-77831654D01*
X90265880Y-77952629D01*
X90310208Y-78008086D01*
X90317517Y-78078706D01*
X90285486Y-78142066D01*
X90251790Y-78167605D01*
X90238458Y-78174545D01*
X90229738Y-78180036D01*
X90059433Y-78307905D01*
X90051726Y-78314748D01*
X89904590Y-78468717D01*
X89898104Y-78476727D01*
X89778098Y-78652649D01*
X89773000Y-78661623D01*
X89683338Y-78854783D01*
X89679775Y-78864470D01*
X89624389Y-79064183D01*
X89625912Y-79072607D01*
X89638292Y-79076000D01*
X94818344Y-79076000D01*
X94831875Y-79072027D01*
X94833180Y-79062947D01*
X94791214Y-78895875D01*
X94787894Y-78886124D01*
X94702972Y-78690814D01*
X94698105Y-78681739D01*
X94582426Y-78502926D01*
X94576136Y-78494757D01*
X94432806Y-78337240D01*
X94425273Y-78330215D01*
X94258139Y-78198222D01*
X94249557Y-78192520D01*
X94203863Y-78167296D01*
X94153892Y-78116864D01*
X94139120Y-78047421D01*
X94164236Y-77981015D01*
X94192485Y-77953774D01*
X94366890Y-77831654D01*
X94366893Y-77831652D01*
X94371401Y-77828495D01*
X94538495Y-77661401D01*
X94674035Y-77467829D01*
X94689880Y-77433851D01*
X94771580Y-77258645D01*
X94771581Y-77258643D01*
X94773903Y-77253663D01*
X94835063Y-77025408D01*
X94855659Y-76790000D01*
X94835063Y-76554592D01*
X94773903Y-76326337D01*
X94693288Y-76153458D01*
X94676358Y-76117152D01*
X94676356Y-76117149D01*
X94674035Y-76112171D01*
X94538495Y-75918599D01*
X94418885Y-75798989D01*
X94384859Y-75736677D01*
X94389924Y-75665862D01*
X94432471Y-75609026D01*
X94463752Y-75591912D01*
X94584419Y-75546677D01*
X94584420Y-75546676D01*
X94592824Y-75543526D01*
X94600003Y-75538146D01*
X94600006Y-75538144D01*
X94700365Y-75462928D01*
X94707546Y-75457546D01*
X94725361Y-75433776D01*
X94788144Y-75350006D01*
X94788146Y-75350003D01*
X94793526Y-75342824D01*
X94843851Y-75208580D01*
X94846688Y-75182471D01*
X94850131Y-75150774D01*
X94850131Y-75150773D01*
X94850500Y-75147377D01*
X94850499Y-73352624D01*
X94843851Y-73291420D01*
X94793526Y-73157176D01*
X94788146Y-73149997D01*
X94788144Y-73149994D01*
X94712928Y-73049635D01*
X94707546Y-73042454D01*
X94700365Y-73037072D01*
X94600006Y-72961856D01*
X94600003Y-72961854D01*
X94592824Y-72956474D01*
X94485821Y-72916361D01*
X94465975Y-72908921D01*
X94465973Y-72908921D01*
X94458580Y-72906149D01*
X94450730Y-72905296D01*
X94450729Y-72905296D01*
X94400774Y-72899869D01*
X94400773Y-72899869D01*
X94397377Y-72899500D01*
X93500132Y-72899500D01*
X92602624Y-72899501D01*
X92599230Y-72899870D01*
X92599224Y-72899870D01*
X92549278Y-72905295D01*
X92549274Y-72905296D01*
X92541420Y-72906149D01*
X92407176Y-72956474D01*
X92399997Y-72961854D01*
X92399994Y-72961856D01*
X92299635Y-73037072D01*
X92292454Y-73042454D01*
X92287072Y-73049635D01*
X92211856Y-73149994D01*
X92211854Y-73149997D01*
X92206474Y-73157176D01*
X92203324Y-73165580D01*
X92203323Y-73165581D01*
X92186107Y-73211505D01*
X92158924Y-73284019D01*
X92158088Y-73286248D01*
X92115447Y-73343013D01*
X92048886Y-73367714D01*
X91979537Y-73352507D01*
X91951011Y-73331115D01*
X91831401Y-73211505D01*
X91826893Y-73208348D01*
X91826890Y-73208346D01*
X91642339Y-73079122D01*
X91642336Y-73079120D01*
X91637830Y-73075965D01*
X91632848Y-73073642D01*
X91632843Y-73073639D01*
X91428645Y-72978420D01*
X91428644Y-72978419D01*
X91423663Y-72976097D01*
X91418355Y-72974675D01*
X91418353Y-72974674D01*
X91200723Y-72916361D01*
X91200722Y-72916361D01*
X91195408Y-72914937D01*
X90960000Y-72894341D01*
X90724592Y-72914937D01*
X90719278Y-72916361D01*
X90719277Y-72916361D01*
X90501647Y-72974674D01*
X90501645Y-72974675D01*
X90496337Y-72976097D01*
X90491357Y-72978419D01*
X90491355Y-72978420D01*
X90287152Y-73073642D01*
X90287149Y-73073644D01*
X90282171Y-73075965D01*
X90088599Y-73211505D01*
X89921505Y-73378599D01*
X89785965Y-73572171D01*
X89686097Y-73786337D01*
X89624937Y-74014592D01*
X89604341Y-74250000D01*
X89624937Y-74485408D01*
X89686097Y-74713663D01*
X89785965Y-74927829D01*
X89921505Y-75121401D01*
X90088599Y-75288495D01*
X90093107Y-75291652D01*
X90093110Y-75291654D01*
X90271820Y-75416788D01*
X90316148Y-75472245D01*
X90323457Y-75542865D01*
X90291426Y-75606225D01*
X90271822Y-75623211D01*
X90088599Y-75751505D01*
X89921505Y-75918599D01*
X89785965Y-76112171D01*
X89783644Y-76117149D01*
X89783642Y-76117152D01*
X89766712Y-76153458D01*
X89686097Y-76326337D01*
X89624937Y-76554592D01*
X89604341Y-76790000D01*
X86500500Y-76790000D01*
X86500500Y-67126500D01*
X86520502Y-67058379D01*
X86574158Y-67011886D01*
X86626500Y-67000500D01*
X103991426Y-67000500D01*
X103992197Y-67000502D01*
X104068624Y-67000969D01*
X104096482Y-66993007D01*
X104113241Y-66989429D01*
X104122644Y-66988083D01*
X104133029Y-66986596D01*
X104133030Y-66986596D01*
X104141918Y-66985323D01*
X104150092Y-66981607D01*
X104150094Y-66981606D01*
X104164788Y-66974925D01*
X104182312Y-66968477D01*
X104197845Y-66964038D01*
X104197849Y-66964036D01*
X104206471Y-66961572D01*
X104230975Y-66946111D01*
X104246058Y-66937974D01*
X104264252Y-66929702D01*
X104264255Y-66929700D01*
X104272428Y-66925984D01*
X104291464Y-66909581D01*
X104306477Y-66898473D01*
X104327720Y-66885070D01*
X104333663Y-66878341D01*
X104333665Y-66878339D01*
X104346897Y-66863356D01*
X104359091Y-66851310D01*
X104374236Y-66838260D01*
X104381037Y-66832400D01*
X104394704Y-66811314D01*
X104405991Y-66796444D01*
X104416683Y-66784338D01*
X104416683Y-66784337D01*
X104422623Y-66777612D01*
X104434934Y-66751391D01*
X104443254Y-66736413D01*
X104454131Y-66719631D01*
X104454132Y-66719628D01*
X104459015Y-66712095D01*
X104466215Y-66688019D01*
X104472871Y-66670589D01*
X104483553Y-66647837D01*
X104488010Y-66619213D01*
X104491793Y-66602495D01*
X104497522Y-66583340D01*
X104497523Y-66583332D01*
X104500093Y-66574739D01*
X104500301Y-66540818D01*
X104500332Y-66540075D01*
X104500500Y-66538991D01*
X104500500Y-66508574D01*
X104500502Y-66507804D01*
X104500788Y-66461009D01*
X104500969Y-66431376D01*
X104500589Y-66430047D01*
X104500500Y-66428737D01*
X104500500Y-63126500D01*
X104520502Y-63058379D01*
X104574158Y-63011886D01*
X104626500Y-63000500D01*
X124373500Y-63000500D01*
X124441621Y-63020502D01*
G37*
%TD.AperFunction*%
%TD*%
M02*
