%TF.GenerationSoftware,KiCad,Pcbnew,(6.0.4-0)*%
%TF.CreationDate,2024-03-24T13:43:06+02:00*%
%TF.ProjectId,Project_PCB_v1,50726f6a-6563-4745-9f50-43425f76312e,rev?*%
%TF.SameCoordinates,Original*%
%TF.FileFunction,Copper,L1,Top*%
%TF.FilePolarity,Positive*%
%FSLAX46Y46*%
G04 Gerber Fmt 4.6, Leading zero omitted, Abs format (unit mm)*
G04 Created by KiCad (PCBNEW (6.0.4-0)) date 2024-03-24 13:43:06*
%MOMM*%
%LPD*%
G01*
G04 APERTURE LIST*
G04 Aperture macros list*
%AMRoundRect*
0 Rectangle with rounded corners*
0 $1 Rounding radius*
0 $2 $3 $4 $5 $6 $7 $8 $9 X,Y pos of 4 corners*
0 Add a 4 corners polygon primitive as box body*
4,1,4,$2,$3,$4,$5,$6,$7,$8,$9,$2,$3,0*
0 Add four circle primitives for the rounded corners*
1,1,$1+$1,$2,$3*
1,1,$1+$1,$4,$5*
1,1,$1+$1,$6,$7*
1,1,$1+$1,$8,$9*
0 Add four rect primitives between the rounded corners*
20,1,$1+$1,$2,$3,$4,$5,0*
20,1,$1+$1,$4,$5,$6,$7,0*
20,1,$1+$1,$6,$7,$8,$9,0*
20,1,$1+$1,$8,$9,$2,$3,0*%
G04 Aperture macros list end*
%TA.AperFunction,SMDPad,CuDef*%
%ADD10RoundRect,0.243750X0.243750X0.456250X-0.243750X0.456250X-0.243750X-0.456250X0.243750X-0.456250X0*%
%TD*%
%TA.AperFunction,SMDPad,CuDef*%
%ADD11RoundRect,0.225000X0.250000X-0.225000X0.250000X0.225000X-0.250000X0.225000X-0.250000X-0.225000X0*%
%TD*%
%TA.AperFunction,SMDPad,CuDef*%
%ADD12RoundRect,0.218750X0.218750X0.256250X-0.218750X0.256250X-0.218750X-0.256250X0.218750X-0.256250X0*%
%TD*%
%TA.AperFunction,SMDPad,CuDef*%
%ADD13RoundRect,0.250000X0.450000X-0.262500X0.450000X0.262500X-0.450000X0.262500X-0.450000X-0.262500X0*%
%TD*%
%TA.AperFunction,SMDPad,CuDef*%
%ADD14RoundRect,0.250000X0.312500X0.625000X-0.312500X0.625000X-0.312500X-0.625000X0.312500X-0.625000X0*%
%TD*%
%TA.AperFunction,SMDPad,CuDef*%
%ADD15RoundRect,0.250000X-0.262500X-0.450000X0.262500X-0.450000X0.262500X0.450000X-0.262500X0.450000X0*%
%TD*%
%TA.AperFunction,SMDPad,CuDef*%
%ADD16RoundRect,0.150000X0.587500X0.150000X-0.587500X0.150000X-0.587500X-0.150000X0.587500X-0.150000X0*%
%TD*%
%TA.AperFunction,ComponentPad*%
%ADD17R,1.700000X1.700000*%
%TD*%
%TA.AperFunction,ComponentPad*%
%ADD18O,1.700000X1.700000*%
%TD*%
%TA.AperFunction,SMDPad,CuDef*%
%ADD19R,1.000000X1.500000*%
%TD*%
%TA.AperFunction,ComponentPad*%
%ADD20RoundRect,0.250000X-0.350000X-0.625000X0.350000X-0.625000X0.350000X0.625000X-0.350000X0.625000X0*%
%TD*%
%TA.AperFunction,ComponentPad*%
%ADD21O,1.200000X1.750000*%
%TD*%
%TA.AperFunction,SMDPad,CuDef*%
%ADD22RoundRect,0.250000X0.262500X0.450000X-0.262500X0.450000X-0.262500X-0.450000X0.262500X-0.450000X0*%
%TD*%
%TA.AperFunction,SMDPad,CuDef*%
%ADD23C,1.000000*%
%TD*%
%TA.AperFunction,SMDPad,CuDef*%
%ADD24R,1.500000X1.000000*%
%TD*%
%TA.AperFunction,SMDPad,CuDef*%
%ADD25RoundRect,0.250000X-0.450000X0.262500X-0.450000X-0.262500X0.450000X-0.262500X0.450000X0.262500X0*%
%TD*%
%TA.AperFunction,SMDPad,CuDef*%
%ADD26RoundRect,0.225000X-0.250000X0.225000X-0.250000X-0.225000X0.250000X-0.225000X0.250000X0.225000X0*%
%TD*%
%TA.AperFunction,SMDPad,CuDef*%
%ADD27R,0.510000X0.600000*%
%TD*%
%TA.AperFunction,SMDPad,CuDef*%
%ADD28R,0.700000X0.900000*%
%TD*%
%TA.AperFunction,SMDPad,CuDef*%
%ADD29RoundRect,0.150000X0.150000X-0.512500X0.150000X0.512500X-0.150000X0.512500X-0.150000X-0.512500X0*%
%TD*%
%TA.AperFunction,SMDPad,CuDef*%
%ADD30RoundRect,0.100000X-0.637500X-0.100000X0.637500X-0.100000X0.637500X0.100000X-0.637500X0.100000X0*%
%TD*%
%TA.AperFunction,ComponentPad*%
%ADD31R,2.775000X2.775000*%
%TD*%
%TA.AperFunction,ComponentPad*%
%ADD32C,2.775000*%
%TD*%
%TA.AperFunction,SMDPad,CuDef*%
%ADD33RoundRect,0.225000X-0.225000X-0.250000X0.225000X-0.250000X0.225000X0.250000X-0.225000X0.250000X0*%
%TD*%
%TA.AperFunction,ViaPad*%
%ADD34C,0.800000*%
%TD*%
%TA.AperFunction,Conductor*%
%ADD35C,0.300000*%
%TD*%
%TA.AperFunction,Conductor*%
%ADD36C,0.250000*%
%TD*%
G04 APERTURE END LIST*
D10*
%TO.P,Fault1,1,K*%
%TO.N,GND*%
X111437500Y-75250000D03*
%TO.P,Fault1,2,A*%
%TO.N,Net-(Fault1-Pad2)*%
X109562500Y-75250000D03*
%TD*%
D11*
%TO.P,C_Vm1,1*%
%TO.N,VM*%
X120965000Y-65525000D03*
%TO.P,C_Vm1,2*%
%TO.N,GND*%
X120965000Y-63975000D03*
%TD*%
D12*
%TO.P,D_Stat1,1,K*%
%TO.N,Net-(D_Stat1-Pad1)*%
X97934641Y-85750000D03*
%TO.P,D_Stat1,2,A*%
%TO.N,5V_1*%
X96359641Y-85750000D03*
%TD*%
D13*
%TO.P,R_S2,1*%
%TO.N,GND*%
X119215000Y-77662500D03*
%TO.P,R_S2,2*%
%TO.N,Net-(JP_S2-Pad2)*%
X119215000Y-75837500D03*
%TD*%
D14*
%TO.P,R_Prog1,1*%
%TO.N,Net-(R_Prog1-Pad1)*%
X104295359Y-79750000D03*
%TO.P,R_Prog1,2*%
%TO.N,GND*%
X101370359Y-79750000D03*
%TD*%
D15*
%TO.P,R_Fault1,1*%
%TO.N,Net-(MD1-Pad8)*%
X103587500Y-75250000D03*
%TO.P,R_Fault1,2*%
%TO.N,Net-(Fault1-Pad2)*%
X105412500Y-75250000D03*
%TD*%
D16*
%TO.P,Q1,1,G*%
%TO.N,/G*%
X119687500Y-93950000D03*
%TO.P,Q1,2,S*%
%TO.N,/S*%
X119687500Y-92050000D03*
%TO.P,Q1,3,D*%
%TO.N,/D*%
X117812500Y-93000000D03*
%TD*%
D17*
%TO.P,PinCon1,1,Pin_1*%
%TO.N,Motor2_A*%
X93500000Y-74250000D03*
D18*
%TO.P,PinCon1,2,Pin_2*%
%TO.N,PC6-9 PWM1*%
X90960000Y-74250000D03*
%TO.P,PinCon1,3,Pin_3*%
%TO.N,Motor2_B*%
X93500000Y-76790000D03*
%TO.P,PinCon1,4,Pin_4*%
%TO.N,PC6-9 PWM2*%
X90960000Y-76790000D03*
%TO.P,PinCon1,5,Pin_5*%
%TO.N,GND*%
X93500000Y-79330000D03*
%TO.P,PinCon1,6,Pin_6*%
X90960000Y-79330000D03*
%TO.P,PinCon1,7,Pin_7*%
%TO.N,BATT_1*%
X93500000Y-81870000D03*
%TO.P,PinCon1,8,Pin_8*%
X90960000Y-81870000D03*
%TO.P,PinCon1,9,Pin_9*%
%TO.N,Reserve*%
X93500000Y-84410000D03*
%TO.P,PinCon1,10,Pin_10*%
%TO.N,BATT_ADC*%
X90960000Y-84410000D03*
%TO.P,PinCon1,11,Pin_11*%
%TO.N,5V_1*%
X93500000Y-86950000D03*
%TO.P,PinCon1,12,Pin_12*%
X90960000Y-86950000D03*
%TO.P,PinCon1,13,Pin_13*%
%TO.N,Motor1_A*%
X93500000Y-89490000D03*
%TO.P,PinCon1,14,Pin_14*%
%TO.N,PC6-9 PWM3*%
X90960000Y-89490000D03*
%TO.P,PinCon1,15,Pin_15*%
%TO.N,Motor1_B*%
X93500000Y-92030000D03*
%TO.P,PinCon1,16,Pin_16*%
%TO.N,PC6-9 PWM4*%
X90960000Y-92030000D03*
%TD*%
D19*
%TO.P,JP_SA_C1,1,A*%
%TO.N,Net-(JP_S1-Pad1)*%
X123765000Y-93250000D03*
%TO.P,JP_SA_C1,2,B*%
%TO.N,/S*%
X122465000Y-93250000D03*
%TD*%
D20*
%TO.P,J2,1,Pin_1*%
%TO.N,Net-(J2-Pad1)*%
X120005000Y-98445000D03*
D21*
%TO.P,J2,2,Pin_2*%
%TO.N,GND*%
X122005000Y-98445000D03*
%TD*%
D22*
%TO.P,R_S1,1*%
%TO.N,Net-(JP_S1-Pad2)*%
X123790000Y-75250000D03*
%TO.P,R_S1,2*%
%TO.N,GND*%
X121965000Y-75250000D03*
%TD*%
D19*
%TO.P,JP_SA1,1,A*%
%TO.N,Net-(J2-Pad1)*%
X114465000Y-95500000D03*
%TO.P,JP_SA1,2,B*%
%TO.N,/S*%
X113165000Y-95500000D03*
%TD*%
D23*
%TO.P,TP_En1,1,1*%
%TO.N,Reserve*%
X109000000Y-69750000D03*
%TD*%
D24*
%TO.P,JP_S1,1,A*%
%TO.N,Net-(JP_S1-Pad1)*%
X123465000Y-80250000D03*
%TO.P,JP_S1,2,B*%
%TO.N,Net-(JP_S1-Pad2)*%
X123465000Y-78950000D03*
%TD*%
D19*
%TO.P,JP_SA_Bat1,1,A*%
%TO.N,/D*%
X113215000Y-92000000D03*
%TO.P,JP_SA_Bat1,2,B*%
%TO.N,BATT_1*%
X114515000Y-92000000D03*
%TD*%
D23*
%TO.P,TPM1A1,1,1*%
%TO.N,Motor1_A*%
X110000000Y-66750000D03*
%TD*%
%TO.P,TPM2A1,1,1*%
%TO.N,Motor2_A*%
X98750000Y-72000000D03*
%TD*%
D25*
%TO.P,R1,1*%
%TO.N,BATT_1*%
X88000000Y-78250000D03*
%TO.P,R1,2*%
%TO.N,BATT_ADC*%
X88000000Y-80075000D03*
%TD*%
D13*
%TO.P,R_Stat1,1*%
%TO.N,Net-(D_Stat1-Pad1)*%
X103147141Y-84662500D03*
%TO.P,R_Stat1,2*%
%TO.N,Net-(R_Stat1-Pad2)*%
X103147141Y-82837500D03*
%TD*%
D23*
%TO.P,TP_Charge1,1,1*%
%TO.N,BATT_1*%
X112147141Y-85082500D03*
%TD*%
D26*
%TO.P,C_Vcp1,1*%
%TO.N,GND*%
X121965000Y-68225000D03*
%TO.P,C_Vcp1,2*%
%TO.N,Net-(C_Vcp1-Pad2)*%
X121965000Y-69775000D03*
%TD*%
D19*
%TO.P,JP_SB_Bat1,1,A*%
%TO.N,BATT_1*%
X114015000Y-100500000D03*
%TO.P,JP_SB_Bat1,2,B*%
%TO.N,Net-(JP_SB_Bat1-Pad2)*%
X112715000Y-100500000D03*
%TD*%
D25*
%TO.P,R2,1*%
%TO.N,BATT_ADC*%
X88000000Y-83587500D03*
%TO.P,R2,2*%
%TO.N,GND*%
X88000000Y-85412500D03*
%TD*%
D27*
%TO.P,SA1,1*%
%TO.N,Net-(JP_S1-Pad1)*%
X122530000Y-85250000D03*
%TO.P,SA1,2*%
%TO.N,/G*%
X122530000Y-87250000D03*
%TO.P,SA1,C*%
%TO.N,GND*%
X122530000Y-86250000D03*
D28*
%TO.P,SA1,S1*%
%TO.N,N/C*%
X121175000Y-89250000D03*
%TO.P,SA1,S2*%
X121175000Y-83250000D03*
%TD*%
D23*
%TO.P,TP1B1,1,1*%
%TO.N,Motor1_B*%
X111500000Y-77500000D03*
%TD*%
D29*
%TO.P,Charge1,1,STAT*%
%TO.N,Net-(R_Stat1-Pad2)*%
X107334641Y-83887500D03*
%TO.P,Charge1,2,VSS*%
%TO.N,GND*%
X108284641Y-83887500D03*
%TO.P,Charge1,3,VBAT*%
%TO.N,BATT_1*%
X109234641Y-83887500D03*
%TO.P,Charge1,4,VDD*%
%TO.N,5V_1*%
X109234641Y-81612500D03*
%TO.P,Charge1,5,PROG*%
%TO.N,Net-(R_Prog1-Pad1)*%
X107334641Y-81612500D03*
%TD*%
D30*
%TO.P,MD1,1,nSLEEP*%
%TO.N,Reserve*%
X111780000Y-69000000D03*
%TO.P,MD1,2,AOUT1*%
%TO.N,Motor1_A*%
X111780000Y-69650000D03*
%TO.P,MD1,3,AISEN*%
%TO.N,GND*%
X111780000Y-70300000D03*
%TO.P,MD1,4,AOUT2*%
%TO.N,Motor2_A*%
X111780000Y-70950000D03*
%TO.P,MD1,5,BOUT2*%
%TO.N,Motor2_B*%
X111780000Y-71600000D03*
%TO.P,MD1,6,BISEN*%
%TO.N,GND*%
X111780000Y-72250000D03*
%TO.P,MD1,7,BOUT1*%
%TO.N,Motor1_B*%
X111780000Y-72900000D03*
%TO.P,MD1,8,nFAULT*%
%TO.N,Net-(MD1-Pad8)*%
X111780000Y-73550000D03*
%TO.P,MD1,9,BIN1*%
%TO.N,PC6-9 PWM3*%
X117505000Y-73550000D03*
%TO.P,MD1,10,BIN2*%
%TO.N,PC6-9 PWM4*%
X117505000Y-72900000D03*
%TO.P,MD1,11,VCP*%
%TO.N,Net-(C_Vcp1-Pad2)*%
X117505000Y-72250000D03*
%TO.P,MD1,12,VM*%
%TO.N,VM*%
X117505000Y-71600000D03*
%TO.P,MD1,13,GND*%
%TO.N,GND*%
X117505000Y-70950000D03*
%TO.P,MD1,14,VINT*%
%TO.N,Net-(C_Vint1-Pad2)*%
X117505000Y-70300000D03*
%TO.P,MD1,15,AIN2*%
%TO.N,PC6-9 PWM2*%
X117505000Y-69650000D03*
%TO.P,MD1,16,AIN1*%
%TO.N,PC6-9 PWM1*%
X117505000Y-69000000D03*
%TD*%
D11*
%TO.P,C_Batt1,1*%
%TO.N,BATT_1*%
X112500000Y-82525000D03*
%TO.P,C_Batt1,2*%
%TO.N,GND*%
X112500000Y-80975000D03*
%TD*%
D19*
%TO.P,JP_SB1,1,A*%
%TO.N,Net-(J2-Pad1)*%
X107865000Y-101000000D03*
%TO.P,JP_SB1,2,B*%
%TO.N,Net-(JP_SB1-Pad2)*%
X106565000Y-101000000D03*
%TD*%
D31*
%TO.P,SB1,1*%
%TO.N,Net-(JP_SB_Bat1-Pad2)*%
X108665000Y-95000000D03*
D32*
%TO.P,SB1,2*%
%TO.N,Net-(JP_SB1-Pad2)*%
X103965000Y-95000000D03*
%TO.P,SB1,3*%
%TO.N,unconnected-(SB1-Pad3)*%
X99265000Y-95000000D03*
%TD*%
D23*
%TO.P,TP_ADC1,1,1*%
%TO.N,BATT_ADC*%
X88000000Y-90500000D03*
%TD*%
%TO.P,TP2B1,1,1*%
%TO.N,Motor2_B*%
X98750000Y-75250000D03*
%TD*%
D33*
%TO.P,C_Vint1,1*%
%TO.N,GND*%
X114092500Y-66250000D03*
%TO.P,C_Vint1,2*%
%TO.N,Net-(C_Vint1-Pad2)*%
X115642500Y-66250000D03*
%TD*%
D19*
%TO.P,JP_S2,1,A*%
%TO.N,Net-(JP_S1-Pad1)*%
X119465000Y-80750000D03*
%TO.P,JP_S2,2,B*%
%TO.N,Net-(JP_S2-Pad2)*%
X120765000Y-80750000D03*
%TD*%
D11*
%TO.P,C_Vdd1,1*%
%TO.N,5V_1*%
X98832859Y-82525000D03*
%TO.P,C_Vdd1,2*%
%TO.N,GND*%
X98832859Y-80975000D03*
%TD*%
D34*
%TO.N,GND*%
X107500000Y-76500000D03*
X108465000Y-72500000D03*
X112965000Y-79250000D03*
X88500000Y-87000000D03*
X95965000Y-81500000D03*
X124000000Y-86500000D03*
X115215000Y-71500000D03*
X121465000Y-72250000D03*
X117250000Y-76000000D03*
X105465000Y-84250000D03*
X107465000Y-65250000D03*
%TD*%
D35*
%TO.N,Motor1_B*%
X97257859Y-88257859D02*
X99015718Y-86500000D01*
X93505000Y-92155000D02*
X93505000Y-91276010D01*
X97250000Y-88250000D02*
X97257859Y-88257859D01*
X93043501Y-90814511D02*
X92870939Y-90814511D01*
X93505000Y-91276010D02*
X93043501Y-90814511D01*
X92870939Y-90814511D02*
X92250000Y-90193572D01*
X92250000Y-88250000D02*
X97250000Y-88250000D01*
X92250000Y-90193572D02*
X92250000Y-88250000D01*
%TO.N,PC6-9 PWM3*%
X90965000Y-89615000D02*
X92330489Y-90980489D01*
X92330489Y-90980489D02*
X92330489Y-91633145D01*
X92330489Y-91633145D02*
X92250000Y-91713634D01*
X96599375Y-90495000D02*
X101005000Y-90495000D01*
X92250000Y-94089022D02*
X92330489Y-94169511D01*
X92250000Y-91713634D02*
X92250000Y-94089022D01*
X95750000Y-91344375D02*
X96599375Y-90495000D01*
X92330489Y-94169511D02*
X95750000Y-94169511D01*
X95750000Y-94169511D02*
X95750000Y-91344375D01*
X101005000Y-90495000D02*
X102250000Y-89250000D01*
X102250000Y-89250000D02*
X116250000Y-89250000D01*
X116250000Y-89250000D02*
X116965000Y-88535000D01*
X116965000Y-88535000D02*
X116965000Y-78750000D01*
X116965000Y-78750000D02*
X114750000Y-76535000D01*
X114750000Y-76535000D02*
X114750000Y-74585480D01*
X114750000Y-74585480D02*
X115785480Y-73550000D01*
X115785480Y-73550000D02*
X117505000Y-73550000D01*
%TO.N,BATT_1*%
X90965000Y-81995000D02*
X90965000Y-82710000D01*
X110775000Y-82525000D02*
X110172621Y-81922621D01*
X110172621Y-78250000D02*
X96955027Y-78250000D01*
X101500000Y-93000000D02*
X101500000Y-97000000D01*
X114015000Y-99050000D02*
X111215000Y-96250000D01*
X92250000Y-84995000D02*
X93005000Y-85750000D01*
X112147141Y-85082500D02*
X112147141Y-82877859D01*
X101500000Y-97000000D02*
X96500000Y-97000000D01*
X95505000Y-83995000D02*
X93505000Y-81995000D01*
X93505000Y-81700027D02*
X93505000Y-81995000D01*
X96000000Y-96500000D02*
X89750000Y-96500000D01*
X95005000Y-85750000D02*
X95505000Y-85250000D01*
X92250000Y-83995000D02*
X92250000Y-84995000D01*
X110172621Y-81922621D02*
X110172621Y-78250000D01*
X90965000Y-81215000D02*
X90965000Y-81995000D01*
X112147141Y-82877859D02*
X112500000Y-82525000D01*
X111215000Y-92465000D02*
X102035000Y-92465000D01*
X95505000Y-85250000D02*
X95505000Y-83995000D01*
X86750000Y-93500000D02*
X86750000Y-79500000D01*
X109234641Y-83887500D02*
X110429641Y-85082500D01*
X89750000Y-96500000D02*
X86750000Y-93500000D01*
X96955027Y-78250000D02*
X93505000Y-81700027D01*
X96500000Y-97000000D02*
X96000000Y-96500000D01*
X88000000Y-78250000D02*
X90965000Y-81215000D01*
X86750000Y-79500000D02*
X88000000Y-78250000D01*
X113965000Y-90500000D02*
X114515000Y-91050000D01*
X111215000Y-92465000D02*
X111215000Y-91250000D01*
X114515000Y-91050000D02*
X114515000Y-92000000D01*
X110429641Y-85082500D02*
X112147141Y-85082500D01*
X111965000Y-90500000D02*
X113965000Y-90500000D01*
X90965000Y-82710000D02*
X92250000Y-83995000D01*
X111215000Y-91250000D02*
X111965000Y-90500000D01*
X111215000Y-96250000D02*
X111215000Y-92465000D01*
X112500000Y-82525000D02*
X110775000Y-82525000D01*
X102035000Y-92465000D02*
X101500000Y-93000000D01*
X114015000Y-100500000D02*
X114015000Y-99050000D01*
X93005000Y-85750000D02*
X95005000Y-85750000D01*
%TO.N,GND*%
X108715000Y-72250000D02*
X111780000Y-72250000D01*
X112810000Y-70300000D02*
X113505000Y-70995000D01*
X88500000Y-87000000D02*
X88500000Y-85912500D01*
X113505000Y-71463821D02*
X112718821Y-72250000D01*
X112718821Y-72250000D02*
X111780000Y-72250000D01*
X122530000Y-86250000D02*
X123750000Y-86250000D01*
X88500000Y-85912500D02*
X88000000Y-85412500D01*
X115765000Y-70950000D02*
X117505000Y-70950000D01*
X111780000Y-70300000D02*
X112810000Y-70300000D01*
X108465000Y-72500000D02*
X108715000Y-72250000D01*
X123750000Y-86250000D02*
X124000000Y-86500000D01*
X113505000Y-70995000D02*
X113505000Y-71463821D01*
X115215000Y-71500000D02*
X115765000Y-70950000D01*
%TO.N,Net-(C_Vcp1-Pad2)*%
X117505000Y-72250000D02*
X119490000Y-72250000D01*
X119490000Y-72250000D02*
X121965000Y-69775000D01*
%TO.N,5V_1*%
X93505000Y-87075000D02*
X95034641Y-87075000D01*
X107971661Y-82875480D02*
X107927734Y-82875480D01*
X95034641Y-87075000D02*
X96359641Y-85750000D01*
X107927734Y-82875480D02*
X107809641Y-82993573D01*
X96359641Y-85750000D02*
X98359641Y-83750000D01*
X100832859Y-82750000D02*
X99057859Y-82750000D01*
X107809641Y-82993573D02*
X107691548Y-82875480D01*
X106968036Y-82885177D02*
X105832859Y-81750000D01*
X90965000Y-87075000D02*
X93505000Y-87075000D01*
X99057859Y-82750000D02*
X98832859Y-82525000D01*
X109234641Y-81612500D02*
X107971661Y-82875480D01*
X98359641Y-83750000D02*
X98832859Y-83750000D01*
X101832859Y-81750000D02*
X100832859Y-82750000D01*
X107691548Y-82875480D02*
X106977734Y-82875480D01*
X105832859Y-81750000D02*
X101832859Y-81750000D01*
X98832859Y-83750000D02*
X98832859Y-82525000D01*
X106977734Y-82875480D02*
X106968036Y-82885177D01*
%TO.N,Net-(C_Vint1-Pad2)*%
X115810000Y-70300000D02*
X115505000Y-69995000D01*
X117505000Y-70300000D02*
X115810000Y-70300000D01*
X115505000Y-66387500D02*
X115642500Y-66250000D01*
X115505000Y-69995000D02*
X115505000Y-66387500D01*
%TO.N,VM*%
X118900000Y-71600000D02*
X117505000Y-71600000D01*
X119750000Y-66740000D02*
X119750000Y-70750000D01*
X119750000Y-70750000D02*
X118900000Y-71600000D01*
X120965000Y-65525000D02*
X119750000Y-66740000D01*
%TO.N,Net-(D_Stat1-Pad1)*%
X103147141Y-84662500D02*
X102059641Y-85750000D01*
X102059641Y-85750000D02*
X97934641Y-85750000D01*
%TO.N,Net-(Fault1-Pad2)*%
X105412500Y-75250000D02*
X109562500Y-75250000D01*
%TO.N,/S*%
X120887500Y-93250000D02*
X122465000Y-93250000D01*
X119687500Y-92050000D02*
X120887500Y-93250000D01*
X122465000Y-94250000D02*
X122465000Y-93250000D01*
X113215000Y-94250000D02*
X116465000Y-94250000D01*
X113165000Y-94300000D02*
X113215000Y-94250000D01*
X113165000Y-95500000D02*
X113165000Y-94300000D01*
X121465000Y-95250000D02*
X122465000Y-94250000D01*
X117465000Y-95250000D02*
X121465000Y-95250000D01*
X116465000Y-94250000D02*
X117465000Y-95250000D01*
%TO.N,Net-(J2-Pad1)*%
X116250000Y-95500000D02*
X119195000Y-98445000D01*
X109115000Y-102250000D02*
X116965000Y-102250000D01*
X119195000Y-98445000D02*
X120005000Y-98445000D01*
X107865000Y-101000000D02*
X109115000Y-102250000D01*
X120005000Y-99210000D02*
X120005000Y-98445000D01*
X116965000Y-102250000D02*
X120005000Y-99210000D01*
X114465000Y-95500000D02*
X116250000Y-95500000D01*
%TO.N,Net-(JP_S1-Pad1)*%
X124374511Y-85250000D02*
X124750000Y-85625489D01*
X122965000Y-82250000D02*
X119465000Y-82250000D01*
X119465000Y-82250000D02*
X119465000Y-80750000D01*
X122530000Y-85250000D02*
X122530000Y-82685000D01*
X122530000Y-82685000D02*
X122995000Y-82220000D01*
X124750000Y-90715000D02*
X124750000Y-85625489D01*
X122530000Y-85250000D02*
X124374511Y-85250000D01*
X122995000Y-82220000D02*
X122995000Y-80720000D01*
X123765000Y-93250000D02*
X123765000Y-91700000D01*
X122995000Y-80720000D02*
X123465000Y-80250000D01*
X122995000Y-82220000D02*
X122965000Y-82250000D01*
X123765000Y-91700000D02*
X124750000Y-90715000D01*
%TO.N,Motor2_A*%
X106967500Y-70950000D02*
X111780000Y-70950000D01*
X93505000Y-70750000D02*
X98750000Y-70750000D01*
X98750000Y-70750000D02*
X106767500Y-70750000D01*
X106767500Y-70750000D02*
X106967500Y-70950000D01*
D36*
X98750000Y-72000000D02*
X98750000Y-70750000D01*
D35*
X93505000Y-74375000D02*
X93505000Y-70750000D01*
%TO.N,PC6-9 PWM1*%
X90965000Y-68790000D02*
X91005000Y-68750000D01*
X117642500Y-68862500D02*
X117505000Y-69000000D01*
X90965000Y-74375000D02*
X90965000Y-68790000D01*
X106505000Y-67495000D02*
X106505000Y-64250000D01*
X91005000Y-68750000D02*
X105250000Y-68750000D01*
X105250000Y-68750000D02*
X106505000Y-67495000D01*
X117642500Y-64250000D02*
X117642500Y-68862500D01*
X106505000Y-64250000D02*
X117642500Y-64250000D01*
%TO.N,Motor2_B*%
X102500000Y-73750000D02*
X104650000Y-71600000D01*
X104650000Y-71600000D02*
X111780000Y-71600000D01*
X95180000Y-73750000D02*
X98750000Y-73750000D01*
X93505000Y-76915000D02*
X95180000Y-75240000D01*
X98750000Y-73750000D02*
X102500000Y-73750000D01*
D36*
X98750000Y-75250000D02*
X98750000Y-73750000D01*
D35*
X95180000Y-75240000D02*
X95180000Y-73750000D01*
%TO.N,PC6-9 PWM2*%
X105505000Y-63250000D02*
X105505000Y-67250000D01*
X89505000Y-67250000D02*
X89505000Y-75455000D01*
X117348927Y-63250000D02*
X105505000Y-63250000D01*
X117505000Y-69650000D02*
X118850000Y-69650000D01*
X118850000Y-69650000D02*
X119000000Y-69500000D01*
X119000000Y-69500000D02*
X119000000Y-64901073D01*
X89505000Y-75455000D02*
X90965000Y-76915000D01*
X105505000Y-67250000D02*
X89505000Y-67250000D01*
X119000000Y-64901073D02*
X117348927Y-63250000D01*
%TO.N,Reserve*%
X111030000Y-68250000D02*
X111780000Y-69000000D01*
X93298093Y-69750480D02*
X105749520Y-69750480D01*
X106800480Y-68699520D02*
X107250000Y-68250000D01*
X107250000Y-68250000D02*
X111030000Y-68250000D01*
X92250000Y-83280000D02*
X92250000Y-70798573D01*
X93505000Y-84535000D02*
X92250000Y-83280000D01*
X109005000Y-69995000D02*
X108095960Y-69995000D01*
X108095960Y-69995000D02*
X106800480Y-68699520D01*
X105749520Y-69750480D02*
X106800480Y-68699520D01*
X92250000Y-70798573D02*
X93298093Y-69750480D01*
%TO.N,BATT_ADC*%
X90965000Y-84535000D02*
X88947500Y-84535000D01*
X88947500Y-84535000D02*
X88000000Y-83587500D01*
X89500000Y-86000000D02*
X90965000Y-84535000D01*
X88250000Y-90500000D02*
X89500000Y-89250000D01*
X89500000Y-89250000D02*
X89500000Y-86000000D01*
X88000000Y-83587500D02*
X88000000Y-80075000D01*
%TO.N,Motor1_A*%
X98385000Y-89615000D02*
X100500000Y-87500000D01*
X93505000Y-89615000D02*
X98385000Y-89615000D01*
X114250000Y-74000000D02*
X114250000Y-70747500D01*
X113152500Y-69650000D02*
X111780000Y-69650000D01*
X115000000Y-78250000D02*
X114000000Y-77250000D01*
X112000000Y-66750000D02*
X110000000Y-66750000D01*
X115000000Y-87500000D02*
X115000000Y-78250000D01*
X113152500Y-69650000D02*
X113152500Y-67902500D01*
X100500000Y-87500000D02*
X115000000Y-87500000D01*
X114250000Y-70747500D02*
X113152500Y-69650000D01*
X114000000Y-74250000D02*
X114250000Y-74000000D01*
X114000000Y-77250000D02*
X114000000Y-74250000D01*
X113152500Y-67902500D02*
X112000000Y-66750000D01*
%TO.N,Motor1_B*%
X113000000Y-78132500D02*
X113000000Y-77250000D01*
X113465000Y-73250000D02*
X113115000Y-72900000D01*
X113115000Y-72900000D02*
X111780000Y-72900000D01*
X114000000Y-78500000D02*
X113632500Y-78132500D01*
X113632500Y-78132500D02*
X113000000Y-78132500D01*
D36*
X111500000Y-77500000D02*
X112750000Y-77500000D01*
D35*
X113072500Y-74285000D02*
X113465000Y-73892500D01*
X113465000Y-73892500D02*
X113465000Y-73250000D01*
D36*
X112750000Y-77500000D02*
X113000000Y-77250000D01*
D35*
X114000000Y-86500000D02*
X114000000Y-78500000D01*
X113000000Y-77250000D02*
X113000000Y-74285000D01*
X99015718Y-86500000D02*
X114000000Y-86500000D01*
X113000000Y-74285000D02*
X113072500Y-74285000D01*
%TO.N,PC6-9 PWM4*%
X103005000Y-89995000D02*
X116505000Y-89995000D01*
X116505000Y-89995000D02*
X117965000Y-88535000D01*
X90500000Y-94995000D02*
X97250000Y-94995000D01*
X101750000Y-91250000D02*
X103005000Y-89995000D01*
X117965000Y-88535000D02*
X117965000Y-78750000D01*
X90500000Y-92620000D02*
X90500000Y-94995000D01*
X90965000Y-92155000D02*
X90500000Y-92620000D01*
X115715000Y-76500000D02*
X115715000Y-74750000D01*
X115715000Y-74750000D02*
X115965000Y-74500000D01*
X118539159Y-72900000D02*
X117505000Y-72900000D01*
X97250000Y-94995000D02*
X97250000Y-91250000D01*
X97250000Y-91250000D02*
X101750000Y-91250000D01*
X117965000Y-78750000D02*
X115715000Y-76500000D01*
X119465000Y-73825841D02*
X118539159Y-72900000D01*
X115965000Y-74500000D02*
X118790841Y-74500000D01*
X118790841Y-74500000D02*
X119465000Y-73825841D01*
D36*
%TO.N,/G*%
X123965000Y-87750000D02*
X123965000Y-90500000D01*
X122530000Y-87250000D02*
X123465000Y-87250000D01*
X123965000Y-90500000D02*
X118715000Y-90500000D01*
X123465000Y-87250000D02*
X123965000Y-87750000D01*
X118215000Y-91000000D02*
X118215000Y-91993928D01*
X119687500Y-93466428D02*
X119687500Y-93950000D01*
X118215000Y-91993928D02*
X119687500Y-93466428D01*
X118715000Y-90500000D02*
X118215000Y-91000000D01*
D35*
%TO.N,Net-(MD1-Pad8)*%
X103587500Y-74162500D02*
X104200000Y-73550000D01*
X103587500Y-75250000D02*
X103587500Y-74162500D01*
X104200000Y-73550000D02*
X111780000Y-73550000D01*
%TO.N,Net-(R_Prog1-Pad1)*%
X105472141Y-79750000D02*
X107334641Y-81612500D01*
X104295359Y-79750000D02*
X105472141Y-79750000D01*
%TO.N,Net-(R_Stat1-Pad2)*%
X105587500Y-82837500D02*
X106637500Y-83887500D01*
X106637500Y-83887500D02*
X107334641Y-83887500D01*
X103147141Y-82837500D02*
X105587500Y-82837500D01*
%TO.N,Net-(JP_S1-Pad2)*%
X123465000Y-75575000D02*
X123790000Y-75250000D01*
X123465000Y-78950000D02*
X123465000Y-75575000D01*
%TO.N,Net-(JP_S2-Pad2)*%
X120765000Y-77387500D02*
X119215000Y-75837500D01*
X120765000Y-80750000D02*
X120765000Y-77387500D01*
%TO.N,/D*%
X113215000Y-92000000D02*
X113215000Y-93250000D01*
X113215000Y-93250000D02*
X113465000Y-93500000D01*
X113465000Y-93500000D02*
X117312500Y-93500000D01*
X117312500Y-93500000D02*
X117812500Y-93000000D01*
%TO.N,Net-(JP_SB1-Pad2)*%
X106565000Y-101000000D02*
X106565000Y-97600000D01*
X106565000Y-97600000D02*
X103965000Y-95000000D01*
%TO.N,Net-(JP_SB_Bat1-Pad2)*%
X112715000Y-99050000D02*
X112715000Y-100500000D01*
X108665000Y-95000000D02*
X112715000Y-99050000D01*
%TD*%
%TA.AperFunction,Conductor*%
%TO.N,GND*%
G36*
X123164580Y-94494738D02*
G01*
X123214224Y-94500131D01*
X123214229Y-94500131D01*
X123217623Y-94500500D01*
X123764919Y-94500500D01*
X124312376Y-94500499D01*
X124315767Y-94500131D01*
X124315779Y-94500130D01*
X124359895Y-94495338D01*
X124429777Y-94507867D01*
X124481792Y-94556189D01*
X124499500Y-94620601D01*
X124499500Y-102873500D01*
X124479498Y-102941621D01*
X124425842Y-102988114D01*
X124373500Y-102999500D01*
X117434916Y-102999500D01*
X117366795Y-102979498D01*
X117320302Y-102925842D01*
X117310198Y-102855568D01*
X117339692Y-102790988D01*
X117357688Y-102773942D01*
X117360042Y-102772116D01*
X117366865Y-102768081D01*
X117381758Y-102753188D01*
X117396792Y-102740347D01*
X117407423Y-102732623D01*
X117413837Y-102727963D01*
X117442880Y-102692856D01*
X117450869Y-102684077D01*
X120277541Y-99857405D01*
X120339853Y-99823379D01*
X120366636Y-99820500D01*
X120404866Y-99820500D01*
X120408112Y-99820163D01*
X120408116Y-99820163D01*
X120502661Y-99810353D01*
X120502665Y-99810352D01*
X120509519Y-99809641D01*
X120516055Y-99807460D01*
X120516057Y-99807460D01*
X120668581Y-99756574D01*
X120675529Y-99754256D01*
X120824345Y-99662166D01*
X120947984Y-99538311D01*
X120961996Y-99515580D01*
X120981087Y-99484608D01*
X121033858Y-99437114D01*
X121103930Y-99425690D01*
X121169054Y-99453963D01*
X121187431Y-99472888D01*
X121195259Y-99482853D01*
X121203499Y-99491506D01*
X121354123Y-99622212D01*
X121363847Y-99629147D01*
X121536467Y-99729010D01*
X121547331Y-99733984D01*
X121735727Y-99799407D01*
X121736716Y-99799648D01*
X121747008Y-99798180D01*
X121751000Y-99784615D01*
X121751000Y-99780402D01*
X122259000Y-99780402D01*
X122262973Y-99793933D01*
X122272399Y-99795288D01*
X122361537Y-99773806D01*
X122372832Y-99769917D01*
X122554382Y-99687371D01*
X122564724Y-99681424D01*
X122727397Y-99566032D01*
X122736425Y-99558239D01*
X122874342Y-99414169D01*
X122881738Y-99404804D01*
X122989921Y-99237259D01*
X122995417Y-99226655D01*
X123069961Y-99041688D01*
X123073355Y-99030230D01*
X123111857Y-98833072D01*
X123112934Y-98824209D01*
X123113000Y-98821500D01*
X123113000Y-98717115D01*
X123108525Y-98701876D01*
X123107135Y-98700671D01*
X123099452Y-98699000D01*
X122277115Y-98699000D01*
X122261876Y-98703475D01*
X122260671Y-98704865D01*
X122259000Y-98712548D01*
X122259000Y-99780402D01*
X121751000Y-99780402D01*
X121751000Y-98172885D01*
X122259000Y-98172885D01*
X122263475Y-98188124D01*
X122264865Y-98189329D01*
X122272548Y-98191000D01*
X123094885Y-98191000D01*
X123110124Y-98186525D01*
X123111329Y-98185135D01*
X123113000Y-98177452D01*
X123113000Y-98120168D01*
X123112715Y-98114192D01*
X123098529Y-97965506D01*
X123096270Y-97953772D01*
X123040128Y-97762401D01*
X123035698Y-97751325D01*
X122944381Y-97574022D01*
X122937931Y-97563976D01*
X122814738Y-97407143D01*
X122806501Y-97398494D01*
X122655877Y-97267788D01*
X122646153Y-97260853D01*
X122473533Y-97160990D01*
X122462669Y-97156016D01*
X122274273Y-97090593D01*
X122273284Y-97090352D01*
X122262992Y-97091820D01*
X122259000Y-97105385D01*
X122259000Y-98172885D01*
X121751000Y-98172885D01*
X121751000Y-97109598D01*
X121747027Y-97096067D01*
X121737601Y-97094712D01*
X121648463Y-97116194D01*
X121637168Y-97120083D01*
X121455618Y-97202629D01*
X121445276Y-97208576D01*
X121282603Y-97323968D01*
X121273575Y-97331761D01*
X121180751Y-97428726D01*
X121119196Y-97464102D01*
X121048286Y-97460583D01*
X120990536Y-97419286D01*
X120982589Y-97407898D01*
X120951020Y-97356883D01*
X120947166Y-97350655D01*
X120823311Y-97227016D01*
X120814084Y-97221328D01*
X120767357Y-97192526D01*
X120674334Y-97135186D01*
X120634945Y-97122121D01*
X120514759Y-97082256D01*
X120514757Y-97082255D01*
X120508228Y-97080090D01*
X120404866Y-97069500D01*
X119605134Y-97069500D01*
X119601888Y-97069837D01*
X119601884Y-97069837D01*
X119507339Y-97079647D01*
X119507335Y-97079648D01*
X119500481Y-97080359D01*
X119493945Y-97082540D01*
X119493943Y-97082540D01*
X119406846Y-97111598D01*
X119334471Y-97135744D01*
X119185655Y-97227834D01*
X119180482Y-97233016D01*
X119130939Y-97282646D01*
X119068656Y-97316726D01*
X118997836Y-97311723D01*
X118952670Y-97282724D01*
X117785541Y-96115595D01*
X117751515Y-96053283D01*
X117756580Y-95982468D01*
X117799127Y-95925632D01*
X117865647Y-95900821D01*
X117874636Y-95900500D01*
X121384000Y-95900500D01*
X121395640Y-95901049D01*
X121403296Y-95902760D01*
X121411219Y-95902511D01*
X121457417Y-95901059D01*
X121473231Y-95900562D01*
X121477188Y-95900500D01*
X121505925Y-95900500D01*
X121510196Y-95899961D01*
X121522024Y-95899029D01*
X121567569Y-95897597D01*
X121575183Y-95895385D01*
X121575188Y-95895384D01*
X121587792Y-95891722D01*
X121607156Y-95887711D01*
X121628058Y-95885071D01*
X121635429Y-95882152D01*
X121635431Y-95882152D01*
X121670420Y-95868298D01*
X121681631Y-95864459D01*
X121725398Y-95851744D01*
X121743536Y-95841018D01*
X121761281Y-95832324D01*
X121780871Y-95824568D01*
X121817738Y-95797782D01*
X121827646Y-95791275D01*
X121860042Y-95772117D01*
X121860047Y-95772113D01*
X121866865Y-95768081D01*
X121881758Y-95753188D01*
X121896792Y-95740347D01*
X121907423Y-95732623D01*
X121913837Y-95727963D01*
X121942880Y-95692856D01*
X121950869Y-95684077D01*
X122867698Y-94767248D01*
X122876315Y-94759407D01*
X122882940Y-94755202D01*
X122899331Y-94737748D01*
X122930849Y-94704184D01*
X122933604Y-94701342D01*
X122953912Y-94681034D01*
X122956554Y-94677628D01*
X122964266Y-94668598D01*
X122990023Y-94641170D01*
X122995448Y-94635393D01*
X123005599Y-94616930D01*
X123016451Y-94600409D01*
X123024503Y-94590029D01*
X123024504Y-94590027D01*
X123029363Y-94583763D01*
X123035337Y-94569958D01*
X123080749Y-94515385D01*
X123148457Y-94494026D01*
X123164580Y-94494738D01*
G37*
%TD.AperFunction*%
%TA.AperFunction,Conductor*%
G36*
X88108985Y-84620502D02*
G01*
X88129959Y-84637405D01*
X88430252Y-84937698D01*
X88438093Y-84946315D01*
X88442298Y-84952940D01*
X88448077Y-84958367D01*
X88448078Y-84958368D01*
X88493316Y-85000849D01*
X88496158Y-85003604D01*
X88516465Y-85023911D01*
X88519596Y-85026340D01*
X88519602Y-85026345D01*
X88519877Y-85026558D01*
X88528890Y-85034255D01*
X88562107Y-85065448D01*
X88569054Y-85069267D01*
X88580566Y-85075596D01*
X88597090Y-85086450D01*
X88613736Y-85099362D01*
X88639638Y-85110571D01*
X88655541Y-85117453D01*
X88666200Y-85122675D01*
X88699186Y-85140809D01*
X88699190Y-85140810D01*
X88706132Y-85144627D01*
X88713805Y-85146597D01*
X88713807Y-85146598D01*
X88726536Y-85149866D01*
X88745240Y-85156270D01*
X88757293Y-85161486D01*
X88757302Y-85161489D01*
X88764573Y-85164635D01*
X88772401Y-85165875D01*
X88772402Y-85165875D01*
X88809567Y-85171761D01*
X88821193Y-85174169D01*
X88857646Y-85183529D01*
X88857647Y-85183529D01*
X88865323Y-85185500D01*
X88886390Y-85185500D01*
X88906102Y-85187051D01*
X88926905Y-85190346D01*
X88934797Y-85189600D01*
X88972256Y-85186059D01*
X88984114Y-85185500D01*
X89090364Y-85185500D01*
X89158485Y-85205502D01*
X89204978Y-85259158D01*
X89215082Y-85329432D01*
X89185588Y-85394012D01*
X89179459Y-85400595D01*
X89097302Y-85482752D01*
X89088685Y-85490593D01*
X89082060Y-85494798D01*
X89076633Y-85500577D01*
X89076632Y-85500578D01*
X89034151Y-85545816D01*
X89031396Y-85548658D01*
X89011089Y-85568965D01*
X89008660Y-85572096D01*
X89008655Y-85572102D01*
X89008442Y-85572377D01*
X89000745Y-85581390D01*
X88969552Y-85614607D01*
X88965733Y-85621554D01*
X88959404Y-85633066D01*
X88948550Y-85649590D01*
X88935638Y-85666236D01*
X88918618Y-85705568D01*
X88917546Y-85708045D01*
X88912330Y-85718693D01*
X88890373Y-85758632D01*
X88888402Y-85766311D01*
X88888401Y-85766312D01*
X88885133Y-85779041D01*
X88878727Y-85797750D01*
X88873512Y-85809800D01*
X88873510Y-85809805D01*
X88870365Y-85817074D01*
X88866465Y-85841696D01*
X88863239Y-85862065D01*
X88860831Y-85873690D01*
X88851472Y-85910140D01*
X88851471Y-85910145D01*
X88849500Y-85917823D01*
X88849500Y-85938884D01*
X88847949Y-85958596D01*
X88844653Y-85979405D01*
X88845399Y-85987296D01*
X88848941Y-86024765D01*
X88849500Y-86036623D01*
X88849500Y-88928364D01*
X88829498Y-88996485D01*
X88812595Y-89017459D01*
X88341965Y-89488089D01*
X88279653Y-89522115D01*
X88215613Y-89519360D01*
X88202152Y-89515193D01*
X88196027Y-89514549D01*
X88196026Y-89514549D01*
X88013147Y-89495327D01*
X88013146Y-89495327D01*
X88007019Y-89494683D01*
X87884383Y-89505844D01*
X87817759Y-89511907D01*
X87817758Y-89511907D01*
X87811618Y-89512466D01*
X87805704Y-89514207D01*
X87805702Y-89514207D01*
X87711831Y-89541835D01*
X87623393Y-89567864D01*
X87617930Y-89570720D01*
X87617925Y-89570722D01*
X87584876Y-89588000D01*
X87515240Y-89601835D01*
X87449180Y-89575825D01*
X87407667Y-89518230D01*
X87400500Y-89476339D01*
X87400500Y-84726500D01*
X87420502Y-84658379D01*
X87474158Y-84611886D01*
X87526500Y-84600500D01*
X88040864Y-84600500D01*
X88108985Y-84620502D01*
G37*
%TD.AperFunction*%
%TA.AperFunction,Conductor*%
G36*
X124041621Y-85920502D02*
G01*
X124088114Y-85974158D01*
X124099500Y-86026500D01*
X124099500Y-86695719D01*
X124079498Y-86763840D01*
X124025842Y-86810333D01*
X123955568Y-86820437D01*
X123890988Y-86790943D01*
X123884405Y-86784814D01*
X123879471Y-86779880D01*
X123876341Y-86777452D01*
X123876259Y-86777380D01*
X123867351Y-86769771D01*
X123835582Y-86739938D01*
X123818167Y-86730364D01*
X123801638Y-86719507D01*
X123792200Y-86712186D01*
X123785936Y-86707327D01*
X123745942Y-86690020D01*
X123735282Y-86684798D01*
X123730041Y-86681917D01*
X123697092Y-86663803D01*
X123677836Y-86658859D01*
X123659147Y-86652460D01*
X123640896Y-86644562D01*
X123597841Y-86637743D01*
X123586237Y-86635340D01*
X123544019Y-86624500D01*
X123524144Y-86624500D01*
X123504434Y-86622949D01*
X123492633Y-86621080D01*
X123484804Y-86619840D01*
X123476912Y-86620586D01*
X123441421Y-86623941D01*
X123429563Y-86624500D01*
X123224983Y-86624500D01*
X123156862Y-86604498D01*
X123143505Y-86593734D01*
X123142546Y-86592454D01*
X123117600Y-86573758D01*
X123035006Y-86511856D01*
X123035003Y-86511854D01*
X123027824Y-86506474D01*
X122938439Y-86472966D01*
X122900975Y-86458921D01*
X122900973Y-86458921D01*
X122893580Y-86456149D01*
X122885730Y-86455296D01*
X122885729Y-86455296D01*
X122835774Y-86449869D01*
X122835773Y-86449869D01*
X122832377Y-86449500D01*
X122817665Y-86449500D01*
X122400999Y-86449501D01*
X122332880Y-86429499D01*
X122286386Y-86375844D01*
X122275000Y-86323501D01*
X122275000Y-86176500D01*
X122295002Y-86108379D01*
X122348658Y-86061886D01*
X122401000Y-86050500D01*
X122817655Y-86050499D01*
X122832376Y-86050499D01*
X122835770Y-86050130D01*
X122835776Y-86050130D01*
X122885722Y-86044705D01*
X122885726Y-86044704D01*
X122893580Y-86043851D01*
X123027824Y-85993526D01*
X123035003Y-85988146D01*
X123035006Y-85988144D01*
X123118358Y-85925674D01*
X123184864Y-85900826D01*
X123193923Y-85900500D01*
X123973500Y-85900500D01*
X124041621Y-85920502D01*
G37*
%TD.AperFunction*%
%TA.AperFunction,Conductor*%
G36*
X108373530Y-83485932D02*
G01*
X108421379Y-83538382D01*
X108434141Y-83593637D01*
X108434141Y-84465694D01*
X108434333Y-84468140D01*
X108434334Y-84468153D01*
X108434476Y-84469953D01*
X108437043Y-84502569D01*
X108443895Y-84526153D01*
X108479441Y-84648501D01*
X108482897Y-84660398D01*
X108486932Y-84667220D01*
X108486932Y-84667221D01*
X108548674Y-84771621D01*
X108566560Y-84801865D01*
X108682776Y-84918081D01*
X108689597Y-84922115D01*
X108788413Y-84980554D01*
X108824243Y-85001744D01*
X108831855Y-85003955D01*
X108831856Y-85003956D01*
X108922171Y-85030195D01*
X108982072Y-85047598D01*
X108995225Y-85048633D01*
X109016488Y-85050307D01*
X109016501Y-85050308D01*
X109018947Y-85050500D01*
X109425505Y-85050500D01*
X109493626Y-85070502D01*
X109514600Y-85087405D01*
X109912393Y-85485198D01*
X109920234Y-85493815D01*
X109924439Y-85500440D01*
X109930218Y-85505867D01*
X109930219Y-85505868D01*
X109975457Y-85548349D01*
X109978299Y-85551104D01*
X109998606Y-85571411D01*
X110001737Y-85573840D01*
X110001743Y-85573845D01*
X110002018Y-85574058D01*
X110011031Y-85581755D01*
X110044248Y-85612948D01*
X110051195Y-85616767D01*
X110057610Y-85621428D01*
X110055580Y-85624221D01*
X110094577Y-85663469D01*
X110109447Y-85732891D01*
X110084423Y-85799331D01*
X110027452Y-85841696D01*
X109983797Y-85849500D01*
X103968817Y-85849500D01*
X103900696Y-85829498D01*
X103854203Y-85775842D01*
X103844099Y-85705568D01*
X103873593Y-85640988D01*
X103913886Y-85610518D01*
X103917670Y-85609256D01*
X103923891Y-85605407D01*
X103923894Y-85605405D01*
X104060258Y-85521020D01*
X104066486Y-85517166D01*
X104190125Y-85393311D01*
X104281955Y-85244334D01*
X104294835Y-85205502D01*
X104334885Y-85084759D01*
X104334886Y-85084757D01*
X104337051Y-85078228D01*
X104347641Y-84974866D01*
X104347641Y-84350134D01*
X104345984Y-84334162D01*
X104337494Y-84252339D01*
X104337493Y-84252335D01*
X104336782Y-84245481D01*
X104307939Y-84159026D01*
X104283715Y-84086419D01*
X104281397Y-84079471D01*
X104189307Y-83930655D01*
X104097718Y-83839225D01*
X104063639Y-83776944D01*
X104068642Y-83706124D01*
X104097563Y-83661035D01*
X104184954Y-83573492D01*
X104184958Y-83573487D01*
X104190125Y-83568311D01*
X104202715Y-83547886D01*
X104255487Y-83500391D01*
X104309976Y-83488000D01*
X105265864Y-83488000D01*
X105333985Y-83508002D01*
X105354959Y-83524905D01*
X106120252Y-84290198D01*
X106128093Y-84298815D01*
X106132298Y-84305440D01*
X106138077Y-84310867D01*
X106138078Y-84310868D01*
X106183316Y-84353349D01*
X106186158Y-84356104D01*
X106206465Y-84376411D01*
X106209596Y-84378840D01*
X106209602Y-84378845D01*
X106209877Y-84379058D01*
X106218890Y-84386755D01*
X106252107Y-84417948D01*
X106259054Y-84421767D01*
X106270566Y-84428096D01*
X106287090Y-84438950D01*
X106303736Y-84451862D01*
X106329989Y-84463223D01*
X106345541Y-84469953D01*
X106356200Y-84475175D01*
X106389186Y-84493309D01*
X106389190Y-84493310D01*
X106396132Y-84497127D01*
X106403805Y-84499097D01*
X106403807Y-84499098D01*
X106416536Y-84502366D01*
X106435240Y-84508770D01*
X106447293Y-84513986D01*
X106447302Y-84513989D01*
X106454573Y-84517135D01*
X106462403Y-84518375D01*
X106462406Y-84518376D01*
X106466483Y-84519022D01*
X106469417Y-84520413D01*
X106470013Y-84520586D01*
X106469985Y-84520682D01*
X106530635Y-84549435D01*
X106567766Y-84608317D01*
X106579441Y-84648501D01*
X106582897Y-84660398D01*
X106586932Y-84667220D01*
X106586932Y-84667221D01*
X106648674Y-84771621D01*
X106666560Y-84801865D01*
X106782776Y-84918081D01*
X106789597Y-84922115D01*
X106888413Y-84980554D01*
X106924243Y-85001744D01*
X106931855Y-85003955D01*
X106931856Y-85003956D01*
X107022171Y-85030195D01*
X107082072Y-85047598D01*
X107095225Y-85048633D01*
X107116488Y-85050307D01*
X107116501Y-85050308D01*
X107118947Y-85050500D01*
X107550335Y-85050500D01*
X107552781Y-85050308D01*
X107552794Y-85050307D01*
X107574057Y-85048633D01*
X107587210Y-85047598D01*
X107647111Y-85030195D01*
X107737426Y-85003956D01*
X107737427Y-85003955D01*
X107745039Y-85001744D01*
X107780870Y-84980554D01*
X107879685Y-84922115D01*
X107886506Y-84918081D01*
X108002722Y-84801865D01*
X108020608Y-84771621D01*
X108082350Y-84667221D01*
X108082350Y-84667220D01*
X108086385Y-84660398D01*
X108089842Y-84648501D01*
X108125387Y-84526153D01*
X108132239Y-84502569D01*
X108134806Y-84469953D01*
X108134948Y-84468153D01*
X108134949Y-84468140D01*
X108135141Y-84465694D01*
X108135141Y-83628686D01*
X108155143Y-83560565D01*
X108197000Y-83520234D01*
X108204680Y-83515692D01*
X108204686Y-83515687D01*
X108211506Y-83511654D01*
X108217711Y-83505449D01*
X108235998Y-83490322D01*
X108237333Y-83489415D01*
X108304920Y-83467678D01*
X108373530Y-83485932D01*
G37*
%TD.AperFunction*%
%TA.AperFunction,Conductor*%
G36*
X103178803Y-78920502D02*
G01*
X103225296Y-78974158D01*
X103236026Y-79039342D01*
X103232359Y-79075134D01*
X103232359Y-80424866D01*
X103232696Y-80428112D01*
X103232696Y-80428116D01*
X103240393Y-80502291D01*
X103243218Y-80529519D01*
X103245399Y-80536055D01*
X103245399Y-80536057D01*
X103247133Y-80541253D01*
X103298603Y-80695529D01*
X103390693Y-80844345D01*
X103395875Y-80849518D01*
X103395879Y-80849523D01*
X103430744Y-80884327D01*
X103464824Y-80946609D01*
X103459821Y-81017429D01*
X103417324Y-81074302D01*
X103350826Y-81099171D01*
X103341727Y-81099500D01*
X101913860Y-81099500D01*
X101902219Y-81098951D01*
X101894563Y-81097240D01*
X101826214Y-81099388D01*
X101824615Y-81099438D01*
X101820658Y-81099500D01*
X101791934Y-81099500D01*
X101787671Y-81100038D01*
X101775842Y-81100970D01*
X101730290Y-81102402D01*
X101710052Y-81108281D01*
X101690699Y-81112289D01*
X101687086Y-81112745D01*
X101677667Y-81113935D01*
X101677665Y-81113935D01*
X101669801Y-81114929D01*
X101662429Y-81117848D01*
X101662428Y-81117848D01*
X101627443Y-81131699D01*
X101616213Y-81135544D01*
X101580071Y-81146044D01*
X101572461Y-81148255D01*
X101565642Y-81152288D01*
X101565637Y-81152290D01*
X101554326Y-81158980D01*
X101536567Y-81167680D01*
X101524363Y-81172512D01*
X101516988Y-81175432D01*
X101510574Y-81180092D01*
X101480132Y-81202209D01*
X101470212Y-81208725D01*
X101430994Y-81231919D01*
X101416101Y-81246812D01*
X101401067Y-81259653D01*
X101384022Y-81272037D01*
X101378969Y-81278145D01*
X101354980Y-81307143D01*
X101346990Y-81315923D01*
X100600318Y-82062595D01*
X100538006Y-82096621D01*
X100511223Y-82099500D01*
X99871595Y-82099500D01*
X99803474Y-82079498D01*
X99756981Y-82025842D01*
X99752071Y-82013374D01*
X99746642Y-81997100D01*
X99746640Y-81997095D01*
X99744322Y-81990148D01*
X99655299Y-81846289D01*
X99535570Y-81726769D01*
X99476050Y-81690080D01*
X99397786Y-81641837D01*
X99397784Y-81641836D01*
X99391556Y-81637997D01*
X99230983Y-81584737D01*
X99224147Y-81584037D01*
X99224144Y-81584036D01*
X99174062Y-81578905D01*
X99131066Y-81574500D01*
X98835159Y-81574500D01*
X98534653Y-81574501D01*
X98531409Y-81574838D01*
X98531401Y-81574838D01*
X98486979Y-81579447D01*
X98433487Y-81584997D01*
X98273007Y-81638537D01*
X98129148Y-81727560D01*
X98009628Y-81847289D01*
X98005788Y-81853519D01*
X98005787Y-81853520D01*
X97999004Y-81864525D01*
X97920856Y-81991303D01*
X97867596Y-82151876D01*
X97866896Y-82158712D01*
X97866895Y-82158715D01*
X97863759Y-82189330D01*
X97857359Y-82251793D01*
X97857360Y-82798206D01*
X97857697Y-82801450D01*
X97857697Y-82801458D01*
X97860471Y-82828193D01*
X97867856Y-82899372D01*
X97921396Y-83059852D01*
X97947133Y-83101442D01*
X97965970Y-83169891D01*
X97944809Y-83237661D01*
X97922245Y-83261151D01*
X97922996Y-83261951D01*
X97917217Y-83267377D01*
X97910804Y-83272037D01*
X97905751Y-83278145D01*
X97881762Y-83307143D01*
X97873772Y-83315923D01*
X96452100Y-84737595D01*
X96389788Y-84771621D01*
X96363007Y-84774500D01*
X96339136Y-84774500D01*
X96281500Y-84774501D01*
X96213381Y-84754500D01*
X96166887Y-84700845D01*
X96155500Y-84648501D01*
X96155500Y-84075999D01*
X96156049Y-84064359D01*
X96157760Y-84056703D01*
X96155562Y-83986768D01*
X96155500Y-83982811D01*
X96155500Y-83954075D01*
X96154961Y-83949807D01*
X96154028Y-83937964D01*
X96153799Y-83930655D01*
X96152597Y-83892431D01*
X96150385Y-83884817D01*
X96150384Y-83884812D01*
X96146722Y-83872208D01*
X96142711Y-83852843D01*
X96141064Y-83839805D01*
X96140071Y-83831942D01*
X96137153Y-83824573D01*
X96137152Y-83824568D01*
X96123297Y-83789573D01*
X96119452Y-83778343D01*
X96108955Y-83742211D01*
X96108954Y-83742210D01*
X96106744Y-83734601D01*
X96096019Y-83716466D01*
X96087320Y-83698709D01*
X96082486Y-83686498D01*
X96082485Y-83686496D01*
X96079568Y-83679129D01*
X96052788Y-83642269D01*
X96046272Y-83632349D01*
X96044106Y-83628686D01*
X96023081Y-83593135D01*
X96008188Y-83578242D01*
X95995347Y-83563208D01*
X95987623Y-83552577D01*
X95982963Y-83546163D01*
X95947856Y-83517120D01*
X95939077Y-83509131D01*
X94823167Y-82393221D01*
X94789141Y-82330909D01*
X94790555Y-82271515D01*
X94794978Y-82255010D01*
X94835063Y-82105408D01*
X94855659Y-81870000D01*
X94835063Y-81634592D01*
X94827381Y-81605920D01*
X94797138Y-81493054D01*
X94781051Y-81433014D01*
X94782741Y-81362040D01*
X94813663Y-81311310D01*
X97187568Y-78937405D01*
X97249880Y-78903379D01*
X97276663Y-78900500D01*
X103110682Y-78900500D01*
X103178803Y-78920502D01*
G37*
%TD.AperFunction*%
%TA.AperFunction,Conductor*%
G36*
X112306908Y-78232756D02*
G01*
X112358135Y-78281912D01*
X112365965Y-78298175D01*
X112384524Y-78345048D01*
X112386200Y-78349281D01*
X112388871Y-78356699D01*
X112406732Y-78411671D01*
X112410979Y-78418363D01*
X112410981Y-78418368D01*
X112411440Y-78419091D01*
X112422199Y-78440207D01*
X112422514Y-78441003D01*
X112422516Y-78441007D01*
X112425432Y-78448371D01*
X112430088Y-78454779D01*
X112430091Y-78454785D01*
X112459390Y-78495112D01*
X112463838Y-78501655D01*
X112494798Y-78550440D01*
X112500574Y-78555864D01*
X112501192Y-78556444D01*
X112516878Y-78574237D01*
X112517375Y-78574921D01*
X112517377Y-78574924D01*
X112522037Y-78581337D01*
X112528145Y-78586390D01*
X112566555Y-78618165D01*
X112572490Y-78623398D01*
X112614607Y-78662948D01*
X112621547Y-78666763D01*
X112621552Y-78666767D01*
X112622297Y-78667176D01*
X112641919Y-78680511D01*
X112648674Y-78686100D01*
X112700937Y-78710693D01*
X112707989Y-78714286D01*
X112750759Y-78737799D01*
X112758632Y-78742127D01*
X112767135Y-78744310D01*
X112789451Y-78752345D01*
X112797387Y-78756079D01*
X112805170Y-78757564D01*
X112805174Y-78757565D01*
X112842642Y-78764712D01*
X112854132Y-78766904D01*
X112861834Y-78768625D01*
X112917823Y-78783000D01*
X112926602Y-78783000D01*
X112950211Y-78785232D01*
X112958830Y-78786876D01*
X113016480Y-78783249D01*
X113024391Y-78783000D01*
X113223500Y-78783000D01*
X113291621Y-78803002D01*
X113338114Y-78856658D01*
X113349500Y-78909000D01*
X113349500Y-81591569D01*
X113329498Y-81659690D01*
X113275842Y-81706183D01*
X113205568Y-81716287D01*
X113157384Y-81698829D01*
X113064927Y-81641837D01*
X113064925Y-81641836D01*
X113058697Y-81637997D01*
X112898124Y-81584737D01*
X112891288Y-81584037D01*
X112891285Y-81584036D01*
X112841203Y-81578905D01*
X112798207Y-81574500D01*
X112502300Y-81574500D01*
X112201794Y-81574501D01*
X112198550Y-81574838D01*
X112198542Y-81574838D01*
X112154120Y-81579447D01*
X112100628Y-81584997D01*
X111940148Y-81638537D01*
X111796289Y-81727560D01*
X111791116Y-81732742D01*
X111686523Y-81837518D01*
X111624241Y-81871597D01*
X111597350Y-81874500D01*
X111096636Y-81874500D01*
X111028515Y-81854498D01*
X111007541Y-81837595D01*
X110860026Y-81690080D01*
X110826000Y-81627768D01*
X110823121Y-81600985D01*
X110823121Y-78482666D01*
X110843123Y-78414545D01*
X110896779Y-78368052D01*
X110967053Y-78357948D01*
X111010590Y-78372678D01*
X111097513Y-78421257D01*
X111284118Y-78481889D01*
X111478946Y-78505121D01*
X111485081Y-78504649D01*
X111485083Y-78504649D01*
X111668434Y-78490541D01*
X111668438Y-78490540D01*
X111674576Y-78490068D01*
X111863556Y-78437303D01*
X112038689Y-78348837D01*
X112046770Y-78342524D01*
X112171243Y-78245275D01*
X112237237Y-78219098D01*
X112306908Y-78232756D01*
G37*
%TD.AperFunction*%
%TA.AperFunction,Conductor*%
G36*
X124441621Y-63020502D02*
G01*
X124488114Y-63074158D01*
X124499500Y-63126500D01*
X124499500Y-73982988D01*
X124479498Y-74051109D01*
X124425842Y-74097602D01*
X124355568Y-74107706D01*
X124333832Y-74102581D01*
X124212259Y-74062256D01*
X124212257Y-74062255D01*
X124205728Y-74060090D01*
X124102366Y-74049500D01*
X123477634Y-74049500D01*
X123474388Y-74049837D01*
X123474384Y-74049837D01*
X123379839Y-74059647D01*
X123379835Y-74059648D01*
X123372981Y-74060359D01*
X123366445Y-74062540D01*
X123366443Y-74062540D01*
X123234421Y-74106586D01*
X123206971Y-74115744D01*
X123058155Y-74207834D01*
X122934516Y-74331689D01*
X122842686Y-74480666D01*
X122840381Y-74487614D01*
X122840381Y-74487615D01*
X122822628Y-74541139D01*
X122787590Y-74646772D01*
X122777000Y-74750134D01*
X122777000Y-75749866D01*
X122777337Y-75753112D01*
X122777337Y-75753116D01*
X122785748Y-75834173D01*
X122787859Y-75854519D01*
X122790040Y-75861055D01*
X122790040Y-75861057D01*
X122808024Y-75914961D01*
X122814500Y-75954837D01*
X122814500Y-77823501D01*
X122794498Y-77891622D01*
X122740842Y-77938115D01*
X122688500Y-77949501D01*
X122667624Y-77949501D01*
X122664230Y-77949870D01*
X122664224Y-77949870D01*
X122614278Y-77955295D01*
X122614274Y-77955296D01*
X122606420Y-77956149D01*
X122472176Y-78006474D01*
X122464997Y-78011854D01*
X122464994Y-78011856D01*
X122395549Y-78063903D01*
X122357454Y-78092454D01*
X122352072Y-78099635D01*
X122276856Y-78199994D01*
X122276854Y-78199997D01*
X122271474Y-78207176D01*
X122268324Y-78215580D01*
X122226845Y-78326227D01*
X122221149Y-78341420D01*
X122214500Y-78402623D01*
X122214501Y-79497376D01*
X122214870Y-79500770D01*
X122214870Y-79500776D01*
X122215361Y-79505295D01*
X122221149Y-79558580D01*
X122223921Y-79565974D01*
X122225082Y-79570859D01*
X122225081Y-79629143D01*
X122223919Y-79634031D01*
X122221149Y-79641420D01*
X122220297Y-79649267D01*
X122220296Y-79649269D01*
X122214869Y-79699226D01*
X122214500Y-79702623D01*
X122214501Y-80797376D01*
X122214870Y-80800770D01*
X122214870Y-80800776D01*
X122220054Y-80848496D01*
X122221149Y-80858580D01*
X122271474Y-80992824D01*
X122276854Y-81000003D01*
X122276856Y-81000006D01*
X122319326Y-81056673D01*
X122344174Y-81123180D01*
X122344500Y-81132238D01*
X122344500Y-81473500D01*
X122324498Y-81541621D01*
X122270842Y-81588114D01*
X122218500Y-81599500D01*
X121891500Y-81599500D01*
X121823379Y-81579498D01*
X121776886Y-81525842D01*
X121765500Y-81473500D01*
X121765499Y-79956042D01*
X121765499Y-79952624D01*
X121758851Y-79891420D01*
X121708526Y-79757176D01*
X121703146Y-79749997D01*
X121703144Y-79749994D01*
X121627928Y-79649635D01*
X121622546Y-79642454D01*
X121614500Y-79636424D01*
X121515006Y-79561856D01*
X121515003Y-79561854D01*
X121507824Y-79556474D01*
X121497270Y-79552518D01*
X121495448Y-79551149D01*
X121491545Y-79549012D01*
X121491853Y-79548449D01*
X121440507Y-79509878D01*
X121415806Y-79443316D01*
X121415500Y-79434536D01*
X121415500Y-77468500D01*
X121416049Y-77456860D01*
X121417760Y-77449204D01*
X121415562Y-77379269D01*
X121415500Y-77375312D01*
X121415500Y-77346575D01*
X121414961Y-77342304D01*
X121414028Y-77330466D01*
X121413173Y-77303244D01*
X121412597Y-77284931D01*
X121410385Y-77277317D01*
X121410384Y-77277312D01*
X121406722Y-77264708D01*
X121402711Y-77245343D01*
X121401700Y-77237337D01*
X121400071Y-77224442D01*
X121383297Y-77182077D01*
X121379459Y-77170869D01*
X121366744Y-77127102D01*
X121356018Y-77108964D01*
X121347323Y-77091216D01*
X121342487Y-77079001D01*
X121342486Y-77079000D01*
X121339568Y-77071629D01*
X121312782Y-77034762D01*
X121306275Y-77024854D01*
X121287117Y-76992458D01*
X121287113Y-76992453D01*
X121283081Y-76985635D01*
X121268188Y-76970742D01*
X121255347Y-76955708D01*
X121247623Y-76945077D01*
X121242963Y-76938663D01*
X121207856Y-76909620D01*
X121199077Y-76901631D01*
X120452405Y-76154959D01*
X120418379Y-76092647D01*
X120415500Y-76065864D01*
X120415500Y-75525134D01*
X120415102Y-75521294D01*
X120405353Y-75427339D01*
X120405352Y-75427335D01*
X120404641Y-75420481D01*
X120395572Y-75393296D01*
X120351574Y-75261419D01*
X120349256Y-75254471D01*
X120257166Y-75105655D01*
X120133311Y-74982016D01*
X119984334Y-74890186D01*
X119931897Y-74872793D01*
X119824759Y-74837256D01*
X119824757Y-74837255D01*
X119818228Y-74835090D01*
X119714866Y-74824500D01*
X119690478Y-74824500D01*
X119622357Y-74804498D01*
X119575864Y-74750842D01*
X119565760Y-74680568D01*
X119595254Y-74615988D01*
X119601382Y-74609405D01*
X119873069Y-74337717D01*
X119891341Y-74322601D01*
X119892042Y-74322125D01*
X119892046Y-74322121D01*
X119898602Y-74317666D01*
X119909384Y-74305437D01*
X119936815Y-74274322D01*
X119942234Y-74268552D01*
X119953911Y-74256875D01*
X119956335Y-74253750D01*
X119956342Y-74253742D01*
X119964034Y-74243825D01*
X119969079Y-74237727D01*
X120002048Y-74200331D01*
X120002051Y-74200327D01*
X120007292Y-74194382D01*
X120010890Y-74187321D01*
X120010892Y-74187318D01*
X120011278Y-74186560D01*
X120023984Y-74166539D01*
X120029363Y-74159604D01*
X120032510Y-74152333D01*
X120032513Y-74152327D01*
X120052306Y-74106586D01*
X120055677Y-74099422D01*
X120078308Y-74055008D01*
X120078310Y-74055003D01*
X120081908Y-74047941D01*
X120083637Y-74040205D01*
X120083639Y-74040200D01*
X120083825Y-74039368D01*
X120091150Y-74016822D01*
X120094636Y-74008767D01*
X120103675Y-73951699D01*
X120105158Y-73943926D01*
X120116031Y-73895280D01*
X120117760Y-73887545D01*
X120117484Y-73878774D01*
X120118974Y-73855107D01*
X120120347Y-73846436D01*
X120119601Y-73838541D01*
X120114909Y-73788906D01*
X120114412Y-73781008D01*
X120112846Y-73731198D01*
X120112597Y-73723272D01*
X120110149Y-73714846D01*
X120105705Y-73691550D01*
X120105625Y-73690702D01*
X120105625Y-73690701D01*
X120104879Y-73682812D01*
X120085311Y-73628458D01*
X120082865Y-73620931D01*
X120068956Y-73573056D01*
X120068955Y-73573055D01*
X120066744Y-73565443D01*
X120062707Y-73558616D01*
X120062276Y-73557887D01*
X120052176Y-73536424D01*
X120051891Y-73535632D01*
X120049206Y-73528173D01*
X120044749Y-73521614D01*
X120044747Y-73521611D01*
X120016737Y-73480395D01*
X120012496Y-73473713D01*
X119987117Y-73430799D01*
X119987113Y-73430794D01*
X119983081Y-73423976D01*
X119976876Y-73417771D01*
X119961760Y-73399500D01*
X119961284Y-73398799D01*
X119961281Y-73398795D01*
X119956825Y-73392239D01*
X119913473Y-73354019D01*
X119907719Y-73348614D01*
X119639056Y-73079951D01*
X119605030Y-73017639D01*
X119610095Y-72946824D01*
X119652642Y-72889988D01*
X119681760Y-72873707D01*
X119686367Y-72871883D01*
X119695424Y-72868296D01*
X119706631Y-72864459D01*
X119750398Y-72851744D01*
X119768536Y-72841018D01*
X119786281Y-72832324D01*
X119805871Y-72824568D01*
X119842738Y-72797782D01*
X119852646Y-72791275D01*
X119885042Y-72772117D01*
X119885047Y-72772113D01*
X119891865Y-72768081D01*
X119906758Y-72753188D01*
X119921792Y-72740347D01*
X119932423Y-72732623D01*
X119938837Y-72727963D01*
X119967880Y-72692856D01*
X119975869Y-72684077D01*
X121897541Y-70762405D01*
X121959853Y-70728379D01*
X121986636Y-70725500D01*
X122243839Y-70725499D01*
X122263206Y-70725499D01*
X122266450Y-70725162D01*
X122266458Y-70725162D01*
X122310880Y-70720553D01*
X122364372Y-70715003D01*
X122524852Y-70661463D01*
X122668711Y-70572440D01*
X122788231Y-70452711D01*
X122793941Y-70443448D01*
X122873163Y-70314927D01*
X122873164Y-70314925D01*
X122877003Y-70308697D01*
X122930263Y-70148124D01*
X122931525Y-70135812D01*
X122937294Y-70079498D01*
X122940500Y-70048207D01*
X122940499Y-69501794D01*
X122930003Y-69400628D01*
X122876463Y-69240148D01*
X122787440Y-69096289D01*
X122667711Y-68976769D01*
X122576430Y-68920502D01*
X122529927Y-68891837D01*
X122529925Y-68891836D01*
X122523697Y-68887997D01*
X122363124Y-68834737D01*
X122356288Y-68834037D01*
X122356285Y-68834036D01*
X122306203Y-68828905D01*
X122263207Y-68824500D01*
X121967300Y-68824500D01*
X121666794Y-68824501D01*
X121663550Y-68824838D01*
X121663542Y-68824838D01*
X121619120Y-68829447D01*
X121565628Y-68834997D01*
X121405148Y-68888537D01*
X121261289Y-68977560D01*
X121141769Y-69097289D01*
X121137929Y-69103519D01*
X121137928Y-69103520D01*
X121085314Y-69188876D01*
X121052997Y-69241303D01*
X120999737Y-69401876D01*
X120999037Y-69408712D01*
X120999036Y-69408715D01*
X120993948Y-69458379D01*
X120989500Y-69501793D01*
X120989501Y-69649500D01*
X120989501Y-69778363D01*
X120969499Y-69846483D01*
X120952596Y-69867458D01*
X120615595Y-70204459D01*
X120553283Y-70238485D01*
X120482468Y-70233420D01*
X120425632Y-70190873D01*
X120400821Y-70124353D01*
X120400500Y-70115364D01*
X120400500Y-67061636D01*
X120420502Y-66993515D01*
X120437405Y-66972541D01*
X120897541Y-66512405D01*
X120959853Y-66478379D01*
X120986636Y-66475500D01*
X121243839Y-66475499D01*
X121263206Y-66475499D01*
X121266450Y-66475162D01*
X121266458Y-66475162D01*
X121310880Y-66470553D01*
X121364372Y-66465003D01*
X121524852Y-66411463D01*
X121668711Y-66322440D01*
X121788231Y-66202711D01*
X121792072Y-66196480D01*
X121873163Y-66064927D01*
X121873164Y-66064925D01*
X121877003Y-66058697D01*
X121930263Y-65898124D01*
X121940500Y-65798207D01*
X121940499Y-65251794D01*
X121930003Y-65150628D01*
X121876463Y-64990148D01*
X121787440Y-64846289D01*
X121667711Y-64726769D01*
X121599028Y-64684432D01*
X121529927Y-64641837D01*
X121529925Y-64641836D01*
X121523697Y-64637997D01*
X121363124Y-64584737D01*
X121356288Y-64584037D01*
X121356285Y-64584036D01*
X121305089Y-64578791D01*
X121263207Y-64574500D01*
X120967300Y-64574500D01*
X120666794Y-64574501D01*
X120663550Y-64574838D01*
X120663542Y-64574838D01*
X120619120Y-64579447D01*
X120565628Y-64584997D01*
X120405148Y-64638537D01*
X120261289Y-64727560D01*
X120141769Y-64847289D01*
X120137929Y-64853519D01*
X120137928Y-64853520D01*
X120065995Y-64970217D01*
X120052997Y-64991303D01*
X119999737Y-65151876D01*
X119989500Y-65251793D01*
X119989500Y-65255010D01*
X119989501Y-65528363D01*
X119969499Y-65596483D01*
X119952596Y-65617458D01*
X119865595Y-65704459D01*
X119803283Y-65738485D01*
X119732468Y-65733420D01*
X119675632Y-65690873D01*
X119650821Y-65624353D01*
X119650500Y-65615364D01*
X119650500Y-64982074D01*
X119651049Y-64970433D01*
X119652760Y-64962777D01*
X119650562Y-64892829D01*
X119650500Y-64888872D01*
X119650500Y-64860148D01*
X119649962Y-64855885D01*
X119649029Y-64844046D01*
X119648969Y-64842109D01*
X119647598Y-64798504D01*
X119641720Y-64778270D01*
X119637711Y-64758911D01*
X119636065Y-64745884D01*
X119635071Y-64738015D01*
X119632152Y-64730643D01*
X119632151Y-64730638D01*
X119618302Y-64695659D01*
X119614458Y-64684432D01*
X119603956Y-64648287D01*
X119603955Y-64648284D01*
X119601744Y-64640675D01*
X119591018Y-64622537D01*
X119582323Y-64604789D01*
X119577487Y-64592574D01*
X119577486Y-64592573D01*
X119574568Y-64585202D01*
X119547782Y-64548335D01*
X119541275Y-64538427D01*
X119522117Y-64506031D01*
X119522113Y-64506026D01*
X119518081Y-64499208D01*
X119503188Y-64484315D01*
X119490347Y-64469281D01*
X119482623Y-64458650D01*
X119477963Y-64452236D01*
X119442856Y-64423193D01*
X119434077Y-64415204D01*
X118234468Y-63215595D01*
X118200442Y-63153283D01*
X118205507Y-63082468D01*
X118248054Y-63025632D01*
X118314574Y-63000821D01*
X118323563Y-63000500D01*
X124373500Y-63000500D01*
X124441621Y-63020502D01*
G37*
%TD.AperFunction*%
%TA.AperFunction,Conductor*%
G36*
X93696121Y-79096002D02*
G01*
X93742614Y-79149658D01*
X93754000Y-79202000D01*
X93754000Y-79458000D01*
X93733998Y-79526121D01*
X93680342Y-79572614D01*
X93628000Y-79584000D01*
X93026500Y-79584000D01*
X92958379Y-79563998D01*
X92911886Y-79510342D01*
X92900500Y-79458000D01*
X92900500Y-79202000D01*
X92920502Y-79133879D01*
X92974158Y-79087386D01*
X93026500Y-79076000D01*
X93628000Y-79076000D01*
X93696121Y-79096002D01*
G37*
%TD.AperFunction*%
%TA.AperFunction,Conductor*%
G36*
X91541621Y-79096002D02*
G01*
X91588114Y-79149658D01*
X91599500Y-79202000D01*
X91599500Y-79458000D01*
X91579498Y-79526121D01*
X91525842Y-79572614D01*
X91473500Y-79584000D01*
X90832000Y-79584000D01*
X90763879Y-79563998D01*
X90717386Y-79510342D01*
X90706000Y-79458000D01*
X90706000Y-79202000D01*
X90726002Y-79133879D01*
X90779658Y-79087386D01*
X90832000Y-79076000D01*
X91473500Y-79076000D01*
X91541621Y-79096002D01*
G37*
%TD.AperFunction*%
%TA.AperFunction,Conductor*%
G36*
X118008646Y-75170502D02*
G01*
X118055139Y-75224158D01*
X118065243Y-75294432D01*
X118060118Y-75316168D01*
X118027305Y-75415095D01*
X118025090Y-75421772D01*
X118014500Y-75525134D01*
X118014500Y-76149866D01*
X118014837Y-76153112D01*
X118014837Y-76153116D01*
X118023909Y-76240541D01*
X118025359Y-76254519D01*
X118027540Y-76261055D01*
X118027540Y-76261057D01*
X118039205Y-76296020D01*
X118080744Y-76420529D01*
X118172834Y-76569345D01*
X118296689Y-76692984D01*
X118445666Y-76784814D01*
X118452614Y-76787119D01*
X118452615Y-76787119D01*
X118605241Y-76837744D01*
X118605243Y-76837745D01*
X118611772Y-76839910D01*
X118715134Y-76850500D01*
X119255864Y-76850500D01*
X119323985Y-76870502D01*
X119344959Y-76887405D01*
X120077595Y-77620041D01*
X120111621Y-77682353D01*
X120114500Y-77709136D01*
X120114500Y-79373500D01*
X120094498Y-79441621D01*
X120040842Y-79488114D01*
X119988500Y-79499500D01*
X119054714Y-79499501D01*
X118917624Y-79499501D01*
X118914230Y-79499870D01*
X118914224Y-79499870D01*
X118864278Y-79505295D01*
X118864274Y-79505296D01*
X118856420Y-79506149D01*
X118849020Y-79508923D01*
X118849016Y-79508924D01*
X118785728Y-79532649D01*
X118714921Y-79537832D01*
X118652552Y-79503910D01*
X118618424Y-79441654D01*
X118615500Y-79414667D01*
X118615500Y-78831001D01*
X118616049Y-78819360D01*
X118617760Y-78811704D01*
X118615562Y-78741756D01*
X118615500Y-78737799D01*
X118615500Y-78709075D01*
X118614962Y-78704812D01*
X118614029Y-78692973D01*
X118613962Y-78690814D01*
X118612598Y-78647431D01*
X118606719Y-78627193D01*
X118602711Y-78607839D01*
X118601065Y-78594808D01*
X118601065Y-78594806D01*
X118600071Y-78586942D01*
X118595041Y-78574237D01*
X118583301Y-78544584D01*
X118579456Y-78533354D01*
X118568956Y-78497212D01*
X118568956Y-78497211D01*
X118566745Y-78489602D01*
X118562712Y-78482783D01*
X118562710Y-78482778D01*
X118556020Y-78471467D01*
X118547320Y-78453708D01*
X118542488Y-78441504D01*
X118539568Y-78434129D01*
X118512791Y-78397273D01*
X118506275Y-78387353D01*
X118494860Y-78368052D01*
X118483081Y-78348135D01*
X118468188Y-78333242D01*
X118455347Y-78318208D01*
X118447623Y-78307577D01*
X118442963Y-78301163D01*
X118430884Y-78291170D01*
X118407857Y-78272121D01*
X118399077Y-78264131D01*
X116402405Y-76267459D01*
X116368379Y-76205147D01*
X116365500Y-76178364D01*
X116365500Y-75276500D01*
X116385502Y-75208379D01*
X116439158Y-75161886D01*
X116491500Y-75150500D01*
X117940525Y-75150500D01*
X118008646Y-75170502D01*
G37*
%TD.AperFunction*%
%TA.AperFunction,Conductor*%
G36*
X110925495Y-74210090D02*
G01*
X110985738Y-74235044D01*
X110993926Y-74236122D01*
X111028647Y-74240693D01*
X111103139Y-74250500D01*
X111143586Y-74250500D01*
X112223500Y-74250499D01*
X112291621Y-74270501D01*
X112338114Y-74324157D01*
X112349500Y-74376499D01*
X112349500Y-76636463D01*
X112329498Y-76704584D01*
X112275842Y-76751077D01*
X112205568Y-76761181D01*
X112143185Y-76733548D01*
X112066930Y-76670464D01*
X112066927Y-76670462D01*
X112062180Y-76666535D01*
X111889585Y-76573213D01*
X111795868Y-76544203D01*
X111708039Y-76517015D01*
X111708036Y-76517014D01*
X111702152Y-76515193D01*
X111696027Y-76514549D01*
X111696026Y-76514549D01*
X111513147Y-76495327D01*
X111513146Y-76495327D01*
X111507019Y-76494683D01*
X111384383Y-76505844D01*
X111317759Y-76511907D01*
X111317758Y-76511907D01*
X111311618Y-76512466D01*
X111305704Y-76514207D01*
X111305702Y-76514207D01*
X111284484Y-76520452D01*
X111123393Y-76567864D01*
X111117928Y-76570721D01*
X110954972Y-76655912D01*
X110954968Y-76655915D01*
X110949512Y-76658767D01*
X110944712Y-76662627D01*
X110944711Y-76662627D01*
X110934964Y-76670464D01*
X110796600Y-76781711D01*
X110670480Y-76932016D01*
X110667516Y-76937408D01*
X110667513Y-76937412D01*
X110622150Y-77019928D01*
X110575956Y-77103954D01*
X110516628Y-77290978D01*
X110494757Y-77485963D01*
X110495273Y-77492107D01*
X110495187Y-77498264D01*
X110492392Y-77498225D01*
X110480569Y-77556015D01*
X110430993Y-77606836D01*
X110361812Y-77622787D01*
X110345639Y-77620775D01*
X110318476Y-77615593D01*
X110310787Y-77613875D01*
X110254798Y-77599500D01*
X110246019Y-77599500D01*
X110222409Y-77597268D01*
X110221576Y-77597109D01*
X110213791Y-77595624D01*
X110156142Y-77599251D01*
X110148230Y-77599500D01*
X97036027Y-77599500D01*
X97024387Y-77598951D01*
X97016731Y-77597240D01*
X97008808Y-77597489D01*
X96971364Y-77598666D01*
X96952747Y-77599251D01*
X96946797Y-77599438D01*
X96942839Y-77599500D01*
X96914102Y-77599500D01*
X96909831Y-77600039D01*
X96898003Y-77600971D01*
X96852458Y-77602403D01*
X96844844Y-77604615D01*
X96844839Y-77604616D01*
X96832235Y-77608278D01*
X96812871Y-77612289D01*
X96791969Y-77614929D01*
X96784598Y-77617848D01*
X96784596Y-77617848D01*
X96749607Y-77631702D01*
X96738396Y-77635541D01*
X96694629Y-77648256D01*
X96676494Y-77658981D01*
X96658746Y-77667676D01*
X96639156Y-77675432D01*
X96602289Y-77702218D01*
X96592381Y-77708725D01*
X96559985Y-77727883D01*
X96559980Y-77727887D01*
X96553162Y-77731919D01*
X96538269Y-77746812D01*
X96523235Y-77759653D01*
X96506190Y-77772037D01*
X96501137Y-77778145D01*
X96477148Y-77807143D01*
X96469158Y-77815923D01*
X95062054Y-79223027D01*
X94999742Y-79257053D01*
X94928927Y-79251988D01*
X94872091Y-79209441D01*
X94847383Y-79144254D01*
X94844781Y-79112605D01*
X94843096Y-79102424D01*
X94791214Y-78895875D01*
X94787894Y-78886124D01*
X94702972Y-78690814D01*
X94698105Y-78681739D01*
X94582426Y-78502926D01*
X94576136Y-78494757D01*
X94432806Y-78337240D01*
X94425273Y-78330215D01*
X94258139Y-78198222D01*
X94249557Y-78192520D01*
X94203863Y-78167296D01*
X94153892Y-78116864D01*
X94139120Y-78047421D01*
X94164236Y-77981015D01*
X94192485Y-77953774D01*
X94366890Y-77831654D01*
X94366893Y-77831652D01*
X94371401Y-77828495D01*
X94538495Y-77661401D01*
X94674035Y-77467829D01*
X94705811Y-77399687D01*
X94771580Y-77258645D01*
X94771581Y-77258643D01*
X94773903Y-77253663D01*
X94776133Y-77245343D01*
X94833639Y-77030723D01*
X94833639Y-77030722D01*
X94835063Y-77025408D01*
X94855659Y-76790000D01*
X94844515Y-76662627D01*
X94836185Y-76567412D01*
X94850174Y-76497807D01*
X94872611Y-76467335D01*
X95582698Y-75757248D01*
X95591315Y-75749407D01*
X95597940Y-75745202D01*
X95645850Y-75694183D01*
X95648604Y-75691342D01*
X95668912Y-75671034D01*
X95671554Y-75667628D01*
X95679266Y-75658598D01*
X95705023Y-75631170D01*
X95710448Y-75625393D01*
X95720599Y-75606930D01*
X95731451Y-75590409D01*
X95739503Y-75580029D01*
X95739504Y-75580027D01*
X95744363Y-75573763D01*
X95762455Y-75531954D01*
X95767677Y-75521294D01*
X95785809Y-75488313D01*
X95785809Y-75488312D01*
X95789627Y-75481368D01*
X95794866Y-75460962D01*
X95801270Y-75442259D01*
X95806488Y-75430200D01*
X95809636Y-75422926D01*
X95810876Y-75415100D01*
X95810877Y-75415095D01*
X95816765Y-75377924D01*
X95819171Y-75366304D01*
X95828528Y-75329858D01*
X95828528Y-75329857D01*
X95830500Y-75322177D01*
X95830500Y-75301116D01*
X95832051Y-75281405D01*
X95834107Y-75268424D01*
X95835347Y-75260595D01*
X95831059Y-75215232D01*
X95830500Y-75203375D01*
X95830500Y-74526500D01*
X95850502Y-74458379D01*
X95904158Y-74411886D01*
X95956500Y-74400500D01*
X97886491Y-74400500D01*
X97954612Y-74420502D01*
X98001105Y-74474158D01*
X98011209Y-74544432D01*
X97983013Y-74607491D01*
X97955533Y-74640241D01*
X97920480Y-74682016D01*
X97917516Y-74687408D01*
X97917513Y-74687412D01*
X97853145Y-74804498D01*
X97825956Y-74853954D01*
X97824095Y-74859821D01*
X97824094Y-74859823D01*
X97814462Y-74890186D01*
X97766628Y-75040978D01*
X97744757Y-75235963D01*
X97761175Y-75431483D01*
X97815258Y-75620091D01*
X97818076Y-75625574D01*
X97902123Y-75789113D01*
X97902126Y-75789117D01*
X97904944Y-75794601D01*
X98026818Y-75948369D01*
X98031511Y-75952363D01*
X98031512Y-75952364D01*
X98164875Y-76065864D01*
X98176238Y-76075535D01*
X98181616Y-76078541D01*
X98181618Y-76078542D01*
X98217932Y-76098837D01*
X98347513Y-76171257D01*
X98534118Y-76231889D01*
X98728946Y-76255121D01*
X98735081Y-76254649D01*
X98735083Y-76254649D01*
X98918434Y-76240541D01*
X98918438Y-76240540D01*
X98924576Y-76240068D01*
X99113556Y-76187303D01*
X99288689Y-76098837D01*
X99318515Y-76075535D01*
X99393221Y-76017168D01*
X99443303Y-75978040D01*
X99473084Y-75943539D01*
X99567485Y-75834173D01*
X99567485Y-75834172D01*
X99571509Y-75829511D01*
X99581154Y-75812534D01*
X99632459Y-75722220D01*
X99668425Y-75658909D01*
X99730358Y-75472732D01*
X99754949Y-75278071D01*
X99755341Y-75250000D01*
X99736194Y-75054728D01*
X99734413Y-75048829D01*
X99734412Y-75048824D01*
X99681265Y-74872793D01*
X99679484Y-74866894D01*
X99587370Y-74693653D01*
X99515991Y-74606134D01*
X99488439Y-74540703D01*
X99500635Y-74470762D01*
X99548708Y-74418517D01*
X99613636Y-74400500D01*
X102419000Y-74400500D01*
X102430640Y-74401049D01*
X102438296Y-74402760D01*
X102446219Y-74402511D01*
X102488064Y-74401196D01*
X102556780Y-74419049D01*
X102604935Y-74471217D01*
X102617241Y-74541139D01*
X102611615Y-74566801D01*
X102589332Y-74633982D01*
X102585090Y-74646772D01*
X102574500Y-74750134D01*
X102574500Y-75749866D01*
X102574837Y-75753112D01*
X102574837Y-75753116D01*
X102583248Y-75834173D01*
X102585359Y-75854519D01*
X102587540Y-75861055D01*
X102587540Y-75861057D01*
X102633942Y-76000140D01*
X102640744Y-76020529D01*
X102732834Y-76169345D01*
X102738016Y-76174518D01*
X102750823Y-76187303D01*
X102856689Y-76292984D01*
X102862919Y-76296824D01*
X102862920Y-76296825D01*
X102896658Y-76317621D01*
X103005666Y-76384814D01*
X103012614Y-76387119D01*
X103012615Y-76387119D01*
X103165241Y-76437744D01*
X103165243Y-76437745D01*
X103171772Y-76439910D01*
X103275134Y-76450500D01*
X103899866Y-76450500D01*
X103903112Y-76450163D01*
X103903116Y-76450163D01*
X103997661Y-76440353D01*
X103997665Y-76440352D01*
X104004519Y-76439641D01*
X104011055Y-76437460D01*
X104011057Y-76437460D01*
X104160308Y-76387666D01*
X104170529Y-76384256D01*
X104319345Y-76292166D01*
X104410775Y-76200577D01*
X104473056Y-76166498D01*
X104543876Y-76171501D01*
X104588965Y-76200422D01*
X104676508Y-76287813D01*
X104676513Y-76287817D01*
X104681689Y-76292984D01*
X104687919Y-76296824D01*
X104687920Y-76296825D01*
X104721658Y-76317621D01*
X104830666Y-76384814D01*
X104837614Y-76387119D01*
X104837615Y-76387119D01*
X104990241Y-76437744D01*
X104990243Y-76437745D01*
X104996772Y-76439910D01*
X105100134Y-76450500D01*
X105724866Y-76450500D01*
X105728112Y-76450163D01*
X105728116Y-76450163D01*
X105822661Y-76440353D01*
X105822665Y-76440352D01*
X105829519Y-76439641D01*
X105836055Y-76437460D01*
X105836057Y-76437460D01*
X105985308Y-76387666D01*
X105995529Y-76384256D01*
X106144345Y-76292166D01*
X106267984Y-76168311D01*
X106359814Y-76019334D01*
X106362121Y-76012380D01*
X106370596Y-75986831D01*
X106411027Y-75928472D01*
X106476592Y-75901236D01*
X106490188Y-75900500D01*
X108508162Y-75900500D01*
X108576283Y-75920502D01*
X108622776Y-75974158D01*
X108627686Y-75986625D01*
X108640192Y-76024110D01*
X108731515Y-76171687D01*
X108736694Y-76176857D01*
X108747158Y-76187303D01*
X108854339Y-76294296D01*
X109002075Y-76385362D01*
X109087153Y-76413581D01*
X109160270Y-76437833D01*
X109160272Y-76437833D01*
X109166798Y-76439998D01*
X109173635Y-76440698D01*
X109173637Y-76440699D01*
X109215711Y-76445010D01*
X109269297Y-76450500D01*
X109560239Y-76450500D01*
X109855702Y-76450499D01*
X109959482Y-76439732D01*
X109966013Y-76437553D01*
X109966018Y-76437552D01*
X110094106Y-76394818D01*
X110124110Y-76384808D01*
X110271687Y-76293485D01*
X110325011Y-76240068D01*
X110389124Y-76175842D01*
X110394296Y-76170661D01*
X110451079Y-76078542D01*
X110481522Y-76029155D01*
X110481523Y-76029153D01*
X110485362Y-76022925D01*
X110539998Y-75858202D01*
X110550500Y-75755703D01*
X110550499Y-74744298D01*
X110539732Y-74640518D01*
X110537553Y-74633987D01*
X110537552Y-74633982D01*
X110501473Y-74525842D01*
X110484808Y-74475890D01*
X110480958Y-74469669D01*
X110480956Y-74469664D01*
X110433393Y-74392803D01*
X110414555Y-74324351D01*
X110435716Y-74256581D01*
X110490157Y-74211010D01*
X110540537Y-74200500D01*
X110877279Y-74200500D01*
X110925495Y-74210090D01*
G37*
%TD.AperFunction*%
%TA.AperFunction,Conductor*%
G36*
X115070011Y-70491016D02*
G01*
X115106441Y-70516387D01*
X115292752Y-70702698D01*
X115300593Y-70711315D01*
X115304798Y-70717940D01*
X115310577Y-70723367D01*
X115310578Y-70723368D01*
X115355816Y-70765849D01*
X115358658Y-70768604D01*
X115378965Y-70788911D01*
X115382096Y-70791340D01*
X115382102Y-70791345D01*
X115382377Y-70791558D01*
X115391390Y-70799255D01*
X115424607Y-70830448D01*
X115431554Y-70834267D01*
X115443066Y-70840596D01*
X115459590Y-70851450D01*
X115476236Y-70864362D01*
X115518045Y-70882454D01*
X115528693Y-70887670D01*
X115568632Y-70909627D01*
X115576311Y-70911598D01*
X115576312Y-70911599D01*
X115589041Y-70914867D01*
X115607750Y-70921273D01*
X115619794Y-70926485D01*
X115619797Y-70926486D01*
X115627074Y-70929635D01*
X115672062Y-70936761D01*
X115683684Y-70939168D01*
X115720138Y-70948528D01*
X115720147Y-70948529D01*
X115727823Y-70950500D01*
X115748890Y-70950500D01*
X115768602Y-70952051D01*
X115789405Y-70955346D01*
X115797297Y-70954600D01*
X115834756Y-70951059D01*
X115846614Y-70950500D01*
X116276729Y-70950500D01*
X116344850Y-70970502D01*
X116391343Y-71024158D01*
X116401447Y-71094432D01*
X116376691Y-71153204D01*
X116347997Y-71190598D01*
X116347993Y-71190605D01*
X116342964Y-71197159D01*
X116282456Y-71343238D01*
X116267000Y-71460639D01*
X116267001Y-71739360D01*
X116267539Y-71743444D01*
X116267539Y-71743450D01*
X116281378Y-71848574D01*
X116282456Y-71856762D01*
X116285616Y-71864390D01*
X116290748Y-71876780D01*
X116298338Y-71947369D01*
X116290749Y-71973217D01*
X116282456Y-71993238D01*
X116267000Y-72110639D01*
X116267001Y-72389360D01*
X116267539Y-72393444D01*
X116267539Y-72393450D01*
X116276645Y-72462620D01*
X116282456Y-72506762D01*
X116285616Y-72514390D01*
X116290748Y-72526780D01*
X116298338Y-72597369D01*
X116290749Y-72623217D01*
X116282456Y-72643238D01*
X116267000Y-72760639D01*
X116267000Y-72773500D01*
X116246998Y-72841621D01*
X116193342Y-72888114D01*
X116141000Y-72899500D01*
X115866480Y-72899500D01*
X115854840Y-72898951D01*
X115847184Y-72897240D01*
X115839261Y-72897489D01*
X115835825Y-72897597D01*
X115783232Y-72899250D01*
X115777250Y-72899438D01*
X115773292Y-72899500D01*
X115744555Y-72899500D01*
X115740284Y-72900039D01*
X115728456Y-72900971D01*
X115682911Y-72902403D01*
X115675297Y-72904615D01*
X115675292Y-72904616D01*
X115662688Y-72908278D01*
X115643324Y-72912289D01*
X115622422Y-72914929D01*
X115615051Y-72917848D01*
X115615049Y-72917848D01*
X115580060Y-72931702D01*
X115568849Y-72935541D01*
X115525082Y-72948256D01*
X115512718Y-72955568D01*
X115506947Y-72958981D01*
X115489199Y-72967676D01*
X115469609Y-72975432D01*
X115432742Y-73002218D01*
X115422834Y-73008725D01*
X115390438Y-73027883D01*
X115390433Y-73027887D01*
X115383615Y-73031919D01*
X115368722Y-73046812D01*
X115353688Y-73059653D01*
X115349639Y-73062595D01*
X115336643Y-73072037D01*
X115331590Y-73078145D01*
X115307601Y-73107143D01*
X115299611Y-73115923D01*
X115115595Y-73299939D01*
X115053283Y-73333965D01*
X114982468Y-73328900D01*
X114925632Y-73286353D01*
X114900821Y-73219833D01*
X114900500Y-73210844D01*
X114900500Y-70828499D01*
X114901049Y-70816859D01*
X114902760Y-70809203D01*
X114900562Y-70739268D01*
X114900500Y-70735311D01*
X114900500Y-70706575D01*
X114899961Y-70702307D01*
X114899028Y-70690464D01*
X114898192Y-70663844D01*
X114897597Y-70644930D01*
X114895385Y-70637315D01*
X114894145Y-70629489D01*
X114896382Y-70629135D01*
X114896550Y-70569643D01*
X114935102Y-70510026D01*
X114999766Y-70480715D01*
X115070011Y-70491016D01*
G37*
%TD.AperFunction*%
%TA.AperFunction,Conductor*%
G36*
X110619850Y-72270502D02*
G01*
X110666343Y-72324158D01*
X110676447Y-72394432D01*
X110651691Y-72453204D01*
X110622997Y-72490598D01*
X110622993Y-72490605D01*
X110617964Y-72497159D01*
X110557456Y-72643238D01*
X110542000Y-72760639D01*
X110542000Y-72773500D01*
X110521998Y-72841621D01*
X110468342Y-72888114D01*
X110416000Y-72899500D01*
X104574636Y-72899500D01*
X104506515Y-72879498D01*
X104460022Y-72825842D01*
X104449918Y-72755568D01*
X104479412Y-72690988D01*
X104485541Y-72684405D01*
X104882541Y-72287405D01*
X104944853Y-72253379D01*
X104971636Y-72250500D01*
X110551729Y-72250500D01*
X110619850Y-72270502D01*
G37*
%TD.AperFunction*%
%TA.AperFunction,Conductor*%
G36*
X113203864Y-70624943D02*
G01*
X113223581Y-70641027D01*
X113562595Y-70980041D01*
X113596621Y-71042353D01*
X113599500Y-71069136D01*
X113599500Y-72209051D01*
X113579498Y-72277172D01*
X113525842Y-72323665D01*
X113455568Y-72333769D01*
X113423461Y-72324689D01*
X113406952Y-72317545D01*
X113396307Y-72312330D01*
X113356368Y-72290373D01*
X113348689Y-72288402D01*
X113348688Y-72288401D01*
X113335959Y-72285133D01*
X113317250Y-72278727D01*
X113305200Y-72273512D01*
X113305195Y-72273510D01*
X113297926Y-72270365D01*
X113252930Y-72263238D01*
X113241310Y-72260831D01*
X113204860Y-72251472D01*
X113204855Y-72251471D01*
X113197177Y-72249500D01*
X113176116Y-72249500D01*
X113156404Y-72247949D01*
X113155098Y-72247742D01*
X113135595Y-72244653D01*
X113127704Y-72245399D01*
X113090235Y-72248941D01*
X113078377Y-72249500D01*
X113008271Y-72249500D01*
X112940150Y-72229498D01*
X112893657Y-72175842D01*
X112883553Y-72105568D01*
X112908309Y-72046796D01*
X112937006Y-72009397D01*
X112937008Y-72009394D01*
X112942036Y-72002841D01*
X113002544Y-71856762D01*
X113018000Y-71739361D01*
X113017999Y-71460640D01*
X113012716Y-71420502D01*
X113003622Y-71351425D01*
X113003622Y-71351423D01*
X113002544Y-71343238D01*
X112994252Y-71323219D01*
X112986662Y-71252631D01*
X112994252Y-71226780D01*
X112999384Y-71214391D01*
X113002544Y-71206762D01*
X113018000Y-71089361D01*
X113017999Y-70810640D01*
X113009564Y-70746566D01*
X113020504Y-70676419D01*
X113067632Y-70623321D01*
X113135986Y-70604131D01*
X113203864Y-70624943D01*
G37*
%TD.AperFunction*%
%TA.AperFunction,Conductor*%
G36*
X116934121Y-64920502D02*
G01*
X116980614Y-64974158D01*
X116992000Y-65026500D01*
X116992000Y-68173501D01*
X116971998Y-68241622D01*
X116918342Y-68288115D01*
X116866000Y-68299501D01*
X116828140Y-68299501D01*
X116824056Y-68300039D01*
X116824050Y-68300039D01*
X116718925Y-68313878D01*
X116718923Y-68313878D01*
X116710738Y-68314956D01*
X116564659Y-68375464D01*
X116439218Y-68471718D01*
X116434195Y-68478264D01*
X116381463Y-68546986D01*
X116324125Y-68588853D01*
X116253254Y-68593075D01*
X116191351Y-68558311D01*
X116158070Y-68495598D01*
X116155500Y-68470282D01*
X116155500Y-67245188D01*
X116175502Y-67177067D01*
X116215197Y-67138044D01*
X116314983Y-67076294D01*
X116321211Y-67072440D01*
X116440731Y-66952711D01*
X116453816Y-66931483D01*
X116525663Y-66814927D01*
X116525664Y-66814925D01*
X116529503Y-66808697D01*
X116582763Y-66648124D01*
X116593000Y-66548207D01*
X116592999Y-65951794D01*
X116582503Y-65850628D01*
X116528963Y-65690148D01*
X116439940Y-65546289D01*
X116320211Y-65426769D01*
X116176197Y-65337997D01*
X116015624Y-65284737D01*
X116008788Y-65284037D01*
X116008785Y-65284036D01*
X115958703Y-65278905D01*
X115915707Y-65274500D01*
X115644607Y-65274500D01*
X115369294Y-65274501D01*
X115366050Y-65274838D01*
X115366042Y-65274838D01*
X115321620Y-65279447D01*
X115268128Y-65284997D01*
X115107648Y-65338537D01*
X114963789Y-65427560D01*
X114844269Y-65547289D01*
X114755497Y-65691303D01*
X114702237Y-65851876D01*
X114692000Y-65951793D01*
X114692001Y-66548206D01*
X114692338Y-66551450D01*
X114692338Y-66551458D01*
X114696141Y-66588114D01*
X114702497Y-66649372D01*
X114756037Y-66809852D01*
X114827506Y-66925344D01*
X114835644Y-66938495D01*
X114854500Y-67004798D01*
X114854500Y-69914000D01*
X114853951Y-69925640D01*
X114852240Y-69933296D01*
X114852489Y-69941219D01*
X114854438Y-70003229D01*
X114854500Y-70007187D01*
X114854500Y-70035925D01*
X114854995Y-70039842D01*
X114855039Y-70040191D01*
X114855971Y-70052024D01*
X114857403Y-70097569D01*
X114859615Y-70105183D01*
X114860855Y-70113011D01*
X114858618Y-70113365D01*
X114858450Y-70172857D01*
X114819898Y-70232474D01*
X114755234Y-70261785D01*
X114684989Y-70251484D01*
X114648559Y-70226113D01*
X113839905Y-69417459D01*
X113805879Y-69355147D01*
X113803000Y-69328364D01*
X113803000Y-67983499D01*
X113803549Y-67971859D01*
X113805260Y-67964203D01*
X113803062Y-67894268D01*
X113803000Y-67890311D01*
X113803000Y-67861575D01*
X113802461Y-67857307D01*
X113801528Y-67845464D01*
X113800346Y-67807856D01*
X113800097Y-67799931D01*
X113797885Y-67792317D01*
X113797884Y-67792312D01*
X113794222Y-67779708D01*
X113790211Y-67760343D01*
X113789971Y-67758442D01*
X113787571Y-67739442D01*
X113784653Y-67732073D01*
X113784652Y-67732068D01*
X113770797Y-67697073D01*
X113766952Y-67685843D01*
X113756455Y-67649711D01*
X113756454Y-67649710D01*
X113754244Y-67642101D01*
X113743519Y-67623966D01*
X113734820Y-67606209D01*
X113729986Y-67593998D01*
X113729985Y-67593996D01*
X113727068Y-67586629D01*
X113700288Y-67549769D01*
X113693772Y-67539849D01*
X113689705Y-67532972D01*
X113670581Y-67500635D01*
X113655688Y-67485742D01*
X113642847Y-67470708D01*
X113635123Y-67460077D01*
X113630463Y-67453663D01*
X113595356Y-67424620D01*
X113586577Y-67416631D01*
X112517248Y-66347302D01*
X112509407Y-66338685D01*
X112505202Y-66332060D01*
X112489440Y-66317258D01*
X112454184Y-66284151D01*
X112451342Y-66281396D01*
X112431035Y-66261089D01*
X112427904Y-66258660D01*
X112427898Y-66258655D01*
X112427623Y-66258442D01*
X112418610Y-66250745D01*
X112385393Y-66219552D01*
X112376071Y-66214427D01*
X112366934Y-66209404D01*
X112350410Y-66198550D01*
X112340027Y-66190496D01*
X112340026Y-66190495D01*
X112333764Y-66185638D01*
X112291952Y-66167545D01*
X112281307Y-66162330D01*
X112241368Y-66140373D01*
X112233689Y-66138402D01*
X112233688Y-66138401D01*
X112220959Y-66135133D01*
X112202250Y-66128727D01*
X112190200Y-66123512D01*
X112190195Y-66123510D01*
X112182926Y-66120365D01*
X112137930Y-66113238D01*
X112126310Y-66110831D01*
X112089860Y-66101472D01*
X112089855Y-66101471D01*
X112082177Y-66099500D01*
X112061116Y-66099500D01*
X112041404Y-66097949D01*
X112040098Y-66097742D01*
X112020595Y-66094653D01*
X112012704Y-66095399D01*
X111975235Y-66098941D01*
X111963377Y-66099500D01*
X110820410Y-66099500D01*
X110752289Y-66079498D01*
X110722767Y-66053135D01*
X110721637Y-66051749D01*
X110713361Y-66041602D01*
X110562180Y-65916535D01*
X110389585Y-65823213D01*
X110295868Y-65794203D01*
X110208039Y-65767015D01*
X110208036Y-65767014D01*
X110202152Y-65765193D01*
X110196027Y-65764549D01*
X110196026Y-65764549D01*
X110013147Y-65745327D01*
X110013146Y-65745327D01*
X110007019Y-65744683D01*
X109884383Y-65755844D01*
X109817759Y-65761907D01*
X109817758Y-65761907D01*
X109811618Y-65762466D01*
X109805704Y-65764207D01*
X109805702Y-65764207D01*
X109701112Y-65794990D01*
X109623393Y-65817864D01*
X109617928Y-65820721D01*
X109454972Y-65905912D01*
X109454968Y-65905915D01*
X109449512Y-65908767D01*
X109444712Y-65912627D01*
X109444711Y-65912627D01*
X109410326Y-65940273D01*
X109296600Y-66031711D01*
X109170480Y-66182016D01*
X109167516Y-66187408D01*
X109167513Y-66187412D01*
X109112267Y-66287905D01*
X109075956Y-66353954D01*
X109016628Y-66540978D01*
X108994757Y-66735963D01*
X109011175Y-66931483D01*
X109065258Y-67120091D01*
X109068076Y-67125574D01*
X109152123Y-67289113D01*
X109152126Y-67289117D01*
X109154944Y-67294601D01*
X109158775Y-67299434D01*
X109234706Y-67395236D01*
X109261343Y-67461046D01*
X109248172Y-67530810D01*
X109199375Y-67582379D01*
X109135960Y-67599500D01*
X107330999Y-67599500D01*
X107319359Y-67598951D01*
X107311703Y-67597240D01*
X107303780Y-67597489D01*
X107286753Y-67598024D01*
X107218038Y-67580171D01*
X107169883Y-67528002D01*
X107157355Y-67483945D01*
X107156059Y-67470236D01*
X107155500Y-67458377D01*
X107155500Y-65026500D01*
X107175502Y-64958379D01*
X107229158Y-64911886D01*
X107281500Y-64900500D01*
X116866000Y-64900500D01*
X116934121Y-64920502D01*
G37*
%TD.AperFunction*%
%TD*%
M02*
