M48
; DRILL file {KiCad (6.0.4-0)} date Sunday, 24 March 2024 at 13:43:06
; FORMAT={-:-/ absolute / inch / decimal}
; #@! TF.CreationDate,2024-03-24T13:43:06+02:00
; #@! TF.GenerationSoftware,Kicad,Pcbnew,(6.0.4-0)
; #@! TF.FileFunction,Plated,1,2,PTH
FMAT,2
INCH
; #@! TA.AperFunction,Plated,PTH,ViaDrill
T1C0.0157
; #@! TA.AperFunction,Plated,PTH,ComponentDrill
T2C0.0295
; #@! TA.AperFunction,Plated,PTH,ComponentDrill
T3C0.0394
; #@! TA.AperFunction,Plated,PTH,ComponentDrill
T4C0.0728
%
G90
G05
T1
X3.4843Y-3.4252
X3.7781Y-3.2087
X4.1522Y-3.3169
X4.2309Y-2.5689
X4.2323Y-3.0118
X4.2703Y-2.8543
X4.4474Y-3.1201
X4.536Y-2.815
X4.6161Y-2.9921
X4.7821Y-2.8445
X4.8819Y-3.4055
T2
X4.7246Y-3.8758
X4.8033Y-3.8758
T3
X3.5811Y-2.9232
X3.5811Y-3.0232
X3.5811Y-3.1232
X3.5811Y-3.2232
X3.5811Y-3.3232
X3.5811Y-3.4232
X3.5811Y-3.5232
X3.5811Y-3.6232
X3.6811Y-2.9232
X3.6811Y-3.0232
X3.6811Y-3.1232
X3.6811Y-3.2232
X3.6811Y-3.3232
X3.6811Y-3.4232
X3.6811Y-3.5232
X3.6811Y-3.6232
T4
X3.9081Y-3.7402
X4.0931Y-3.7402
X4.2781Y-3.7402
T0
M30
