%TF.GenerationSoftware,KiCad,Pcbnew,(6.0.4-0)*%
%TF.CreationDate,2024-03-24T21:38:25+02:00*%
%TF.ProjectId,Project_PCB_v1,50726f6a-6563-4745-9f50-43425f76312e,rev?*%
%TF.SameCoordinates,Original*%
%TF.FileFunction,Legend,Top*%
%TF.FilePolarity,Positive*%
%FSLAX46Y46*%
G04 Gerber Fmt 4.6, Leading zero omitted, Abs format (unit mm)*
G04 Created by KiCad (PCBNEW (6.0.4-0)) date 2024-03-24 21:38:25*
%MOMM*%
%LPD*%
G01*
G04 APERTURE LIST*
G04 Aperture macros list*
%AMRoundRect*
0 Rectangle with rounded corners*
0 $1 Rounding radius*
0 $2 $3 $4 $5 $6 $7 $8 $9 X,Y pos of 4 corners*
0 Add a 4 corners polygon primitive as box body*
4,1,4,$2,$3,$4,$5,$6,$7,$8,$9,$2,$3,0*
0 Add four circle primitives for the rounded corners*
1,1,$1+$1,$2,$3*
1,1,$1+$1,$4,$5*
1,1,$1+$1,$6,$7*
1,1,$1+$1,$8,$9*
0 Add four rect primitives between the rounded corners*
20,1,$1+$1,$2,$3,$4,$5,0*
20,1,$1+$1,$4,$5,$6,$7,0*
20,1,$1+$1,$6,$7,$8,$9,0*
20,1,$1+$1,$8,$9,$2,$3,0*%
G04 Aperture macros list end*
%ADD10C,0.100000*%
%ADD11C,0.150000*%
%ADD12C,0.120000*%
%ADD13C,0.254001*%
%ADD14C,0.059995*%
%ADD15RoundRect,0.243750X0.243750X0.456250X-0.243750X0.456250X-0.243750X-0.456250X0.243750X-0.456250X0*%
%ADD16RoundRect,0.225000X0.250000X-0.225000X0.250000X0.225000X-0.250000X0.225000X-0.250000X-0.225000X0*%
%ADD17RoundRect,0.218750X0.218750X0.256250X-0.218750X0.256250X-0.218750X-0.256250X0.218750X-0.256250X0*%
%ADD18RoundRect,0.250000X0.312500X0.625000X-0.312500X0.625000X-0.312500X-0.625000X0.312500X-0.625000X0*%
%ADD19RoundRect,0.250000X-0.262500X-0.450000X0.262500X-0.450000X0.262500X0.450000X-0.262500X0.450000X0*%
%ADD20R,1.700000X1.700000*%
%ADD21O,1.700000X1.700000*%
%ADD22RoundRect,0.250000X-0.350000X-0.625000X0.350000X-0.625000X0.350000X0.625000X-0.350000X0.625000X0*%
%ADD23O,1.200000X1.750000*%
%ADD24C,1.000000*%
%ADD25RoundRect,0.250000X-0.450000X0.262500X-0.450000X-0.262500X0.450000X-0.262500X0.450000X0.262500X0*%
%ADD26RoundRect,0.250000X0.450000X-0.262500X0.450000X0.262500X-0.450000X0.262500X-0.450000X-0.262500X0*%
%ADD27C,2.500000*%
%ADD28RoundRect,0.225000X-0.225000X-0.250000X0.225000X-0.250000X0.225000X0.250000X-0.225000X0.250000X0*%
%ADD29R,1.500000X1.000000*%
%ADD30RoundRect,0.250000X0.262500X0.450000X-0.262500X0.450000X-0.262500X-0.450000X0.262500X-0.450000X0*%
%ADD31RoundRect,0.150000X0.150000X-0.512500X0.150000X0.512500X-0.150000X0.512500X-0.150000X-0.512500X0*%
%ADD32RoundRect,0.100000X-0.637500X-0.100000X0.637500X-0.100000X0.637500X0.100000X-0.637500X0.100000X0*%
%ADD33R,1.000000X1.500000*%
G04 APERTURE END LIST*
D10*
X95095238Y-67171190D02*
X94928571Y-66933095D01*
X94809523Y-67171190D02*
X94809523Y-66671190D01*
X95000000Y-66671190D01*
X95047619Y-66695000D01*
X95071428Y-66718809D01*
X95095238Y-66766428D01*
X95095238Y-66837857D01*
X95071428Y-66885476D01*
X95047619Y-66909285D01*
X95000000Y-66933095D01*
X94809523Y-66933095D01*
X95309523Y-67123571D02*
X95333333Y-67147380D01*
X95309523Y-67171190D01*
X95285714Y-67147380D01*
X95309523Y-67123571D01*
X95309523Y-67171190D01*
X95809523Y-66695000D02*
X95761904Y-66671190D01*
X95690476Y-66671190D01*
X95619047Y-66695000D01*
X95571428Y-66742619D01*
X95547619Y-66790238D01*
X95523809Y-66885476D01*
X95523809Y-66956904D01*
X95547619Y-67052142D01*
X95571428Y-67099761D01*
X95619047Y-67147380D01*
X95690476Y-67171190D01*
X95738095Y-67171190D01*
X95809523Y-67147380D01*
X95833333Y-67123571D01*
X95833333Y-66956904D01*
X95738095Y-66956904D01*
X96261904Y-66837857D02*
X96261904Y-67171190D01*
X96047619Y-66837857D02*
X96047619Y-67099761D01*
X96071428Y-67147380D01*
X96119047Y-67171190D01*
X96190476Y-67171190D01*
X96238095Y-67147380D01*
X96261904Y-67123571D01*
X96500000Y-67171190D02*
X96500000Y-66837857D01*
X96500000Y-66671190D02*
X96476190Y-66695000D01*
X96500000Y-66718809D01*
X96523809Y-66695000D01*
X96500000Y-66671190D01*
X96500000Y-66718809D01*
X96714285Y-67147380D02*
X96761904Y-67171190D01*
X96857142Y-67171190D01*
X96904761Y-67147380D01*
X96928571Y-67099761D01*
X96928571Y-67075952D01*
X96904761Y-67028333D01*
X96857142Y-67004523D01*
X96785714Y-67004523D01*
X96738095Y-66980714D01*
X96714285Y-66933095D01*
X96714285Y-66909285D01*
X96738095Y-66861666D01*
X96785714Y-66837857D01*
X96857142Y-66837857D01*
X96904761Y-66861666D01*
X97333333Y-67147380D02*
X97285714Y-67171190D01*
X97190476Y-67171190D01*
X97142857Y-67147380D01*
X97119047Y-67099761D01*
X97119047Y-66909285D01*
X97142857Y-66861666D01*
X97190476Y-66837857D01*
X97285714Y-66837857D01*
X97333333Y-66861666D01*
X97357142Y-66909285D01*
X97357142Y-66956904D01*
X97119047Y-67004523D01*
X97571428Y-66980714D02*
X97952380Y-66980714D01*
X98357142Y-66909285D02*
X98428571Y-66933095D01*
X98452380Y-66956904D01*
X98476190Y-67004523D01*
X98476190Y-67075952D01*
X98452380Y-67123571D01*
X98428571Y-67147380D01*
X98380952Y-67171190D01*
X98190476Y-67171190D01*
X98190476Y-66671190D01*
X98357142Y-66671190D01*
X98404761Y-66695000D01*
X98428571Y-66718809D01*
X98452380Y-66766428D01*
X98452380Y-66814047D01*
X98428571Y-66861666D01*
X98404761Y-66885476D01*
X98357142Y-66909285D01*
X98190476Y-66909285D01*
X98690476Y-67171190D02*
X98690476Y-66837857D01*
X98690476Y-66933095D02*
X98714285Y-66885476D01*
X98738095Y-66861666D01*
X98785714Y-66837857D01*
X98833333Y-66837857D01*
X99071428Y-67171190D02*
X99023809Y-67147380D01*
X99000000Y-67123571D01*
X98976190Y-67075952D01*
X98976190Y-66933095D01*
X99000000Y-66885476D01*
X99023809Y-66861666D01*
X99071428Y-66837857D01*
X99142857Y-66837857D01*
X99190476Y-66861666D01*
X99214285Y-66885476D01*
X99238095Y-66933095D01*
X99238095Y-67075952D01*
X99214285Y-67123571D01*
X99190476Y-67147380D01*
X99142857Y-67171190D01*
X99071428Y-67171190D01*
X99404761Y-66837857D02*
X99500000Y-67171190D01*
X99595238Y-66933095D01*
X99690476Y-67171190D01*
X99785714Y-66837857D01*
X99976190Y-66837857D02*
X99976190Y-67171190D01*
X99976190Y-66885476D02*
X100000000Y-66861666D01*
X100047619Y-66837857D01*
X100119047Y-66837857D01*
X100166666Y-66861666D01*
X100190476Y-66909285D01*
X100190476Y-67171190D01*
X95238095Y-67976190D02*
X95238095Y-67476190D01*
X95428571Y-67476190D01*
X95476190Y-67500000D01*
X95500000Y-67523809D01*
X95523809Y-67571428D01*
X95523809Y-67642857D01*
X95500000Y-67690476D01*
X95476190Y-67714285D01*
X95428571Y-67738095D01*
X95238095Y-67738095D01*
X95809523Y-67976190D02*
X95761904Y-67952380D01*
X95738095Y-67928571D01*
X95714285Y-67880952D01*
X95714285Y-67738095D01*
X95738095Y-67690476D01*
X95761904Y-67666666D01*
X95809523Y-67642857D01*
X95880952Y-67642857D01*
X95928571Y-67666666D01*
X95952380Y-67690476D01*
X95976190Y-67738095D01*
X95976190Y-67880952D01*
X95952380Y-67928571D01*
X95928571Y-67952380D01*
X95880952Y-67976190D01*
X95809523Y-67976190D01*
X96142857Y-67642857D02*
X96238095Y-67976190D01*
X96333333Y-67738095D01*
X96428571Y-67976190D01*
X96523809Y-67642857D01*
X96904761Y-67952380D02*
X96857142Y-67976190D01*
X96761904Y-67976190D01*
X96714285Y-67952380D01*
X96690476Y-67904761D01*
X96690476Y-67714285D01*
X96714285Y-67666666D01*
X96761904Y-67642857D01*
X96857142Y-67642857D01*
X96904761Y-67666666D01*
X96928571Y-67714285D01*
X96928571Y-67761904D01*
X96690476Y-67809523D01*
X97142857Y-67976190D02*
X97142857Y-67642857D01*
X97142857Y-67738095D02*
X97166666Y-67690476D01*
X97190476Y-67666666D01*
X97238095Y-67642857D01*
X97285714Y-67642857D01*
X98000000Y-67714285D02*
X98071428Y-67738095D01*
X98095238Y-67761904D01*
X98119047Y-67809523D01*
X98119047Y-67880952D01*
X98095238Y-67928571D01*
X98071428Y-67952380D01*
X98023809Y-67976190D01*
X97833333Y-67976190D01*
X97833333Y-67476190D01*
X98000000Y-67476190D01*
X98047619Y-67500000D01*
X98071428Y-67523809D01*
X98095238Y-67571428D01*
X98095238Y-67619047D01*
X98071428Y-67666666D01*
X98047619Y-67690476D01*
X98000000Y-67714285D01*
X97833333Y-67714285D01*
X98404761Y-67976190D02*
X98357142Y-67952380D01*
X98333333Y-67928571D01*
X98309523Y-67880952D01*
X98309523Y-67738095D01*
X98333333Y-67690476D01*
X98357142Y-67666666D01*
X98404761Y-67642857D01*
X98476190Y-67642857D01*
X98523809Y-67666666D01*
X98547619Y-67690476D01*
X98571428Y-67738095D01*
X98571428Y-67880952D01*
X98547619Y-67928571D01*
X98523809Y-67952380D01*
X98476190Y-67976190D01*
X98404761Y-67976190D01*
X99000000Y-67976190D02*
X99000000Y-67714285D01*
X98976190Y-67666666D01*
X98928571Y-67642857D01*
X98833333Y-67642857D01*
X98785714Y-67666666D01*
X99000000Y-67952380D02*
X98952380Y-67976190D01*
X98833333Y-67976190D01*
X98785714Y-67952380D01*
X98761904Y-67904761D01*
X98761904Y-67857142D01*
X98785714Y-67809523D01*
X98833333Y-67785714D01*
X98952380Y-67785714D01*
X99000000Y-67761904D01*
X99238095Y-67976190D02*
X99238095Y-67642857D01*
X99238095Y-67738095D02*
X99261904Y-67690476D01*
X99285714Y-67666666D01*
X99333333Y-67642857D01*
X99380952Y-67642857D01*
X99761904Y-67976190D02*
X99761904Y-67476190D01*
X99761904Y-67952380D02*
X99714285Y-67976190D01*
X99619047Y-67976190D01*
X99571428Y-67952380D01*
X99547619Y-67928571D01*
X99523809Y-67880952D01*
X99523809Y-67738095D01*
X99547619Y-67690476D01*
X99571428Y-67666666D01*
X99619047Y-67642857D01*
X99714285Y-67642857D01*
X99761904Y-67666666D01*
X95714285Y-68305000D02*
X95666666Y-68281190D01*
X95595238Y-68281190D01*
X95523809Y-68305000D01*
X95476190Y-68352619D01*
X95452380Y-68400238D01*
X95428571Y-68495476D01*
X95428571Y-68566904D01*
X95452380Y-68662142D01*
X95476190Y-68709761D01*
X95523809Y-68757380D01*
X95595238Y-68781190D01*
X95642857Y-68781190D01*
X95714285Y-68757380D01*
X95738095Y-68733571D01*
X95738095Y-68566904D01*
X95642857Y-68566904D01*
X95928571Y-68757380D02*
X96000000Y-68781190D01*
X96119047Y-68781190D01*
X96166666Y-68757380D01*
X96190476Y-68733571D01*
X96214285Y-68685952D01*
X96214285Y-68638333D01*
X96190476Y-68590714D01*
X96166666Y-68566904D01*
X96119047Y-68543095D01*
X96023809Y-68519285D01*
X95976190Y-68495476D01*
X95952380Y-68471666D01*
X95928571Y-68424047D01*
X95928571Y-68376428D01*
X95952380Y-68328809D01*
X95976190Y-68305000D01*
X96023809Y-68281190D01*
X96142857Y-68281190D01*
X96214285Y-68305000D01*
X96595238Y-68519285D02*
X96666666Y-68543095D01*
X96690476Y-68566904D01*
X96714285Y-68614523D01*
X96714285Y-68685952D01*
X96690476Y-68733571D01*
X96666666Y-68757380D01*
X96619047Y-68781190D01*
X96428571Y-68781190D01*
X96428571Y-68281190D01*
X96595238Y-68281190D01*
X96642857Y-68305000D01*
X96666666Y-68328809D01*
X96690476Y-68376428D01*
X96690476Y-68424047D01*
X96666666Y-68471666D01*
X96642857Y-68495476D01*
X96595238Y-68519285D01*
X96428571Y-68519285D01*
X97214285Y-68781190D02*
X97047619Y-68543095D01*
X96928571Y-68781190D02*
X96928571Y-68281190D01*
X97119047Y-68281190D01*
X97166666Y-68305000D01*
X97190476Y-68328809D01*
X97214285Y-68376428D01*
X97214285Y-68447857D01*
X97190476Y-68495476D01*
X97166666Y-68519285D01*
X97119047Y-68543095D01*
X96928571Y-68543095D01*
X97404761Y-68638333D02*
X97642857Y-68638333D01*
X97357142Y-68781190D02*
X97523809Y-68281190D01*
X97690476Y-68781190D01*
X98142857Y-68733571D02*
X98119047Y-68757380D01*
X98047619Y-68781190D01*
X98000000Y-68781190D01*
X97928571Y-68757380D01*
X97880952Y-68709761D01*
X97857142Y-68662142D01*
X97833333Y-68566904D01*
X97833333Y-68495476D01*
X97857142Y-68400238D01*
X97880952Y-68352619D01*
X97928571Y-68305000D01*
X98000000Y-68281190D01*
X98047619Y-68281190D01*
X98119047Y-68305000D01*
X98142857Y-68328809D01*
X98452380Y-68281190D02*
X98500000Y-68281190D01*
X98547619Y-68305000D01*
X98571428Y-68328809D01*
X98595238Y-68376428D01*
X98619047Y-68471666D01*
X98619047Y-68590714D01*
X98595238Y-68685952D01*
X98571428Y-68733571D01*
X98547619Y-68757380D01*
X98500000Y-68781190D01*
X98452380Y-68781190D01*
X98404761Y-68757380D01*
X98380952Y-68733571D01*
X98357142Y-68685952D01*
X98333333Y-68590714D01*
X98333333Y-68471666D01*
X98357142Y-68376428D01*
X98380952Y-68328809D01*
X98404761Y-68305000D01*
X98452380Y-68281190D01*
X98928571Y-68281190D02*
X98976190Y-68281190D01*
X99023809Y-68305000D01*
X99047619Y-68328809D01*
X99071428Y-68376428D01*
X99095238Y-68471666D01*
X99095238Y-68590714D01*
X99071428Y-68685952D01*
X99047619Y-68733571D01*
X99023809Y-68757380D01*
X98976190Y-68781190D01*
X98928571Y-68781190D01*
X98880952Y-68757380D01*
X98857142Y-68733571D01*
X98833333Y-68685952D01*
X98809523Y-68590714D01*
X98809523Y-68471666D01*
X98833333Y-68376428D01*
X98857142Y-68328809D01*
X98880952Y-68305000D01*
X98928571Y-68281190D01*
X99571428Y-68781190D02*
X99285714Y-68781190D01*
X99428571Y-68781190D02*
X99428571Y-68281190D01*
X99380952Y-68352619D01*
X99333333Y-68400238D01*
X99285714Y-68424047D01*
D11*
%TO.C,Fault1*%
X106214285Y-77178571D02*
X105880952Y-77178571D01*
X105880952Y-77702380D02*
X105880952Y-76702380D01*
X106357142Y-76702380D01*
X107166666Y-77702380D02*
X107166666Y-77178571D01*
X107119047Y-77083333D01*
X107023809Y-77035714D01*
X106833333Y-77035714D01*
X106738095Y-77083333D01*
X107166666Y-77654761D02*
X107071428Y-77702380D01*
X106833333Y-77702380D01*
X106738095Y-77654761D01*
X106690476Y-77559523D01*
X106690476Y-77464285D01*
X106738095Y-77369047D01*
X106833333Y-77321428D01*
X107071428Y-77321428D01*
X107166666Y-77273809D01*
X108071428Y-77035714D02*
X108071428Y-77702380D01*
X107642857Y-77035714D02*
X107642857Y-77559523D01*
X107690476Y-77654761D01*
X107785714Y-77702380D01*
X107928571Y-77702380D01*
X108023809Y-77654761D01*
X108071428Y-77607142D01*
X108690476Y-77702380D02*
X108595238Y-77654761D01*
X108547619Y-77559523D01*
X108547619Y-76702380D01*
X108928571Y-77035714D02*
X109309523Y-77035714D01*
X109071428Y-76702380D02*
X109071428Y-77559523D01*
X109119047Y-77654761D01*
X109214285Y-77702380D01*
X109309523Y-77702380D01*
X110166666Y-77702380D02*
X109595238Y-77702380D01*
X109880952Y-77702380D02*
X109880952Y-76702380D01*
X109785714Y-76845238D01*
X109690476Y-76940476D01*
X109595238Y-76988095D01*
%TO.C,C_Vm1*%
X119107142Y-66892857D02*
X119154761Y-66940476D01*
X119202380Y-67083333D01*
X119202380Y-67178571D01*
X119154761Y-67321428D01*
X119059523Y-67416666D01*
X118964285Y-67464285D01*
X118773809Y-67511904D01*
X118630952Y-67511904D01*
X118440476Y-67464285D01*
X118345238Y-67416666D01*
X118250000Y-67321428D01*
X118202380Y-67178571D01*
X118202380Y-67083333D01*
X118250000Y-66940476D01*
X118297619Y-66892857D01*
X119297619Y-66702380D02*
X119297619Y-65940476D01*
X118202380Y-65845238D02*
X119202380Y-65511904D01*
X118202380Y-65178571D01*
X119202380Y-64845238D02*
X118535714Y-64845238D01*
X118630952Y-64845238D02*
X118583333Y-64797619D01*
X118535714Y-64702380D01*
X118535714Y-64559523D01*
X118583333Y-64464285D01*
X118678571Y-64416666D01*
X119202380Y-64416666D01*
X118678571Y-64416666D02*
X118583333Y-64369047D01*
X118535714Y-64273809D01*
X118535714Y-64130952D01*
X118583333Y-64035714D01*
X118678571Y-63988095D01*
X119202380Y-63988095D01*
X119202380Y-62988095D02*
X119202380Y-63559523D01*
X119202380Y-63273809D02*
X118202380Y-63273809D01*
X118345238Y-63369047D01*
X118440476Y-63464285D01*
X118488095Y-63559523D01*
%TO.C,D_Stat1*%
X95380952Y-88034880D02*
X95380952Y-87034880D01*
X95619047Y-87034880D01*
X95761904Y-87082500D01*
X95857142Y-87177738D01*
X95904761Y-87272976D01*
X95952380Y-87463452D01*
X95952380Y-87606309D01*
X95904761Y-87796785D01*
X95857142Y-87892023D01*
X95761904Y-87987261D01*
X95619047Y-88034880D01*
X95380952Y-88034880D01*
X96142857Y-88130119D02*
X96904761Y-88130119D01*
X97095238Y-87987261D02*
X97238095Y-88034880D01*
X97476190Y-88034880D01*
X97571428Y-87987261D01*
X97619047Y-87939642D01*
X97666666Y-87844404D01*
X97666666Y-87749166D01*
X97619047Y-87653928D01*
X97571428Y-87606309D01*
X97476190Y-87558690D01*
X97285714Y-87511071D01*
X97190476Y-87463452D01*
X97142857Y-87415833D01*
X97095238Y-87320595D01*
X97095238Y-87225357D01*
X97142857Y-87130119D01*
X97190476Y-87082500D01*
X97285714Y-87034880D01*
X97523809Y-87034880D01*
X97666666Y-87082500D01*
X97952380Y-87368214D02*
X98333333Y-87368214D01*
X98095238Y-87034880D02*
X98095238Y-87892023D01*
X98142857Y-87987261D01*
X98238095Y-88034880D01*
X98333333Y-88034880D01*
X99095238Y-88034880D02*
X99095238Y-87511071D01*
X99047619Y-87415833D01*
X98952380Y-87368214D01*
X98761904Y-87368214D01*
X98666666Y-87415833D01*
X99095238Y-87987261D02*
X99000000Y-88034880D01*
X98761904Y-88034880D01*
X98666666Y-87987261D01*
X98619047Y-87892023D01*
X98619047Y-87796785D01*
X98666666Y-87701547D01*
X98761904Y-87653928D01*
X99000000Y-87653928D01*
X99095238Y-87606309D01*
X99428571Y-87368214D02*
X99809523Y-87368214D01*
X99571428Y-87034880D02*
X99571428Y-87892023D01*
X99619047Y-87987261D01*
X99714285Y-88034880D01*
X99809523Y-88034880D01*
X100666666Y-88034880D02*
X100095238Y-88034880D01*
X100380952Y-88034880D02*
X100380952Y-87034880D01*
X100285714Y-87177738D01*
X100190476Y-87272976D01*
X100095238Y-87320595D01*
%TO.C,R_Prog1*%
X99738095Y-78034880D02*
X99404761Y-77558690D01*
X99166666Y-78034880D02*
X99166666Y-77034880D01*
X99547619Y-77034880D01*
X99642857Y-77082500D01*
X99690476Y-77130119D01*
X99738095Y-77225357D01*
X99738095Y-77368214D01*
X99690476Y-77463452D01*
X99642857Y-77511071D01*
X99547619Y-77558690D01*
X99166666Y-77558690D01*
X99928571Y-78130119D02*
X100690476Y-78130119D01*
X100928571Y-78034880D02*
X100928571Y-77034880D01*
X101309523Y-77034880D01*
X101404761Y-77082500D01*
X101452380Y-77130119D01*
X101500000Y-77225357D01*
X101500000Y-77368214D01*
X101452380Y-77463452D01*
X101404761Y-77511071D01*
X101309523Y-77558690D01*
X100928571Y-77558690D01*
X101928571Y-78034880D02*
X101928571Y-77368214D01*
X101928571Y-77558690D02*
X101976190Y-77463452D01*
X102023809Y-77415833D01*
X102119047Y-77368214D01*
X102214285Y-77368214D01*
X102690476Y-78034880D02*
X102595238Y-77987261D01*
X102547619Y-77939642D01*
X102500000Y-77844404D01*
X102500000Y-77558690D01*
X102547619Y-77463452D01*
X102595238Y-77415833D01*
X102690476Y-77368214D01*
X102833333Y-77368214D01*
X102928571Y-77415833D01*
X102976190Y-77463452D01*
X103023809Y-77558690D01*
X103023809Y-77844404D01*
X102976190Y-77939642D01*
X102928571Y-77987261D01*
X102833333Y-78034880D01*
X102690476Y-78034880D01*
X103880952Y-77368214D02*
X103880952Y-78177738D01*
X103833333Y-78272976D01*
X103785714Y-78320595D01*
X103690476Y-78368214D01*
X103547619Y-78368214D01*
X103452380Y-78320595D01*
X103880952Y-77987261D02*
X103785714Y-78034880D01*
X103595238Y-78034880D01*
X103500000Y-77987261D01*
X103452380Y-77939642D01*
X103404761Y-77844404D01*
X103404761Y-77558690D01*
X103452380Y-77463452D01*
X103500000Y-77415833D01*
X103595238Y-77368214D01*
X103785714Y-77368214D01*
X103880952Y-77415833D01*
X104880952Y-78034880D02*
X104309523Y-78034880D01*
X104595238Y-78034880D02*
X104595238Y-77034880D01*
X104500000Y-77177738D01*
X104404761Y-77272976D01*
X104309523Y-77320595D01*
%TO.C,R_Fault1*%
X102071428Y-74052380D02*
X101738095Y-73576190D01*
X101500000Y-74052380D02*
X101500000Y-73052380D01*
X101880952Y-73052380D01*
X101976190Y-73100000D01*
X102023809Y-73147619D01*
X102071428Y-73242857D01*
X102071428Y-73385714D01*
X102023809Y-73480952D01*
X101976190Y-73528571D01*
X101880952Y-73576190D01*
X101500000Y-73576190D01*
X102261904Y-74147619D02*
X103023809Y-74147619D01*
X103595238Y-73528571D02*
X103261904Y-73528571D01*
X103261904Y-74052380D02*
X103261904Y-73052380D01*
X103738095Y-73052380D01*
X104547619Y-74052380D02*
X104547619Y-73528571D01*
X104500000Y-73433333D01*
X104404761Y-73385714D01*
X104214285Y-73385714D01*
X104119047Y-73433333D01*
X104547619Y-74004761D02*
X104452380Y-74052380D01*
X104214285Y-74052380D01*
X104119047Y-74004761D01*
X104071428Y-73909523D01*
X104071428Y-73814285D01*
X104119047Y-73719047D01*
X104214285Y-73671428D01*
X104452380Y-73671428D01*
X104547619Y-73623809D01*
X105452380Y-73385714D02*
X105452380Y-74052380D01*
X105023809Y-73385714D02*
X105023809Y-73909523D01*
X105071428Y-74004761D01*
X105166666Y-74052380D01*
X105309523Y-74052380D01*
X105404761Y-74004761D01*
X105452380Y-73957142D01*
X106071428Y-74052380D02*
X105976190Y-74004761D01*
X105928571Y-73909523D01*
X105928571Y-73052380D01*
X106309523Y-73385714D02*
X106690476Y-73385714D01*
X106452380Y-73052380D02*
X106452380Y-73909523D01*
X106500000Y-74004761D01*
X106595238Y-74052380D01*
X106690476Y-74052380D01*
X107547619Y-74052380D02*
X106976190Y-74052380D01*
X107261904Y-74052380D02*
X107261904Y-73052380D01*
X107166666Y-73195238D01*
X107071428Y-73290476D01*
X106976190Y-73338095D01*
%TO.C,PinCon1*%
X89376666Y-71577380D02*
X89376666Y-70577380D01*
X89757619Y-70577380D01*
X89852857Y-70625000D01*
X89900476Y-70672619D01*
X89948095Y-70767857D01*
X89948095Y-70910714D01*
X89900476Y-71005952D01*
X89852857Y-71053571D01*
X89757619Y-71101190D01*
X89376666Y-71101190D01*
X90376666Y-71577380D02*
X90376666Y-70910714D01*
X90376666Y-70577380D02*
X90329047Y-70625000D01*
X90376666Y-70672619D01*
X90424285Y-70625000D01*
X90376666Y-70577380D01*
X90376666Y-70672619D01*
X90852857Y-70910714D02*
X90852857Y-71577380D01*
X90852857Y-71005952D02*
X90900476Y-70958333D01*
X90995714Y-70910714D01*
X91138571Y-70910714D01*
X91233809Y-70958333D01*
X91281428Y-71053571D01*
X91281428Y-71577380D01*
X92329047Y-71482142D02*
X92281428Y-71529761D01*
X92138571Y-71577380D01*
X92043333Y-71577380D01*
X91900476Y-71529761D01*
X91805238Y-71434523D01*
X91757619Y-71339285D01*
X91710000Y-71148809D01*
X91710000Y-71005952D01*
X91757619Y-70815476D01*
X91805238Y-70720238D01*
X91900476Y-70625000D01*
X92043333Y-70577380D01*
X92138571Y-70577380D01*
X92281428Y-70625000D01*
X92329047Y-70672619D01*
X92900476Y-71577380D02*
X92805238Y-71529761D01*
X92757619Y-71482142D01*
X92710000Y-71386904D01*
X92710000Y-71101190D01*
X92757619Y-71005952D01*
X92805238Y-70958333D01*
X92900476Y-70910714D01*
X93043333Y-70910714D01*
X93138571Y-70958333D01*
X93186190Y-71005952D01*
X93233809Y-71101190D01*
X93233809Y-71386904D01*
X93186190Y-71482142D01*
X93138571Y-71529761D01*
X93043333Y-71577380D01*
X92900476Y-71577380D01*
X93662380Y-70910714D02*
X93662380Y-71577380D01*
X93662380Y-71005952D02*
X93710000Y-70958333D01*
X93805238Y-70910714D01*
X93948095Y-70910714D01*
X94043333Y-70958333D01*
X94090952Y-71053571D01*
X94090952Y-71577380D01*
X95090952Y-71577380D02*
X94519523Y-71577380D01*
X94805238Y-71577380D02*
X94805238Y-70577380D01*
X94710000Y-70720238D01*
X94614761Y-70815476D01*
X94519523Y-70863095D01*
%TO.C,J2*%
X116911666Y-101707380D02*
X116911666Y-102421666D01*
X116864047Y-102564523D01*
X116768809Y-102659761D01*
X116625952Y-102707380D01*
X116530714Y-102707380D01*
X117340238Y-101802619D02*
X117387857Y-101755000D01*
X117483095Y-101707380D01*
X117721190Y-101707380D01*
X117816428Y-101755000D01*
X117864047Y-101802619D01*
X117911666Y-101897857D01*
X117911666Y-101993095D01*
X117864047Y-102135952D01*
X117292619Y-102707380D01*
X117911666Y-102707380D01*
%TO.C,TP_En1*%
X103702380Y-67457380D02*
X104273809Y-67457380D01*
X103988095Y-68457380D02*
X103988095Y-67457380D01*
X104607142Y-68457380D02*
X104607142Y-67457380D01*
X104988095Y-67457380D01*
X105083333Y-67505000D01*
X105130952Y-67552619D01*
X105178571Y-67647857D01*
X105178571Y-67790714D01*
X105130952Y-67885952D01*
X105083333Y-67933571D01*
X104988095Y-67981190D01*
X104607142Y-67981190D01*
X105369047Y-68552619D02*
X106130952Y-68552619D01*
X106369047Y-67933571D02*
X106702380Y-67933571D01*
X106845238Y-68457380D02*
X106369047Y-68457380D01*
X106369047Y-67457380D01*
X106845238Y-67457380D01*
X107273809Y-67790714D02*
X107273809Y-68457380D01*
X107273809Y-67885952D02*
X107321428Y-67838333D01*
X107416666Y-67790714D01*
X107559523Y-67790714D01*
X107654761Y-67838333D01*
X107702380Y-67933571D01*
X107702380Y-68457380D01*
X108702380Y-68457380D02*
X108130952Y-68457380D01*
X108416666Y-68457380D02*
X108416666Y-67457380D01*
X108321428Y-67600238D01*
X108226190Y-67695476D01*
X108130952Y-67743095D01*
%TO.C,TPM1A1*%
X104261904Y-63202380D02*
X104833333Y-63202380D01*
X104547619Y-64202380D02*
X104547619Y-63202380D01*
X105166666Y-64202380D02*
X105166666Y-63202380D01*
X105547619Y-63202380D01*
X105642857Y-63250000D01*
X105690476Y-63297619D01*
X105738095Y-63392857D01*
X105738095Y-63535714D01*
X105690476Y-63630952D01*
X105642857Y-63678571D01*
X105547619Y-63726190D01*
X105166666Y-63726190D01*
X106166666Y-64202380D02*
X106166666Y-63202380D01*
X106500000Y-63916666D01*
X106833333Y-63202380D01*
X106833333Y-64202380D01*
X107833333Y-64202380D02*
X107261904Y-64202380D01*
X107547619Y-64202380D02*
X107547619Y-63202380D01*
X107452380Y-63345238D01*
X107357142Y-63440476D01*
X107261904Y-63488095D01*
X108214285Y-63916666D02*
X108690476Y-63916666D01*
X108119047Y-64202380D02*
X108452380Y-63202380D01*
X108785714Y-64202380D01*
X109642857Y-64202380D02*
X109071428Y-64202380D01*
X109357142Y-64202380D02*
X109357142Y-63202380D01*
X109261904Y-63345238D01*
X109166666Y-63440476D01*
X109071428Y-63488095D01*
%TO.C,TPM2A1*%
X96011904Y-70004380D02*
X96583333Y-70004380D01*
X96297619Y-71004380D02*
X96297619Y-70004380D01*
X96916666Y-71004380D02*
X96916666Y-70004380D01*
X97297619Y-70004380D01*
X97392857Y-70052000D01*
X97440476Y-70099619D01*
X97488095Y-70194857D01*
X97488095Y-70337714D01*
X97440476Y-70432952D01*
X97392857Y-70480571D01*
X97297619Y-70528190D01*
X96916666Y-70528190D01*
X97916666Y-71004380D02*
X97916666Y-70004380D01*
X98250000Y-70718666D01*
X98583333Y-70004380D01*
X98583333Y-71004380D01*
X99011904Y-70099619D02*
X99059523Y-70052000D01*
X99154761Y-70004380D01*
X99392857Y-70004380D01*
X99488095Y-70052000D01*
X99535714Y-70099619D01*
X99583333Y-70194857D01*
X99583333Y-70290095D01*
X99535714Y-70432952D01*
X98964285Y-71004380D01*
X99583333Y-71004380D01*
X99964285Y-70718666D02*
X100440476Y-70718666D01*
X99869047Y-71004380D02*
X100202380Y-70004380D01*
X100535714Y-71004380D01*
X101392857Y-71004380D02*
X100821428Y-71004380D01*
X101107142Y-71004380D02*
X101107142Y-70004380D01*
X101011904Y-70147238D01*
X100916666Y-70242476D01*
X100821428Y-70290095D01*
%TO.C,R1*%
X87833333Y-78952380D02*
X87500000Y-78476190D01*
X87261904Y-78952380D02*
X87261904Y-77952380D01*
X87642857Y-77952380D01*
X87738095Y-78000000D01*
X87785714Y-78047619D01*
X87833333Y-78142857D01*
X87833333Y-78285714D01*
X87785714Y-78380952D01*
X87738095Y-78428571D01*
X87642857Y-78476190D01*
X87261904Y-78476190D01*
X88785714Y-78952380D02*
X88214285Y-78952380D01*
X88500000Y-78952380D02*
X88500000Y-77952380D01*
X88404761Y-78095238D01*
X88309523Y-78190476D01*
X88214285Y-78238095D01*
%TO.C,R510*%
X117552380Y-88869047D02*
X117076190Y-89202380D01*
X117552380Y-89440476D02*
X116552380Y-89440476D01*
X116552380Y-89059523D01*
X116600000Y-88964285D01*
X116647619Y-88916666D01*
X116742857Y-88869047D01*
X116885714Y-88869047D01*
X116980952Y-88916666D01*
X117028571Y-88964285D01*
X117076190Y-89059523D01*
X117076190Y-89440476D01*
X116552380Y-87964285D02*
X116552380Y-88440476D01*
X117028571Y-88488095D01*
X116980952Y-88440476D01*
X116933333Y-88345238D01*
X116933333Y-88107142D01*
X116980952Y-88011904D01*
X117028571Y-87964285D01*
X117123809Y-87916666D01*
X117361904Y-87916666D01*
X117457142Y-87964285D01*
X117504761Y-88011904D01*
X117552380Y-88107142D01*
X117552380Y-88345238D01*
X117504761Y-88440476D01*
X117457142Y-88488095D01*
X117552380Y-86964285D02*
X117552380Y-87535714D01*
X117552380Y-87250000D02*
X116552380Y-87250000D01*
X116695238Y-87345238D01*
X116790476Y-87440476D01*
X116838095Y-87535714D01*
X116552380Y-86345238D02*
X116552380Y-86250000D01*
X116600000Y-86154761D01*
X116647619Y-86107142D01*
X116742857Y-86059523D01*
X116933333Y-86011904D01*
X117171428Y-86011904D01*
X117361904Y-86059523D01*
X117457142Y-86107142D01*
X117504761Y-86154761D01*
X117552380Y-86250000D01*
X117552380Y-86345238D01*
X117504761Y-86440476D01*
X117457142Y-86488095D01*
X117361904Y-86535714D01*
X117171428Y-86583333D01*
X116933333Y-86583333D01*
X116742857Y-86535714D01*
X116647619Y-86488095D01*
X116600000Y-86440476D01*
X116552380Y-86345238D01*
%TO.C,R_Stat1*%
X101949521Y-85797619D02*
X101473331Y-86130952D01*
X101949521Y-86369047D02*
X100949521Y-86369047D01*
X100949521Y-85988095D01*
X100997141Y-85892857D01*
X101044760Y-85845238D01*
X101139998Y-85797619D01*
X101282855Y-85797619D01*
X101378093Y-85845238D01*
X101425712Y-85892857D01*
X101473331Y-85988095D01*
X101473331Y-86369047D01*
X102044760Y-85607142D02*
X102044760Y-84845238D01*
X101901902Y-84654761D02*
X101949521Y-84511904D01*
X101949521Y-84273809D01*
X101901902Y-84178571D01*
X101854283Y-84130952D01*
X101759045Y-84083333D01*
X101663807Y-84083333D01*
X101568569Y-84130952D01*
X101520950Y-84178571D01*
X101473331Y-84273809D01*
X101425712Y-84464285D01*
X101378093Y-84559523D01*
X101330474Y-84607142D01*
X101235236Y-84654761D01*
X101139998Y-84654761D01*
X101044760Y-84607142D01*
X100997141Y-84559523D01*
X100949521Y-84464285D01*
X100949521Y-84226190D01*
X100997141Y-84083333D01*
X101282855Y-83797619D02*
X101282855Y-83416666D01*
X100949521Y-83654761D02*
X101806664Y-83654761D01*
X101901902Y-83607142D01*
X101949521Y-83511904D01*
X101949521Y-83416666D01*
X101949521Y-82654761D02*
X101425712Y-82654761D01*
X101330474Y-82702380D01*
X101282855Y-82797619D01*
X101282855Y-82988095D01*
X101330474Y-83083333D01*
X101901902Y-82654761D02*
X101949521Y-82750000D01*
X101949521Y-82988095D01*
X101901902Y-83083333D01*
X101806664Y-83130952D01*
X101711426Y-83130952D01*
X101616188Y-83083333D01*
X101568569Y-82988095D01*
X101568569Y-82750000D01*
X101520950Y-82654761D01*
X101282855Y-82321428D02*
X101282855Y-81940476D01*
X100949521Y-82178571D02*
X101806664Y-82178571D01*
X101901902Y-82130952D01*
X101949521Y-82035714D01*
X101949521Y-81940476D01*
X101949521Y-81083333D02*
X101949521Y-81654761D01*
X101949521Y-81369047D02*
X100949521Y-81369047D01*
X101092379Y-81464285D01*
X101187617Y-81559523D01*
X101235236Y-81654761D01*
%TO.C,TP_Charge1*%
X107761904Y-86952380D02*
X108333333Y-86952380D01*
X108047619Y-87952380D02*
X108047619Y-86952380D01*
X108666666Y-87952380D02*
X108666666Y-86952380D01*
X109047619Y-86952380D01*
X109142857Y-87000000D01*
X109190476Y-87047619D01*
X109238095Y-87142857D01*
X109238095Y-87285714D01*
X109190476Y-87380952D01*
X109142857Y-87428571D01*
X109047619Y-87476190D01*
X108666666Y-87476190D01*
X109428571Y-88047619D02*
X110190476Y-88047619D01*
X111000000Y-87857142D02*
X110952380Y-87904761D01*
X110809523Y-87952380D01*
X110714285Y-87952380D01*
X110571428Y-87904761D01*
X110476190Y-87809523D01*
X110428571Y-87714285D01*
X110380952Y-87523809D01*
X110380952Y-87380952D01*
X110428571Y-87190476D01*
X110476190Y-87095238D01*
X110571428Y-87000000D01*
X110714285Y-86952380D01*
X110809523Y-86952380D01*
X110952380Y-87000000D01*
X111000000Y-87047619D01*
X111428571Y-87952380D02*
X111428571Y-86952380D01*
X111857142Y-87952380D02*
X111857142Y-87428571D01*
X111809523Y-87333333D01*
X111714285Y-87285714D01*
X111571428Y-87285714D01*
X111476190Y-87333333D01*
X111428571Y-87380952D01*
X112761904Y-87952380D02*
X112761904Y-87428571D01*
X112714285Y-87333333D01*
X112619047Y-87285714D01*
X112428571Y-87285714D01*
X112333333Y-87333333D01*
X112761904Y-87904761D02*
X112666666Y-87952380D01*
X112428571Y-87952380D01*
X112333333Y-87904761D01*
X112285714Y-87809523D01*
X112285714Y-87714285D01*
X112333333Y-87619047D01*
X112428571Y-87571428D01*
X112666666Y-87571428D01*
X112761904Y-87523809D01*
X113238095Y-87952380D02*
X113238095Y-87285714D01*
X113238095Y-87476190D02*
X113285714Y-87380952D01*
X113333333Y-87333333D01*
X113428571Y-87285714D01*
X113523809Y-87285714D01*
X114285714Y-87285714D02*
X114285714Y-88095238D01*
X114238095Y-88190476D01*
X114190476Y-88238095D01*
X114095238Y-88285714D01*
X113952380Y-88285714D01*
X113857142Y-88238095D01*
X114285714Y-87904761D02*
X114190476Y-87952380D01*
X114000000Y-87952380D01*
X113904761Y-87904761D01*
X113857142Y-87857142D01*
X113809523Y-87761904D01*
X113809523Y-87476190D01*
X113857142Y-87380952D01*
X113904761Y-87333333D01*
X114000000Y-87285714D01*
X114190476Y-87285714D01*
X114285714Y-87333333D01*
X115142857Y-87904761D02*
X115047619Y-87952380D01*
X114857142Y-87952380D01*
X114761904Y-87904761D01*
X114714285Y-87809523D01*
X114714285Y-87428571D01*
X114761904Y-87333333D01*
X114857142Y-87285714D01*
X115047619Y-87285714D01*
X115142857Y-87333333D01*
X115190476Y-87428571D01*
X115190476Y-87523809D01*
X114714285Y-87619047D01*
X116142857Y-87952380D02*
X115571428Y-87952380D01*
X115857142Y-87952380D02*
X115857142Y-86952380D01*
X115761904Y-87095238D01*
X115666666Y-87190476D01*
X115571428Y-87238095D01*
%TO.C,S1*%
X103238095Y-97404761D02*
X103380952Y-97452380D01*
X103619047Y-97452380D01*
X103714285Y-97404761D01*
X103761904Y-97357142D01*
X103809523Y-97261904D01*
X103809523Y-97166666D01*
X103761904Y-97071428D01*
X103714285Y-97023809D01*
X103619047Y-96976190D01*
X103428571Y-96928571D01*
X103333333Y-96880952D01*
X103285714Y-96833333D01*
X103238095Y-96738095D01*
X103238095Y-96642857D01*
X103285714Y-96547619D01*
X103333333Y-96500000D01*
X103428571Y-96452380D01*
X103666666Y-96452380D01*
X103809523Y-96500000D01*
X104761904Y-97452380D02*
X104190476Y-97452380D01*
X104476190Y-97452380D02*
X104476190Y-96452380D01*
X104380952Y-96595238D01*
X104285714Y-96690476D01*
X104190476Y-96738095D01*
%TO.C,C_Vcp1*%
X115392857Y-78357142D02*
X115345238Y-78404761D01*
X115202380Y-78452380D01*
X115107142Y-78452380D01*
X114964285Y-78404761D01*
X114869047Y-78309523D01*
X114821428Y-78214285D01*
X114773809Y-78023809D01*
X114773809Y-77880952D01*
X114821428Y-77690476D01*
X114869047Y-77595238D01*
X114964285Y-77500000D01*
X115107142Y-77452380D01*
X115202380Y-77452380D01*
X115345238Y-77500000D01*
X115392857Y-77547619D01*
X115583333Y-78547619D02*
X116345238Y-78547619D01*
X116440476Y-77452380D02*
X116773809Y-78452380D01*
X117107142Y-77452380D01*
X117869047Y-78404761D02*
X117773809Y-78452380D01*
X117583333Y-78452380D01*
X117488095Y-78404761D01*
X117440476Y-78357142D01*
X117392857Y-78261904D01*
X117392857Y-77976190D01*
X117440476Y-77880952D01*
X117488095Y-77833333D01*
X117583333Y-77785714D01*
X117773809Y-77785714D01*
X117869047Y-77833333D01*
X118297619Y-77785714D02*
X118297619Y-78785714D01*
X118297619Y-77833333D02*
X118392857Y-77785714D01*
X118583333Y-77785714D01*
X118678571Y-77833333D01*
X118726190Y-77880952D01*
X118773809Y-77976190D01*
X118773809Y-78261904D01*
X118726190Y-78357142D01*
X118678571Y-78404761D01*
X118583333Y-78452380D01*
X118392857Y-78452380D01*
X118297619Y-78404761D01*
X119726190Y-78452380D02*
X119154761Y-78452380D01*
X119440476Y-78452380D02*
X119440476Y-77452380D01*
X119345238Y-77595238D01*
X119250000Y-77690476D01*
X119154761Y-77738095D01*
%TO.C,JP_BATT1*%
X118202380Y-95904761D02*
X118916666Y-95904761D01*
X119059523Y-95952380D01*
X119154761Y-96047619D01*
X119202380Y-96190476D01*
X119202380Y-96285714D01*
X119202380Y-95428571D02*
X118202380Y-95428571D01*
X118202380Y-95047619D01*
X118250000Y-94952380D01*
X118297619Y-94904761D01*
X118392857Y-94857142D01*
X118535714Y-94857142D01*
X118630952Y-94904761D01*
X118678571Y-94952380D01*
X118726190Y-95047619D01*
X118726190Y-95428571D01*
X119297619Y-94666666D02*
X119297619Y-93904761D01*
X118678571Y-93333333D02*
X118726190Y-93190476D01*
X118773809Y-93142857D01*
X118869047Y-93095238D01*
X119011904Y-93095238D01*
X119107142Y-93142857D01*
X119154761Y-93190476D01*
X119202380Y-93285714D01*
X119202380Y-93666666D01*
X118202380Y-93666666D01*
X118202380Y-93333333D01*
X118250000Y-93238095D01*
X118297619Y-93190476D01*
X118392857Y-93142857D01*
X118488095Y-93142857D01*
X118583333Y-93190476D01*
X118630952Y-93238095D01*
X118678571Y-93333333D01*
X118678571Y-93666666D01*
X118916666Y-92714285D02*
X118916666Y-92238095D01*
X119202380Y-92809523D02*
X118202380Y-92476190D01*
X119202380Y-92142857D01*
X118202380Y-91952380D02*
X118202380Y-91380952D01*
X119202380Y-91666666D02*
X118202380Y-91666666D01*
X118202380Y-91190476D02*
X118202380Y-90619047D01*
X119202380Y-90904761D02*
X118202380Y-90904761D01*
X119202380Y-89761904D02*
X119202380Y-90333333D01*
X119202380Y-90047619D02*
X118202380Y-90047619D01*
X118345238Y-90142857D01*
X118440476Y-90238095D01*
X118488095Y-90333333D01*
%TO.C,JP_S1_Bat1*%
X107464285Y-89702380D02*
X107464285Y-90416666D01*
X107416666Y-90559523D01*
X107321428Y-90654761D01*
X107178571Y-90702380D01*
X107083333Y-90702380D01*
X107940476Y-90702380D02*
X107940476Y-89702380D01*
X108321428Y-89702380D01*
X108416666Y-89750000D01*
X108464285Y-89797619D01*
X108511904Y-89892857D01*
X108511904Y-90035714D01*
X108464285Y-90130952D01*
X108416666Y-90178571D01*
X108321428Y-90226190D01*
X107940476Y-90226190D01*
X108702380Y-90797619D02*
X109464285Y-90797619D01*
X109654761Y-90654761D02*
X109797619Y-90702380D01*
X110035714Y-90702380D01*
X110130952Y-90654761D01*
X110178571Y-90607142D01*
X110226190Y-90511904D01*
X110226190Y-90416666D01*
X110178571Y-90321428D01*
X110130952Y-90273809D01*
X110035714Y-90226190D01*
X109845238Y-90178571D01*
X109750000Y-90130952D01*
X109702380Y-90083333D01*
X109654761Y-89988095D01*
X109654761Y-89892857D01*
X109702380Y-89797619D01*
X109750000Y-89750000D01*
X109845238Y-89702380D01*
X110083333Y-89702380D01*
X110226190Y-89750000D01*
X111178571Y-90702380D02*
X110607142Y-90702380D01*
X110892857Y-90702380D02*
X110892857Y-89702380D01*
X110797619Y-89845238D01*
X110702380Y-89940476D01*
X110607142Y-89988095D01*
X111369047Y-90797619D02*
X112130952Y-90797619D01*
X112702380Y-90178571D02*
X112845238Y-90226190D01*
X112892857Y-90273809D01*
X112940476Y-90369047D01*
X112940476Y-90511904D01*
X112892857Y-90607142D01*
X112845238Y-90654761D01*
X112750000Y-90702380D01*
X112369047Y-90702380D01*
X112369047Y-89702380D01*
X112702380Y-89702380D01*
X112797619Y-89750000D01*
X112845238Y-89797619D01*
X112892857Y-89892857D01*
X112892857Y-89988095D01*
X112845238Y-90083333D01*
X112797619Y-90130952D01*
X112702380Y-90178571D01*
X112369047Y-90178571D01*
X113797619Y-90702380D02*
X113797619Y-90178571D01*
X113750000Y-90083333D01*
X113654761Y-90035714D01*
X113464285Y-90035714D01*
X113369047Y-90083333D01*
X113797619Y-90654761D02*
X113702380Y-90702380D01*
X113464285Y-90702380D01*
X113369047Y-90654761D01*
X113321428Y-90559523D01*
X113321428Y-90464285D01*
X113369047Y-90369047D01*
X113464285Y-90321428D01*
X113702380Y-90321428D01*
X113797619Y-90273809D01*
X114130952Y-90035714D02*
X114511904Y-90035714D01*
X114273809Y-89702380D02*
X114273809Y-90559523D01*
X114321428Y-90654761D01*
X114416666Y-90702380D01*
X114511904Y-90702380D01*
X115369047Y-90702380D02*
X114797619Y-90702380D01*
X115083333Y-90702380D02*
X115083333Y-89702380D01*
X114988095Y-89845238D01*
X114892857Y-89940476D01*
X114797619Y-89988095D01*
%TO.C,R5.1*%
X88202380Y-73130952D02*
X87726190Y-73464285D01*
X88202380Y-73702380D02*
X87202380Y-73702380D01*
X87202380Y-73321428D01*
X87250000Y-73226190D01*
X87297619Y-73178571D01*
X87392857Y-73130952D01*
X87535714Y-73130952D01*
X87630952Y-73178571D01*
X87678571Y-73226190D01*
X87726190Y-73321428D01*
X87726190Y-73702380D01*
X87202380Y-72226190D02*
X87202380Y-72702380D01*
X87678571Y-72750000D01*
X87630952Y-72702380D01*
X87583333Y-72607142D01*
X87583333Y-72369047D01*
X87630952Y-72273809D01*
X87678571Y-72226190D01*
X87773809Y-72178571D01*
X88011904Y-72178571D01*
X88107142Y-72226190D01*
X88154761Y-72273809D01*
X88202380Y-72369047D01*
X88202380Y-72607142D01*
X88154761Y-72702380D01*
X88107142Y-72750000D01*
X88107142Y-71750000D02*
X88154761Y-71702380D01*
X88202380Y-71750000D01*
X88154761Y-71797619D01*
X88107142Y-71750000D01*
X88202380Y-71750000D01*
X88202380Y-70750000D02*
X88202380Y-71321428D01*
X88202380Y-71035714D02*
X87202380Y-71035714D01*
X87345238Y-71130952D01*
X87440476Y-71226190D01*
X87488095Y-71321428D01*
%TO.C,R2*%
X87583333Y-84141130D02*
X87250000Y-83664940D01*
X87011904Y-84141130D02*
X87011904Y-83141130D01*
X87392857Y-83141130D01*
X87488095Y-83188750D01*
X87535714Y-83236369D01*
X87583333Y-83331607D01*
X87583333Y-83474464D01*
X87535714Y-83569702D01*
X87488095Y-83617321D01*
X87392857Y-83664940D01*
X87011904Y-83664940D01*
X87964285Y-83236369D02*
X88011904Y-83188750D01*
X88107142Y-83141130D01*
X88345238Y-83141130D01*
X88440476Y-83188750D01*
X88488095Y-83236369D01*
X88535714Y-83331607D01*
X88535714Y-83426845D01*
X88488095Y-83569702D01*
X87916666Y-84141130D01*
X88535714Y-84141130D01*
%TO.C,R10k1*%
X91226190Y-96202380D02*
X90892857Y-95726190D01*
X90654761Y-96202380D02*
X90654761Y-95202380D01*
X91035714Y-95202380D01*
X91130952Y-95250000D01*
X91178571Y-95297619D01*
X91226190Y-95392857D01*
X91226190Y-95535714D01*
X91178571Y-95630952D01*
X91130952Y-95678571D01*
X91035714Y-95726190D01*
X90654761Y-95726190D01*
X92178571Y-96202380D02*
X91607142Y-96202380D01*
X91892857Y-96202380D02*
X91892857Y-95202380D01*
X91797619Y-95345238D01*
X91702380Y-95440476D01*
X91607142Y-95488095D01*
X92797619Y-95202380D02*
X92892857Y-95202380D01*
X92988095Y-95250000D01*
X93035714Y-95297619D01*
X93083333Y-95392857D01*
X93130952Y-95583333D01*
X93130952Y-95821428D01*
X93083333Y-96011904D01*
X93035714Y-96107142D01*
X92988095Y-96154761D01*
X92892857Y-96202380D01*
X92797619Y-96202380D01*
X92702380Y-96154761D01*
X92654761Y-96107142D01*
X92607142Y-96011904D01*
X92559523Y-95821428D01*
X92559523Y-95583333D01*
X92607142Y-95392857D01*
X92654761Y-95297619D01*
X92702380Y-95250000D01*
X92797619Y-95202380D01*
X93559523Y-96202380D02*
X93559523Y-95202380D01*
X93654761Y-95821428D02*
X93940476Y-96202380D01*
X93940476Y-95535714D02*
X93559523Y-95916666D01*
X94892857Y-96202380D02*
X94321428Y-96202380D01*
X94607142Y-96202380D02*
X94607142Y-95202380D01*
X94511904Y-95345238D01*
X94416666Y-95440476D01*
X94321428Y-95488095D01*
%TO.C,TP1B1*%
X113202380Y-79238095D02*
X113202380Y-78666666D01*
X114202380Y-78952380D02*
X113202380Y-78952380D01*
X114202380Y-78333333D02*
X113202380Y-78333333D01*
X113202380Y-77952380D01*
X113250000Y-77857142D01*
X113297619Y-77809523D01*
X113392857Y-77761904D01*
X113535714Y-77761904D01*
X113630952Y-77809523D01*
X113678571Y-77857142D01*
X113726190Y-77952380D01*
X113726190Y-78333333D01*
X114202380Y-76809523D02*
X114202380Y-77380952D01*
X114202380Y-77095238D02*
X113202380Y-77095238D01*
X113345238Y-77190476D01*
X113440476Y-77285714D01*
X113488095Y-77380952D01*
X113678571Y-76047619D02*
X113726190Y-75904761D01*
X113773809Y-75857142D01*
X113869047Y-75809523D01*
X114011904Y-75809523D01*
X114107142Y-75857142D01*
X114154761Y-75904761D01*
X114202380Y-76000000D01*
X114202380Y-76380952D01*
X113202380Y-76380952D01*
X113202380Y-76047619D01*
X113250000Y-75952380D01*
X113297619Y-75904761D01*
X113392857Y-75857142D01*
X113488095Y-75857142D01*
X113583333Y-75904761D01*
X113630952Y-75952380D01*
X113678571Y-76047619D01*
X113678571Y-76380952D01*
X114202380Y-74857142D02*
X114202380Y-75428571D01*
X114202380Y-75142857D02*
X113202380Y-75142857D01*
X113345238Y-75238095D01*
X113440476Y-75333333D01*
X113488095Y-75428571D01*
%TO.C,Charge1*%
X104988095Y-85857142D02*
X104940476Y-85904761D01*
X104797619Y-85952380D01*
X104702380Y-85952380D01*
X104559523Y-85904761D01*
X104464285Y-85809523D01*
X104416666Y-85714285D01*
X104369047Y-85523809D01*
X104369047Y-85380952D01*
X104416666Y-85190476D01*
X104464285Y-85095238D01*
X104559523Y-85000000D01*
X104702380Y-84952380D01*
X104797619Y-84952380D01*
X104940476Y-85000000D01*
X104988095Y-85047619D01*
X105416666Y-85952380D02*
X105416666Y-84952380D01*
X105845238Y-85952380D02*
X105845238Y-85428571D01*
X105797619Y-85333333D01*
X105702380Y-85285714D01*
X105559523Y-85285714D01*
X105464285Y-85333333D01*
X105416666Y-85380952D01*
X106750000Y-85952380D02*
X106750000Y-85428571D01*
X106702380Y-85333333D01*
X106607142Y-85285714D01*
X106416666Y-85285714D01*
X106321428Y-85333333D01*
X106750000Y-85904761D02*
X106654761Y-85952380D01*
X106416666Y-85952380D01*
X106321428Y-85904761D01*
X106273809Y-85809523D01*
X106273809Y-85714285D01*
X106321428Y-85619047D01*
X106416666Y-85571428D01*
X106654761Y-85571428D01*
X106750000Y-85523809D01*
X107226190Y-85952380D02*
X107226190Y-85285714D01*
X107226190Y-85476190D02*
X107273809Y-85380952D01*
X107321428Y-85333333D01*
X107416666Y-85285714D01*
X107511904Y-85285714D01*
X108273809Y-85285714D02*
X108273809Y-86095238D01*
X108226190Y-86190476D01*
X108178571Y-86238095D01*
X108083333Y-86285714D01*
X107940476Y-86285714D01*
X107845238Y-86238095D01*
X108273809Y-85904761D02*
X108178571Y-85952380D01*
X107988095Y-85952380D01*
X107892857Y-85904761D01*
X107845238Y-85857142D01*
X107797619Y-85761904D01*
X107797619Y-85476190D01*
X107845238Y-85380952D01*
X107892857Y-85333333D01*
X107988095Y-85285714D01*
X108178571Y-85285714D01*
X108273809Y-85333333D01*
X109130952Y-85904761D02*
X109035714Y-85952380D01*
X108845238Y-85952380D01*
X108750000Y-85904761D01*
X108702380Y-85809523D01*
X108702380Y-85428571D01*
X108750000Y-85333333D01*
X108845238Y-85285714D01*
X109035714Y-85285714D01*
X109130952Y-85333333D01*
X109178571Y-85428571D01*
X109178571Y-85523809D01*
X108702380Y-85619047D01*
X110130952Y-85952380D02*
X109559523Y-85952380D01*
X109845238Y-85952380D02*
X109845238Y-84952380D01*
X109750000Y-85095238D01*
X109654761Y-85190476D01*
X109559523Y-85238095D01*
%TO.C,R3k1*%
X90702380Y-69547619D02*
X90226190Y-69880952D01*
X90702380Y-70119047D02*
X89702380Y-70119047D01*
X89702380Y-69738095D01*
X89750000Y-69642857D01*
X89797619Y-69595238D01*
X89892857Y-69547619D01*
X90035714Y-69547619D01*
X90130952Y-69595238D01*
X90178571Y-69642857D01*
X90226190Y-69738095D01*
X90226190Y-70119047D01*
X89702380Y-69214285D02*
X89702380Y-68595238D01*
X90083333Y-68928571D01*
X90083333Y-68785714D01*
X90130952Y-68690476D01*
X90178571Y-68642857D01*
X90273809Y-68595238D01*
X90511904Y-68595238D01*
X90607142Y-68642857D01*
X90654761Y-68690476D01*
X90702380Y-68785714D01*
X90702380Y-69071428D01*
X90654761Y-69166666D01*
X90607142Y-69214285D01*
X90702380Y-68166666D02*
X89702380Y-68166666D01*
X90321428Y-68071428D02*
X90702380Y-67785714D01*
X90035714Y-67785714D02*
X90416666Y-68166666D01*
X90702380Y-66833333D02*
X90702380Y-67404761D01*
X90702380Y-67119047D02*
X89702380Y-67119047D01*
X89845238Y-67214285D01*
X89940476Y-67309523D01*
X89988095Y-67404761D01*
%TO.C,MD1*%
X113332976Y-68277380D02*
X113332976Y-67277380D01*
X113666309Y-67991666D01*
X113999642Y-67277380D01*
X113999642Y-68277380D01*
X114475833Y-68277380D02*
X114475833Y-67277380D01*
X114713928Y-67277380D01*
X114856785Y-67325000D01*
X114952023Y-67420238D01*
X114999642Y-67515476D01*
X115047261Y-67705952D01*
X115047261Y-67848809D01*
X114999642Y-68039285D01*
X114952023Y-68134523D01*
X114856785Y-68229761D01*
X114713928Y-68277380D01*
X114475833Y-68277380D01*
X115999642Y-68277380D02*
X115428214Y-68277380D01*
X115713928Y-68277380D02*
X115713928Y-67277380D01*
X115618690Y-67420238D01*
X115523452Y-67515476D01*
X115428214Y-67563095D01*
%TO.C,C_Batt1*%
X111357142Y-83321428D02*
X111404761Y-83369047D01*
X111452380Y-83511904D01*
X111452380Y-83607142D01*
X111404761Y-83750000D01*
X111309523Y-83845238D01*
X111214285Y-83892857D01*
X111023809Y-83940476D01*
X110880952Y-83940476D01*
X110690476Y-83892857D01*
X110595238Y-83845238D01*
X110500000Y-83750000D01*
X110452380Y-83607142D01*
X110452380Y-83511904D01*
X110500000Y-83369047D01*
X110547619Y-83321428D01*
X111547619Y-83130952D02*
X111547619Y-82369047D01*
X110928571Y-81797619D02*
X110976190Y-81654761D01*
X111023809Y-81607142D01*
X111119047Y-81559523D01*
X111261904Y-81559523D01*
X111357142Y-81607142D01*
X111404761Y-81654761D01*
X111452380Y-81750000D01*
X111452380Y-82130952D01*
X110452380Y-82130952D01*
X110452380Y-81797619D01*
X110500000Y-81702380D01*
X110547619Y-81654761D01*
X110642857Y-81607142D01*
X110738095Y-81607142D01*
X110833333Y-81654761D01*
X110880952Y-81702380D01*
X110928571Y-81797619D01*
X110928571Y-82130952D01*
X111452380Y-80702380D02*
X110928571Y-80702380D01*
X110833333Y-80750000D01*
X110785714Y-80845238D01*
X110785714Y-81035714D01*
X110833333Y-81130952D01*
X111404761Y-80702380D02*
X111452380Y-80797619D01*
X111452380Y-81035714D01*
X111404761Y-81130952D01*
X111309523Y-81178571D01*
X111214285Y-81178571D01*
X111119047Y-81130952D01*
X111071428Y-81035714D01*
X111071428Y-80797619D01*
X111023809Y-80702380D01*
X110785714Y-80369047D02*
X110785714Y-79988095D01*
X110452380Y-80226190D02*
X111309523Y-80226190D01*
X111404761Y-80178571D01*
X111452380Y-80083333D01*
X111452380Y-79988095D01*
X110785714Y-79797619D02*
X110785714Y-79416666D01*
X110452380Y-79654761D02*
X111309523Y-79654761D01*
X111404761Y-79607142D01*
X111452380Y-79511904D01*
X111452380Y-79416666D01*
X111452380Y-78559523D02*
X111452380Y-79130952D01*
X111452380Y-78845238D02*
X110452380Y-78845238D01*
X110595238Y-78940476D01*
X110690476Y-79035714D01*
X110738095Y-79130952D01*
%TO.C,R100*%
X117702380Y-84869047D02*
X117226190Y-85202380D01*
X117702380Y-85440476D02*
X116702380Y-85440476D01*
X116702380Y-85059523D01*
X116750000Y-84964285D01*
X116797619Y-84916666D01*
X116892857Y-84869047D01*
X117035714Y-84869047D01*
X117130952Y-84916666D01*
X117178571Y-84964285D01*
X117226190Y-85059523D01*
X117226190Y-85440476D01*
X117702380Y-83916666D02*
X117702380Y-84488095D01*
X117702380Y-84202380D02*
X116702380Y-84202380D01*
X116845238Y-84297619D01*
X116940476Y-84392857D01*
X116988095Y-84488095D01*
X116702380Y-83297619D02*
X116702380Y-83202380D01*
X116750000Y-83107142D01*
X116797619Y-83059523D01*
X116892857Y-83011904D01*
X117083333Y-82964285D01*
X117321428Y-82964285D01*
X117511904Y-83011904D01*
X117607142Y-83059523D01*
X117654761Y-83107142D01*
X117702380Y-83202380D01*
X117702380Y-83297619D01*
X117654761Y-83392857D01*
X117607142Y-83440476D01*
X117511904Y-83488095D01*
X117321428Y-83535714D01*
X117083333Y-83535714D01*
X116892857Y-83488095D01*
X116797619Y-83440476D01*
X116750000Y-83392857D01*
X116702380Y-83297619D01*
X116702380Y-82345238D02*
X116702380Y-82250000D01*
X116750000Y-82154761D01*
X116797619Y-82107142D01*
X116892857Y-82059523D01*
X117083333Y-82011904D01*
X117321428Y-82011904D01*
X117511904Y-82059523D01*
X117607142Y-82107142D01*
X117654761Y-82154761D01*
X117702380Y-82250000D01*
X117702380Y-82345238D01*
X117654761Y-82440476D01*
X117607142Y-82488095D01*
X117511904Y-82535714D01*
X117321428Y-82583333D01*
X117083333Y-82583333D01*
X116892857Y-82535714D01*
X116797619Y-82488095D01*
X116750000Y-82440476D01*
X116702380Y-82345238D01*
%TO.C,R1k1*%
X116452380Y-81460119D02*
X115976190Y-81793452D01*
X116452380Y-82031547D02*
X115452380Y-82031547D01*
X115452380Y-81650595D01*
X115500000Y-81555357D01*
X115547619Y-81507738D01*
X115642857Y-81460119D01*
X115785714Y-81460119D01*
X115880952Y-81507738D01*
X115928571Y-81555357D01*
X115976190Y-81650595D01*
X115976190Y-82031547D01*
X116452380Y-80507738D02*
X116452380Y-81079166D01*
X116452380Y-80793452D02*
X115452380Y-80793452D01*
X115595238Y-80888690D01*
X115690476Y-80983928D01*
X115738095Y-81079166D01*
X116452380Y-80079166D02*
X115452380Y-80079166D01*
X116071428Y-79983928D02*
X116452380Y-79698214D01*
X115785714Y-79698214D02*
X116166666Y-80079166D01*
X116452380Y-78745833D02*
X116452380Y-79317261D01*
X116452380Y-79031547D02*
X115452380Y-79031547D01*
X115595238Y-79126785D01*
X115690476Y-79222023D01*
X115738095Y-79317261D01*
%TO.C,JP_S1*%
X105844523Y-101702380D02*
X105844523Y-102416666D01*
X105796904Y-102559523D01*
X105701666Y-102654761D01*
X105558809Y-102702380D01*
X105463571Y-102702380D01*
X106320714Y-102702380D02*
X106320714Y-101702380D01*
X106701666Y-101702380D01*
X106796904Y-101750000D01*
X106844523Y-101797619D01*
X106892142Y-101892857D01*
X106892142Y-102035714D01*
X106844523Y-102130952D01*
X106796904Y-102178571D01*
X106701666Y-102226190D01*
X106320714Y-102226190D01*
X107082619Y-102797619D02*
X107844523Y-102797619D01*
X108035000Y-102654761D02*
X108177857Y-102702380D01*
X108415952Y-102702380D01*
X108511190Y-102654761D01*
X108558809Y-102607142D01*
X108606428Y-102511904D01*
X108606428Y-102416666D01*
X108558809Y-102321428D01*
X108511190Y-102273809D01*
X108415952Y-102226190D01*
X108225476Y-102178571D01*
X108130238Y-102130952D01*
X108082619Y-102083333D01*
X108035000Y-101988095D01*
X108035000Y-101892857D01*
X108082619Y-101797619D01*
X108130238Y-101750000D01*
X108225476Y-101702380D01*
X108463571Y-101702380D01*
X108606428Y-101750000D01*
X109558809Y-102702380D02*
X108987380Y-102702380D01*
X109273095Y-102702380D02*
X109273095Y-101702380D01*
X109177857Y-101845238D01*
X109082619Y-101940476D01*
X108987380Y-101988095D01*
%TO.C,TP_ADC1*%
X87452380Y-99321428D02*
X87452380Y-98750000D01*
X88452380Y-99035714D02*
X87452380Y-99035714D01*
X88452380Y-98416666D02*
X87452380Y-98416666D01*
X87452380Y-98035714D01*
X87500000Y-97940476D01*
X87547619Y-97892857D01*
X87642857Y-97845238D01*
X87785714Y-97845238D01*
X87880952Y-97892857D01*
X87928571Y-97940476D01*
X87976190Y-98035714D01*
X87976190Y-98416666D01*
X88547619Y-97654761D02*
X88547619Y-96892857D01*
X88166666Y-96702380D02*
X88166666Y-96226190D01*
X88452380Y-96797619D02*
X87452380Y-96464285D01*
X88452380Y-96130952D01*
X88452380Y-95797619D02*
X87452380Y-95797619D01*
X87452380Y-95559523D01*
X87500000Y-95416666D01*
X87595238Y-95321428D01*
X87690476Y-95273809D01*
X87880952Y-95226190D01*
X88023809Y-95226190D01*
X88214285Y-95273809D01*
X88309523Y-95321428D01*
X88404761Y-95416666D01*
X88452380Y-95559523D01*
X88452380Y-95797619D01*
X88357142Y-94226190D02*
X88404761Y-94273809D01*
X88452380Y-94416666D01*
X88452380Y-94511904D01*
X88404761Y-94654761D01*
X88309523Y-94750000D01*
X88214285Y-94797619D01*
X88023809Y-94845238D01*
X87880952Y-94845238D01*
X87690476Y-94797619D01*
X87595238Y-94750000D01*
X87500000Y-94654761D01*
X87452380Y-94511904D01*
X87452380Y-94416666D01*
X87500000Y-94273809D01*
X87547619Y-94226190D01*
X88452380Y-93273809D02*
X88452380Y-93845238D01*
X88452380Y-93559523D02*
X87452380Y-93559523D01*
X87595238Y-93654761D01*
X87690476Y-93750000D01*
X87738095Y-93845238D01*
%TO.C,TP2B1*%
X96511904Y-73254380D02*
X97083333Y-73254380D01*
X96797619Y-74254380D02*
X96797619Y-73254380D01*
X97416666Y-74254380D02*
X97416666Y-73254380D01*
X97797619Y-73254380D01*
X97892857Y-73302000D01*
X97940476Y-73349619D01*
X97988095Y-73444857D01*
X97988095Y-73587714D01*
X97940476Y-73682952D01*
X97892857Y-73730571D01*
X97797619Y-73778190D01*
X97416666Y-73778190D01*
X98369047Y-73349619D02*
X98416666Y-73302000D01*
X98511904Y-73254380D01*
X98750000Y-73254380D01*
X98845238Y-73302000D01*
X98892857Y-73349619D01*
X98940476Y-73444857D01*
X98940476Y-73540095D01*
X98892857Y-73682952D01*
X98321428Y-74254380D01*
X98940476Y-74254380D01*
X99702380Y-73730571D02*
X99845238Y-73778190D01*
X99892857Y-73825809D01*
X99940476Y-73921047D01*
X99940476Y-74063904D01*
X99892857Y-74159142D01*
X99845238Y-74206761D01*
X99750000Y-74254380D01*
X99369047Y-74254380D01*
X99369047Y-73254380D01*
X99702380Y-73254380D01*
X99797619Y-73302000D01*
X99845238Y-73349619D01*
X99892857Y-73444857D01*
X99892857Y-73540095D01*
X99845238Y-73635333D01*
X99797619Y-73682952D01*
X99702380Y-73730571D01*
X99369047Y-73730571D01*
X100892857Y-74254380D02*
X100321428Y-74254380D01*
X100607142Y-74254380D02*
X100607142Y-73254380D01*
X100511904Y-73397238D01*
X100416666Y-73492476D01*
X100321428Y-73540095D01*
%TO.C,C_Vint1*%
X110797619Y-64107142D02*
X110750000Y-64154761D01*
X110607142Y-64202380D01*
X110511904Y-64202380D01*
X110369047Y-64154761D01*
X110273809Y-64059523D01*
X110226190Y-63964285D01*
X110178571Y-63773809D01*
X110178571Y-63630952D01*
X110226190Y-63440476D01*
X110273809Y-63345238D01*
X110369047Y-63250000D01*
X110511904Y-63202380D01*
X110607142Y-63202380D01*
X110750000Y-63250000D01*
X110797619Y-63297619D01*
X110988095Y-64297619D02*
X111750000Y-64297619D01*
X111845238Y-63202380D02*
X112178571Y-64202380D01*
X112511904Y-63202380D01*
X112845238Y-64202380D02*
X112845238Y-63535714D01*
X112845238Y-63202380D02*
X112797619Y-63250000D01*
X112845238Y-63297619D01*
X112892857Y-63250000D01*
X112845238Y-63202380D01*
X112845238Y-63297619D01*
X113321428Y-63535714D02*
X113321428Y-64202380D01*
X113321428Y-63630952D02*
X113369047Y-63583333D01*
X113464285Y-63535714D01*
X113607142Y-63535714D01*
X113702380Y-63583333D01*
X113750000Y-63678571D01*
X113750000Y-64202380D01*
X114083333Y-63535714D02*
X114464285Y-63535714D01*
X114226190Y-63202380D02*
X114226190Y-64059523D01*
X114273809Y-64154761D01*
X114369047Y-64202380D01*
X114464285Y-64202380D01*
X115321428Y-64202380D02*
X114750000Y-64202380D01*
X115035714Y-64202380D02*
X115035714Y-63202380D01*
X114940476Y-63345238D01*
X114845238Y-63440476D01*
X114750000Y-63488095D01*
%TO.C,C_Vdd1*%
X97504283Y-83630952D02*
X97551902Y-83678571D01*
X97599521Y-83821428D01*
X97599521Y-83916666D01*
X97551902Y-84059523D01*
X97456664Y-84154761D01*
X97361426Y-84202380D01*
X97170950Y-84250000D01*
X97028093Y-84250000D01*
X96837617Y-84202380D01*
X96742379Y-84154761D01*
X96647141Y-84059523D01*
X96599521Y-83916666D01*
X96599521Y-83821428D01*
X96647141Y-83678571D01*
X96694760Y-83630952D01*
X97694760Y-83440476D02*
X97694760Y-82678571D01*
X96599521Y-82583333D02*
X97599521Y-82250000D01*
X96599521Y-81916666D01*
X97599521Y-81154761D02*
X96599521Y-81154761D01*
X97551902Y-81154761D02*
X97599521Y-81250000D01*
X97599521Y-81440476D01*
X97551902Y-81535714D01*
X97504283Y-81583333D01*
X97409045Y-81630952D01*
X97123331Y-81630952D01*
X97028093Y-81583333D01*
X96980474Y-81535714D01*
X96932855Y-81440476D01*
X96932855Y-81250000D01*
X96980474Y-81154761D01*
X97599521Y-80250000D02*
X96599521Y-80250000D01*
X97551902Y-80250000D02*
X97599521Y-80345238D01*
X97599521Y-80535714D01*
X97551902Y-80630952D01*
X97504283Y-80678571D01*
X97409045Y-80726190D01*
X97123331Y-80726190D01*
X97028093Y-80678571D01*
X96980474Y-80630952D01*
X96932855Y-80535714D01*
X96932855Y-80345238D01*
X96980474Y-80250000D01*
X97599521Y-79250000D02*
X97599521Y-79821428D01*
X97599521Y-79535714D02*
X96599521Y-79535714D01*
X96742379Y-79630952D01*
X96837617Y-79726190D01*
X96885236Y-79821428D01*
D12*
%TO.C,Fault1*%
X109500000Y-76210000D02*
X112185000Y-76210000D01*
X112185000Y-74290000D02*
X109500000Y-74290000D01*
X112185000Y-76210000D02*
X112185000Y-74290000D01*
%TO.C,C_Vm1*%
X117010000Y-65140580D02*
X117010000Y-64859420D01*
X115990000Y-65140580D02*
X115990000Y-64859420D01*
%TO.C,D_Stat1*%
X98632141Y-86485000D02*
X98632141Y-85015000D01*
X96347141Y-86485000D02*
X98632141Y-86485000D01*
X98632141Y-85015000D02*
X96347141Y-85015000D01*
%TO.C,R_Prog1*%
X103559923Y-78840000D02*
X102105795Y-78840000D01*
X103559923Y-80660000D02*
X102105795Y-80660000D01*
%TO.C,R_Fault1*%
X104272936Y-75985000D02*
X104727064Y-75985000D01*
X104272936Y-74515000D02*
X104727064Y-74515000D01*
%TO.C,PinCon1*%
X94830000Y-72920000D02*
X94830000Y-74250000D01*
X92230000Y-75520000D02*
X94830000Y-75520000D01*
X92230000Y-72920000D02*
X92230000Y-75520000D01*
X93500000Y-72920000D02*
X94830000Y-72920000D01*
X89630000Y-72920000D02*
X89630000Y-93360000D01*
X89630000Y-93360000D02*
X94830000Y-93360000D01*
X94830000Y-75520000D02*
X94830000Y-93360000D01*
X89630000Y-72920000D02*
X92230000Y-72920000D01*
%TO.C,J2*%
X114900000Y-100750000D02*
X114900000Y-100250000D01*
X114500000Y-96640000D02*
X114500000Y-97250000D01*
X115000000Y-100750000D02*
X115000000Y-100250000D01*
X113700000Y-96640000D02*
X113700000Y-96440000D01*
X111940000Y-101360000D02*
X118060000Y-101360000D01*
X111940000Y-99250000D02*
X112550000Y-99250000D01*
X118060000Y-97950000D02*
X117450000Y-97950000D01*
X114500000Y-97250000D02*
X112550000Y-97250000D01*
X111940000Y-97950000D02*
X112550000Y-97950000D01*
X118060000Y-99250000D02*
X117450000Y-99250000D01*
X111640000Y-96340000D02*
X111640000Y-97590000D01*
X112550000Y-100750000D02*
X117450000Y-100750000D01*
X113400000Y-96440000D02*
X113400000Y-96640000D01*
X113700000Y-96440000D02*
X113400000Y-96440000D01*
X115500000Y-97250000D02*
X115500000Y-96640000D01*
X118060000Y-101360000D02*
X118060000Y-96640000D01*
X112550000Y-97250000D02*
X112550000Y-100750000D01*
X118060000Y-96640000D02*
X111940000Y-96640000D01*
X114900000Y-100250000D02*
X115100000Y-100250000D01*
X113700000Y-96540000D02*
X113400000Y-96540000D01*
X117450000Y-100750000D02*
X117450000Y-97250000D01*
X115100000Y-100250000D02*
X115100000Y-100750000D01*
X112890000Y-96340000D02*
X111640000Y-96340000D01*
X117450000Y-97250000D02*
X115500000Y-97250000D01*
X111940000Y-96640000D02*
X111940000Y-101360000D01*
%TO.C,TP_En1*%
X109700000Y-69750000D02*
G75*
G03*
X109700000Y-69750000I-700000J0D01*
G01*
%TO.C,TPM1A1*%
X109200000Y-66500000D02*
G75*
G03*
X109200000Y-66500000I-700000J0D01*
G01*
%TO.C,TPM2A1*%
X99450000Y-72000000D02*
G75*
G03*
X99450000Y-72000000I-700000J0D01*
G01*
%TO.C,R1*%
X87265000Y-80874186D02*
X87265000Y-81328314D01*
X88735000Y-80874186D02*
X88735000Y-81328314D01*
%TO.C,R510*%
X118015000Y-88477064D02*
X118015000Y-88022936D01*
X119485000Y-88477064D02*
X119485000Y-88022936D01*
%TO.C,R_Stat1*%
X103882141Y-83977064D02*
X103882141Y-83522936D01*
X102412141Y-83977064D02*
X102412141Y-83522936D01*
%TO.C,TP_Charge1*%
X112847141Y-85082500D02*
G75*
G03*
X112847141Y-85082500I-700000J0D01*
G01*
D13*
%TO.C,S1*%
X110350013Y-91649987D02*
X97649987Y-91649987D01*
X97649987Y-98350013D02*
X110350013Y-98350013D01*
X97649987Y-91649987D02*
X97649987Y-98350013D01*
X110350013Y-98350013D02*
X110350013Y-91649987D01*
D14*
X110507011Y-91522987D02*
G75*
G03*
X110507011Y-91522987I-29998J0D01*
G01*
D12*
%TO.C,C_Vcp1*%
X117359420Y-75490000D02*
X117640580Y-75490000D01*
X117359420Y-76510000D02*
X117640580Y-76510000D01*
%TO.C,JP_BATT1*%
X117250000Y-94500000D02*
X115250000Y-94500000D01*
X117250000Y-91700000D02*
X117250000Y-94500000D01*
X115250000Y-91700000D02*
X117250000Y-91700000D01*
X115250000Y-94500000D02*
X115250000Y-91700000D01*
%TO.C,JP_S1_Bat1*%
X111750000Y-91500000D02*
X113750000Y-91500000D01*
X113750000Y-91500000D02*
X113750000Y-94300000D01*
X111750000Y-94300000D02*
X111750000Y-91500000D01*
X113750000Y-94300000D02*
X111750000Y-94300000D01*
%TO.C,R5.1*%
X88735000Y-76064564D02*
X88735000Y-75610436D01*
X87265000Y-76064564D02*
X87265000Y-75610436D01*
%TO.C,R2*%
X88735000Y-86665814D02*
X88735000Y-86211686D01*
X87265000Y-86665814D02*
X87265000Y-86211686D01*
%TO.C,R10k1*%
X92977064Y-97515000D02*
X92522936Y-97515000D01*
X92977064Y-98985000D02*
X92522936Y-98985000D01*
%TO.C,TP1B1*%
X112200000Y-77500000D02*
G75*
G03*
X112200000Y-77500000I-700000J0D01*
G01*
%TO.C,Charge1*%
X109844641Y-82750000D02*
X109844641Y-83550000D01*
X106724641Y-82750000D02*
X106724641Y-81950000D01*
X109844641Y-82750000D02*
X109844641Y-81950000D01*
X106724641Y-82750000D02*
X106724641Y-84550000D01*
%TO.C,R3k1*%
X88735000Y-68977064D02*
X88735000Y-68522936D01*
X87265000Y-68977064D02*
X87265000Y-68522936D01*
%TO.C,MD1*%
X114642500Y-74010000D02*
X112442500Y-74010000D01*
X114642500Y-68540000D02*
X116842500Y-68540000D01*
X114642500Y-74010000D02*
X116842500Y-74010000D01*
X114642500Y-68540000D02*
X111042500Y-68540000D01*
%TO.C,C_Batt1*%
X113010000Y-81890580D02*
X113010000Y-81609420D01*
X111990000Y-81890580D02*
X111990000Y-81609420D01*
%TO.C,R100*%
X118015000Y-84477064D02*
X118015000Y-84022936D01*
X119485000Y-84477064D02*
X119485000Y-84022936D01*
%TO.C,R1k1*%
X118015000Y-80639564D02*
X118015000Y-80185436D01*
X119485000Y-80639564D02*
X119485000Y-80185436D01*
%TO.C,JP_S1*%
X106350000Y-101500000D02*
X106350000Y-99500000D01*
X106350000Y-99500000D02*
X109150000Y-99500000D01*
X109150000Y-101500000D02*
X106350000Y-101500000D01*
X109150000Y-99500000D02*
X109150000Y-101500000D01*
%TO.C,TP_ADC1*%
X88700000Y-92250000D02*
G75*
G03*
X88700000Y-92250000I-700000J0D01*
G01*
%TO.C,TP2B1*%
X99450000Y-75250000D02*
G75*
G03*
X99450000Y-75250000I-700000J0D01*
G01*
%TO.C,C_Vint1*%
X110859420Y-64740000D02*
X111140580Y-64740000D01*
X110859420Y-65760000D02*
X111140580Y-65760000D01*
%TO.C,C_Vdd1*%
X98322859Y-81890580D02*
X98322859Y-81609420D01*
X99342859Y-81890580D02*
X99342859Y-81609420D01*
%TD*%
%LPC*%
D15*
%TO.C,Fault1*%
X111437500Y-75250000D03*
X109562500Y-75250000D03*
%TD*%
D16*
%TO.C,C_Vm1*%
X116500000Y-65775000D03*
X116500000Y-64225000D03*
%TD*%
D17*
%TO.C,D_Stat1*%
X97934641Y-85750000D03*
X96359641Y-85750000D03*
%TD*%
D18*
%TO.C,R_Prog1*%
X104295359Y-79750000D03*
X101370359Y-79750000D03*
%TD*%
D19*
%TO.C,R_Fault1*%
X103587500Y-75250000D03*
X105412500Y-75250000D03*
%TD*%
D20*
%TO.C,PinCon1*%
X93500000Y-74250000D03*
D21*
X90960000Y-74250000D03*
X93500000Y-76790000D03*
X90960000Y-76790000D03*
X93500000Y-79330000D03*
X90960000Y-79330000D03*
X93500000Y-81870000D03*
X90960000Y-81870000D03*
X93500000Y-84410000D03*
X90960000Y-84410000D03*
X93500000Y-86950000D03*
X90960000Y-86950000D03*
X93500000Y-89490000D03*
X90960000Y-89490000D03*
X93500000Y-92030000D03*
X90960000Y-92030000D03*
%TD*%
D22*
%TO.C,J2*%
X114000000Y-98450000D03*
D23*
X116000000Y-98450000D03*
%TD*%
D24*
%TO.C,TP_En1*%
X109000000Y-69750000D03*
%TD*%
%TO.C,TPM1A1*%
X108500000Y-66500000D03*
%TD*%
%TO.C,TPM2A1*%
X98750000Y-72000000D03*
%TD*%
D25*
%TO.C,R1*%
X88000000Y-80188750D03*
X88000000Y-82013750D03*
%TD*%
D26*
%TO.C,R510*%
X118750000Y-89162500D03*
X118750000Y-87337500D03*
%TD*%
%TO.C,R_Stat1*%
X103147141Y-84662500D03*
X103147141Y-82837500D03*
%TD*%
D24*
%TO.C,TP_Charge1*%
X112147141Y-85082500D03*
%TD*%
D27*
%TO.C,S1*%
X108700025Y-95000000D03*
X104000000Y-95000000D03*
X99299975Y-95000000D03*
%TD*%
D28*
%TO.C,C_Vcp1*%
X116725000Y-76000000D03*
X118275000Y-76000000D03*
%TD*%
D29*
%TO.C,JP_BATT1*%
X116250000Y-93750000D03*
X116250000Y-92450000D03*
%TD*%
%TO.C,JP_S1_Bat1*%
X112750000Y-92250000D03*
X112750000Y-93550000D03*
%TD*%
D26*
%TO.C,R5.1*%
X88000000Y-76750000D03*
X88000000Y-74925000D03*
%TD*%
%TO.C,R2*%
X88000000Y-87351250D03*
X88000000Y-85526250D03*
%TD*%
D30*
%TO.C,R10k1*%
X93662500Y-98250000D03*
X91837500Y-98250000D03*
%TD*%
D24*
%TO.C,TP1B1*%
X111500000Y-77500000D03*
%TD*%
D31*
%TO.C,Charge1*%
X107334641Y-83887500D03*
X108284641Y-83887500D03*
X109234641Y-83887500D03*
X109234641Y-81612500D03*
X107334641Y-81612500D03*
%TD*%
D26*
%TO.C,R3k1*%
X88000000Y-69662500D03*
X88000000Y-67837500D03*
%TD*%
D32*
%TO.C,MD1*%
X111780000Y-69000000D03*
X111780000Y-69650000D03*
X111780000Y-70300000D03*
X111780000Y-70950000D03*
X111780000Y-71600000D03*
X111780000Y-72250000D03*
X111780000Y-72900000D03*
X111780000Y-73550000D03*
X117505000Y-73550000D03*
X117505000Y-72900000D03*
X117505000Y-72250000D03*
X117505000Y-71600000D03*
X117505000Y-70950000D03*
X117505000Y-70300000D03*
X117505000Y-69650000D03*
X117505000Y-69000000D03*
%TD*%
D16*
%TO.C,C_Batt1*%
X112500000Y-82525000D03*
X112500000Y-80975000D03*
%TD*%
D26*
%TO.C,R100*%
X118750000Y-85162500D03*
X118750000Y-83337500D03*
%TD*%
%TO.C,R1k1*%
X118750000Y-81325000D03*
X118750000Y-79500000D03*
%TD*%
D33*
%TO.C,JP_S1*%
X108400000Y-100500000D03*
X107100000Y-100500000D03*
%TD*%
D24*
%TO.C,TP_ADC1*%
X88000000Y-92250000D03*
%TD*%
%TO.C,TP2B1*%
X98750000Y-75250000D03*
%TD*%
D28*
%TO.C,C_Vint1*%
X110225000Y-65250000D03*
X111775000Y-65250000D03*
%TD*%
D16*
%TO.C,C_Vdd1*%
X98832859Y-82525000D03*
X98832859Y-80975000D03*
%TD*%
M02*
