%TF.GenerationSoftware,KiCad,Pcbnew,(6.0.4-0)*%
%TF.CreationDate,2024-03-24T21:38:25+02:00*%
%TF.ProjectId,Project_PCB_v1,50726f6a-6563-4745-9f50-43425f76312e,rev?*%
%TF.SameCoordinates,Original*%
%TF.FileFunction,Paste,Top*%
%TF.FilePolarity,Positive*%
%FSLAX46Y46*%
G04 Gerber Fmt 4.6, Leading zero omitted, Abs format (unit mm)*
G04 Created by KiCad (PCBNEW (6.0.4-0)) date 2024-03-24 21:38:25*
%MOMM*%
%LPD*%
G01*
G04 APERTURE LIST*
G04 Aperture macros list*
%AMRoundRect*
0 Rectangle with rounded corners*
0 $1 Rounding radius*
0 $2 $3 $4 $5 $6 $7 $8 $9 X,Y pos of 4 corners*
0 Add a 4 corners polygon primitive as box body*
4,1,4,$2,$3,$4,$5,$6,$7,$8,$9,$2,$3,0*
0 Add four circle primitives for the rounded corners*
1,1,$1+$1,$2,$3*
1,1,$1+$1,$4,$5*
1,1,$1+$1,$6,$7*
1,1,$1+$1,$8,$9*
0 Add four rect primitives between the rounded corners*
20,1,$1+$1,$2,$3,$4,$5,0*
20,1,$1+$1,$4,$5,$6,$7,0*
20,1,$1+$1,$6,$7,$8,$9,0*
20,1,$1+$1,$8,$9,$2,$3,0*%
G04 Aperture macros list end*
%ADD10RoundRect,0.243750X0.243750X0.456250X-0.243750X0.456250X-0.243750X-0.456250X0.243750X-0.456250X0*%
%ADD11RoundRect,0.225000X0.250000X-0.225000X0.250000X0.225000X-0.250000X0.225000X-0.250000X-0.225000X0*%
%ADD12RoundRect,0.218750X0.218750X0.256250X-0.218750X0.256250X-0.218750X-0.256250X0.218750X-0.256250X0*%
%ADD13RoundRect,0.250000X0.312500X0.625000X-0.312500X0.625000X-0.312500X-0.625000X0.312500X-0.625000X0*%
%ADD14RoundRect,0.250000X-0.262500X-0.450000X0.262500X-0.450000X0.262500X0.450000X-0.262500X0.450000X0*%
%ADD15RoundRect,0.250000X-0.450000X0.262500X-0.450000X-0.262500X0.450000X-0.262500X0.450000X0.262500X0*%
%ADD16RoundRect,0.250000X0.450000X-0.262500X0.450000X0.262500X-0.450000X0.262500X-0.450000X-0.262500X0*%
%ADD17RoundRect,0.225000X-0.225000X-0.250000X0.225000X-0.250000X0.225000X0.250000X-0.225000X0.250000X0*%
%ADD18RoundRect,0.250000X0.262500X0.450000X-0.262500X0.450000X-0.262500X-0.450000X0.262500X-0.450000X0*%
%ADD19RoundRect,0.150000X0.150000X-0.512500X0.150000X0.512500X-0.150000X0.512500X-0.150000X-0.512500X0*%
%ADD20RoundRect,0.100000X-0.637500X-0.100000X0.637500X-0.100000X0.637500X0.100000X-0.637500X0.100000X0*%
G04 APERTURE END LIST*
D10*
%TO.C,Fault1*%
X111437500Y-75250000D03*
X109562500Y-75250000D03*
%TD*%
D11*
%TO.C,C_Vm1*%
X116500000Y-65775000D03*
X116500000Y-64225000D03*
%TD*%
D12*
%TO.C,D_Stat1*%
X97934641Y-85750000D03*
X96359641Y-85750000D03*
%TD*%
D13*
%TO.C,R_Prog1*%
X104295359Y-79750000D03*
X101370359Y-79750000D03*
%TD*%
D14*
%TO.C,R_Fault1*%
X103587500Y-75250000D03*
X105412500Y-75250000D03*
%TD*%
D15*
%TO.C,R1*%
X88000000Y-80188750D03*
X88000000Y-82013750D03*
%TD*%
D16*
%TO.C,R510*%
X118750000Y-89162500D03*
X118750000Y-87337500D03*
%TD*%
%TO.C,R_Stat1*%
X103147141Y-84662500D03*
X103147141Y-82837500D03*
%TD*%
D17*
%TO.C,C_Vcp1*%
X116725000Y-76000000D03*
X118275000Y-76000000D03*
%TD*%
D16*
%TO.C,R5.1*%
X88000000Y-76750000D03*
X88000000Y-74925000D03*
%TD*%
%TO.C,R2*%
X88000000Y-87351250D03*
X88000000Y-85526250D03*
%TD*%
D18*
%TO.C,R10k1*%
X93662500Y-98250000D03*
X91837500Y-98250000D03*
%TD*%
D19*
%TO.C,Charge1*%
X107334641Y-83887500D03*
X108284641Y-83887500D03*
X109234641Y-83887500D03*
X109234641Y-81612500D03*
X107334641Y-81612500D03*
%TD*%
D16*
%TO.C,R3k1*%
X88000000Y-69662500D03*
X88000000Y-67837500D03*
%TD*%
D20*
%TO.C,MD1*%
X111780000Y-69000000D03*
X111780000Y-69650000D03*
X111780000Y-70300000D03*
X111780000Y-70950000D03*
X111780000Y-71600000D03*
X111780000Y-72250000D03*
X111780000Y-72900000D03*
X111780000Y-73550000D03*
X117505000Y-73550000D03*
X117505000Y-72900000D03*
X117505000Y-72250000D03*
X117505000Y-71600000D03*
X117505000Y-70950000D03*
X117505000Y-70300000D03*
X117505000Y-69650000D03*
X117505000Y-69000000D03*
%TD*%
D11*
%TO.C,C_Batt1*%
X112500000Y-82525000D03*
X112500000Y-80975000D03*
%TD*%
D16*
%TO.C,R100*%
X118750000Y-85162500D03*
X118750000Y-83337500D03*
%TD*%
%TO.C,R1k1*%
X118750000Y-81325000D03*
X118750000Y-79500000D03*
%TD*%
D17*
%TO.C,C_Vint1*%
X110225000Y-65250000D03*
X111775000Y-65250000D03*
%TD*%
D11*
%TO.C,C_Vdd1*%
X98832859Y-82525000D03*
X98832859Y-80975000D03*
%TD*%
M02*
