M48
; DRILL file {KiCad (6.0.4-0)} date Sunday, 24 March 2024 at 21:38:25
; FORMAT={-:-/ absolute / inch / decimal}
; #@! TF.CreationDate,2024-03-24T21:38:25+02:00
; #@! TF.GenerationSoftware,Kicad,Pcbnew,(6.0.4-0)
; #@! TF.FileFunction,Plated,1,2,PTH
FMAT,2
INCH
; #@! TA.AperFunction,Plated,PTH,ViaDrill
T1C0.0157
; #@! TA.AperFunction,Plated,PTH,ComponentDrill
T2C0.0295
; #@! TA.AperFunction,Plated,PTH,ComponentDrill
T3C0.0394
; #@! TA.AperFunction,Plated,PTH,ComponentDrill
T4C0.0709
%
G90
G05
T1
X3.4646Y-3.5114
X3.7781Y-3.2087
X4.1535Y-3.3169
X4.2323Y-3.0118
X4.2421Y-2.5689
X4.2703Y-2.8543
X4.311Y-4.0256
X4.4193Y-3.1398
X4.5472Y-2.8248
X4.6555Y-2.5197
X4.6654Y-3.0413
T2
X4.4882Y-3.876
X4.5669Y-3.876
T3
X3.5811Y-2.9232
X3.5811Y-3.0232
X3.5811Y-3.1232
X3.5811Y-3.2232
X3.5811Y-3.3232
X3.5811Y-3.4232
X3.5811Y-3.5232
X3.5811Y-3.6232
X3.6811Y-2.9232
X3.6811Y-3.0232
X3.6811Y-3.1232
X3.6811Y-3.2232
X3.6811Y-3.3232
X3.6811Y-3.4232
X3.6811Y-3.5232
X3.6811Y-3.6232
T4
X3.9094Y-3.7402
X4.0945Y-3.7402
X4.2795Y-3.7402
T0
M30
