%TF.GenerationSoftware,KiCad,Pcbnew,(6.0.4-0)*%
%TF.CreationDate,2024-03-24T21:38:25+02:00*%
%TF.ProjectId,Project_PCB_v1,50726f6a-6563-4745-9f50-43425f76312e,rev?*%
%TF.SameCoordinates,Original*%
%TF.FileFunction,Copper,L1,Top*%
%TF.FilePolarity,Positive*%
%FSLAX46Y46*%
G04 Gerber Fmt 4.6, Leading zero omitted, Abs format (unit mm)*
G04 Created by KiCad (PCBNEW (6.0.4-0)) date 2024-03-24 21:38:25*
%MOMM*%
%LPD*%
G01*
G04 APERTURE LIST*
G04 Aperture macros list*
%AMRoundRect*
0 Rectangle with rounded corners*
0 $1 Rounding radius*
0 $2 $3 $4 $5 $6 $7 $8 $9 X,Y pos of 4 corners*
0 Add a 4 corners polygon primitive as box body*
4,1,4,$2,$3,$4,$5,$6,$7,$8,$9,$2,$3,0*
0 Add four circle primitives for the rounded corners*
1,1,$1+$1,$2,$3*
1,1,$1+$1,$4,$5*
1,1,$1+$1,$6,$7*
1,1,$1+$1,$8,$9*
0 Add four rect primitives between the rounded corners*
20,1,$1+$1,$2,$3,$4,$5,0*
20,1,$1+$1,$4,$5,$6,$7,0*
20,1,$1+$1,$6,$7,$8,$9,0*
20,1,$1+$1,$8,$9,$2,$3,0*%
G04 Aperture macros list end*
%TA.AperFunction,SMDPad,CuDef*%
%ADD10RoundRect,0.243750X0.243750X0.456250X-0.243750X0.456250X-0.243750X-0.456250X0.243750X-0.456250X0*%
%TD*%
%TA.AperFunction,SMDPad,CuDef*%
%ADD11RoundRect,0.225000X0.250000X-0.225000X0.250000X0.225000X-0.250000X0.225000X-0.250000X-0.225000X0*%
%TD*%
%TA.AperFunction,SMDPad,CuDef*%
%ADD12RoundRect,0.218750X0.218750X0.256250X-0.218750X0.256250X-0.218750X-0.256250X0.218750X-0.256250X0*%
%TD*%
%TA.AperFunction,SMDPad,CuDef*%
%ADD13RoundRect,0.250000X0.312500X0.625000X-0.312500X0.625000X-0.312500X-0.625000X0.312500X-0.625000X0*%
%TD*%
%TA.AperFunction,SMDPad,CuDef*%
%ADD14RoundRect,0.250000X-0.262500X-0.450000X0.262500X-0.450000X0.262500X0.450000X-0.262500X0.450000X0*%
%TD*%
%TA.AperFunction,ComponentPad*%
%ADD15R,1.700000X1.700000*%
%TD*%
%TA.AperFunction,ComponentPad*%
%ADD16O,1.700000X1.700000*%
%TD*%
%TA.AperFunction,ComponentPad*%
%ADD17RoundRect,0.250000X-0.350000X-0.625000X0.350000X-0.625000X0.350000X0.625000X-0.350000X0.625000X0*%
%TD*%
%TA.AperFunction,ComponentPad*%
%ADD18O,1.200000X1.750000*%
%TD*%
%TA.AperFunction,SMDPad,CuDef*%
%ADD19C,1.000000*%
%TD*%
%TA.AperFunction,SMDPad,CuDef*%
%ADD20RoundRect,0.250000X-0.450000X0.262500X-0.450000X-0.262500X0.450000X-0.262500X0.450000X0.262500X0*%
%TD*%
%TA.AperFunction,SMDPad,CuDef*%
%ADD21RoundRect,0.250000X0.450000X-0.262500X0.450000X0.262500X-0.450000X0.262500X-0.450000X-0.262500X0*%
%TD*%
%TA.AperFunction,ComponentPad*%
%ADD22C,2.500000*%
%TD*%
%TA.AperFunction,SMDPad,CuDef*%
%ADD23RoundRect,0.225000X-0.225000X-0.250000X0.225000X-0.250000X0.225000X0.250000X-0.225000X0.250000X0*%
%TD*%
%TA.AperFunction,SMDPad,CuDef*%
%ADD24R,1.500000X1.000000*%
%TD*%
%TA.AperFunction,SMDPad,CuDef*%
%ADD25RoundRect,0.250000X0.262500X0.450000X-0.262500X0.450000X-0.262500X-0.450000X0.262500X-0.450000X0*%
%TD*%
%TA.AperFunction,SMDPad,CuDef*%
%ADD26RoundRect,0.150000X0.150000X-0.512500X0.150000X0.512500X-0.150000X0.512500X-0.150000X-0.512500X0*%
%TD*%
%TA.AperFunction,SMDPad,CuDef*%
%ADD27RoundRect,0.100000X-0.637500X-0.100000X0.637500X-0.100000X0.637500X0.100000X-0.637500X0.100000X0*%
%TD*%
%TA.AperFunction,SMDPad,CuDef*%
%ADD28R,1.000000X1.500000*%
%TD*%
%TA.AperFunction,ViaPad*%
%ADD29C,0.800000*%
%TD*%
%TA.AperFunction,Conductor*%
%ADD30C,0.300000*%
%TD*%
%TA.AperFunction,Conductor*%
%ADD31C,0.250000*%
%TD*%
G04 APERTURE END LIST*
D10*
%TO.P,Fault1,1,K*%
%TO.N,GND*%
X111437500Y-75250000D03*
%TO.P,Fault1,2,A*%
%TO.N,Net-(Fault1-Pad2)*%
X109562500Y-75250000D03*
%TD*%
D11*
%TO.P,C_Vm1,1*%
%TO.N,VM*%
X116500000Y-65775000D03*
%TO.P,C_Vm1,2*%
%TO.N,GND*%
X116500000Y-64225000D03*
%TD*%
D12*
%TO.P,D_Stat1,1,K*%
%TO.N,Net-(D_Stat1-Pad1)*%
X97934641Y-85750000D03*
%TO.P,D_Stat1,2,A*%
%TO.N,5V_1*%
X96359641Y-85750000D03*
%TD*%
D13*
%TO.P,R_Prog1,1*%
%TO.N,Net-(Charge1-Pad5)*%
X104295359Y-79750000D03*
%TO.P,R_Prog1,2*%
%TO.N,GND*%
X101370359Y-79750000D03*
%TD*%
D14*
%TO.P,R_Fault1,1*%
%TO.N,Net-(MD1-Pad8)*%
X103587500Y-75250000D03*
%TO.P,R_Fault1,2*%
%TO.N,Net-(Fault1-Pad2)*%
X105412500Y-75250000D03*
%TD*%
D15*
%TO.P,PinCon1,1,Pin_1*%
%TO.N,Motor2_A*%
X93500000Y-74250000D03*
D16*
%TO.P,PinCon1,2,Pin_2*%
%TO.N,PC6-9 PWM1*%
X90960000Y-74250000D03*
%TO.P,PinCon1,3,Pin_3*%
%TO.N,Motor2_B*%
X93500000Y-76790000D03*
%TO.P,PinCon1,4,Pin_4*%
%TO.N,PC6-9 PWM2*%
X90960000Y-76790000D03*
%TO.P,PinCon1,5,Pin_5*%
%TO.N,GND*%
X93500000Y-79330000D03*
%TO.P,PinCon1,6,Pin_6*%
X90960000Y-79330000D03*
%TO.P,PinCon1,7,Pin_7*%
%TO.N,BATT_1*%
X93500000Y-81870000D03*
%TO.P,PinCon1,8,Pin_8*%
X90960000Y-81870000D03*
%TO.P,PinCon1,9,Pin_9*%
%TO.N,Reserve*%
X93500000Y-84410000D03*
%TO.P,PinCon1,10,Pin_10*%
%TO.N,BATT_ADC*%
X90960000Y-84410000D03*
%TO.P,PinCon1,11,Pin_11*%
%TO.N,5V_1*%
X93500000Y-86950000D03*
%TO.P,PinCon1,12,Pin_12*%
X90960000Y-86950000D03*
%TO.P,PinCon1,13,Pin_13*%
%TO.N,Motor1_A*%
X93500000Y-89490000D03*
%TO.P,PinCon1,14,Pin_14*%
%TO.N,PC6-9 PWM3*%
X90960000Y-89490000D03*
%TO.P,PinCon1,15,Pin_15*%
%TO.N,Motor1_B*%
X93500000Y-92030000D03*
%TO.P,PinCon1,16,Pin_16*%
%TO.N,PC6-9 PWM4*%
X90960000Y-92030000D03*
%TD*%
D17*
%TO.P,J2,1,Pin_1*%
%TO.N,Net-(J2-Pad1)*%
X114000000Y-98450000D03*
D18*
%TO.P,J2,2,Pin_2*%
%TO.N,GND*%
X116000000Y-98450000D03*
%TD*%
D19*
%TO.P,TP_En1,1,1*%
%TO.N,Reserve*%
X109000000Y-69750000D03*
%TD*%
%TO.P,TPM1A1,1,1*%
%TO.N,Motor1_A*%
X108500000Y-66500000D03*
%TD*%
%TO.P,TPM2A1,1,1*%
%TO.N,Motor2_A*%
X98750000Y-72000000D03*
%TD*%
D20*
%TO.P,R1,1*%
%TO.N,BATT_1*%
X88000000Y-80188750D03*
%TO.P,R1,2*%
%TO.N,BATT_ADC*%
X88000000Y-82013750D03*
%TD*%
D21*
%TO.P,R510,1*%
%TO.N,unconnected-(R510-Pad1)*%
X118750000Y-89162500D03*
%TO.P,R510,2*%
%TO.N,unconnected-(R510-Pad2)*%
X118750000Y-87337500D03*
%TD*%
%TO.P,R_Stat1,1*%
%TO.N,Net-(D_Stat1-Pad1)*%
X103147141Y-84662500D03*
%TO.P,R_Stat1,2*%
%TO.N,Net-(Charge1-Pad1)*%
X103147141Y-82837500D03*
%TD*%
D19*
%TO.P,TP_Charge1,1,1*%
%TO.N,BATT_1*%
X112147141Y-85082500D03*
%TD*%
D22*
%TO.P,S1,1,1*%
%TO.N,Net-(JP_S1_Bat1-Pad2)*%
X108700025Y-95000000D03*
%TO.P,S1,2,2*%
%TO.N,Net-(JP_S1-Pad2)*%
X104000000Y-95000000D03*
%TO.P,S1,3,3*%
%TO.N,unconnected-(S1-Pad3)*%
X99299975Y-95000000D03*
%TD*%
D23*
%TO.P,C_Vcp1,1*%
%TO.N,GND*%
X116725000Y-76000000D03*
%TO.P,C_Vcp1,2*%
%TO.N,Net-(C_Vcp1-Pad2)*%
X118275000Y-76000000D03*
%TD*%
D24*
%TO.P,JP_BATT1,1,A*%
%TO.N,Net-(J2-Pad1)*%
X116250000Y-93750000D03*
%TO.P,JP_BATT1,2,B*%
%TO.N,BATT_1*%
X116250000Y-92450000D03*
%TD*%
%TO.P,JP_S1_Bat1,1,A*%
%TO.N,BATT_1*%
X112750000Y-92250000D03*
%TO.P,JP_S1_Bat1,2,B*%
%TO.N,Net-(JP_S1_Bat1-Pad2)*%
X112750000Y-93550000D03*
%TD*%
D21*
%TO.P,R5.1,1*%
%TO.N,unconnected-(R5.1k1-Pad1)*%
X88000000Y-76750000D03*
%TO.P,R5.1,2*%
%TO.N,unconnected-(R5.1k1-Pad2)*%
X88000000Y-74925000D03*
%TD*%
%TO.P,R2,1*%
%TO.N,GND*%
X88000000Y-87351250D03*
%TO.P,R2,2*%
%TO.N,BATT_ADC*%
X88000000Y-85526250D03*
%TD*%
D25*
%TO.P,R10k1,1*%
%TO.N,unconnected-(R10k1-Pad1)*%
X93662500Y-98250000D03*
%TO.P,R10k1,2*%
%TO.N,unconnected-(R10k1-Pad2)*%
X91837500Y-98250000D03*
%TD*%
D19*
%TO.P,TP1B1,1,1*%
%TO.N,Motor1_B*%
X111500000Y-77500000D03*
%TD*%
D26*
%TO.P,Charge1,1,STAT*%
%TO.N,Net-(Charge1-Pad1)*%
X107334641Y-83887500D03*
%TO.P,Charge1,2,VSS*%
%TO.N,GND*%
X108284641Y-83887500D03*
%TO.P,Charge1,3,VBAT*%
%TO.N,BATT_1*%
X109234641Y-83887500D03*
%TO.P,Charge1,4,VDD*%
%TO.N,5V_1*%
X109234641Y-81612500D03*
%TO.P,Charge1,5,PROG*%
%TO.N,Net-(Charge1-Pad5)*%
X107334641Y-81612500D03*
%TD*%
D21*
%TO.P,R3k1,1*%
%TO.N,unconnected-(R3k1-Pad1)*%
X88000000Y-69662500D03*
%TO.P,R3k1,2*%
%TO.N,unconnected-(R3k1-Pad2)*%
X88000000Y-67837500D03*
%TD*%
D27*
%TO.P,MD1,1,nSLEEP*%
%TO.N,Reserve*%
X111780000Y-69000000D03*
%TO.P,MD1,2,AOUT1*%
%TO.N,Motor1_A*%
X111780000Y-69650000D03*
%TO.P,MD1,3,AISEN*%
%TO.N,GND*%
X111780000Y-70300000D03*
%TO.P,MD1,4,AOUT2*%
%TO.N,Motor2_A*%
X111780000Y-70950000D03*
%TO.P,MD1,5,BOUT2*%
%TO.N,Motor2_B*%
X111780000Y-71600000D03*
%TO.P,MD1,6,BISEN*%
%TO.N,GND*%
X111780000Y-72250000D03*
%TO.P,MD1,7,BOUT1*%
%TO.N,Motor1_B*%
X111780000Y-72900000D03*
%TO.P,MD1,8,nFAULT*%
%TO.N,Net-(MD1-Pad8)*%
X111780000Y-73550000D03*
%TO.P,MD1,9,BIN1*%
%TO.N,PC6-9 PWM3*%
X117505000Y-73550000D03*
%TO.P,MD1,10,BIN2*%
%TO.N,PC6-9 PWM4*%
X117505000Y-72900000D03*
%TO.P,MD1,11,VCP*%
%TO.N,Net-(C_Vcp1-Pad2)*%
X117505000Y-72250000D03*
%TO.P,MD1,12,VM*%
%TO.N,VM*%
X117505000Y-71600000D03*
%TO.P,MD1,13,GND*%
%TO.N,GND*%
X117505000Y-70950000D03*
%TO.P,MD1,14,VINT*%
%TO.N,Net-(C_Vint1-Pad2)*%
X117505000Y-70300000D03*
%TO.P,MD1,15,AIN2*%
%TO.N,PC6-9 PWM2*%
X117505000Y-69650000D03*
%TO.P,MD1,16,AIN1*%
%TO.N,PC6-9 PWM1*%
X117505000Y-69000000D03*
%TD*%
D11*
%TO.P,C_Batt1,1*%
%TO.N,BATT_1*%
X112500000Y-82525000D03*
%TO.P,C_Batt1,2*%
%TO.N,GND*%
X112500000Y-80975000D03*
%TD*%
D21*
%TO.P,R100,1*%
%TO.N,unconnected-(R100-Pad1)*%
X118750000Y-85162500D03*
%TO.P,R100,2*%
%TO.N,unconnected-(R100-Pad2)*%
X118750000Y-83337500D03*
%TD*%
%TO.P,R1k1,1*%
%TO.N,unconnected-(R1k1-Pad1)*%
X118750000Y-81325000D03*
%TO.P,R1k1,2*%
%TO.N,unconnected-(R1k1-Pad2)*%
X118750000Y-79500000D03*
%TD*%
D28*
%TO.P,JP_S1,1,A*%
%TO.N,Net-(J2-Pad1)*%
X108400000Y-100500000D03*
%TO.P,JP_S1,2,B*%
%TO.N,Net-(JP_S1-Pad2)*%
X107100000Y-100500000D03*
%TD*%
D19*
%TO.P,TP_ADC1,1,1*%
%TO.N,BATT_ADC*%
X88000000Y-92250000D03*
%TD*%
%TO.P,TP2B1,1,1*%
%TO.N,Motor2_B*%
X98750000Y-75250000D03*
%TD*%
D23*
%TO.P,C_Vint1,1*%
%TO.N,GND*%
X110225000Y-65250000D03*
%TO.P,C_Vint1,2*%
%TO.N,Net-(C_Vint1-Pad2)*%
X111775000Y-65250000D03*
%TD*%
D11*
%TO.P,C_Vdd1,1*%
%TO.N,5V_1*%
X98832859Y-82525000D03*
%TO.P,C_Vdd1,2*%
%TO.N,GND*%
X98832859Y-80975000D03*
%TD*%
D29*
%TO.N,GND*%
X107500000Y-76500000D03*
X118250000Y-64000000D03*
X108465000Y-72500000D03*
X112250000Y-79750000D03*
X88000000Y-89188750D03*
X95965000Y-81500000D03*
X115500000Y-71750000D03*
X109500000Y-102250000D03*
X105500000Y-84250000D03*
X118500000Y-77250000D03*
X107750000Y-65250000D03*
%TD*%
D30*
%TO.N,BATT_1*%
X90965000Y-81995000D02*
X90965000Y-82710000D01*
X89278750Y-80188750D02*
X90960000Y-81870000D01*
X110775000Y-82525000D02*
X110172621Y-81922621D01*
X88000000Y-80188750D02*
X89278750Y-80188750D01*
X86750000Y-93500000D02*
X89750000Y-96500000D01*
X110172621Y-78250000D02*
X96955027Y-78250000D01*
X92250000Y-84995000D02*
X93005000Y-85750000D01*
X96000000Y-96500000D02*
X96500000Y-97000000D01*
X112147141Y-85082500D02*
X112147141Y-82877859D01*
X112750000Y-92250000D02*
X116050000Y-92250000D01*
X95505000Y-83995000D02*
X93505000Y-81995000D01*
X93505000Y-81700027D02*
X93505000Y-81995000D01*
X96500000Y-97000000D02*
X101500000Y-97000000D01*
X89750000Y-96500000D02*
X96000000Y-96500000D01*
X86750000Y-93500000D02*
X86750000Y-81438750D01*
X95005000Y-85750000D02*
X95505000Y-85250000D01*
X101500000Y-93000000D02*
X102250000Y-92250000D01*
X116050000Y-92250000D02*
X116250000Y-92450000D01*
X92250000Y-83995000D02*
X92250000Y-84995000D01*
X110172621Y-81922621D02*
X110172621Y-78250000D01*
X112147141Y-82877859D02*
X112500000Y-82525000D01*
X95505000Y-85250000D02*
X95505000Y-83995000D01*
X109234641Y-83887500D02*
X110429641Y-85082500D01*
X101500000Y-97000000D02*
X101500000Y-93000000D01*
X96955027Y-78250000D02*
X93505000Y-81700027D01*
X110429641Y-85082500D02*
X112147141Y-85082500D01*
X112750000Y-92250000D02*
X102250000Y-92250000D01*
X90965000Y-82710000D02*
X92250000Y-83995000D01*
X112500000Y-82525000D02*
X110775000Y-82525000D01*
X86750000Y-81438750D02*
X88000000Y-80188750D01*
X93005000Y-85750000D02*
X95005000Y-85750000D01*
%TO.N,GND*%
X108715000Y-72250000D02*
X111780000Y-72250000D01*
X112810000Y-70300000D02*
X113505000Y-70995000D01*
X113505000Y-71463821D02*
X112718821Y-72250000D01*
X112718821Y-72250000D02*
X111780000Y-72250000D01*
X88000000Y-89188750D02*
X88000000Y-87351250D01*
X88000000Y-87351250D02*
X88070000Y-87351250D01*
X115500000Y-71750000D02*
X116300000Y-70950000D01*
X111780000Y-70300000D02*
X112810000Y-70300000D01*
X108465000Y-72500000D02*
X108715000Y-72250000D01*
X113505000Y-70995000D02*
X113505000Y-71463821D01*
X116300000Y-70950000D02*
X117505000Y-70950000D01*
%TO.N,Net-(C_Vcp1-Pad2)*%
X119500000Y-74775000D02*
X119500000Y-72750000D01*
X119500000Y-72750000D02*
X118950000Y-72200000D01*
X117555000Y-72200000D02*
X117505000Y-72250000D01*
X118950000Y-72200000D02*
X117555000Y-72200000D01*
X118275000Y-76000000D02*
X119500000Y-74775000D01*
%TO.N,5V_1*%
X93505000Y-87075000D02*
X95034641Y-87075000D01*
X107971661Y-82875480D02*
X107927734Y-82875480D01*
X95034641Y-87075000D02*
X96359641Y-85750000D01*
X107927734Y-82875480D02*
X107809641Y-82993573D01*
X96359641Y-85750000D02*
X98359641Y-83750000D01*
X100832859Y-82750000D02*
X99057859Y-82750000D01*
X107809641Y-82993573D02*
X107691548Y-82875480D01*
X106968036Y-82885177D02*
X105832859Y-81750000D01*
X90965000Y-87075000D02*
X93505000Y-87075000D01*
X99057859Y-82750000D02*
X98832859Y-82525000D01*
X109234641Y-81612500D02*
X107971661Y-82875480D01*
X98359641Y-83750000D02*
X98832859Y-83750000D01*
X101832859Y-81750000D02*
X100832859Y-82750000D01*
X107691548Y-82875480D02*
X106977734Y-82875480D01*
X105832859Y-81750000D02*
X101832859Y-81750000D01*
X98832859Y-83750000D02*
X98832859Y-82525000D01*
X106977734Y-82875480D02*
X106968036Y-82885177D01*
%TO.N,Net-(C_Vint1-Pad2)*%
X115810000Y-70300000D02*
X115505000Y-69995000D01*
X117505000Y-70300000D02*
X115810000Y-70300000D01*
X115505000Y-68980000D02*
X115505000Y-69995000D01*
X111775000Y-65250000D02*
X115505000Y-68980000D01*
%TO.N,VM*%
X116500000Y-66275000D02*
X117975000Y-67750000D01*
X118750000Y-67750000D02*
X117975000Y-67750000D01*
X119250000Y-68250000D02*
X118750000Y-67750000D01*
X118900000Y-71600000D02*
X119250000Y-71250000D01*
X116500000Y-65775000D02*
X116500000Y-66275000D01*
X117505000Y-71600000D02*
X118900000Y-71600000D01*
X119250000Y-71250000D02*
X119250000Y-68250000D01*
%TO.N,Net-(D_Stat1-Pad1)*%
X103147141Y-84662500D02*
X102059641Y-85750000D01*
X102059641Y-85750000D02*
X97934641Y-85750000D01*
%TO.N,Net-(Fault1-Pad2)*%
X105412500Y-75250000D02*
X109562500Y-75250000D01*
%TO.N,Net-(JP_S1_Bat1-Pad2)*%
X108700025Y-95000000D02*
X111300000Y-95000000D01*
X111300000Y-95000000D02*
X112750000Y-93550000D01*
%TO.N,Net-(J2-Pad1)*%
X108400000Y-100500000D02*
X111200000Y-100500000D01*
X116250000Y-95450000D02*
X114000000Y-97700000D01*
X111200000Y-100500000D02*
X113250000Y-98450000D01*
X114000000Y-97700000D02*
X114000000Y-98450000D01*
X116250000Y-95450000D02*
X116250000Y-93750000D01*
X113250000Y-98450000D02*
X114000000Y-98450000D01*
%TO.N,Motor2_A*%
X106967500Y-70950000D02*
X111780000Y-70950000D01*
X93505000Y-70750000D02*
X98750000Y-70750000D01*
X98750000Y-70750000D02*
X106767500Y-70750000D01*
X106767500Y-70750000D02*
X106967500Y-70950000D01*
D31*
X98750000Y-72000000D02*
X98750000Y-70750000D01*
D30*
X93505000Y-74375000D02*
X93505000Y-70750000D01*
%TO.N,PC6-9 PWM1*%
X113250000Y-64250000D02*
X113250000Y-66000000D01*
X106505000Y-67495000D02*
X106505000Y-64250000D01*
X90965000Y-74375000D02*
X90965000Y-68790000D01*
X116250000Y-69000000D02*
X117505000Y-69000000D01*
X90965000Y-68790000D02*
X91005000Y-68750000D01*
X113250000Y-66000000D02*
X116250000Y-69000000D01*
X91005000Y-68750000D02*
X105250000Y-68750000D01*
X106505000Y-64250000D02*
X113250000Y-64250000D01*
X105250000Y-68750000D02*
X106505000Y-67495000D01*
%TO.N,Motor2_B*%
X102500000Y-73750000D02*
X104650000Y-71600000D01*
X104650000Y-71600000D02*
X111780000Y-71600000D01*
X95180000Y-73750000D02*
X98750000Y-73750000D01*
X93505000Y-76915000D02*
X95180000Y-75240000D01*
X98750000Y-73750000D02*
X102500000Y-73750000D01*
D31*
X98750000Y-75250000D02*
X98750000Y-73750000D01*
D30*
X95180000Y-75240000D02*
X95180000Y-73750000D01*
%TO.N,PC6-9 PWM2*%
X116950480Y-68450480D02*
X114000000Y-65500000D01*
X114000000Y-63250000D02*
X105505000Y-63250000D01*
X118592020Y-68713803D02*
X118328697Y-68450480D01*
X118328697Y-68450480D02*
X116950480Y-68450480D01*
X117505000Y-69650000D02*
X118228217Y-69650000D01*
X114000000Y-65500000D02*
X114000000Y-63250000D01*
X118592020Y-69286197D02*
X118592020Y-68713803D01*
X89505000Y-75455000D02*
X90965000Y-76915000D01*
X89505000Y-67250000D02*
X89505000Y-75455000D01*
X105505000Y-67250000D02*
X89505000Y-67250000D01*
X105505000Y-63250000D02*
X105505000Y-67250000D01*
X118228217Y-69650000D02*
X118592020Y-69286197D01*
%TO.N,Reserve*%
X111030000Y-68250000D02*
X111780000Y-69000000D01*
X93298093Y-69750480D02*
X105749520Y-69750480D01*
X106800480Y-68699520D02*
X107250000Y-68250000D01*
X107250000Y-68250000D02*
X111030000Y-68250000D01*
X92250000Y-83280000D02*
X92250000Y-70798573D01*
X93505000Y-84535000D02*
X92250000Y-83280000D01*
X109005000Y-69995000D02*
X108095960Y-69995000D01*
X108095960Y-69995000D02*
X106800480Y-68699520D01*
X105749520Y-69750480D02*
X106800480Y-68699520D01*
X92250000Y-70798573D02*
X93298093Y-69750480D01*
%TO.N,BATT_ADC*%
X88000000Y-90750000D02*
X88000000Y-92250000D01*
X89500000Y-86000000D02*
X89500000Y-89250000D01*
X90965000Y-84535000D02*
X89500000Y-86000000D01*
X89500000Y-89250000D02*
X88000000Y-90750000D01*
D31*
X88000000Y-82013750D02*
X88000000Y-85526250D01*
X89026250Y-85526250D02*
X89500000Y-86000000D01*
X88000000Y-85526250D02*
X89026250Y-85526250D01*
D30*
%TO.N,Motor1_A*%
X112250000Y-67000000D02*
X109000000Y-67000000D01*
X98385000Y-89615000D02*
X100500000Y-87500000D01*
X93505000Y-89615000D02*
X98385000Y-89615000D01*
X114250000Y-74000000D02*
X114250000Y-70747500D01*
X109000000Y-67000000D02*
X108500000Y-66500000D01*
X113152500Y-69650000D02*
X111780000Y-69650000D01*
X113152500Y-69650000D02*
X113152500Y-67902500D01*
X115000000Y-78250000D02*
X114000000Y-77250000D01*
X115000000Y-87500000D02*
X115000000Y-78250000D01*
X100500000Y-87500000D02*
X115000000Y-87500000D01*
X114250000Y-70747500D02*
X113152500Y-69650000D01*
X114000000Y-74250000D02*
X114250000Y-74000000D01*
X113152500Y-67902500D02*
X112250000Y-67000000D01*
X114000000Y-77250000D02*
X114000000Y-74250000D01*
%TO.N,PC6-9 PWM3*%
X95750000Y-94169511D02*
X95750000Y-91344375D01*
X90965000Y-89615000D02*
X92330489Y-90980489D01*
X114750000Y-74585480D02*
X115785480Y-73550000D01*
X115785480Y-73550000D02*
X117505000Y-73550000D01*
X92330489Y-90980489D02*
X92330489Y-91633145D01*
X102250000Y-89250000D02*
X115000000Y-89250000D01*
X115000000Y-89250000D02*
X116250000Y-88000000D01*
X95750000Y-91344375D02*
X96599375Y-90495000D01*
X92330489Y-94169511D02*
X95750000Y-94169511D01*
X114750000Y-76750000D02*
X114750000Y-74585480D01*
X92250000Y-91713634D02*
X92250000Y-94089022D01*
X101005000Y-90495000D02*
X102250000Y-89250000D01*
X96599375Y-90495000D02*
X101005000Y-90495000D01*
X92330489Y-91633145D02*
X92250000Y-91713634D01*
X92250000Y-94089022D02*
X92330489Y-94169511D01*
X116250000Y-78250000D02*
X114750000Y-76750000D01*
X116250000Y-88000000D02*
X116250000Y-78250000D01*
%TO.N,Motor1_B*%
X113000000Y-78132500D02*
X113000000Y-77250000D01*
X92250000Y-90193572D02*
X92250000Y-88250000D01*
X113465000Y-73250000D02*
X113115000Y-72900000D01*
X113115000Y-72900000D02*
X111780000Y-72900000D01*
X114000000Y-78500000D02*
X113632500Y-78132500D01*
X93505000Y-91276010D02*
X93043501Y-90814511D01*
X113632500Y-78132500D02*
X113000000Y-78132500D01*
D31*
X111500000Y-77500000D02*
X112750000Y-77500000D01*
D30*
X92870939Y-90814511D02*
X92250000Y-90193572D01*
X113072500Y-74285000D02*
X113465000Y-73892500D01*
X113465000Y-73892500D02*
X113465000Y-73250000D01*
X97250000Y-88250000D02*
X97257859Y-88257859D01*
X93043501Y-90814511D02*
X92870939Y-90814511D01*
D31*
X112750000Y-77500000D02*
X113000000Y-77250000D01*
D30*
X97257859Y-88257859D02*
X99015718Y-86500000D01*
X114000000Y-86500000D02*
X114000000Y-78500000D01*
X113000000Y-77250000D02*
X113000000Y-74285000D01*
X99015718Y-86500000D02*
X114000000Y-86500000D01*
X92250000Y-88250000D02*
X97250000Y-88250000D01*
X93505000Y-92155000D02*
X93505000Y-91276010D01*
X113000000Y-74285000D02*
X113072500Y-74285000D01*
%TO.N,PC6-9 PWM4*%
X117250000Y-88500000D02*
X117250000Y-78035000D01*
X90965000Y-92155000D02*
X90500000Y-92620000D01*
X117250000Y-78035000D02*
X115715000Y-76500000D01*
X115715000Y-76500000D02*
X115715000Y-74750000D01*
X119000000Y-74000000D02*
X119000000Y-73671783D01*
X115715000Y-74750000D02*
X115965000Y-74500000D01*
X103005000Y-89995000D02*
X115755000Y-89995000D01*
X97250000Y-91250000D02*
X101750000Y-91250000D01*
X97250000Y-94995000D02*
X97250000Y-91250000D01*
X115965000Y-74500000D02*
X118500000Y-74500000D01*
X119000000Y-73671783D02*
X118228217Y-72900000D01*
X90500000Y-94995000D02*
X97250000Y-94995000D01*
X90500000Y-92620000D02*
X90500000Y-94995000D01*
X101750000Y-91250000D02*
X103005000Y-89995000D01*
X115755000Y-89995000D02*
X117250000Y-88500000D01*
X118228217Y-72900000D02*
X117505000Y-72900000D01*
X118500000Y-74500000D02*
X119000000Y-74000000D01*
%TO.N,Net-(MD1-Pad8)*%
X103587500Y-74162500D02*
X104200000Y-73550000D01*
X103587500Y-75250000D02*
X103587500Y-74162500D01*
X104200000Y-73550000D02*
X111780000Y-73550000D01*
%TO.N,Net-(Charge1-Pad1)*%
X105587500Y-82837500D02*
X106637500Y-83887500D01*
X106637500Y-83887500D02*
X107334641Y-83887500D01*
X103147141Y-82837500D02*
X105587500Y-82837500D01*
%TO.N,Net-(Charge1-Pad5)*%
X105472141Y-79750000D02*
X107334641Y-81612500D01*
X104295359Y-79750000D02*
X105472141Y-79750000D01*
%TO.N,Net-(JP_S1-Pad2)*%
X104000000Y-95000000D02*
X104000000Y-97400000D01*
X104000000Y-97400000D02*
X107100000Y-100500000D01*
%TD*%
%TA.AperFunction,Conductor*%
%TO.N,GND*%
G36*
X117467532Y-89306580D02*
G01*
X117524368Y-89349127D01*
X117549179Y-89415647D01*
X117549500Y-89424636D01*
X117549500Y-89474866D01*
X117560359Y-89579519D01*
X117615744Y-89745529D01*
X117707834Y-89894345D01*
X117831689Y-90017984D01*
X117980666Y-90109814D01*
X117987614Y-90112119D01*
X117987615Y-90112119D01*
X118140241Y-90162744D01*
X118140243Y-90162745D01*
X118146772Y-90164910D01*
X118250134Y-90175500D01*
X119249866Y-90175500D01*
X119253112Y-90175163D01*
X119253116Y-90175163D01*
X119354519Y-90164641D01*
X119354669Y-90166084D01*
X119417706Y-90170686D01*
X119474479Y-90213317D01*
X119499192Y-90279873D01*
X119499500Y-90288677D01*
X119499500Y-102873500D01*
X119479498Y-102941621D01*
X119425842Y-102988114D01*
X119373500Y-102999500D01*
X104626500Y-102999500D01*
X104558379Y-102979498D01*
X104511886Y-102925842D01*
X104500500Y-102873500D01*
X104500500Y-99508574D01*
X104500502Y-99507804D01*
X104500914Y-99440350D01*
X104500969Y-99431376D01*
X104493007Y-99403518D01*
X104489429Y-99386757D01*
X104486596Y-99366971D01*
X104486596Y-99366970D01*
X104485323Y-99358082D01*
X104474925Y-99335212D01*
X104468477Y-99317688D01*
X104464038Y-99302155D01*
X104464036Y-99302151D01*
X104461572Y-99293529D01*
X104446111Y-99269024D01*
X104437974Y-99253942D01*
X104429702Y-99235748D01*
X104429700Y-99235745D01*
X104425984Y-99227572D01*
X104409581Y-99208536D01*
X104398473Y-99193523D01*
X104385070Y-99172280D01*
X104378341Y-99166337D01*
X104378339Y-99166335D01*
X104363356Y-99153103D01*
X104351310Y-99140909D01*
X104338260Y-99125764D01*
X104332400Y-99118963D01*
X104311314Y-99105296D01*
X104296444Y-99094009D01*
X104284338Y-99083317D01*
X104284337Y-99083317D01*
X104277612Y-99077377D01*
X104251391Y-99065066D01*
X104236413Y-99056746D01*
X104219631Y-99045869D01*
X104219628Y-99045868D01*
X104212095Y-99040985D01*
X104188019Y-99033785D01*
X104170589Y-99027129D01*
X104147837Y-99016447D01*
X104119213Y-99011990D01*
X104102495Y-99008207D01*
X104083340Y-99002478D01*
X104083332Y-99002477D01*
X104074739Y-98999907D01*
X104065768Y-98999852D01*
X104065767Y-98999852D01*
X104061038Y-98999823D01*
X104040818Y-98999699D01*
X104040075Y-98999668D01*
X104038991Y-98999500D01*
X104008574Y-98999500D01*
X104007804Y-98999498D01*
X104007191Y-98999494D01*
X103931376Y-98999031D01*
X103930047Y-98999411D01*
X103928737Y-98999500D01*
X94788661Y-98999500D01*
X94720540Y-98979498D01*
X94674047Y-98925842D01*
X94664001Y-98855969D01*
X94664910Y-98853228D01*
X94675500Y-98749866D01*
X94675500Y-97750134D01*
X94671180Y-97708499D01*
X94665353Y-97652339D01*
X94665352Y-97652335D01*
X94664641Y-97645481D01*
X94658305Y-97626488D01*
X94611574Y-97486419D01*
X94609256Y-97479471D01*
X94524683Y-97342802D01*
X94505845Y-97274351D01*
X94527006Y-97206581D01*
X94581447Y-97161010D01*
X94631827Y-97150500D01*
X95678364Y-97150500D01*
X95746485Y-97170502D01*
X95767459Y-97187405D01*
X95982748Y-97402694D01*
X95990593Y-97411315D01*
X95994798Y-97417940D01*
X96000575Y-97423365D01*
X96045832Y-97465864D01*
X96048674Y-97468619D01*
X96068966Y-97488911D01*
X96072372Y-97491553D01*
X96081392Y-97499257D01*
X96114607Y-97530448D01*
X96133070Y-97540598D01*
X96149593Y-97551452D01*
X96159975Y-97559506D01*
X96159977Y-97559507D01*
X96166237Y-97564363D01*
X96200113Y-97579022D01*
X96208046Y-97582455D01*
X96218706Y-97587677D01*
X96250980Y-97605420D01*
X96258632Y-97609627D01*
X96279037Y-97614866D01*
X96297742Y-97621270D01*
X96317074Y-97629636D01*
X96324900Y-97630876D01*
X96324905Y-97630877D01*
X96362076Y-97636765D01*
X96373696Y-97639171D01*
X96410142Y-97648528D01*
X96417823Y-97650500D01*
X96438884Y-97650500D01*
X96458595Y-97652051D01*
X96462895Y-97652732D01*
X96479405Y-97655347D01*
X96487296Y-97654601D01*
X96489677Y-97654376D01*
X96524764Y-97651059D01*
X96536623Y-97650500D01*
X101426602Y-97650500D01*
X101450211Y-97652732D01*
X101458830Y-97654376D01*
X101516480Y-97650749D01*
X101524391Y-97650500D01*
X101540925Y-97650500D01*
X101557340Y-97648426D01*
X101565195Y-97647684D01*
X101593674Y-97645892D01*
X101614948Y-97644554D01*
X101614950Y-97644554D01*
X101622860Y-97644056D01*
X101631208Y-97641344D01*
X101654348Y-97636171D01*
X101663058Y-97635071D01*
X101670428Y-97632153D01*
X101670432Y-97632152D01*
X101716780Y-97613801D01*
X101724199Y-97611129D01*
X101779171Y-97593268D01*
X101785863Y-97589021D01*
X101785868Y-97589019D01*
X101786591Y-97588560D01*
X101807707Y-97577801D01*
X101808503Y-97577486D01*
X101808507Y-97577484D01*
X101815871Y-97574568D01*
X101822279Y-97569912D01*
X101822285Y-97569909D01*
X101862612Y-97540610D01*
X101869157Y-97536161D01*
X101911249Y-97509448D01*
X101917940Y-97505202D01*
X101923946Y-97498806D01*
X101941737Y-97483122D01*
X101942421Y-97482625D01*
X101942424Y-97482623D01*
X101948837Y-97477963D01*
X101985668Y-97433442D01*
X101990900Y-97427507D01*
X101994053Y-97424150D01*
X102030448Y-97385393D01*
X102034263Y-97378453D01*
X102034267Y-97378448D01*
X102034676Y-97377703D01*
X102048011Y-97358082D01*
X102048547Y-97357434D01*
X102053600Y-97351326D01*
X102078196Y-97299058D01*
X102081786Y-97292011D01*
X102105807Y-97248317D01*
X102105808Y-97248315D01*
X102109627Y-97241368D01*
X102111810Y-97232865D01*
X102119845Y-97210549D01*
X102123579Y-97202613D01*
X102126481Y-97187405D01*
X102134403Y-97145873D01*
X102136125Y-97138166D01*
X102150500Y-97082177D01*
X102150500Y-97073398D01*
X102152732Y-97049788D01*
X102152891Y-97048955D01*
X102154376Y-97041170D01*
X102150749Y-96983520D01*
X102150500Y-96975609D01*
X102150500Y-95753038D01*
X102170502Y-95684917D01*
X102224158Y-95638424D01*
X102294432Y-95628320D01*
X102359012Y-95657814D01*
X102391869Y-95705763D01*
X102392873Y-95705316D01*
X102394774Y-95709585D01*
X102396355Y-95713989D01*
X102519504Y-95943180D01*
X102522299Y-95946923D01*
X102522301Y-95946926D01*
X102672385Y-96147913D01*
X102672390Y-96147919D01*
X102675177Y-96151651D01*
X102678486Y-96154931D01*
X102678491Y-96154937D01*
X102816373Y-96291621D01*
X102859954Y-96334823D01*
X102863716Y-96337581D01*
X102863719Y-96337584D01*
X102976332Y-96420155D01*
X103069775Y-96488670D01*
X103073910Y-96490846D01*
X103073914Y-96490848D01*
X103282168Y-96600416D01*
X103333140Y-96649835D01*
X103349500Y-96711924D01*
X103349500Y-97319000D01*
X103348951Y-97330640D01*
X103347240Y-97338296D01*
X103347489Y-97346219D01*
X103349438Y-97408230D01*
X103349500Y-97412188D01*
X103349500Y-97440925D01*
X103349995Y-97444842D01*
X103350039Y-97445191D01*
X103350971Y-97457024D01*
X103352403Y-97502569D01*
X103354615Y-97510183D01*
X103354616Y-97510188D01*
X103358278Y-97522792D01*
X103362289Y-97542156D01*
X103364929Y-97563058D01*
X103367848Y-97570429D01*
X103367848Y-97570431D01*
X103381702Y-97605420D01*
X103385541Y-97616631D01*
X103398256Y-97660398D01*
X103408981Y-97678533D01*
X103417676Y-97696281D01*
X103425432Y-97715871D01*
X103452218Y-97752738D01*
X103458725Y-97762646D01*
X103477883Y-97795042D01*
X103477887Y-97795047D01*
X103481919Y-97801865D01*
X103496812Y-97816758D01*
X103509653Y-97831792D01*
X103522037Y-97848837D01*
X103528145Y-97853890D01*
X103557143Y-97877879D01*
X103565923Y-97885869D01*
X106062595Y-100382541D01*
X106096621Y-100444853D01*
X106099500Y-100471636D01*
X106099501Y-101297376D01*
X106106149Y-101358580D01*
X106156474Y-101492824D01*
X106161854Y-101500003D01*
X106161856Y-101500006D01*
X106237072Y-101600365D01*
X106242454Y-101607546D01*
X106249635Y-101612928D01*
X106349994Y-101688144D01*
X106349997Y-101688146D01*
X106357176Y-101693526D01*
X106446561Y-101727034D01*
X106484025Y-101741079D01*
X106484027Y-101741079D01*
X106491420Y-101743851D01*
X106499270Y-101744704D01*
X106499271Y-101744704D01*
X106549217Y-101750130D01*
X106552623Y-101750500D01*
X107099919Y-101750500D01*
X107647376Y-101750499D01*
X107650770Y-101750130D01*
X107650776Y-101750130D01*
X107688132Y-101746072D01*
X107708580Y-101743851D01*
X107715974Y-101741079D01*
X107720859Y-101739918D01*
X107779143Y-101739919D01*
X107784031Y-101741081D01*
X107791420Y-101743851D01*
X107799267Y-101744703D01*
X107799269Y-101744704D01*
X107849217Y-101750130D01*
X107852623Y-101750500D01*
X108399919Y-101750500D01*
X108947376Y-101750499D01*
X108950770Y-101750130D01*
X108950776Y-101750130D01*
X109000722Y-101744705D01*
X109000726Y-101744704D01*
X109008580Y-101743851D01*
X109142824Y-101693526D01*
X109150003Y-101688146D01*
X109150006Y-101688144D01*
X109250365Y-101612928D01*
X109257546Y-101607546D01*
X109262928Y-101600365D01*
X109338144Y-101500006D01*
X109338146Y-101500003D01*
X109343526Y-101492824D01*
X109393851Y-101358580D01*
X109400500Y-101297377D01*
X109400500Y-101276500D01*
X109420502Y-101208379D01*
X109474158Y-101161886D01*
X109526500Y-101150500D01*
X111119000Y-101150500D01*
X111130640Y-101151049D01*
X111138296Y-101152760D01*
X111146219Y-101152511D01*
X111208230Y-101150562D01*
X111212188Y-101150500D01*
X111240925Y-101150500D01*
X111245196Y-101149961D01*
X111257024Y-101149029D01*
X111302569Y-101147597D01*
X111310183Y-101145385D01*
X111310188Y-101145384D01*
X111322792Y-101141722D01*
X111342156Y-101137711D01*
X111363058Y-101135071D01*
X111370429Y-101132152D01*
X111370431Y-101132152D01*
X111405420Y-101118298D01*
X111416631Y-101114459D01*
X111460398Y-101101744D01*
X111478536Y-101091018D01*
X111496281Y-101082324D01*
X111515871Y-101074568D01*
X111552738Y-101047782D01*
X111562646Y-101041275D01*
X111595042Y-101022117D01*
X111595047Y-101022113D01*
X111601865Y-101018081D01*
X111616758Y-101003188D01*
X111631792Y-100990347D01*
X111642423Y-100982623D01*
X111648837Y-100977963D01*
X111677881Y-100942855D01*
X111685870Y-100934076D01*
X112977707Y-99642238D01*
X113040019Y-99608213D01*
X113110834Y-99613277D01*
X113155820Y-99642160D01*
X113181689Y-99667984D01*
X113330666Y-99759814D01*
X113337614Y-99762119D01*
X113337615Y-99762119D01*
X113490241Y-99812744D01*
X113490243Y-99812745D01*
X113496772Y-99814910D01*
X113600134Y-99825500D01*
X114399866Y-99825500D01*
X114403112Y-99825163D01*
X114403116Y-99825163D01*
X114497661Y-99815353D01*
X114497665Y-99815352D01*
X114504519Y-99814641D01*
X114511055Y-99812460D01*
X114511057Y-99812460D01*
X114663581Y-99761574D01*
X114670529Y-99759256D01*
X114819345Y-99667166D01*
X114942984Y-99543311D01*
X114960078Y-99515580D01*
X114976087Y-99489608D01*
X115028858Y-99442114D01*
X115098930Y-99430690D01*
X115164054Y-99458963D01*
X115182431Y-99477888D01*
X115190259Y-99487853D01*
X115198499Y-99496506D01*
X115349123Y-99627212D01*
X115358847Y-99634147D01*
X115531467Y-99734010D01*
X115542331Y-99738984D01*
X115730727Y-99804407D01*
X115731716Y-99804648D01*
X115742008Y-99803180D01*
X115746000Y-99789615D01*
X115746000Y-99785402D01*
X116254000Y-99785402D01*
X116257973Y-99798933D01*
X116267399Y-99800288D01*
X116356537Y-99778806D01*
X116367832Y-99774917D01*
X116549382Y-99692371D01*
X116559724Y-99686424D01*
X116722397Y-99571032D01*
X116731425Y-99563239D01*
X116869342Y-99419169D01*
X116876738Y-99409804D01*
X116984921Y-99242259D01*
X116990417Y-99231655D01*
X117064961Y-99046688D01*
X117068355Y-99035230D01*
X117106857Y-98838072D01*
X117107934Y-98829209D01*
X117108000Y-98826500D01*
X117108000Y-98722115D01*
X117103525Y-98706876D01*
X117102135Y-98705671D01*
X117094452Y-98704000D01*
X116272115Y-98704000D01*
X116256876Y-98708475D01*
X116255671Y-98709865D01*
X116254000Y-98717548D01*
X116254000Y-99785402D01*
X115746000Y-99785402D01*
X115746000Y-98177885D01*
X116254000Y-98177885D01*
X116258475Y-98193124D01*
X116259865Y-98194329D01*
X116267548Y-98196000D01*
X117089885Y-98196000D01*
X117105124Y-98191525D01*
X117106329Y-98190135D01*
X117108000Y-98182452D01*
X117108000Y-98125168D01*
X117107715Y-98119192D01*
X117093529Y-97970506D01*
X117091270Y-97958772D01*
X117035128Y-97767401D01*
X117030698Y-97756325D01*
X116939381Y-97579022D01*
X116932931Y-97568976D01*
X116809738Y-97412143D01*
X116801501Y-97403494D01*
X116650877Y-97272788D01*
X116641153Y-97265853D01*
X116468533Y-97165990D01*
X116457669Y-97161016D01*
X116269273Y-97095593D01*
X116268284Y-97095352D01*
X116257992Y-97096820D01*
X116254000Y-97110385D01*
X116254000Y-98177885D01*
X115746000Y-98177885D01*
X115746000Y-97114598D01*
X115741525Y-97099358D01*
X115725433Y-97085414D01*
X115687050Y-97025687D01*
X115687050Y-96954691D01*
X115718851Y-96901095D01*
X116652698Y-95967248D01*
X116661315Y-95959407D01*
X116667940Y-95955202D01*
X116679230Y-95943180D01*
X116715849Y-95904184D01*
X116718604Y-95901342D01*
X116738912Y-95881034D01*
X116741554Y-95877628D01*
X116749266Y-95868598D01*
X116775023Y-95841170D01*
X116780448Y-95835393D01*
X116790599Y-95816930D01*
X116801451Y-95800409D01*
X116809503Y-95790029D01*
X116809504Y-95790027D01*
X116814363Y-95783763D01*
X116832455Y-95741954D01*
X116837677Y-95731294D01*
X116855809Y-95698313D01*
X116855809Y-95698312D01*
X116859627Y-95691368D01*
X116864866Y-95670962D01*
X116871270Y-95652259D01*
X116875414Y-95642683D01*
X116879636Y-95632926D01*
X116880876Y-95625100D01*
X116880877Y-95625095D01*
X116886765Y-95587924D01*
X116889171Y-95576304D01*
X116898528Y-95539858D01*
X116898528Y-95539857D01*
X116900500Y-95532177D01*
X116900500Y-95511116D01*
X116902051Y-95491405D01*
X116904107Y-95478424D01*
X116905347Y-95470595D01*
X116901059Y-95425232D01*
X116900500Y-95413375D01*
X116900500Y-94876499D01*
X116920502Y-94808378D01*
X116974158Y-94761885D01*
X117026500Y-94750499D01*
X117047376Y-94750499D01*
X117050770Y-94750130D01*
X117050776Y-94750130D01*
X117100722Y-94744705D01*
X117100726Y-94744704D01*
X117108580Y-94743851D01*
X117242824Y-94693526D01*
X117250003Y-94688146D01*
X117250006Y-94688144D01*
X117350365Y-94612928D01*
X117357546Y-94607546D01*
X117372641Y-94587405D01*
X117438144Y-94500006D01*
X117438146Y-94500003D01*
X117443526Y-94492824D01*
X117493851Y-94358580D01*
X117494838Y-94349500D01*
X117500131Y-94300774D01*
X117500131Y-94300773D01*
X117500500Y-94297377D01*
X117500499Y-93202624D01*
X117493851Y-93141420D01*
X117491079Y-93134026D01*
X117489918Y-93129141D01*
X117489919Y-93070857D01*
X117491081Y-93065969D01*
X117493851Y-93058580D01*
X117494705Y-93050725D01*
X117500131Y-93000774D01*
X117500131Y-93000773D01*
X117500500Y-92997377D01*
X117500499Y-91902624D01*
X117493851Y-91841420D01*
X117443526Y-91707176D01*
X117438146Y-91699997D01*
X117438144Y-91699994D01*
X117362928Y-91599635D01*
X117357546Y-91592454D01*
X117333358Y-91574326D01*
X117250006Y-91511856D01*
X117250003Y-91511854D01*
X117242824Y-91506474D01*
X117141687Y-91468560D01*
X117115975Y-91458921D01*
X117115973Y-91458921D01*
X117108580Y-91456149D01*
X117100730Y-91455296D01*
X117100729Y-91455296D01*
X117050774Y-91449869D01*
X117050773Y-91449869D01*
X117047377Y-91449500D01*
X116250117Y-91449500D01*
X115452624Y-91449501D01*
X115449230Y-91449870D01*
X115449224Y-91449870D01*
X115399278Y-91455295D01*
X115399274Y-91455296D01*
X115391420Y-91456149D01*
X115257176Y-91506474D01*
X115249997Y-91511854D01*
X115249994Y-91511856D01*
X115166642Y-91574326D01*
X115100136Y-91599174D01*
X115091077Y-91599500D01*
X114065464Y-91599500D01*
X113997343Y-91579498D01*
X113950850Y-91525842D01*
X113947488Y-91517745D01*
X113943526Y-91507176D01*
X113938146Y-91499997D01*
X113938144Y-91499994D01*
X113862928Y-91399635D01*
X113857546Y-91392454D01*
X113846806Y-91384405D01*
X113750006Y-91311856D01*
X113750003Y-91311854D01*
X113742824Y-91306474D01*
X113624716Y-91262198D01*
X113615975Y-91258921D01*
X113615973Y-91258921D01*
X113608580Y-91256149D01*
X113600730Y-91255296D01*
X113600729Y-91255296D01*
X113550774Y-91249869D01*
X113550773Y-91249869D01*
X113547377Y-91249500D01*
X112750117Y-91249500D01*
X111952624Y-91249501D01*
X111949230Y-91249870D01*
X111949224Y-91249870D01*
X111899278Y-91255295D01*
X111899274Y-91255296D01*
X111891420Y-91256149D01*
X111757176Y-91306474D01*
X111749997Y-91311854D01*
X111749994Y-91311856D01*
X111653194Y-91384405D01*
X111642454Y-91392454D01*
X111637072Y-91399635D01*
X111561856Y-91499994D01*
X111561854Y-91499997D01*
X111556474Y-91507176D01*
X111552518Y-91517730D01*
X111551149Y-91519552D01*
X111549012Y-91523455D01*
X111548449Y-91523147D01*
X111509878Y-91574493D01*
X111443316Y-91599194D01*
X111434536Y-91599500D01*
X102624636Y-91599500D01*
X102556515Y-91579498D01*
X102510022Y-91525842D01*
X102499918Y-91455568D01*
X102529412Y-91390988D01*
X102535541Y-91384405D01*
X103237541Y-90682405D01*
X103299853Y-90648379D01*
X103326636Y-90645500D01*
X115674000Y-90645500D01*
X115685640Y-90646049D01*
X115693296Y-90647760D01*
X115701219Y-90647511D01*
X115763230Y-90645562D01*
X115767188Y-90645500D01*
X115795925Y-90645500D01*
X115800196Y-90644961D01*
X115812024Y-90644029D01*
X115857569Y-90642597D01*
X115865183Y-90640385D01*
X115865188Y-90640384D01*
X115877792Y-90636722D01*
X115897156Y-90632711D01*
X115918058Y-90630071D01*
X115925429Y-90627152D01*
X115925431Y-90627152D01*
X115960420Y-90613298D01*
X115971631Y-90609459D01*
X116015398Y-90596744D01*
X116033536Y-90586018D01*
X116051281Y-90577324D01*
X116070871Y-90569568D01*
X116107738Y-90542782D01*
X116117646Y-90536275D01*
X116150042Y-90517117D01*
X116150047Y-90517113D01*
X116156865Y-90513081D01*
X116171758Y-90498188D01*
X116186792Y-90485347D01*
X116197423Y-90477623D01*
X116203837Y-90472963D01*
X116232880Y-90437856D01*
X116240869Y-90429077D01*
X117334405Y-89335541D01*
X117396717Y-89301515D01*
X117467532Y-89306580D01*
G37*
%TD.AperFunction*%
%TA.AperFunction,Conductor*%
G36*
X88815658Y-86535600D02*
G01*
X88847482Y-86599064D01*
X88849500Y-86621524D01*
X88849500Y-88928364D01*
X88829498Y-88996485D01*
X88812595Y-89017459D01*
X87615595Y-90214459D01*
X87553283Y-90248485D01*
X87482468Y-90243420D01*
X87425632Y-90200873D01*
X87400821Y-90134353D01*
X87400500Y-90125364D01*
X87400500Y-86665250D01*
X87420502Y-86597129D01*
X87474158Y-86550636D01*
X87526500Y-86539250D01*
X88499866Y-86539250D01*
X88503112Y-86538913D01*
X88503116Y-86538913D01*
X88597661Y-86529103D01*
X88597665Y-86529102D01*
X88604519Y-86528391D01*
X88611053Y-86526211D01*
X88611058Y-86526210D01*
X88683624Y-86502000D01*
X88754574Y-86499416D01*
X88815658Y-86535600D01*
G37*
%TD.AperFunction*%
%TA.AperFunction,Conductor*%
G36*
X108373530Y-83485932D02*
G01*
X108421379Y-83538382D01*
X108434141Y-83593637D01*
X108434141Y-84465694D01*
X108434333Y-84468140D01*
X108434334Y-84468153D01*
X108434476Y-84469953D01*
X108437043Y-84502569D01*
X108442305Y-84520682D01*
X108479441Y-84648501D01*
X108482897Y-84660398D01*
X108486932Y-84667220D01*
X108486932Y-84667221D01*
X108548674Y-84771621D01*
X108566560Y-84801865D01*
X108682776Y-84918081D01*
X108689597Y-84922115D01*
X108788413Y-84980554D01*
X108824243Y-85001744D01*
X108831855Y-85003955D01*
X108831856Y-85003956D01*
X108860814Y-85012369D01*
X108982072Y-85047598D01*
X108995225Y-85048633D01*
X109016488Y-85050307D01*
X109016501Y-85050308D01*
X109018947Y-85050500D01*
X109425505Y-85050500D01*
X109493626Y-85070502D01*
X109514600Y-85087405D01*
X109912393Y-85485198D01*
X109920234Y-85493815D01*
X109924439Y-85500440D01*
X109930218Y-85505867D01*
X109930219Y-85505868D01*
X109975457Y-85548349D01*
X109978299Y-85551104D01*
X109998606Y-85571411D01*
X110001737Y-85573840D01*
X110001743Y-85573845D01*
X110002018Y-85574058D01*
X110011031Y-85581755D01*
X110044248Y-85612948D01*
X110051195Y-85616767D01*
X110057610Y-85621428D01*
X110055580Y-85624221D01*
X110094577Y-85663469D01*
X110109447Y-85732891D01*
X110084423Y-85799331D01*
X110027452Y-85841696D01*
X109983797Y-85849500D01*
X103968817Y-85849500D01*
X103900696Y-85829498D01*
X103854203Y-85775842D01*
X103844099Y-85705568D01*
X103873593Y-85640988D01*
X103913886Y-85610518D01*
X103917670Y-85609256D01*
X103923891Y-85605407D01*
X103923894Y-85605405D01*
X104060258Y-85521020D01*
X104066486Y-85517166D01*
X104190125Y-85393311D01*
X104281955Y-85244334D01*
X104326323Y-85110571D01*
X104334885Y-85084759D01*
X104334886Y-85084757D01*
X104337051Y-85078228D01*
X104347641Y-84974866D01*
X104347641Y-84350134D01*
X104346440Y-84338560D01*
X104337494Y-84252339D01*
X104337493Y-84252335D01*
X104336782Y-84245481D01*
X104333419Y-84235399D01*
X104283715Y-84086419D01*
X104281397Y-84079471D01*
X104189307Y-83930655D01*
X104097718Y-83839225D01*
X104063639Y-83776944D01*
X104068642Y-83706124D01*
X104097563Y-83661035D01*
X104184954Y-83573492D01*
X104184958Y-83573487D01*
X104190125Y-83568311D01*
X104202715Y-83547886D01*
X104255487Y-83500391D01*
X104309976Y-83488000D01*
X105265864Y-83488000D01*
X105333985Y-83508002D01*
X105354959Y-83524905D01*
X106120252Y-84290198D01*
X106128093Y-84298815D01*
X106132298Y-84305440D01*
X106138077Y-84310867D01*
X106138078Y-84310868D01*
X106183316Y-84353349D01*
X106186158Y-84356104D01*
X106206465Y-84376411D01*
X106209596Y-84378840D01*
X106209602Y-84378845D01*
X106209877Y-84379058D01*
X106218890Y-84386755D01*
X106252107Y-84417948D01*
X106259054Y-84421767D01*
X106270566Y-84428096D01*
X106287090Y-84438950D01*
X106303736Y-84451862D01*
X106329989Y-84463223D01*
X106345541Y-84469953D01*
X106356200Y-84475175D01*
X106389186Y-84493309D01*
X106389190Y-84493310D01*
X106396132Y-84497127D01*
X106403805Y-84499097D01*
X106403807Y-84499098D01*
X106416536Y-84502366D01*
X106435240Y-84508770D01*
X106447293Y-84513986D01*
X106447302Y-84513989D01*
X106454573Y-84517135D01*
X106462403Y-84518375D01*
X106462406Y-84518376D01*
X106466483Y-84519022D01*
X106469417Y-84520413D01*
X106470013Y-84520586D01*
X106469985Y-84520682D01*
X106530635Y-84549435D01*
X106567766Y-84608317D01*
X106579441Y-84648501D01*
X106582897Y-84660398D01*
X106586932Y-84667220D01*
X106586932Y-84667221D01*
X106648674Y-84771621D01*
X106666560Y-84801865D01*
X106782776Y-84918081D01*
X106789597Y-84922115D01*
X106888413Y-84980554D01*
X106924243Y-85001744D01*
X106931855Y-85003955D01*
X106931856Y-85003956D01*
X106960814Y-85012369D01*
X107082072Y-85047598D01*
X107095225Y-85048633D01*
X107116488Y-85050307D01*
X107116501Y-85050308D01*
X107118947Y-85050500D01*
X107550335Y-85050500D01*
X107552781Y-85050308D01*
X107552794Y-85050307D01*
X107574057Y-85048633D01*
X107587210Y-85047598D01*
X107708468Y-85012369D01*
X107737426Y-85003956D01*
X107737427Y-85003955D01*
X107745039Y-85001744D01*
X107780870Y-84980554D01*
X107879685Y-84922115D01*
X107886506Y-84918081D01*
X108002722Y-84801865D01*
X108020608Y-84771621D01*
X108082350Y-84667221D01*
X108082350Y-84667220D01*
X108086385Y-84660398D01*
X108089842Y-84648501D01*
X108126977Y-84520682D01*
X108132239Y-84502569D01*
X108134806Y-84469953D01*
X108134948Y-84468153D01*
X108134949Y-84468140D01*
X108135141Y-84465694D01*
X108135141Y-83628686D01*
X108155143Y-83560565D01*
X108197000Y-83520234D01*
X108204680Y-83515692D01*
X108204686Y-83515687D01*
X108211506Y-83511654D01*
X108217711Y-83505449D01*
X108235998Y-83490322D01*
X108237333Y-83489415D01*
X108304920Y-83467678D01*
X108373530Y-83485932D01*
G37*
%TD.AperFunction*%
%TA.AperFunction,Conductor*%
G36*
X103178803Y-78920502D02*
G01*
X103225296Y-78974158D01*
X103236026Y-79039342D01*
X103232359Y-79075134D01*
X103232359Y-80424866D01*
X103232696Y-80428112D01*
X103232696Y-80428116D01*
X103240393Y-80502291D01*
X103243218Y-80529519D01*
X103245399Y-80536055D01*
X103245399Y-80536057D01*
X103259354Y-80577885D01*
X103298603Y-80695529D01*
X103390693Y-80844345D01*
X103395875Y-80849518D01*
X103395879Y-80849523D01*
X103430744Y-80884327D01*
X103464824Y-80946609D01*
X103459821Y-81017429D01*
X103417324Y-81074302D01*
X103350826Y-81099171D01*
X103341727Y-81099500D01*
X101913860Y-81099500D01*
X101902219Y-81098951D01*
X101894563Y-81097240D01*
X101826214Y-81099388D01*
X101824615Y-81099438D01*
X101820658Y-81099500D01*
X101791934Y-81099500D01*
X101787671Y-81100038D01*
X101775842Y-81100970D01*
X101730290Y-81102402D01*
X101710052Y-81108281D01*
X101690699Y-81112289D01*
X101687086Y-81112745D01*
X101677667Y-81113935D01*
X101677665Y-81113935D01*
X101669801Y-81114929D01*
X101662429Y-81117848D01*
X101662428Y-81117848D01*
X101627443Y-81131699D01*
X101616213Y-81135544D01*
X101580071Y-81146044D01*
X101572461Y-81148255D01*
X101565642Y-81152288D01*
X101565637Y-81152290D01*
X101554326Y-81158980D01*
X101536567Y-81167680D01*
X101524363Y-81172512D01*
X101516988Y-81175432D01*
X101510574Y-81180092D01*
X101480132Y-81202209D01*
X101470212Y-81208725D01*
X101430994Y-81231919D01*
X101416101Y-81246812D01*
X101401067Y-81259653D01*
X101384022Y-81272037D01*
X101378969Y-81278145D01*
X101354980Y-81307143D01*
X101346990Y-81315923D01*
X100600318Y-82062595D01*
X100538006Y-82096621D01*
X100511223Y-82099500D01*
X99871595Y-82099500D01*
X99803474Y-82079498D01*
X99756981Y-82025842D01*
X99752071Y-82013374D01*
X99746642Y-81997100D01*
X99746640Y-81997095D01*
X99744322Y-81990148D01*
X99655299Y-81846289D01*
X99535570Y-81726769D01*
X99476050Y-81690080D01*
X99397786Y-81641837D01*
X99397784Y-81641836D01*
X99391556Y-81637997D01*
X99230983Y-81584737D01*
X99224147Y-81584037D01*
X99224144Y-81584036D01*
X99174062Y-81578905D01*
X99131066Y-81574500D01*
X98835159Y-81574500D01*
X98534653Y-81574501D01*
X98531409Y-81574838D01*
X98531401Y-81574838D01*
X98486979Y-81579447D01*
X98433487Y-81584997D01*
X98273007Y-81638537D01*
X98129148Y-81727560D01*
X98009628Y-81847289D01*
X98005788Y-81853519D01*
X98005787Y-81853520D01*
X97999004Y-81864525D01*
X97920856Y-81991303D01*
X97867596Y-82151876D01*
X97857359Y-82251793D01*
X97857360Y-82798206D01*
X97867856Y-82899372D01*
X97921396Y-83059852D01*
X97947133Y-83101442D01*
X97965970Y-83169891D01*
X97944809Y-83237661D01*
X97922245Y-83261151D01*
X97922996Y-83261951D01*
X97917217Y-83267377D01*
X97910804Y-83272037D01*
X97905751Y-83278145D01*
X97881762Y-83307143D01*
X97873772Y-83315923D01*
X96452100Y-84737595D01*
X96389788Y-84771621D01*
X96363007Y-84774500D01*
X96339136Y-84774500D01*
X96281500Y-84774501D01*
X96213381Y-84754500D01*
X96166887Y-84700845D01*
X96155500Y-84648501D01*
X96155500Y-84075999D01*
X96156049Y-84064359D01*
X96157760Y-84056703D01*
X96155562Y-83986768D01*
X96155500Y-83982811D01*
X96155500Y-83954075D01*
X96154961Y-83949807D01*
X96154028Y-83937964D01*
X96153799Y-83930655D01*
X96152597Y-83892431D01*
X96150385Y-83884817D01*
X96150384Y-83884812D01*
X96146722Y-83872208D01*
X96142711Y-83852843D01*
X96141064Y-83839805D01*
X96140071Y-83831942D01*
X96137153Y-83824573D01*
X96137152Y-83824568D01*
X96123297Y-83789573D01*
X96119452Y-83778343D01*
X96108955Y-83742211D01*
X96108954Y-83742210D01*
X96106744Y-83734601D01*
X96096019Y-83716466D01*
X96087320Y-83698709D01*
X96082486Y-83686498D01*
X96082485Y-83686496D01*
X96079568Y-83679129D01*
X96052788Y-83642269D01*
X96046272Y-83632349D01*
X96044106Y-83628686D01*
X96023081Y-83593135D01*
X96008188Y-83578242D01*
X95995347Y-83563208D01*
X95987623Y-83552577D01*
X95982963Y-83546163D01*
X95947856Y-83517120D01*
X95939077Y-83509131D01*
X94823167Y-82393221D01*
X94789141Y-82330909D01*
X94790555Y-82271515D01*
X94794978Y-82255010D01*
X94835063Y-82105408D01*
X94855659Y-81870000D01*
X94835063Y-81634592D01*
X94827381Y-81605920D01*
X94801407Y-81508985D01*
X94781051Y-81433014D01*
X94782741Y-81362040D01*
X94813663Y-81311310D01*
X97187568Y-78937405D01*
X97249880Y-78903379D01*
X97276663Y-78900500D01*
X103110682Y-78900500D01*
X103178803Y-78920502D01*
G37*
%TD.AperFunction*%
%TA.AperFunction,Conductor*%
G36*
X112306908Y-78232756D02*
G01*
X112358135Y-78281912D01*
X112365965Y-78298175D01*
X112384524Y-78345048D01*
X112386200Y-78349281D01*
X112388871Y-78356699D01*
X112406732Y-78411671D01*
X112410979Y-78418363D01*
X112410981Y-78418368D01*
X112411440Y-78419091D01*
X112422199Y-78440207D01*
X112422514Y-78441003D01*
X112422516Y-78441007D01*
X112425432Y-78448371D01*
X112430088Y-78454779D01*
X112430091Y-78454785D01*
X112459390Y-78495112D01*
X112463838Y-78501655D01*
X112494798Y-78550440D01*
X112500574Y-78555864D01*
X112501192Y-78556444D01*
X112516878Y-78574237D01*
X112517375Y-78574921D01*
X112517377Y-78574924D01*
X112522037Y-78581337D01*
X112528145Y-78586390D01*
X112566555Y-78618165D01*
X112572490Y-78623398D01*
X112614607Y-78662948D01*
X112621547Y-78666763D01*
X112621552Y-78666767D01*
X112622297Y-78667176D01*
X112641919Y-78680511D01*
X112648674Y-78686100D01*
X112700937Y-78710693D01*
X112707989Y-78714286D01*
X112751683Y-78738307D01*
X112758632Y-78742127D01*
X112767135Y-78744310D01*
X112789451Y-78752345D01*
X112797387Y-78756079D01*
X112805170Y-78757564D01*
X112805174Y-78757565D01*
X112842642Y-78764712D01*
X112854132Y-78766904D01*
X112861834Y-78768625D01*
X112917823Y-78783000D01*
X112926602Y-78783000D01*
X112950211Y-78785232D01*
X112958830Y-78786876D01*
X113016480Y-78783249D01*
X113024391Y-78783000D01*
X113223500Y-78783000D01*
X113291621Y-78803002D01*
X113338114Y-78856658D01*
X113349500Y-78909000D01*
X113349500Y-81591569D01*
X113329498Y-81659690D01*
X113275842Y-81706183D01*
X113205568Y-81716287D01*
X113157384Y-81698829D01*
X113064927Y-81641837D01*
X113064925Y-81641836D01*
X113058697Y-81637997D01*
X112898124Y-81584737D01*
X112891288Y-81584037D01*
X112891285Y-81584036D01*
X112841203Y-81578905D01*
X112798207Y-81574500D01*
X112502300Y-81574500D01*
X112201794Y-81574501D01*
X112198550Y-81574838D01*
X112198542Y-81574838D01*
X112154120Y-81579447D01*
X112100628Y-81584997D01*
X111940148Y-81638537D01*
X111796289Y-81727560D01*
X111791116Y-81732742D01*
X111686523Y-81837518D01*
X111624241Y-81871597D01*
X111597350Y-81874500D01*
X111096636Y-81874500D01*
X111028515Y-81854498D01*
X111007541Y-81837595D01*
X110860026Y-81690080D01*
X110826000Y-81627768D01*
X110823121Y-81600985D01*
X110823121Y-78482666D01*
X110843123Y-78414545D01*
X110896779Y-78368052D01*
X110967053Y-78357948D01*
X111010590Y-78372678D01*
X111097513Y-78421257D01*
X111284118Y-78481889D01*
X111478946Y-78505121D01*
X111485081Y-78504649D01*
X111485083Y-78504649D01*
X111668434Y-78490541D01*
X111668438Y-78490540D01*
X111674576Y-78490068D01*
X111863556Y-78437303D01*
X112038689Y-78348837D01*
X112068515Y-78325535D01*
X112171243Y-78245275D01*
X112237237Y-78219098D01*
X112306908Y-78232756D01*
G37*
%TD.AperFunction*%
%TA.AperFunction,Conductor*%
G36*
X86864911Y-67020502D02*
G01*
X86911404Y-67074158D01*
X86921508Y-67144432D01*
X86904050Y-67192615D01*
X86869030Y-67249429D01*
X86869028Y-67249432D01*
X86865186Y-67255666D01*
X86862881Y-67262614D01*
X86862881Y-67262615D01*
X86837704Y-67338521D01*
X86810090Y-67421772D01*
X86799500Y-67525134D01*
X86799500Y-68149866D01*
X86799837Y-68153112D01*
X86799837Y-68153116D01*
X86800970Y-68164029D01*
X86810359Y-68254519D01*
X86812540Y-68261055D01*
X86812540Y-68261057D01*
X86825366Y-68299500D01*
X86865744Y-68420529D01*
X86957834Y-68569345D01*
X86963016Y-68574518D01*
X87049423Y-68660774D01*
X87083502Y-68723056D01*
X87078499Y-68793876D01*
X87049578Y-68838965D01*
X86962187Y-68926508D01*
X86962183Y-68926513D01*
X86957016Y-68931689D01*
X86865186Y-69080666D01*
X86862881Y-69087614D01*
X86862881Y-69087615D01*
X86829294Y-69188876D01*
X86810090Y-69246772D01*
X86799500Y-69350134D01*
X86799500Y-69974866D01*
X86799837Y-69978112D01*
X86799837Y-69978116D01*
X86807591Y-70052841D01*
X86810359Y-70079519D01*
X86812540Y-70086055D01*
X86812540Y-70086057D01*
X86836845Y-70158909D01*
X86865744Y-70245529D01*
X86957834Y-70394345D01*
X87081689Y-70517984D01*
X87230666Y-70609814D01*
X87237614Y-70612119D01*
X87237615Y-70612119D01*
X87390241Y-70662744D01*
X87390243Y-70662745D01*
X87396772Y-70664910D01*
X87500134Y-70675500D01*
X88499866Y-70675500D01*
X88503112Y-70675163D01*
X88503116Y-70675163D01*
X88597661Y-70665353D01*
X88597665Y-70665352D01*
X88604519Y-70664641D01*
X88611056Y-70662460D01*
X88611061Y-70662459D01*
X88688625Y-70636582D01*
X88759574Y-70633998D01*
X88820658Y-70670182D01*
X88852482Y-70733646D01*
X88854500Y-70756106D01*
X88854500Y-73831391D01*
X88834498Y-73899512D01*
X88780842Y-73946005D01*
X88710568Y-73956109D01*
X88688832Y-73950984D01*
X88609759Y-73924756D01*
X88609757Y-73924755D01*
X88603228Y-73922590D01*
X88499866Y-73912000D01*
X87500134Y-73912000D01*
X87496888Y-73912337D01*
X87496884Y-73912337D01*
X87402339Y-73922147D01*
X87402335Y-73922148D01*
X87395481Y-73922859D01*
X87388945Y-73925040D01*
X87388943Y-73925040D01*
X87295818Y-73956109D01*
X87229471Y-73978244D01*
X87080655Y-74070334D01*
X86957016Y-74194189D01*
X86953176Y-74200419D01*
X86953175Y-74200420D01*
X86933780Y-74231885D01*
X86865186Y-74343166D01*
X86862881Y-74350114D01*
X86862881Y-74350115D01*
X86818861Y-74482830D01*
X86810090Y-74509272D01*
X86799500Y-74612634D01*
X86799500Y-75237366D01*
X86799837Y-75240612D01*
X86799837Y-75240616D01*
X86806115Y-75301116D01*
X86810359Y-75342019D01*
X86812540Y-75348555D01*
X86812540Y-75348557D01*
X86850042Y-75460963D01*
X86865744Y-75508029D01*
X86957834Y-75656845D01*
X87046346Y-75745202D01*
X87049423Y-75748274D01*
X87083502Y-75810556D01*
X87078499Y-75881376D01*
X87049578Y-75926465D01*
X86962187Y-76014008D01*
X86962183Y-76014013D01*
X86957016Y-76019189D01*
X86953176Y-76025419D01*
X86953175Y-76025420D01*
X86932379Y-76059158D01*
X86865186Y-76168166D01*
X86862881Y-76175114D01*
X86862881Y-76175115D01*
X86823120Y-76294990D01*
X86810090Y-76334272D01*
X86799500Y-76437634D01*
X86799500Y-77062366D01*
X86799837Y-77065612D01*
X86799837Y-77065616D01*
X86809515Y-77158883D01*
X86810359Y-77167019D01*
X86812540Y-77173555D01*
X86812540Y-77173557D01*
X86840928Y-77258645D01*
X86865744Y-77333029D01*
X86957834Y-77481845D01*
X87081689Y-77605484D01*
X87230666Y-77697314D01*
X87237614Y-77699619D01*
X87237615Y-77699619D01*
X87390241Y-77750244D01*
X87390243Y-77750245D01*
X87396772Y-77752410D01*
X87500134Y-77763000D01*
X88499866Y-77763000D01*
X88503112Y-77762663D01*
X88503116Y-77762663D01*
X88597661Y-77752853D01*
X88597665Y-77752852D01*
X88604519Y-77752141D01*
X88611055Y-77749960D01*
X88611057Y-77749960D01*
X88763581Y-77699074D01*
X88770529Y-77696756D01*
X88919345Y-77604666D01*
X88926510Y-77597489D01*
X89037813Y-77485991D01*
X89042984Y-77480811D01*
X89054057Y-77462848D01*
X89067621Y-77440842D01*
X89134814Y-77331834D01*
X89189910Y-77165728D01*
X89200500Y-77062366D01*
X89200500Y-76437634D01*
X89194634Y-76381101D01*
X89207498Y-76311280D01*
X89256069Y-76259498D01*
X89324925Y-76242195D01*
X89392205Y-76264865D01*
X89409056Y-76279002D01*
X89588194Y-76458140D01*
X89622220Y-76520452D01*
X89624620Y-76558216D01*
X89604341Y-76790000D01*
X89624937Y-77025408D01*
X89626361Y-77030722D01*
X89626361Y-77030723D01*
X89661044Y-77160161D01*
X89686097Y-77253663D01*
X89688419Y-77258643D01*
X89688420Y-77258645D01*
X89719309Y-77324885D01*
X89785965Y-77467829D01*
X89921505Y-77661401D01*
X90088599Y-77828495D01*
X90093107Y-77831652D01*
X90093110Y-77831654D01*
X90265880Y-77952629D01*
X90310208Y-78008086D01*
X90317517Y-78078706D01*
X90285486Y-78142066D01*
X90251790Y-78167605D01*
X90238458Y-78174545D01*
X90229738Y-78180036D01*
X90059433Y-78307905D01*
X90051726Y-78314748D01*
X89904590Y-78468717D01*
X89898104Y-78476727D01*
X89778098Y-78652649D01*
X89773000Y-78661623D01*
X89683338Y-78854783D01*
X89679775Y-78864470D01*
X89624389Y-79064183D01*
X89625912Y-79072607D01*
X89638292Y-79076000D01*
X91473500Y-79076000D01*
X91541621Y-79096002D01*
X91588114Y-79149658D01*
X91599500Y-79202000D01*
X91599500Y-79458000D01*
X91579498Y-79526121D01*
X91525842Y-79572614D01*
X91473500Y-79584000D01*
X89643227Y-79584000D01*
X89619040Y-79591102D01*
X89548043Y-79591102D01*
X89534576Y-79585500D01*
X89534433Y-79585860D01*
X89527068Y-79582944D01*
X89520118Y-79579123D01*
X89512439Y-79577152D01*
X89512438Y-79577151D01*
X89499709Y-79573883D01*
X89481000Y-79567477D01*
X89468950Y-79562262D01*
X89468945Y-79562260D01*
X89461676Y-79559115D01*
X89416680Y-79551988D01*
X89405060Y-79549581D01*
X89368610Y-79540222D01*
X89368605Y-79540221D01*
X89360927Y-79538250D01*
X89339866Y-79538250D01*
X89320154Y-79536699D01*
X89318848Y-79536492D01*
X89299345Y-79533403D01*
X89291454Y-79534149D01*
X89253985Y-79537691D01*
X89242127Y-79538250D01*
X89162706Y-79538250D01*
X89094585Y-79518248D01*
X89055563Y-79478554D01*
X89042166Y-79456905D01*
X88918311Y-79333266D01*
X88769334Y-79241436D01*
X88713834Y-79223027D01*
X88609759Y-79188506D01*
X88609757Y-79188505D01*
X88603228Y-79186340D01*
X88499866Y-79175750D01*
X87500134Y-79175750D01*
X87496888Y-79176087D01*
X87496884Y-79176087D01*
X87402339Y-79185897D01*
X87402335Y-79185898D01*
X87395481Y-79186609D01*
X87388945Y-79188790D01*
X87388943Y-79188790D01*
X87308185Y-79215733D01*
X87229471Y-79241994D01*
X87080655Y-79334084D01*
X86957016Y-79457939D01*
X86865186Y-79606916D01*
X86862881Y-79613864D01*
X86862881Y-79613865D01*
X86827160Y-79721560D01*
X86810090Y-79773022D01*
X86799500Y-79876384D01*
X86799500Y-80417114D01*
X86779498Y-80485235D01*
X86762595Y-80506209D01*
X86715595Y-80553209D01*
X86653283Y-80587235D01*
X86582468Y-80582170D01*
X86525632Y-80539623D01*
X86500821Y-80473103D01*
X86500500Y-80464114D01*
X86500500Y-67126500D01*
X86520502Y-67058379D01*
X86574158Y-67011886D01*
X86626500Y-67000500D01*
X86796790Y-67000500D01*
X86864911Y-67020502D01*
G37*
%TD.AperFunction*%
%TA.AperFunction,Conductor*%
G36*
X93696121Y-79096002D02*
G01*
X93742614Y-79149658D01*
X93754000Y-79202000D01*
X93754000Y-79458000D01*
X93733998Y-79526121D01*
X93680342Y-79572614D01*
X93628000Y-79584000D01*
X93026500Y-79584000D01*
X92958379Y-79563998D01*
X92911886Y-79510342D01*
X92900500Y-79458000D01*
X92900500Y-79202000D01*
X92920502Y-79133879D01*
X92974158Y-79087386D01*
X93026500Y-79076000D01*
X93628000Y-79076000D01*
X93696121Y-79096002D01*
G37*
%TD.AperFunction*%
%TA.AperFunction,Conductor*%
G36*
X110925495Y-74210090D02*
G01*
X110985738Y-74235044D01*
X111103139Y-74250500D01*
X111143586Y-74250500D01*
X112223500Y-74250499D01*
X112291621Y-74270501D01*
X112338114Y-74324157D01*
X112349500Y-74376499D01*
X112349500Y-76636463D01*
X112329498Y-76704584D01*
X112275842Y-76751077D01*
X112205568Y-76761181D01*
X112143185Y-76733548D01*
X112066930Y-76670464D01*
X112066927Y-76670462D01*
X112062180Y-76666535D01*
X111889585Y-76573213D01*
X111795868Y-76544203D01*
X111708039Y-76517015D01*
X111708036Y-76517014D01*
X111702152Y-76515193D01*
X111696027Y-76514549D01*
X111696026Y-76514549D01*
X111513147Y-76495327D01*
X111513146Y-76495327D01*
X111507019Y-76494683D01*
X111384383Y-76505844D01*
X111317759Y-76511907D01*
X111317758Y-76511907D01*
X111311618Y-76512466D01*
X111305704Y-76514207D01*
X111305702Y-76514207D01*
X111284484Y-76520452D01*
X111123393Y-76567864D01*
X111117928Y-76570721D01*
X110954972Y-76655912D01*
X110954968Y-76655915D01*
X110949512Y-76658767D01*
X110944712Y-76662627D01*
X110944711Y-76662627D01*
X110934964Y-76670464D01*
X110796600Y-76781711D01*
X110670480Y-76932016D01*
X110667516Y-76937408D01*
X110667513Y-76937412D01*
X110646575Y-76975499D01*
X110575956Y-77103954D01*
X110516628Y-77290978D01*
X110494757Y-77485963D01*
X110495273Y-77492107D01*
X110495187Y-77498264D01*
X110492392Y-77498225D01*
X110480569Y-77556015D01*
X110430993Y-77606836D01*
X110361812Y-77622787D01*
X110345639Y-77620775D01*
X110318476Y-77615593D01*
X110310787Y-77613875D01*
X110254798Y-77599500D01*
X110246019Y-77599500D01*
X110222409Y-77597268D01*
X110221576Y-77597109D01*
X110213791Y-77595624D01*
X110156142Y-77599251D01*
X110148230Y-77599500D01*
X97036027Y-77599500D01*
X97024387Y-77598951D01*
X97016731Y-77597240D01*
X97008808Y-77597489D01*
X96971364Y-77598666D01*
X96952747Y-77599251D01*
X96946797Y-77599438D01*
X96942839Y-77599500D01*
X96914102Y-77599500D01*
X96909831Y-77600039D01*
X96898003Y-77600971D01*
X96852458Y-77602403D01*
X96844844Y-77604615D01*
X96844839Y-77604616D01*
X96832235Y-77608278D01*
X96812871Y-77612289D01*
X96791969Y-77614929D01*
X96784598Y-77617848D01*
X96784596Y-77617848D01*
X96749607Y-77631702D01*
X96738396Y-77635541D01*
X96694629Y-77648256D01*
X96676494Y-77658981D01*
X96658746Y-77667676D01*
X96639156Y-77675432D01*
X96602289Y-77702218D01*
X96592381Y-77708725D01*
X96559985Y-77727883D01*
X96559980Y-77727887D01*
X96553162Y-77731919D01*
X96538269Y-77746812D01*
X96523235Y-77759653D01*
X96506190Y-77772037D01*
X96501137Y-77778145D01*
X96477148Y-77807143D01*
X96469158Y-77815923D01*
X95062054Y-79223027D01*
X94999742Y-79257053D01*
X94928927Y-79251988D01*
X94872091Y-79209441D01*
X94847383Y-79144254D01*
X94844781Y-79112605D01*
X94843096Y-79102424D01*
X94791214Y-78895875D01*
X94787894Y-78886124D01*
X94702972Y-78690814D01*
X94698105Y-78681739D01*
X94582426Y-78502926D01*
X94576136Y-78494757D01*
X94432806Y-78337240D01*
X94425273Y-78330215D01*
X94258139Y-78198222D01*
X94249557Y-78192520D01*
X94203863Y-78167296D01*
X94153892Y-78116864D01*
X94139120Y-78047421D01*
X94164236Y-77981015D01*
X94192485Y-77953774D01*
X94366890Y-77831654D01*
X94366893Y-77831652D01*
X94371401Y-77828495D01*
X94538495Y-77661401D01*
X94674035Y-77467829D01*
X94740692Y-77324885D01*
X94771580Y-77258645D01*
X94771581Y-77258643D01*
X94773903Y-77253663D01*
X94798957Y-77160161D01*
X94833639Y-77030723D01*
X94833639Y-77030722D01*
X94835063Y-77025408D01*
X94855659Y-76790000D01*
X94844515Y-76662627D01*
X94836185Y-76567412D01*
X94850174Y-76497807D01*
X94872611Y-76467335D01*
X95582698Y-75757248D01*
X95591315Y-75749407D01*
X95597940Y-75745202D01*
X95645850Y-75694183D01*
X95648604Y-75691342D01*
X95668912Y-75671034D01*
X95671554Y-75667628D01*
X95679266Y-75658598D01*
X95705023Y-75631170D01*
X95710448Y-75625393D01*
X95720599Y-75606930D01*
X95731451Y-75590409D01*
X95739503Y-75580029D01*
X95739504Y-75580027D01*
X95744363Y-75573763D01*
X95762455Y-75531954D01*
X95767677Y-75521294D01*
X95785809Y-75488313D01*
X95785809Y-75488312D01*
X95789627Y-75481368D01*
X95794866Y-75460962D01*
X95801270Y-75442259D01*
X95803371Y-75437403D01*
X95809636Y-75422926D01*
X95810876Y-75415100D01*
X95810877Y-75415095D01*
X95816765Y-75377924D01*
X95819171Y-75366304D01*
X95828528Y-75329858D01*
X95828528Y-75329857D01*
X95830500Y-75322177D01*
X95830500Y-75301116D01*
X95832051Y-75281405D01*
X95834107Y-75268424D01*
X95835347Y-75260595D01*
X95831059Y-75215232D01*
X95830500Y-75203375D01*
X95830500Y-74526500D01*
X95850502Y-74458379D01*
X95904158Y-74411886D01*
X95956500Y-74400500D01*
X97886491Y-74400500D01*
X97954612Y-74420502D01*
X98001105Y-74474158D01*
X98011209Y-74544432D01*
X97983013Y-74607491D01*
X97955301Y-74640518D01*
X97920480Y-74682016D01*
X97917516Y-74687408D01*
X97917513Y-74687412D01*
X97838813Y-74830567D01*
X97825956Y-74853954D01*
X97766628Y-75040978D01*
X97744757Y-75235963D01*
X97761175Y-75431483D01*
X97815258Y-75620091D01*
X97818076Y-75625574D01*
X97902123Y-75789113D01*
X97902126Y-75789117D01*
X97904944Y-75794601D01*
X98026818Y-75948369D01*
X98031511Y-75952363D01*
X98031512Y-75952364D01*
X98121742Y-76029155D01*
X98176238Y-76075535D01*
X98181616Y-76078541D01*
X98181618Y-76078542D01*
X98217932Y-76098837D01*
X98347513Y-76171257D01*
X98534118Y-76231889D01*
X98728946Y-76255121D01*
X98735081Y-76254649D01*
X98735083Y-76254649D01*
X98918434Y-76240541D01*
X98918438Y-76240540D01*
X98924576Y-76240068D01*
X99113556Y-76187303D01*
X99288689Y-76098837D01*
X99318515Y-76075535D01*
X99393221Y-76017168D01*
X99443303Y-75978040D01*
X99450721Y-75969447D01*
X99567485Y-75834173D01*
X99567485Y-75834172D01*
X99571509Y-75829511D01*
X99581154Y-75812534D01*
X99644063Y-75701793D01*
X99668425Y-75658909D01*
X99730358Y-75472732D01*
X99754949Y-75278071D01*
X99755341Y-75250000D01*
X99736194Y-75054728D01*
X99734413Y-75048829D01*
X99734412Y-75048824D01*
X99681265Y-74872793D01*
X99679484Y-74866894D01*
X99587370Y-74693653D01*
X99515991Y-74606134D01*
X99488439Y-74540703D01*
X99500635Y-74470762D01*
X99548708Y-74418517D01*
X99613636Y-74400500D01*
X102419000Y-74400500D01*
X102430640Y-74401049D01*
X102438296Y-74402760D01*
X102446219Y-74402511D01*
X102488064Y-74401196D01*
X102556780Y-74419049D01*
X102604935Y-74471217D01*
X102617241Y-74541139D01*
X102611615Y-74566801D01*
X102589332Y-74633982D01*
X102585090Y-74646772D01*
X102574500Y-74750134D01*
X102574500Y-75749866D01*
X102574837Y-75753112D01*
X102574837Y-75753116D01*
X102583591Y-75837477D01*
X102585359Y-75854519D01*
X102587540Y-75861055D01*
X102587540Y-75861057D01*
X102630775Y-75990647D01*
X102640744Y-76020529D01*
X102732834Y-76169345D01*
X102738016Y-76174518D01*
X102750823Y-76187303D01*
X102856689Y-76292984D01*
X102862919Y-76296824D01*
X102862920Y-76296825D01*
X102865162Y-76298207D01*
X103005666Y-76384814D01*
X103012614Y-76387119D01*
X103012615Y-76387119D01*
X103165241Y-76437744D01*
X103165243Y-76437745D01*
X103171772Y-76439910D01*
X103275134Y-76450500D01*
X103899866Y-76450500D01*
X103903112Y-76450163D01*
X103903116Y-76450163D01*
X103997661Y-76440353D01*
X103997665Y-76440352D01*
X104004519Y-76439641D01*
X104011055Y-76437460D01*
X104011057Y-76437460D01*
X104160308Y-76387666D01*
X104170529Y-76384256D01*
X104319345Y-76292166D01*
X104410775Y-76200577D01*
X104473056Y-76166498D01*
X104543876Y-76171501D01*
X104588965Y-76200422D01*
X104676508Y-76287813D01*
X104676513Y-76287817D01*
X104681689Y-76292984D01*
X104687919Y-76296824D01*
X104687920Y-76296825D01*
X104690162Y-76298207D01*
X104830666Y-76384814D01*
X104837614Y-76387119D01*
X104837615Y-76387119D01*
X104990241Y-76437744D01*
X104990243Y-76437745D01*
X104996772Y-76439910D01*
X105100134Y-76450500D01*
X105724866Y-76450500D01*
X105728112Y-76450163D01*
X105728116Y-76450163D01*
X105822661Y-76440353D01*
X105822665Y-76440352D01*
X105829519Y-76439641D01*
X105836055Y-76437460D01*
X105836057Y-76437460D01*
X105985308Y-76387666D01*
X105995529Y-76384256D01*
X106144345Y-76292166D01*
X106267984Y-76168311D01*
X106359814Y-76019334D01*
X106366348Y-75999636D01*
X106370596Y-75986831D01*
X106411027Y-75928472D01*
X106476592Y-75901236D01*
X106490188Y-75900500D01*
X108508162Y-75900500D01*
X108576283Y-75920502D01*
X108622776Y-75974158D01*
X108627686Y-75986625D01*
X108640192Y-76024110D01*
X108731515Y-76171687D01*
X108736694Y-76176857D01*
X108747158Y-76187303D01*
X108854339Y-76294296D01*
X109002075Y-76385362D01*
X109114637Y-76422697D01*
X109160270Y-76437833D01*
X109160272Y-76437833D01*
X109166798Y-76439998D01*
X109173635Y-76440698D01*
X109173637Y-76440699D01*
X109215711Y-76445010D01*
X109269297Y-76450500D01*
X109560239Y-76450500D01*
X109855702Y-76450499D01*
X109959482Y-76439732D01*
X109966013Y-76437553D01*
X109966018Y-76437552D01*
X110080456Y-76399372D01*
X110124110Y-76384808D01*
X110271687Y-76293485D01*
X110325011Y-76240068D01*
X110389124Y-76175842D01*
X110394296Y-76170661D01*
X110451079Y-76078542D01*
X110481522Y-76029155D01*
X110481523Y-76029153D01*
X110485362Y-76022925D01*
X110539998Y-75858202D01*
X110542122Y-75837477D01*
X110546019Y-75799434D01*
X110550500Y-75755703D01*
X110550499Y-74744298D01*
X110539732Y-74640518D01*
X110537553Y-74633987D01*
X110537552Y-74633982D01*
X110498229Y-74516117D01*
X110484808Y-74475890D01*
X110480958Y-74469669D01*
X110480956Y-74469664D01*
X110433393Y-74392803D01*
X110414555Y-74324351D01*
X110435716Y-74256581D01*
X110490157Y-74211010D01*
X110540537Y-74200500D01*
X110877279Y-74200500D01*
X110925495Y-74210090D01*
G37*
%TD.AperFunction*%
%TA.AperFunction,Conductor*%
G36*
X117409690Y-75170502D02*
G01*
X117456183Y-75224158D01*
X117466287Y-75294432D01*
X117448829Y-75342616D01*
X117387997Y-75441303D01*
X117334737Y-75601876D01*
X117334037Y-75608712D01*
X117334036Y-75608715D01*
X117332309Y-75625574D01*
X117324500Y-75701793D01*
X117324501Y-76298206D01*
X117334997Y-76399372D01*
X117388537Y-76559852D01*
X117477560Y-76703711D01*
X117597289Y-76823231D01*
X117741303Y-76912003D01*
X117901876Y-76965263D01*
X117908712Y-76965963D01*
X117908715Y-76965964D01*
X117958797Y-76971095D01*
X118001793Y-76975500D01*
X118272893Y-76975500D01*
X118548206Y-76975499D01*
X118551450Y-76975162D01*
X118551458Y-76975162D01*
X118595880Y-76970553D01*
X118649372Y-76965003D01*
X118809852Y-76911463D01*
X118953711Y-76822440D01*
X119073231Y-76702711D01*
X119077072Y-76696480D01*
X119158163Y-76564927D01*
X119158164Y-76564925D01*
X119162003Y-76558697D01*
X119215263Y-76398124D01*
X119216335Y-76387666D01*
X119222474Y-76327741D01*
X119225500Y-76298207D01*
X119225499Y-76021636D01*
X119245501Y-75953517D01*
X119262404Y-75932542D01*
X119284405Y-75910541D01*
X119346717Y-75876515D01*
X119417532Y-75881580D01*
X119474368Y-75924127D01*
X119499179Y-75990647D01*
X119499500Y-75999636D01*
X119499500Y-78373839D01*
X119479498Y-78441960D01*
X119425842Y-78488453D01*
X119355969Y-78498499D01*
X119353228Y-78497590D01*
X119346388Y-78496889D01*
X119346387Y-78496889D01*
X119318904Y-78494073D01*
X119249866Y-78487000D01*
X118250134Y-78487000D01*
X118246888Y-78487337D01*
X118246884Y-78487337D01*
X118152339Y-78497147D01*
X118152335Y-78497148D01*
X118145481Y-78497859D01*
X118138947Y-78500039D01*
X118138942Y-78500040D01*
X118066376Y-78524250D01*
X117995426Y-78526834D01*
X117934342Y-78490650D01*
X117902518Y-78427186D01*
X117900500Y-78404726D01*
X117900500Y-78116001D01*
X117901049Y-78104360D01*
X117902760Y-78096704D01*
X117900562Y-78026756D01*
X117900500Y-78022799D01*
X117900500Y-77994075D01*
X117899962Y-77989812D01*
X117899029Y-77977973D01*
X117897847Y-77940357D01*
X117897598Y-77932431D01*
X117891720Y-77912197D01*
X117887711Y-77892838D01*
X117886065Y-77879811D01*
X117885071Y-77871942D01*
X117882152Y-77864570D01*
X117882151Y-77864565D01*
X117868302Y-77829586D01*
X117864458Y-77818359D01*
X117853956Y-77782214D01*
X117853955Y-77782211D01*
X117851744Y-77774602D01*
X117841018Y-77756464D01*
X117832323Y-77738716D01*
X117831852Y-77737525D01*
X117824568Y-77719129D01*
X117797782Y-77682262D01*
X117791275Y-77672354D01*
X117772117Y-77639958D01*
X117772113Y-77639953D01*
X117768081Y-77633135D01*
X117753188Y-77618242D01*
X117740347Y-77603208D01*
X117732623Y-77592577D01*
X117727963Y-77586163D01*
X117692856Y-77557120D01*
X117684077Y-77549131D01*
X116402405Y-76267459D01*
X116368379Y-76205147D01*
X116365500Y-76178364D01*
X116365500Y-75276500D01*
X116385502Y-75208379D01*
X116439158Y-75161886D01*
X116491500Y-75150500D01*
X117341569Y-75150500D01*
X117409690Y-75170502D01*
G37*
%TD.AperFunction*%
%TA.AperFunction,Conductor*%
G36*
X115070011Y-70491016D02*
G01*
X115106441Y-70516387D01*
X115292752Y-70702698D01*
X115300593Y-70711315D01*
X115304798Y-70717940D01*
X115310577Y-70723367D01*
X115310578Y-70723368D01*
X115355816Y-70765849D01*
X115358658Y-70768604D01*
X115378965Y-70788911D01*
X115382096Y-70791340D01*
X115382102Y-70791345D01*
X115382377Y-70791558D01*
X115391390Y-70799255D01*
X115424607Y-70830448D01*
X115431554Y-70834267D01*
X115443066Y-70840596D01*
X115459590Y-70851450D01*
X115476236Y-70864362D01*
X115518045Y-70882454D01*
X115528693Y-70887670D01*
X115568632Y-70909627D01*
X115576311Y-70911598D01*
X115576312Y-70911599D01*
X115589041Y-70914867D01*
X115607750Y-70921273D01*
X115619794Y-70926485D01*
X115619797Y-70926486D01*
X115627074Y-70929635D01*
X115672062Y-70936761D01*
X115683684Y-70939168D01*
X115720138Y-70948528D01*
X115720147Y-70948529D01*
X115727823Y-70950500D01*
X115748890Y-70950500D01*
X115768602Y-70952051D01*
X115789405Y-70955346D01*
X115797297Y-70954600D01*
X115834756Y-70951059D01*
X115846614Y-70950500D01*
X116276729Y-70950500D01*
X116344850Y-70970502D01*
X116391343Y-71024158D01*
X116401447Y-71094432D01*
X116376691Y-71153204D01*
X116347997Y-71190598D01*
X116347993Y-71190605D01*
X116342964Y-71197159D01*
X116282456Y-71343238D01*
X116267000Y-71460639D01*
X116267001Y-71739360D01*
X116267539Y-71743444D01*
X116267539Y-71743450D01*
X116281378Y-71848574D01*
X116282456Y-71856762D01*
X116285616Y-71864390D01*
X116290748Y-71876780D01*
X116298338Y-71947369D01*
X116290749Y-71973217D01*
X116282456Y-71993238D01*
X116267000Y-72110639D01*
X116267001Y-72389360D01*
X116267539Y-72393444D01*
X116267539Y-72393450D01*
X116276645Y-72462620D01*
X116282456Y-72506762D01*
X116285616Y-72514390D01*
X116290748Y-72526780D01*
X116298338Y-72597369D01*
X116290749Y-72623217D01*
X116282456Y-72643238D01*
X116267000Y-72760639D01*
X116267000Y-72773500D01*
X116246998Y-72841621D01*
X116193342Y-72888114D01*
X116141000Y-72899500D01*
X115866480Y-72899500D01*
X115854840Y-72898951D01*
X115847184Y-72897240D01*
X115839261Y-72897489D01*
X115801817Y-72898666D01*
X115783232Y-72899250D01*
X115777250Y-72899438D01*
X115773292Y-72899500D01*
X115744555Y-72899500D01*
X115740284Y-72900039D01*
X115728456Y-72900971D01*
X115682911Y-72902403D01*
X115675297Y-72904615D01*
X115675292Y-72904616D01*
X115662688Y-72908278D01*
X115643324Y-72912289D01*
X115622422Y-72914929D01*
X115615051Y-72917848D01*
X115615049Y-72917848D01*
X115580060Y-72931702D01*
X115568849Y-72935541D01*
X115525082Y-72948256D01*
X115512718Y-72955568D01*
X115506947Y-72958981D01*
X115489199Y-72967676D01*
X115469609Y-72975432D01*
X115432742Y-73002218D01*
X115422834Y-73008725D01*
X115390438Y-73027883D01*
X115390433Y-73027887D01*
X115383615Y-73031919D01*
X115368722Y-73046812D01*
X115353688Y-73059653D01*
X115349639Y-73062595D01*
X115336643Y-73072037D01*
X115331590Y-73078145D01*
X115307601Y-73107143D01*
X115299611Y-73115923D01*
X115115595Y-73299939D01*
X115053283Y-73333965D01*
X114982468Y-73328900D01*
X114925632Y-73286353D01*
X114900821Y-73219833D01*
X114900500Y-73210844D01*
X114900500Y-70828499D01*
X114901049Y-70816859D01*
X114902760Y-70809203D01*
X114900562Y-70739268D01*
X114900500Y-70735311D01*
X114900500Y-70706575D01*
X114899961Y-70702307D01*
X114899028Y-70690464D01*
X114898548Y-70675172D01*
X114897597Y-70644930D01*
X114895385Y-70637315D01*
X114894145Y-70629489D01*
X114896382Y-70629135D01*
X114896550Y-70569643D01*
X114935102Y-70510026D01*
X114999766Y-70480715D01*
X115070011Y-70491016D01*
G37*
%TD.AperFunction*%
%TA.AperFunction,Conductor*%
G36*
X110619850Y-72270502D02*
G01*
X110666343Y-72324158D01*
X110676447Y-72394432D01*
X110651691Y-72453204D01*
X110622997Y-72490598D01*
X110622993Y-72490605D01*
X110617964Y-72497159D01*
X110557456Y-72643238D01*
X110542000Y-72760639D01*
X110542000Y-72773500D01*
X110521998Y-72841621D01*
X110468342Y-72888114D01*
X110416000Y-72899500D01*
X104574636Y-72899500D01*
X104506515Y-72879498D01*
X104460022Y-72825842D01*
X104449918Y-72755568D01*
X104479412Y-72690988D01*
X104485541Y-72684405D01*
X104882541Y-72287405D01*
X104944853Y-72253379D01*
X104971636Y-72250500D01*
X110551729Y-72250500D01*
X110619850Y-72270502D01*
G37*
%TD.AperFunction*%
%TA.AperFunction,Conductor*%
G36*
X113203864Y-70624943D02*
G01*
X113223581Y-70641027D01*
X113562595Y-70980041D01*
X113596621Y-71042353D01*
X113599500Y-71069136D01*
X113599500Y-72209051D01*
X113579498Y-72277172D01*
X113525842Y-72323665D01*
X113455568Y-72333769D01*
X113423461Y-72324689D01*
X113406952Y-72317545D01*
X113396307Y-72312330D01*
X113356368Y-72290373D01*
X113348689Y-72288402D01*
X113348688Y-72288401D01*
X113335959Y-72285133D01*
X113317250Y-72278727D01*
X113305200Y-72273512D01*
X113305195Y-72273510D01*
X113297926Y-72270365D01*
X113252930Y-72263238D01*
X113241310Y-72260831D01*
X113204860Y-72251472D01*
X113204855Y-72251471D01*
X113197177Y-72249500D01*
X113176116Y-72249500D01*
X113156404Y-72247949D01*
X113155098Y-72247742D01*
X113135595Y-72244653D01*
X113127704Y-72245399D01*
X113090235Y-72248941D01*
X113078377Y-72249500D01*
X113008271Y-72249500D01*
X112940150Y-72229498D01*
X112893657Y-72175842D01*
X112883553Y-72105568D01*
X112908309Y-72046796D01*
X112937006Y-72009397D01*
X112937008Y-72009394D01*
X112942036Y-72002841D01*
X113002544Y-71856762D01*
X113018000Y-71739361D01*
X113017999Y-71460640D01*
X113012716Y-71420502D01*
X113003622Y-71351425D01*
X113003622Y-71351423D01*
X113002544Y-71343238D01*
X112994252Y-71323219D01*
X112986662Y-71252631D01*
X112994252Y-71226780D01*
X112999384Y-71214391D01*
X113002544Y-71206762D01*
X113018000Y-71089361D01*
X113017999Y-70810640D01*
X113009564Y-70746566D01*
X113020504Y-70676419D01*
X113067632Y-70623321D01*
X113135986Y-70604131D01*
X113203864Y-70624943D01*
G37*
%TD.AperFunction*%
%TA.AperFunction,Conductor*%
G36*
X110766621Y-64920502D02*
G01*
X110813114Y-64974158D01*
X110824500Y-65026500D01*
X110824501Y-65394091D01*
X110824501Y-65548206D01*
X110824838Y-65551450D01*
X110824838Y-65551458D01*
X110826837Y-65570721D01*
X110834997Y-65649372D01*
X110888537Y-65809852D01*
X110977560Y-65953711D01*
X111097289Y-66073231D01*
X111103519Y-66077071D01*
X111103520Y-66077072D01*
X111167062Y-66116240D01*
X111214556Y-66169013D01*
X111225979Y-66239084D01*
X111197705Y-66304208D01*
X111138710Y-66343707D01*
X111100946Y-66349500D01*
X109593287Y-66349500D01*
X109525166Y-66329498D01*
X109478673Y-66275842D01*
X109472665Y-66259918D01*
X109462274Y-66225499D01*
X109429484Y-66116894D01*
X109337370Y-65943653D01*
X109213361Y-65791602D01*
X109062180Y-65666535D01*
X108889585Y-65573213D01*
X108795869Y-65544203D01*
X108708039Y-65517015D01*
X108708036Y-65517014D01*
X108702152Y-65515193D01*
X108696027Y-65514549D01*
X108696026Y-65514549D01*
X108513147Y-65495327D01*
X108513146Y-65495327D01*
X108507019Y-65494683D01*
X108393545Y-65505010D01*
X108317759Y-65511907D01*
X108317758Y-65511907D01*
X108311618Y-65512466D01*
X108305704Y-65514207D01*
X108305702Y-65514207D01*
X108201285Y-65544939D01*
X108123393Y-65567864D01*
X108117928Y-65570721D01*
X107954972Y-65655912D01*
X107954968Y-65655915D01*
X107949512Y-65658767D01*
X107944712Y-65662627D01*
X107944711Y-65662627D01*
X107910326Y-65690273D01*
X107796600Y-65781711D01*
X107670480Y-65932016D01*
X107667516Y-65937408D01*
X107667513Y-65937412D01*
X107600962Y-66058469D01*
X107575956Y-66103954D01*
X107574095Y-66109821D01*
X107574094Y-66109823D01*
X107557542Y-66162003D01*
X107516628Y-66290978D01*
X107494757Y-66485963D01*
X107511175Y-66681483D01*
X107565258Y-66870091D01*
X107568076Y-66875574D01*
X107652123Y-67039113D01*
X107652126Y-67039117D01*
X107654944Y-67044601D01*
X107776818Y-67198369D01*
X107926238Y-67325535D01*
X107931616Y-67328541D01*
X107931618Y-67328542D01*
X107994190Y-67363512D01*
X108043896Y-67414205D01*
X108058304Y-67483724D01*
X108032841Y-67549997D01*
X107975589Y-67591983D01*
X107932720Y-67599500D01*
X107330999Y-67599500D01*
X107319359Y-67598951D01*
X107311703Y-67597240D01*
X107303780Y-67597489D01*
X107286753Y-67598024D01*
X107218038Y-67580171D01*
X107169883Y-67528002D01*
X107157355Y-67483945D01*
X107156059Y-67470236D01*
X107155500Y-67458377D01*
X107155500Y-65026500D01*
X107175502Y-64958379D01*
X107229158Y-64911886D01*
X107281500Y-64900500D01*
X110698500Y-64900500D01*
X110766621Y-64920502D01*
G37*
%TD.AperFunction*%
%TA.AperFunction,Conductor*%
G36*
X119441621Y-63020502D02*
G01*
X119488114Y-63074158D01*
X119499500Y-63126500D01*
X119499500Y-67275364D01*
X119479498Y-67343485D01*
X119425842Y-67389978D01*
X119355568Y-67400082D01*
X119290988Y-67370588D01*
X119284405Y-67364459D01*
X119267248Y-67347302D01*
X119259407Y-67338685D01*
X119255202Y-67332060D01*
X119244002Y-67321542D01*
X119204184Y-67284151D01*
X119201342Y-67281396D01*
X119181035Y-67261089D01*
X119177904Y-67258660D01*
X119177898Y-67258655D01*
X119177623Y-67258442D01*
X119168610Y-67250745D01*
X119135393Y-67219552D01*
X119126071Y-67214427D01*
X119116934Y-67209404D01*
X119100410Y-67198550D01*
X119090027Y-67190496D01*
X119090026Y-67190495D01*
X119083764Y-67185638D01*
X119041952Y-67167545D01*
X119031307Y-67162330D01*
X118991368Y-67140373D01*
X118983689Y-67138402D01*
X118983688Y-67138401D01*
X118970959Y-67135133D01*
X118952250Y-67128727D01*
X118940200Y-67123512D01*
X118940195Y-67123510D01*
X118932926Y-67120365D01*
X118887930Y-67113238D01*
X118876310Y-67110831D01*
X118839860Y-67101472D01*
X118839855Y-67101471D01*
X118832177Y-67099500D01*
X118811116Y-67099500D01*
X118791404Y-67097949D01*
X118790098Y-67097742D01*
X118770595Y-67094653D01*
X118762704Y-67095399D01*
X118725235Y-67098941D01*
X118713377Y-67099500D01*
X118296636Y-67099500D01*
X118228515Y-67079498D01*
X118207541Y-67062595D01*
X117477347Y-66332401D01*
X117443321Y-66270089D01*
X117446849Y-66203640D01*
X117465263Y-66148124D01*
X117475500Y-66048207D01*
X117475499Y-65501794D01*
X117474820Y-65495242D01*
X117465714Y-65407485D01*
X117465003Y-65400628D01*
X117411463Y-65240148D01*
X117322440Y-65096289D01*
X117202711Y-64976769D01*
X117058697Y-64887997D01*
X116898124Y-64834737D01*
X116891288Y-64834037D01*
X116891285Y-64834036D01*
X116841203Y-64828905D01*
X116798207Y-64824500D01*
X116502300Y-64824500D01*
X116201794Y-64824501D01*
X116198550Y-64824838D01*
X116198542Y-64824838D01*
X116154120Y-64829447D01*
X116100628Y-64834997D01*
X115940148Y-64888537D01*
X115796289Y-64977560D01*
X115676769Y-65097289D01*
X115587997Y-65241303D01*
X115534737Y-65401876D01*
X115524500Y-65501793D01*
X115524501Y-65670465D01*
X115524501Y-65800365D01*
X115504499Y-65868485D01*
X115450844Y-65914978D01*
X115380570Y-65925083D01*
X115315989Y-65895590D01*
X115309406Y-65889460D01*
X114687405Y-65267459D01*
X114653379Y-65205147D01*
X114650500Y-65178364D01*
X114650500Y-63323398D01*
X114652732Y-63299788D01*
X114652891Y-63298955D01*
X114654376Y-63291170D01*
X114650749Y-63233520D01*
X114650500Y-63225609D01*
X114650500Y-63209075D01*
X114648426Y-63192659D01*
X114647686Y-63184830D01*
X114644513Y-63134408D01*
X114660200Y-63065167D01*
X114710831Y-63015398D01*
X114770265Y-63000500D01*
X119373500Y-63000500D01*
X119441621Y-63020502D01*
G37*
%TD.AperFunction*%
%TD*%
M02*
